<?xml version="1.0" encoding="utf-8"?>
<!-- Generator: Adobe Illustrator 26.0.1, SVG Export Plug-In . SVG Version: 6.00 Build 0)  -->
<svg version="1.1" id="Layer_1" xmlns="http://www.w3.org/2000/svg" xmlns:xlink="http://www.w3.org/1999/xlink" x="0px" y="0px"
	 viewBox="0 0 23 22" style="enable-background:new 0 0 23 22;" xml:space="preserve">
<style type="text/css">
	.st0{fill:none;stroke:#386A89;stroke-width:2.25;}
	.st1{fill:#386A89;}
</style>
<circle class="st0" cx="11.5" cy="6.8" r="5.4"/>
<path class="st1" d="M5.6,9.8l0.5-0.3L5.9,9.1L5.5,9.2L5.6,9.8z M17.4,9.8l0.2-0.5l-0.5-0.2l-0.2,0.4L17.4,9.8z M16.7,10.8l-0.4-0.3
	l-0.5,0.7l0.8,0.2L16.7,10.8z M6.3,10.8l0.1,0.5l0.8-0.2l-0.5-0.7L6.3,10.8z M5.5,9.2c-2.9,1-5,3.7-5,6.9h1.1c0-2.7,1.8-5.1,4.3-5.9
	L5.5,9.2z M0.4,16.2V19h1.1v-2.8H0.4z M0.4,19c0,1.6,1.3,2.8,2.8,2.8v-1.1c-0.9,0-1.7-0.8-1.7-1.7H0.4z M3.2,21.8h16.5v-1.1H3.2
	V21.8z M19.8,21.8c1.6,0,2.8-1.3,2.8-2.8h-1.1c0,0.9-0.8,1.7-1.7,1.7V21.8z M22.6,19v-2.8h-1.1V19H22.6z M22.6,16.2
	c0-3.2-2.1-6-5-6.9l-0.4,1.1c2.5,0.8,4.3,3.1,4.3,5.9H22.6z M16.9,9.5c-0.2,0.3-0.4,0.6-0.6,0.9l0.9,0.7c0.3-0.3,0.5-0.7,0.7-1.1
	L16.9,9.5z M21.4,16.2c0-2.9-1.9-5.2-4.5-6l-0.3,1.1c2.1,0.6,3.7,2.6,3.7,4.9H21.4z M21.4,19v-2.8h-1.1V19H21.4z M19.8,20.7
	c0.9,0,1.7-0.8,1.7-1.7h-1.1c0,0.3-0.3,0.6-0.6,0.6V20.7z M3.2,20.7h16.5v-1.1H3.2V20.7z M1.6,19c0,0.9,0.8,1.7,1.7,1.7v-1.1
	c-0.3,0-0.6-0.3-0.6-0.6H1.6z M1.6,16.2V19h1.1v-2.8H1.6z M6.1,10.2c-2.6,0.7-4.5,3.1-4.5,6h1.1c0-2.3,1.6-4.3,3.7-4.9L6.1,10.2z
	 M6.7,10.4c-0.2-0.3-0.4-0.6-0.6-0.9l-1,0.5c0.2,0.4,0.4,0.7,0.7,1.1L6.7,10.4z"/>
</svg>
