<?xml version="1.0" encoding="utf-8"?>
<!-- Generator: Adobe Illustrator 26.0.1, SVG Export Plug-In . SVG Version: 6.00 Build 0)  -->
<svg version="1.1" id="Layer_1" xmlns="http://www.w3.org/2000/svg" xmlns:xlink="http://www.w3.org/1999/xlink" x="0px" y="0px"
	 viewBox="0 0 23 24" style="enable-background:new 0 0 23 24;" xml:space="preserve">
<style type="text/css">
	.st0{fill:#386A89;}
</style>
<path class="st0" d="M9.7,15.6l-0.4-0.9l0,0l0,0L9.7,15.6z M9.7,15.6l0.4,0.9l0,0l0,0L9.7,15.6z M13.3,15.6l-0.5,0.8l0,0L13.3,15.6z
	 M9.4,15.8l-0.4-0.9L9.4,15.8z M1.4,11.6l0.7,0.7L1.4,11.6z M13.6,15.8l-0.4,0.9L13.6,15.8z M21.7,11.8l0.7-0.7L21.7,11.8z
	 M11.9,1.4l-0.7,0.7L11.9,1.4z M11.1,1.4l0.7,0.7L11.1,1.4z M11,2l10,10.5l1.4-1.3L12.6,0.7L11,2z M2.1,12.3l9.8-10.2l-1.4-1.3
	L0.7,11L2.1,12.3z M2.2,15.7V12h-2v3.7H2.2z M2.2,16.7v-1h-2v1H2.2z M2.2,22v-5.4h-2V22H2.2z M8.6,21.5H1.7v2h6.8V21.5z M8.1,16.2
	V22h2v-5.8H8.1z M9.2,14.8c-0.1,0.1-0.2,0.1-0.3,0.1l0.9,1.7c0.1-0.1,0.3-0.1,0.3-0.2L9.2,14.8z M9.2,14.7L9.2,14.7l0.9,1.7l0,0
	L9.2,14.7z M13.8,14.8c-0.2-0.1-0.5-0.3-0.9-0.4c-0.4-0.1-0.8-0.2-1.4-0.2v2c0.5,0,0.8,0,0.9,0.1c0.1,0,0.2,0.1,0.4,0.2L13.8,14.8z
	 M14.1,14.9c-0.1,0-0.2-0.1-0.3-0.1l-1,1.7c0.1,0.1,0.2,0.1,0.3,0.2L14.1,14.9z M14.9,22v-5.8h-2V22H14.9z M21.3,21.5h-6.8v2h6.8
	V21.5z M20.8,16.7V22h2v-5.4H20.8z M20.8,15.7v1h2v-1H20.8z M20.8,11.8v3.9h2v-3.9H20.8z M21.3,23.5c0.8,0,1.5-0.7,1.5-1.5h-2
	c0-0.3,0.2-0.5,0.5-0.5V23.5z M10,16.2c0,0.2-0.1,0.3-0.2,0.4l-0.9-1.7c-0.5,0.2-0.8,0.7-0.8,1.3H10z M13,22c0,0.8,0.7,1.5,1.5,1.5
	v-2c0.3,0,0.5,0.2,0.5,0.5H13z M0.7,11c-0.3,0.3-0.4,0.6-0.4,1h2c0,0.1,0,0.2-0.1,0.3L0.7,11z M22.7,11.8c0-0.5-0.4-1-1-1v2
	c-0.5,0-1-0.4-1-1H22.7z M8.6,23.5c0.8,0,1.5-0.7,1.5-1.5h-2c0-0.3,0.2-0.5,0.5-0.5V23.5z M13.2,16.7c-0.1-0.1-0.2-0.2-0.2-0.4h2
	c0-0.6-0.4-1.1-0.8-1.3L13.2,16.7z M21,12.5c0.2,0.2,0.4,0.3,0.7,0.3v-2c0.3,0,0.5,0.1,0.7,0.3L21,12.5z M0.3,22
	c0,0.8,0.7,1.5,1.5,1.5v-2c0.3,0,0.5,0.2,0.5,0.5H0.3z M12.6,0.7c-0.6-0.6-1.5-0.6-2.1,0l1.4,1.3c-0.2,0.2,1-0.8,0.8-1L12.6,0.7z"/>
<path class="st0" d="M10.1,16.5c0.2-0.1,0.3-0.2,0.4-0.2c0.2,0,0.4-0.1,0.9-0.1v-2c-0.6,0-1.1,0-1.4,0.2c-0.4,0.1-0.7,0.3-0.9,0.4
	L10.1,16.5z"/>
</svg>
