<?xml version="1.0" encoding="utf-8"?>
<!-- Generator: Adobe Illustrator 26.0.1, SVG Export Plug-In . SVG Version: 6.00 Build 0)  -->
<svg version="1.1" id="Layer_1" xmlns="http://www.w3.org/2000/svg" xmlns:xlink="http://www.w3.org/1999/xlink" x="0px" y="0px"
	 viewBox="0 0 23 23" style="enable-background:new 0 0 23 23;" xml:space="preserve">
<style type="text/css">
	.st0{fill:none;stroke:#386A89;stroke-width:2;}
</style>
<path class="st0" d="M2.1,13.1l1.3,0c0.2,1,0.6,2,1.2,3l-1,0.9c-0.3,0.3-0.3,0.9,0,1.2l1,1c0.3,0.3,0.9,0.3,1.2,0l1-0.9
	c0.9,0.6,1.9,1,3,1.2l0,1.3c0,0.5,0.4,0.9,0.9,0.9l1.5,0c0.5,0,0.9-0.4,0.9-0.9l0-1.3c1-0.2,2-0.6,3-1.2l0.9,1
	c0.3,0.3,0.9,0.3,1.2,0l1-1c0.3-0.3,0.3-0.9,0-1.2l-0.9-1c0.6-0.9,1-1.9,1.2-3l1.3,0c0.5,0,0.9-0.4,0.9-0.9l0-1.5
	c0-0.5-0.4-0.9-0.9-0.9l-1.3,0c-0.2-1-0.6-2-1.2-3l1-0.9c0.3-0.3,0.3-0.9,0-1.2l-1-1c-0.3-0.3-0.9-0.3-1.2,0l-1,0.9
	c-0.9-0.6-1.9-1-3-1.2l0-1.3c0-0.5-0.4-0.9-0.9-0.9l-1.5,0c-0.5,0-0.9,0.4-0.9,0.9l0,1.3C8.9,3.6,7.9,4,7,4.6L6,3.7
	c-0.3-0.3-0.9-0.3-1.2,0l-1,1C3.4,5,3.4,5.6,3.7,5.9l0.9,1c-0.6,0.9-1,1.9-1.2,3l-1.3,0c-0.5,0-0.9,0.4-0.9,0.9l0,1.5
	C1.2,12.7,1.6,13.1,2.1,13.1z M8.7,8.7c1.5-1.5,4-1.5,5.5,0c1.5,1.5,1.5,4,0,5.5s-4,1.5-5.5,0C7.2,12.7,7.2,10.2,8.7,8.7z"/>
</svg>
