<svg width="32" height="31" viewBox="0 0 32 31" fill="none" xmlns="http://www.w3.org/2000/svg">
<circle cx="16.0491" cy="9.25373" r="8.11873" stroke="#21506E" stroke-width="2.27"/>
<path fill-rule="evenodd" clip-rule="evenodd" d="M8.08559 13.9697C3.9557 14.9141 0 19.7632 0 23.8841V25.3891C0 26.8772 0.59115 28.3044 1.6434 29.3566C2.69565 30.4089 4.12281 31 5.61092 31H26.2954C27.781 30.9974 29.2048 30.4058 30.2548 29.3549C31.3048 28.304 31.8951 26.8796 31.8965 25.3941V23.8841C31.8965 19.6764 28.1971 14.7095 24.0448 13.9153C23.574 14.721 22.985 15.4491 22.3015 16.0758H22.9107C24.3112 16.0758 25.9825 16.9524 27.4026 18.6043C28.8109 20.2426 29.6265 22.2561 29.6265 23.8841V25.3921C29.6257 26.2766 29.2742 27.1247 28.649 27.7505C28.0242 28.3758 27.1772 28.728 26.2933 28.73H5.61092C4.72486 28.73 3.87508 28.378 3.24853 27.7515C2.62199 27.1249 2.27 26.2752 2.27 25.3891V23.8841C2.27 22.3316 3.14684 20.3366 4.69174 18.6655C6.2455 16.985 8.0579 16.0758 9.49071 16.0758H9.79677C9.12871 15.4632 8.5509 14.7538 8.08559 13.9697Z" fill="#21506E"/>
</svg>
