<svg width="21" height="24" viewBox="0 0 21 24" fill="none" xmlns="http://www.w3.org/2000/svg">
<path d="M19.6501 5.91332V2.15473C19.6501 1.41451 19.05 0.814453 18.3098 0.814453H2.67328C1.93307 0.814453 1.33301 1.41451 1.33301 2.15473V21.8121C1.33301 22.5523 1.93307 23.1523 2.67328 23.1523H18.3098C19.05 23.1523 19.6501 22.5523 19.6501 21.8121V18.7819" stroke="#4E5974" stroke-width="1.34027" stroke-linecap="round" stroke-linejoin="round"/>
<path fill-rule="evenodd" clip-rule="evenodd" d="M11.2801 5.91992L17.2988 11.9387C17.5201 12.16 17.5201 12.5189 17.2988 12.7402L11.3077 18.7313C11.0863 18.9527 10.7274 18.9527 10.5061 18.7313C10.2848 18.51 10.2848 18.1511 10.5061 17.9298L15.5297 12.9062L4.0835 12.9062V11.7727L15.5297 11.7727L10.4785 6.72148C10.2572 6.50013 10.2572 6.14126 10.4785 5.91992C10.6999 5.69857 11.0587 5.69857 11.2801 5.91992Z" fill="#4E5974"/>
<circle cx="4.08373" cy="12.3396" r="0.56615" fill="#4E5974"/>
</svg>
