<svg width="32" height="35" viewBox="0 0 32 35" fill="none" xmlns="http://www.w3.org/2000/svg">
<path d="M22.2944 28.6373C21.8973 29.9 21.1051 31.004 20.0331 31.7886C18.961 32.5732 17.665 32.9976 16.3335 33C15.002 33.0025 13.7044 32.5828 12.6294 31.8022C11.5545 31.0215 10.7582 29.9205 10.3564 28.6592" stroke="#21506E" stroke-width="2.27" stroke-miterlimit="10"/>
<path d="M30.4872 25.1469C30.0056 23.5274 28.4033 22.4859 27.6618 20.9595C26.1702 17.9471 25.7313 15.7116 25.3925 11.2575C25.0963 7.33475 22.3839 4.40699 17.9561 3.77402C17.9561 3.7218 17.9561 3.66888 17.9561 3.61525C17.9561 3.40313 17.914 3.19309 17.8323 2.99712C17.7506 2.80115 17.6309 2.62308 17.4799 2.4731C17.3289 2.32311 17.1497 2.20413 16.9525 2.12295C16.7552 2.04178 16.5438 2 16.3303 2C16.1168 2 15.9054 2.04178 15.7082 2.12295C15.5109 2.20413 15.3317 2.32311 15.1807 2.4731C15.0297 2.62308 14.91 2.80115 14.8283 2.99712C14.7466 3.19309 14.7045 3.40313 14.7045 3.61525C14.7013 3.66883 14.7013 3.72255 14.7045 3.77613C10.2725 4.41122 7.5579 7.33475 7.25959 11.2596C6.92293 15.7052 6.47759 17.9492 4.99244 20.9617C4.23814 22.488 2.64859 23.5359 2.15638 25.149C1.65778 26.813 2.29701 29.1522 4.8646 29.1522H27.7769C30.3444 29.1501 30.9858 26.8108 30.4872 25.1469Z" stroke="#21506E" stroke-width="2.27" stroke-linecap="round" stroke-linejoin="round"/>
</svg>
