<svg width="32" height="33" viewBox="0 0 32 33" fill="none" xmlns="http://www.w3.org/2000/svg">
<path d="M30.0467 31.5C30.0467 31.5 24.5685 26.788 21.3604 23.525" stroke="#21506E" stroke-width="2.26811" stroke-linecap="round"/>
<path d="M26.1257 15.7118C25.4396 22.5251 19.4776 27.4441 12.8165 26.7075C6.15533 25.971 1.30456 19.8564 1.99073 13.043C2.6769 6.22969 8.63885 1.31073 15.3 2.04729C21.9611 2.78385 26.8119 8.89845 26.1257 15.7118Z" stroke="#383F51" stroke-width="0.378217"/>
<path d="M12.9111 25.7699C19.071 26.451 24.5783 21.9025 25.2119 15.6105C25.8456 9.31854 21.3657 3.66569 15.2058 2.98455C9.04585 2.30342 3.53856 6.85191 2.90489 13.1439C2.27123 19.4359 6.75114 25.0888 12.9111 25.7699Z" stroke="#21506E" stroke-width="2.2693"/>
</svg>
