<svg width="19" height="19" viewBox="0 0 19 19" fill="none" xmlns="http://www.w3.org/2000/svg">
<path d="M16.4726 10.7178C16.5077 10.4396 16.5311 10.1504 16.5311 9.85C16.5311 9.54963 16.5077 9.26037 16.461 8.98225L18.4351 7.51374C18.6103 7.38024 18.6571 7.13549 18.5519 6.94636L16.6829 3.86472C16.5661 3.66447 16.3208 3.59772 16.1105 3.66447L13.7859 4.55447C13.2953 4.19847 12.7814 3.90922 12.209 3.68672L11.8585 1.3282C11.8235 1.1057 11.6249 0.949951 11.3913 0.949951H7.65325C7.41963 0.949951 7.23273 1.1057 7.19768 1.3282L6.84724 3.68672C6.27486 3.90922 5.7492 4.20959 5.27027 4.55447L2.94568 3.66447C2.73542 3.58659 2.49011 3.66447 2.3733 3.86472L0.504291 6.94636C0.387478 7.14661 0.434203 7.38024 0.621104 7.51374L2.59525 8.98225C2.54852 9.26037 2.51348 9.56075 2.51348 9.85C2.51348 10.1393 2.53684 10.4396 2.58356 10.7178L0.609422 12.1863C0.434203 12.3198 0.387478 12.5645 0.492609 12.7536L2.36162 15.8353C2.47843 16.0355 2.72374 16.1023 2.934 16.0355L5.25859 15.1455C5.7492 15.5015 6.26318 15.7908 6.83556 16.0133L7.186 18.3718C7.23273 18.5943 7.41963 18.7501 7.65325 18.7501H11.3913C11.6249 18.7501 11.8235 18.5943 11.8468 18.3718L12.1973 16.0133C12.7697 15.7908 13.2953 15.4904 13.7743 15.1455L16.0988 16.0355C16.3091 16.1134 16.5544 16.0355 16.6712 15.8353L18.5402 12.7536C18.6571 12.5534 18.6103 12.3198 18.4234 12.1863L16.4726 10.7178ZM9.52226 13.1875C7.59485 13.1875 6.01787 11.6856 6.01787 9.85C6.01787 8.01437 7.59485 6.51248 9.52226 6.51248C11.4497 6.51248 13.0267 8.01437 13.0267 9.85C13.0267 11.6856 11.4497 13.1875 9.52226 13.1875Z" fill="#666666"/>
</svg>
