<svg width="133" height="133" viewBox="0 0 133 133" fill="none" xmlns="http://www.w3.org/2000/svg">
<path d="M131.5 66.5C131.5 102.399 102.399 131.5 66.5 131.5C30.6015 131.5 1.5 102.399 1.5 66.5C1.5 30.6015 30.6015 1.5 66.5 1.5C102.399 1.5 131.5 30.6015 131.5 66.5Z" stroke="#386A89" stroke-width="3"/>
<path d="M111.168 46.2793H75.793V90.4275H111.168V46.2793Z" stroke="#386A89" stroke-width="1.04377"/>
<path d="M82.0156 83.0771H104.946M82.0156 63.5625H104.946H82.0156ZM82.0156 70.0674H104.946H82.0156ZM82.0156 76.9146H104.946H82.0156Z" stroke="#386A89" stroke-width="1.04377"/>
<path d="M82.0156 54.5547H104.946" stroke="#386A89" stroke-width="3.47923"/>
<path d="M58.203 46.2793H22.8281V90.4275H58.203V46.2793Z" stroke="#386A89" stroke-width="1.04377"/>
<path d="M29.0508 83.0771H51.9811M29.0508 63.5625H51.9811H29.0508ZM29.0508 70.0674H51.9811H29.0508ZM29.0508 76.9146H51.9811H29.0508Z" stroke="#386A89" stroke-width="1.04377"/>
<path d="M29.0508 54.5547H51.9811" stroke="#386A89" stroke-width="3.47923"/>
<path d="M93.6118 32.916H39.4141V100.555H93.6118V32.916Z" fill="#F6EEE1" stroke="#21506E" stroke-width="1.59915"/>
<path d="M48.9492 89.2927H84.0805M48.9492 59.3945H84.0805H48.9492ZM48.9492 69.3606H84.0805H48.9492ZM48.9492 79.8512H84.0805H48.9492Z" stroke="#21506E" stroke-width="1.59915"/>
<path d="M48.9492 45.5938H84.0805" stroke="#21506E" stroke-width="5.3305"/>
</svg>
