<svg width="78" height="94" viewBox="0 0 78 94" fill="none" xmlns="http://www.w3.org/2000/svg">
<path d="M38.9992 87.8972C40.6071 89.9039 40.6078 89.9033 40.6086 89.9027L40.6109 89.9008L40.6178 89.8953L40.6404 89.8771L40.7205 89.8119C40.7893 89.7557 40.8884 89.6742 41.0157 89.568C41.2705 89.3557 41.6385 89.0444 42.104 88.6391C43.0348 87.8286 44.3562 86.6412 45.9405 85.1156C49.1064 82.0671 53.3366 77.6544 57.6001 72.1892C66.0808 61.3182 74.9235 45.9887 75.4048 28.7772C75.4434 27.3971 74.3853 26.2329 73.0078 26.1398C64.0924 25.5372 58.4542 22.8042 53.9322 19.0282C50.5127 16.1728 47.7653 12.7841 44.6814 8.9803C43.5077 7.53274 42.2854 6.02508 40.9587 4.46382C40.4555 3.87163 39.7115 3.53877 38.9346 3.55829C38.1577 3.57781 37.4314 3.94762 36.9585 4.56434C36.3528 5.35443 35.7645 6.12953 35.1883 6.88873C31.5312 11.7073 28.3601 15.8856 24.2895 19.1903C19.7173 22.9024 13.9443 25.5346 4.99066 26.1398C3.61318 26.2329 2.55505 27.3971 2.59364 28.7772C3.07494 45.9887 11.9176 61.3182 20.3983 72.1892C24.6619 77.6544 28.8921 82.0671 32.0579 85.1156C33.6422 86.6412 34.9636 87.8286 35.8944 88.6391C36.3599 89.0444 36.728 89.3557 36.9827 89.568C37.1101 89.6742 37.2091 89.7557 37.2779 89.8119L37.3581 89.8771L37.3807 89.8953L37.3875 89.9008L37.3898 89.9027C37.3906 89.9033 37.3913 89.9039 38.9992 87.8972ZM38.9992 87.8972L40.6071 89.9039C39.6674 90.6568 38.331 90.6568 37.3913 89.9039L38.9992 87.8972Z" stroke="#383F51" stroke-width="5.14285" stroke-linejoin="round"/>
<path fill-rule="evenodd" clip-rule="evenodd" d="M38.9989 66.7478C49.8994 66.7478 58.7361 57.9111 58.7361 47.0106C58.7361 36.1101 49.8994 27.2734 38.9989 27.2734C28.0984 27.2734 19.2617 36.1101 19.2617 47.0106C19.2617 57.9111 28.0984 66.7478 38.9989 66.7478ZM30.7046 46.8977C29.3701 45.6649 27.289 45.7472 26.0561 47.0817C24.8233 48.4161 24.9057 50.4973 26.2401 51.7301L31.5176 56.6057C34.0998 58.9912 38.1795 58.6149 40.2816 55.7972L51.5044 40.7541C52.5908 39.298 52.291 37.2368 50.8348 36.1505C49.3786 35.0641 47.3175 35.3639 46.2312 36.8201L35.4453 51.2774L30.7046 46.8977Z" fill="#3B8C09"/>
</svg>
