<svg width="78" height="88" viewBox="0 0 78 88" fill="none" xmlns="http://www.w3.org/2000/svg">
<path d="M32.461 6.3371C26.6906 13.7142 21.1371 19.3297 10.4144 21.3511C6.29682 22.1274 2.4143 25.7769 3.10191 30.6941C6.52662 55.1847 25.6847 75.1262 33.6559 82.5122C36.7029 85.3354 41.2955 85.3354 44.3425 82.5122C52.3138 75.1262 71.4718 55.1847 74.8965 30.6941C75.5845 25.7742 71.6979 22.1366 67.6035 21.3362C56.9939 19.2619 51.6891 13.47 45.7078 6.13525C42.2153 1.85241 35.7992 2.06938 32.461 6.3371Z" stroke="white" stroke-width="5.14285" stroke-linejoin="round"/>
<path fill-rule="evenodd" clip-rule="evenodd" d="M38.9989 64.0447C49.8994 64.0447 58.7361 55.208 58.7361 44.3075C58.7361 33.4069 49.8994 24.5703 38.9989 24.5703C28.0984 24.5703 19.2617 33.4069 19.2617 44.3075C19.2617 55.208 28.0984 64.0447 38.9989 64.0447ZM30.7047 44.1932C29.3703 42.9603 27.2891 43.0427 26.0563 44.3771C24.8234 45.7116 24.9058 47.7928 26.2403 49.0256L31.5178 53.9012C34.0999 56.2867 38.1796 55.9103 40.2817 53.0927L51.5045 38.0496C52.5909 36.5934 52.2911 34.5323 50.8349 33.446C49.3788 32.3596 47.3176 32.6594 46.2313 34.1155L35.4454 48.5729L30.7047 44.1932Z" fill="white"/>
</svg>
