<svg width="246" height="74" viewBox="0 0 246 74" fill="none" xmlns="http://www.w3.org/2000/svg">
<g clip-path="url(#clip0_2030_36005)">
<path d="M53.1726 14.6276C47.3908 11.3205 41.7802 7.72252 36.3626 3.84755C32.3626 0.937554 29.7326 -0.0824459 26.2326 2.25755C19.6426 6.67755 12.9426 10.9376 6.28258 15.2576C3.84258 16.8376 1.28258 18.0876 0.142578 21.0276V21.3776V21.4676V55.7276C0.310231 55.3207 0.424514 54.8938 0.482578 54.4576V54.5676C0.425638 55.004 0.311317 55.431 0.142578 55.8376V56.1976C0.142578 55.8376 0.202578 57.0676 0.322578 57.3676C0.852578 58.7576 2.22258 59.3676 3.46258 60.1676C9.20258 63.8776 14.9226 67.6176 20.6626 71.3276C21.5426 71.8976 22.4626 72.4076 23.3726 72.9476C23.4541 72.996 23.5478 73.0203 23.6426 73.0176H25.2526C26.7344 72.5098 28.0169 71.545 28.9154 70.2619C29.8139 68.9788 30.2821 67.4437 30.2526 65.8776C30.2526 63.9376 30.2526 61.9976 30.2526 60.0576C30.3538 58.7908 30.082 57.522 29.4707 56.4079C28.8594 55.2937 27.9354 54.3828 26.8126 53.7876C24.4826 52.3476 22.2126 50.7876 19.8926 49.3376C18.9648 48.795 18.198 48.0154 17.6708 47.0788C17.1436 46.1422 16.875 45.0822 16.8926 44.0076C16.8926 40.4276 16.8926 36.8475 16.8926 33.2676C16.8857 32.1416 17.1891 31.0355 17.7694 30.0705C18.3498 29.1056 19.1847 28.3192 20.1826 27.7976C22.5026 26.4276 24.7026 24.8476 26.9726 23.3776C27.9749 22.6459 29.1909 22.2659 30.4315 22.2966C31.6721 22.3274 32.8677 22.7671 33.8326 23.5476C36.0526 25.0676 38.3326 26.4876 40.5926 27.9376C41.4938 28.5946 42.5777 28.9536 43.693 28.9644C44.8082 28.9752 45.8989 28.6371 46.8126 27.9976C49.2826 26.4176 51.8126 24.8676 54.1726 23.1976C54.9777 22.6674 55.6349 21.9413 56.0826 21.0876C57.3126 18.5776 56.0126 16.3276 53.1726 14.6276Z" fill="#134247"/>
<path d="M68.7924 36.0491C68.7924 36.8891 68.7924 37.7191 68.7924 38.5591C68.874 39.6374 68.6405 40.7161 68.1203 41.6642C67.6001 42.6122 66.8157 43.3886 65.8624 43.8991C59.2957 48.1258 52.7291 52.3824 46.1624 56.6691C45.2931 57.3091 44.2419 57.6544 43.1624 57.6544C42.0829 57.6544 41.0317 57.3091 40.1624 56.6691C34.8624 53.2158 29.5624 49.7524 24.2624 46.2791C23.3786 45.7715 22.6545 45.0267 22.172 44.129C21.6895 43.2312 21.468 42.2163 21.5324 41.1991C21.6024 39.3491 21.5324 37.4991 21.5324 35.6491C21.4859 34.69 21.7084 33.7369 22.1749 32.8976C22.6414 32.0582 23.3333 31.366 24.1724 30.8991C25.1724 30.2991 26.0924 29.6891 27.0424 29.0591C27.9117 28.4191 28.9629 28.0739 30.0424 28.0739C31.1219 28.0739 32.1731 28.4191 33.0424 29.0591C35.4424 30.6291 37.9024 32.0591 40.2424 33.7591C42.5824 35.4591 44.5924 35.2491 46.8524 33.7591C50.1524 31.4991 53.5824 29.4291 56.8524 27.1791C57.7798 26.428 58.9289 26.0033 60.1219 25.9708C61.3149 25.9382 62.4854 26.2996 63.4524 26.9991C64.3024 27.5391 65.2124 27.9991 66.0824 28.5291C66.9385 28.9686 67.6496 29.6459 68.1303 30.4796C68.611 31.3133 68.8409 32.268 68.7924 33.2291C68.7724 34.1391 68.7924 35.0991 68.7924 36.0491Z" fill="#1AB793"/>
<path d="M108.854 27.1893L104.854 31.4793C104.684 31.6567 104.454 31.765 104.208 31.7834C103.963 31.8019 103.719 31.7292 103.524 31.5793C102.031 30.5343 100.236 30.0074 98.4142 30.0793C93.2642 30.0793 89.7942 33.4893 89.7942 39.6593C89.7942 45.8293 93.3942 49.2293 98.3442 49.2293C100.195 49.3038 102.018 48.7583 103.524 47.6793C103.735 47.5074 104.003 47.4221 104.274 47.4407C104.545 47.4593 104.799 47.5803 104.984 47.7793L108.884 52.0593C108.976 52.1621 109.045 52.2828 109.088 52.4136C109.131 52.5445 109.146 52.6828 109.133 52.8199C109.12 52.9569 109.078 53.0898 109.012 53.2102C108.945 53.3305 108.854 53.4358 108.744 53.5193C105.527 55.7712 101.67 56.9282 97.7442 56.8193C86.7442 56.8193 80.3242 49.3593 80.3242 39.6593C80.3242 30.2093 86.4342 22.4993 97.8042 22.4993C101.697 22.3629 105.528 23.4928 108.724 25.7193C108.835 25.8036 108.926 25.91 108.993 26.0316C109.06 26.1532 109.101 26.2874 109.113 26.4257C109.125 26.564 109.109 26.7033 109.064 26.8347C109.019 26.9662 108.948 27.087 108.854 27.1893Z" fill="#134247"/>
<path d="M147.604 42.4173H125.384C125.229 42.4124 125.074 42.4437 124.933 42.5087C124.792 42.5738 124.668 42.6708 124.571 42.7921C124.474 42.9135 124.407 43.0557 124.374 43.2076C124.342 43.3595 124.345 43.5169 124.384 43.6673C125.514 47.8373 128.504 49.8773 132.734 49.8773C135.822 49.7885 138.832 48.8809 141.454 47.2473C141.655 47.1261 141.893 47.0796 142.125 47.1162C142.358 47.1528 142.57 47.27 142.724 47.4473L145.724 50.9573C145.885 51.1522 145.966 51.4008 145.951 51.6531C145.937 51.9054 145.827 52.1427 145.644 52.3173C141.965 55.372 137.294 56.9728 132.514 56.8173C120.884 56.8173 114.834 49.1073 114.834 39.5273C114.834 30.2073 120.754 22.5273 132.254 22.5273C143.054 22.5273 148.774 29.3373 148.774 38.6573C148.776 39.6371 148.712 40.616 148.584 41.5873C148.544 41.8187 148.424 42.0287 148.245 42.1805C148.066 42.3322 147.839 42.4161 147.604 42.4173ZM124.434 35.5073C124.395 35.6577 124.392 35.8151 124.424 35.9671C124.457 36.119 124.524 36.2612 124.621 36.3825C124.718 36.5039 124.842 36.6009 124.983 36.6659C125.124 36.731 125.279 36.7623 125.434 36.7573H140.014V35.9973C140.014 31.5673 136.794 29.5073 132.624 29.5073C128.164 29.4973 125.474 31.7073 124.434 35.5073Z" fill="#134247"/>
<path d="M176.402 22.5588V29.2488C176.403 29.3909 176.374 29.5315 176.317 29.6614C176.259 29.7912 176.174 29.9073 176.068 30.002C175.962 30.0966 175.838 30.1675 175.702 30.2101C175.567 30.2527 175.423 30.2658 175.282 30.2488C174.911 30.1983 174.537 30.1716 174.162 30.1688C171.282 30.1688 169.622 31.0788 167.052 34.2588C166.909 34.4374 166.831 34.6598 166.832 34.8888V54.7388C166.832 55.004 166.727 55.2584 166.54 55.4459C166.352 55.6334 166.098 55.7388 165.832 55.7388H158.232C157.967 55.7388 157.713 55.6334 157.525 55.4459C157.338 55.2584 157.232 55.004 157.232 54.7388V24.5788C157.232 24.3136 157.338 24.0592 157.525 23.8717C157.713 23.6842 157.967 23.5788 158.232 23.5788H164.782C165.027 23.5767 165.263 23.6641 165.447 23.8243C165.631 23.9846 165.751 24.2067 165.782 24.4488L165.942 25.7688C165.969 25.9528 166.047 26.1256 166.166 26.268C166.286 26.4104 166.443 26.5166 166.619 26.5748C166.796 26.6329 166.985 26.6407 167.166 26.5973C167.347 26.5538 167.512 26.4609 167.642 26.3288C170.422 23.3888 172.412 22.4888 175.392 22.4888C175.73 22.4844 176.068 22.5078 176.402 22.5588Z" fill="#134247"/>
<path d="M198.692 30.6584C198.56 30.6584 198.433 30.7111 198.339 30.8049C198.245 30.8987 198.192 31.0258 198.192 31.1584V40.7484C198.192 45.8884 198.902 49.5584 203.722 49.5584C204.302 49.5584 204.722 49.5584 205.252 49.5584C205.32 49.5544 205.387 49.564 205.451 49.5867C205.514 49.6093 205.572 49.6446 205.622 49.6904C205.671 49.7362 205.711 49.7915 205.739 49.853C205.766 49.9145 205.781 49.981 205.782 50.0484V56.1984C205.778 56.3236 205.727 56.4426 205.641 56.533C205.554 56.6234 205.437 56.6787 205.312 56.6884C204.022 56.7984 203.122 56.8484 202.372 56.8484C190.372 56.8484 188.622 49.3884 188.622 40.7784V31.1584C188.622 31.0258 188.57 30.8987 188.476 30.8049C188.382 30.7111 188.255 30.6584 188.122 30.6584H184.232C184.1 30.6584 183.973 30.6058 183.879 30.512C183.785 30.4182 183.732 30.291 183.732 30.1584V24.4784C183.732 24.2424 183.826 24.016 183.993 23.8491C184.16 23.6822 184.386 23.5884 184.622 23.5884C185.683 23.5884 186.701 23.167 187.451 22.4169C188.201 21.6667 188.622 20.6493 188.622 19.5884V14.8984C188.621 14.8333 188.633 14.7685 188.657 14.7078C188.681 14.6472 188.717 14.592 188.762 14.5455C188.808 14.4989 188.862 14.4619 188.923 14.4367C188.983 14.4114 189.047 14.3984 189.112 14.3984H197.692C197.825 14.3984 197.952 14.4511 198.046 14.5449C198.14 14.6387 198.192 14.7658 198.192 14.8984V23.0884C198.192 23.221 198.245 23.3482 198.339 23.442C198.433 23.5358 198.56 23.5884 198.692 23.5884H205.282C205.415 23.5884 205.542 23.6411 205.636 23.7349C205.73 23.8287 205.782 23.9558 205.782 24.0884V30.1584C205.782 30.291 205.73 30.4182 205.636 30.512C205.542 30.6058 205.415 30.6584 205.282 30.6584H198.692Z" fill="#134247"/>
<path d="M245.884 36.0583V54.7383C245.884 55.0035 245.778 55.2578 245.591 55.4454C245.403 55.6329 245.149 55.7383 244.884 55.7383H237.344C237.078 55.7383 236.824 55.6329 236.637 55.4454C236.449 55.2578 236.344 55.0035 236.344 54.7383V36.1183C236.344 32.5883 233.774 30.2083 229.914 30.2083C227.684 30.2083 225.624 30.9283 222.914 33.6383C222.819 33.7309 222.744 33.8413 222.693 33.9632C222.641 34.0851 222.614 34.216 222.614 34.3483V54.7383C222.614 55.0035 222.508 55.2578 222.321 55.4454C222.133 55.6329 221.879 55.7383 221.614 55.7383H214.014C213.748 55.7383 213.494 55.6329 213.307 55.4454C213.119 55.2578 213.014 55.0035 213.014 54.7383V24.5783C213.014 24.3131 213.119 24.0587 213.307 23.8712C213.494 23.6836 213.748 23.5783 214.014 23.5783H220.564C220.809 23.5765 221.047 23.6652 221.232 23.8275C221.416 23.9898 221.534 24.2144 221.564 24.4583L221.694 25.6383C221.718 25.8148 221.79 25.9814 221.901 26.121C222.011 26.2606 222.157 26.3681 222.324 26.4324C222.49 26.4966 222.67 26.5153 222.846 26.4864C223.022 26.4576 223.187 26.3823 223.324 26.2683C226.754 23.3383 229.524 22.4883 232.644 22.4883C240.484 22.4983 245.884 27.8983 245.884 36.0583Z" fill="#134247"/>
</g>
<defs>
<clipPath id="clip0_2030_36005">
<rect width="245.77" height="72.06" fill="white" transform="translate(0.113281 0.96875)"/>
</clipPath>
</defs>
</svg>
