<svg width="480" height="70" viewBox="0 0 480 70" fill="none" xmlns="http://www.w3.org/2000/svg">
<path d="M6.81084 7.10503V37.7224C6.81084 41.319 7.48514 44.3087 8.83373 46.6915C10.8334 50.288 14.2048 52.0863 18.9482 52.0863C24.6355 52.0863 28.502 50.1418 30.5477 46.2527C31.6493 44.1396 32.2001 41.296 32.2001 37.7217V7.10503H39.0117V34.9232C39.0117 41.0151 38.1911 45.7021 36.55 48.9843C33.539 54.9637 27.8521 57.9534 19.4895 57.9534C11.1268 57.9534 5.45086 54.9637 2.46164 48.9843C0.820547 45.7021 0 41.0151 0 34.9232V7.10503H6.81084Z" fill="#383F51"/>
<path d="M49.1667 28.9344C49.1737 25.6006 49.7656 22.2938 50.9155 19.1646C52.0502 15.9991 53.7647 13.0727 55.9713 10.5352C58.2298 7.95985 60.9835 5.86538 64.0684 4.37658C67.4877 2.75513 71.2363 1.94835 75.0199 2.01957C79.4139 1.90748 83.7499 3.04093 87.5269 5.28897C90.9001 7.30533 93.6088 10.2655 95.3185 13.8039L87.2612 19.3543C86.7184 17.9413 85.9193 16.6406 84.9042 15.5178C83.9983 14.5231 82.9318 13.6877 81.7491 13.0464C80.6348 12.4481 79.4457 12.0007 78.2133 11.7162C77.0669 11.4455 75.8937 11.3051 74.7158 11.2976C72.4339 11.2475 70.1789 11.7981 68.177 12.8943C66.3406 13.9252 64.7469 15.3382 63.5034 17.0377C62.2353 18.7848 61.2815 20.7395 60.6846 22.8141C60.0612 24.8989 59.7409 27.0625 59.7339 29.2385C59.7266 31.5768 60.0989 33.9008 60.836 36.1198C61.5202 38.2295 62.5767 40.1995 63.9554 41.9367C65.2769 43.5913 66.919 44.9619 68.7832 45.9664C70.675 46.9843 72.7936 47.5074 74.9418 47.487C76.1472 47.4821 77.3473 47.3288 78.5153 47.0309C79.7557 46.7171 80.9459 46.2308 82.0512 45.5862C83.2248 44.9006 84.2884 44.042 85.2062 43.0395C86.2104 41.9347 87.0087 40.659 87.5632 39.2727L96.1549 44.2169C95.3556 46.2266 94.1524 48.0509 92.6197 49.5769C91.0592 51.1335 89.2787 52.4526 87.3351 53.4922C85.3639 54.5547 83.2701 55.3721 81.1004 55.926C78.9891 56.4748 76.8171 56.7558 74.6356 56.7623C71.0544 56.8028 67.5176 55.9675 64.3328 54.3293C61.2658 52.7472 58.5301 50.5925 56.2734 47.9816C54.0079 45.3529 52.2318 42.3396 51.0292 39.0844C49.8015 35.841 49.1706 32.4024 49.1667 28.9344V28.9344ZM97.0673 56.3061L118.356 2.323H126.872L148.087 56.3061H136.984L132.044 42.8484H113.11L108.168 56.3061H97.0673ZM122.614 13.6519L114.859 35.4732H130.141L122.614 13.6519ZM153.864 56.3061V2.323H177.738C180.122 2.30026 182.478 2.83409 184.619 3.88202C186.679 4.88789 188.524 6.282 190.055 7.98778C191.577 9.68841 192.787 11.6446 193.629 13.7663C194.472 15.8301 194.911 18.037 194.921 20.2667C194.958 23.6305 194.049 26.937 192.298 29.8091C190.653 32.5832 188.161 34.756 185.189 36.0075L197.886 56.3061H186.028L174.697 38.2104H164.356V56.3061H153.864ZM164.356 29.0104H177.51C178.453 29.0155 179.382 28.78 180.209 28.3261C181.053 27.8629 181.791 27.2283 182.376 26.463C183.011 25.6264 183.499 24.6881 183.82 23.6882C184.182 22.5839 184.361 21.4284 184.353 20.2667C184.366 19.0735 184.16 17.888 183.744 16.7692C183.368 15.7544 182.815 14.8146 182.109 13.9937C181.456 13.2317 180.654 12.6108 179.752 12.1689C178.914 11.7498 177.991 11.5288 177.054 11.5229H164.358L164.356 29.0104ZM242.594 47.1062V56.3061H205.11V2.323H241.907V11.5236H215.602V24.5252H238.336V33.0409H215.602V47.1069L242.594 47.1062Z" fill="#EC6571"/>
<path d="M29.0874 61.9866H9.30149C7.47813 61.9866 6 63.4648 6 65.2881V65.8155C6 67.6388 7.47813 69.117 9.30149 69.117H29.0874C30.9108 69.117 32.3889 67.6388 32.3889 65.8155V65.2881C32.3889 63.4648 30.9108 61.9866 29.0874 61.9866Z" fill="#EC6571"/>
<path d="M285.848 49.5721V55.7661H254.954V1.31206H262.288V49.5721H285.848ZM301.365 55.7661H293.993V1.31206H301.365V55.7661ZM359.412 1.31206V55.7661H355.726C355.143 55.7661 354.649 55.6647 354.244 55.4621C353.864 55.2594 353.484 54.9174 353.104 54.4361L321.602 13.3961C321.653 14.0294 321.691 14.6501 321.716 15.2581C321.741 15.8661 321.754 16.4361 321.754 16.9681V55.7661H315.294V1.31206H319.094C319.423 1.31206 319.702 1.3374 319.93 1.38806C320.158 1.4134 320.361 1.47673 320.538 1.57806C320.715 1.65406 320.893 1.78073 321.07 1.95807C321.247 2.11007 321.437 2.31273 321.64 2.56606L353.142 43.5681C353.091 42.9094 353.041 42.2761 352.99 41.6681C352.965 41.0347 352.952 40.4394 352.952 39.8821V1.31206H359.412ZM417.565 29.5841V50.4841C414.829 52.4601 411.903 53.9421 408.787 54.9301C405.696 55.8927 402.302 56.3741 398.603 56.3741C394.22 56.3741 390.268 55.7027 386.747 54.3601C383.226 52.9921 380.211 51.0921 377.703 48.6601C375.22 46.2027 373.308 43.2641 371.965 39.8441C370.622 36.4241 369.951 32.6621 369.951 28.5581C369.951 24.4034 370.597 20.6161 371.889 17.1961C373.206 13.7761 375.068 10.8501 377.475 8.41807C379.882 5.96073 382.808 4.06073 386.253 2.71807C389.698 1.3754 393.549 0.704063 397.805 0.704063C399.958 0.704063 401.96 0.86873 403.809 1.19806C405.658 1.50207 407.368 1.95807 408.939 2.56606C410.51 3.14873 411.966 3.87073 413.309 4.73207C414.652 5.56807 415.906 6.51807 417.071 7.58207L414.981 10.9261C414.652 11.4327 414.221 11.7621 413.689 11.9141C413.182 12.0407 412.612 11.9141 411.979 11.5341C411.371 11.1794 410.674 10.7487 409.889 10.2421C409.104 9.7354 408.141 9.25407 407.001 8.79807C405.886 8.31673 404.556 7.9114 403.011 7.58207C401.491 7.25273 399.68 7.08807 397.577 7.08807C394.512 7.08807 391.738 7.59473 389.255 8.60807C386.772 9.59607 384.657 11.0274 382.909 12.9021C381.161 14.7514 379.818 17.0061 378.881 19.6661C377.944 22.3007 377.475 25.2647 377.475 28.5581C377.475 31.9781 377.956 35.0434 378.919 37.7541C379.907 40.4394 381.3 42.7321 383.099 44.6321C384.923 46.5067 387.127 47.9381 389.711 48.9261C392.295 49.9141 395.196 50.4081 398.413 50.4081C400.946 50.4081 403.188 50.1294 405.139 49.5721C407.115 48.9894 409.04 48.1914 410.915 47.1781V35.2081H402.441C401.96 35.2081 401.567 35.0687 401.263 34.7901C400.984 34.5114 400.845 34.1694 400.845 33.7641V29.5841H417.565ZM479.161 28.5581C479.161 32.6367 478.515 36.3861 477.223 39.8061C475.931 43.2007 474.107 46.1267 471.751 48.5841C469.395 51.0414 466.557 52.9541 463.239 54.3221C459.945 55.6647 456.297 56.3361 452.295 56.3361C448.292 56.3361 444.644 55.6647 441.351 54.3221C438.057 52.9541 435.233 51.0414 432.877 48.5841C430.521 46.1267 428.697 43.2007 427.405 39.8061C426.113 36.3861 425.467 32.6367 425.467 28.5581C425.467 24.4794 426.113 20.7427 427.405 17.3481C428.697 13.9281 430.521 10.9894 432.877 8.53207C435.233 6.0494 438.057 4.12406 441.351 2.75606C444.644 1.38806 448.292 0.704063 452.295 0.704063C456.297 0.704063 459.945 1.38806 463.239 2.75606C466.557 4.12406 469.395 6.0494 471.751 8.53207C474.107 10.9894 475.931 13.9281 477.223 17.3481C478.515 20.7427 479.161 24.4794 479.161 28.5581ZM471.599 28.5581C471.599 25.2141 471.143 22.2121 470.231 19.5521C469.319 16.8921 468.027 14.6501 466.355 12.8261C464.683 10.9767 462.656 9.55806 460.275 8.57006C457.893 7.58207 455.233 7.08807 452.295 7.08807C449.381 7.08807 446.734 7.58207 444.353 8.57006C441.971 9.55806 439.932 10.9767 438.235 12.8261C436.563 14.6501 435.271 16.8921 434.359 19.5521C433.447 22.2121 432.991 25.2141 432.991 28.5581C432.991 31.9021 433.447 34.9041 434.359 37.5641C435.271 40.1987 436.563 42.4407 438.235 44.2901C439.932 46.1141 441.971 47.5201 444.353 48.5081C446.734 49.4707 449.381 49.9521 452.295 49.9521C455.233 49.9521 457.893 49.4707 460.275 48.5081C462.656 47.5201 464.683 46.1141 466.355 44.2901C468.027 42.4407 469.319 40.1987 470.231 37.5641C471.143 34.9041 471.599 31.9021 471.599 28.5581Z" fill="#383F51"/>
</svg>
