<svg width="443" height="68" viewBox="0 0 443 68" fill="none" xmlns="http://www.w3.org/2000/svg">
<path d="M6.81084 5.10502V35.7224C6.81084 39.319 7.48514 42.3087 8.83373 44.6915C10.8334 48.288 14.2048 50.0863 18.9482 50.0863C24.6355 50.0863 28.502 48.1418 30.5477 44.2527C31.6493 42.1396 32.2001 39.296 32.2001 35.7217V5.10502H39.0117V32.9232C39.0117 39.0151 38.1911 43.7021 36.55 46.9843C33.539 52.9637 27.8521 55.9534 19.4895 55.9534C11.1268 55.9534 5.45086 52.9637 2.46164 46.9843C0.820547 43.7021 0 39.0151 0 32.9232V5.10502H6.81084Z" fill="#383F51"/>
<path d="M49.1667 26.9344C49.1737 23.6006 49.7656 20.2938 50.9155 17.1646C52.0502 13.9991 53.7647 11.0727 55.9713 8.53522C58.2298 5.95985 60.9835 3.86538 64.0684 2.37658C67.4877 0.75513 71.2363 -0.0516537 75.0199 0.0195715C79.4139 -0.0925238 83.7499 1.04093 87.5269 3.28897C90.9001 5.30533 93.6088 8.2655 95.3185 11.8039L87.2612 17.3543C86.7184 15.9413 85.9193 14.6406 84.9042 13.5178C83.9983 12.5231 82.9318 11.6877 81.7491 11.0464C80.6348 10.4481 79.4457 10.0007 78.2133 9.71616C77.0669 9.44554 75.8937 9.30514 74.7158 9.29763C72.4339 9.24749 70.1789 9.79812 68.177 10.8943C66.3406 11.9252 64.7469 13.3382 63.5034 15.0377C62.2353 16.7848 61.2815 18.7395 60.6846 20.8141C60.0612 22.8989 59.7409 25.0625 59.7339 27.2385C59.7266 29.5768 60.0989 31.9008 60.836 34.1198C61.5202 36.2295 62.5767 38.1995 63.9554 39.9367C65.2769 41.5913 66.919 42.9619 68.7832 43.9664C70.675 44.9843 72.7936 45.5074 74.9418 45.487C76.1472 45.4821 77.3473 45.3288 78.5153 45.0309C79.7557 44.7171 80.9459 44.2308 82.0512 43.5862C83.2248 42.9006 84.2884 42.042 85.2062 41.0395C86.2104 39.9347 87.0087 38.659 87.5632 37.2727L96.1549 42.2169C95.3556 44.2266 94.1524 46.0509 92.6197 47.5769C91.0592 49.1335 89.2787 50.4526 87.3351 51.4922C85.3639 52.5547 83.2701 53.3721 81.1004 53.926C78.9891 54.4748 76.8171 54.7558 74.6356 54.7623C71.0544 54.8028 67.5176 53.9675 64.3328 52.3293C61.2658 50.7472 58.5301 48.5925 56.2734 45.9816C54.0079 43.3529 52.2318 40.3396 51.0292 37.0844C49.8015 33.841 49.1706 30.4024 49.1667 26.9344V26.9344ZM97.0673 54.3061L118.356 0.323003H126.872L148.087 54.3061H136.984L132.044 40.8484H113.11L108.168 54.3061H97.0673ZM122.614 11.6519L114.859 33.4732H130.141L122.614 11.6519ZM153.864 54.3061V0.323003H177.738C180.122 0.30026 182.478 0.834086 184.619 1.88202C186.679 2.88789 188.524 4.282 190.055 5.98778C191.577 7.68841 192.787 9.64464 193.629 11.7663C194.472 13.8301 194.911 16.037 194.921 18.2667C194.958 21.6305 194.049 24.937 192.298 27.8091C190.653 30.5832 188.161 32.756 185.189 34.0075L197.886 54.3061H186.028L174.697 36.2104H164.356V54.3061H153.864ZM164.356 27.0104H177.51C178.453 27.0155 179.382 26.78 180.209 26.3261C181.053 25.8629 181.791 25.2283 182.376 24.463C183.011 23.6264 183.499 22.6881 183.82 21.6882C184.182 20.5839 184.361 19.4284 184.353 18.2667C184.366 17.0735 184.16 15.888 183.744 14.7692C183.368 13.7544 182.815 12.8146 182.109 11.9937C181.456 11.2317 180.654 10.6108 179.752 10.1689C178.914 9.74976 177.991 9.52878 177.054 9.52295H164.358L164.356 27.0104ZM242.594 45.1062V54.3061H205.11V0.323003H241.907V9.52364H215.602V22.5252H238.336V31.0409H215.602V45.1069L242.594 45.1062Z" fill="#EC6571"/>
<path d="M254.959 0H263.685L291.231 44.1791V0H298.248V54.537H289.97L262.014 10.3948V54.537H254.959V0ZM310.573 0H350.333V6.6825H317.776V23.2402H347.885V29.5516H317.776V48.0365H350.892V54.537H310.574L310.573 0ZM400.267 0V6.49695H381.892V54.537H374.393V6.49695H356.016V0H400.267Z" fill="#383F51"/>
<path d="M29.0874 59.9866H9.30149C7.47813 59.9866 6 61.4648 6 63.2881V63.8155C6 65.6388 7.47813 67.117 9.30149 67.117H29.0874C30.9108 67.117 32.3889 65.6388 32.3889 63.8155V63.2881C32.3889 61.4648 30.9108 59.9866 29.0874 59.9866Z" fill="#EC6571"/>
<path d="M442.28 31.048H426.776V47.388H421.266V31.048H405.838V25.918H421.266V9.692H426.776V25.918H442.28V31.048Z" fill="#383F51"/>
</svg>
