<svg width="485" height="69" viewBox="0 0 485 69" fill="none" xmlns="http://www.w3.org/2000/svg">
<path d="M6.81084 6.10501V36.7224C6.81084 40.319 7.48514 43.3087 8.83373 45.6915C10.8334 49.288 14.2048 51.0863 18.9482 51.0863C24.6355 51.0863 28.502 49.1418 30.5477 45.2527C31.6493 43.1396 32.2001 40.296 32.2001 36.7217V6.10501H39.0117V33.9232C39.0117 40.0151 38.1911 44.7021 36.55 47.9843C33.539 53.9637 27.8521 56.9534 19.4895 56.9534C11.1268 56.9534 5.45086 53.9637 2.46164 47.9843C0.820547 44.7021 0 40.0151 0 33.9232V6.10501H6.81084Z" fill="#383F51"/>
<path d="M49.1667 27.9344C49.1737 24.6006 49.7656 21.2938 50.9155 18.1646C52.0502 14.9991 53.7647 12.0727 55.9713 9.53522C58.2298 6.95985 60.9835 4.86538 64.0684 3.37658C67.4877 1.75513 71.2363 0.948346 75.0199 1.01957C79.4139 0.907476 83.7499 2.04093 87.5269 4.28897C90.9001 6.30533 93.6088 9.2655 95.3185 12.8039L87.2612 18.3543C86.7184 16.9413 85.9193 15.6406 84.9042 14.5178C83.9983 13.5231 82.9318 12.6877 81.7491 12.0464C80.6348 11.4481 79.4457 11.0007 78.2133 10.7162C77.0669 10.4455 75.8937 10.3051 74.7158 10.2976C72.4339 10.2475 70.1789 10.7981 68.177 11.8943C66.3406 12.9252 64.7469 14.3382 63.5034 16.0377C62.2353 17.7848 61.2815 19.7395 60.6846 21.8141C60.0612 23.8989 59.7409 26.0625 59.7339 28.2385C59.7266 30.5768 60.0989 32.9008 60.836 35.1198C61.5202 37.2295 62.5767 39.1995 63.9554 40.9367C65.2769 42.5913 66.919 43.9619 68.7832 44.9664C70.675 45.9843 72.7936 46.5074 74.9418 46.487C76.1472 46.4821 77.3473 46.3288 78.5153 46.0309C79.7557 45.7171 80.9459 45.2308 82.0512 44.5862C83.2248 43.9006 84.2884 43.042 85.2062 42.0395C86.2104 40.9347 87.0087 39.659 87.5632 38.2727L96.1549 43.2169C95.3556 45.2266 94.1524 47.0509 92.6197 48.5769C91.0592 50.1335 89.2787 51.4526 87.3351 52.4922C85.3639 53.5547 83.2701 54.3721 81.1004 54.926C78.9891 55.4748 76.8171 55.7558 74.6356 55.7623C71.0544 55.8028 67.5176 54.9675 64.3328 53.3293C61.2658 51.7472 58.5301 49.5925 56.2734 46.9816C54.0079 44.3529 52.2318 41.3396 51.0292 38.0844C49.8015 34.841 49.1706 31.4024 49.1667 27.9344V27.9344ZM97.0673 55.3061L118.356 1.323H126.872L148.087 55.3061H136.984L132.044 41.8484H113.11L108.168 55.3061H97.0673ZM122.614 12.6519L114.859 34.4732H130.141L122.614 12.6519ZM153.864 55.3061V1.323H177.738C180.122 1.30026 182.478 1.83409 184.619 2.88202C186.679 3.88789 188.524 5.282 190.055 6.98778C191.577 8.68841 192.787 10.6446 193.629 12.7663C194.472 14.8301 194.911 17.037 194.921 19.2667C194.958 22.6305 194.049 25.937 192.298 28.8091C190.653 31.5832 188.161 33.756 185.189 35.0075L197.886 55.3061H186.028L174.697 37.2104H164.356V55.3061H153.864ZM164.356 28.0104H177.51C178.453 28.0155 179.382 27.78 180.209 27.3261C181.053 26.8629 181.791 26.2283 182.376 25.463C183.011 24.6264 183.499 23.6881 183.82 22.6882C184.182 21.5839 184.361 20.4284 184.353 19.2667C184.366 18.0735 184.16 16.888 183.744 15.7692C183.368 14.7544 182.815 13.8146 182.109 12.9937C181.456 12.2317 180.654 11.6108 179.752 11.1689C178.914 10.7498 177.991 10.5288 177.054 10.5229H164.358L164.356 28.0104ZM242.594 46.1062V55.3061H205.11V1.323H241.907V10.5236H215.602V23.5252H238.336V32.0409H215.602V46.1069L242.594 46.1062Z" fill="#EC6571"/>
<path d="M29.0874 60.9866H9.30149C7.47813 60.9866 6 62.4648 6 64.2881V64.8155C6 66.6388 7.47813 68.117 9.30149 68.117H29.0874C30.9108 68.117 32.3889 66.6388 32.3889 64.8155V64.2881C32.3889 62.4648 30.9108 60.9866 29.0874 60.9866Z" fill="#EC6571"/>
<path d="M270.04 26.6841C272.168 26.6841 274.043 26.4307 275.664 25.924C277.311 25.3921 278.679 24.6574 279.768 23.7201C280.883 22.7574 281.719 21.6174 282.276 20.3C282.833 18.9827 283.112 17.5261 283.112 15.93C283.112 12.6874 282.048 10.2427 279.92 8.59605C277.792 6.94938 274.6 6.12605 270.344 6.12605H262.288V26.6841H270.04ZM295.196 54.7661H288.66C287.317 54.7661 286.329 54.2467 285.696 53.2081L271.56 33.7521C271.129 33.1441 270.661 32.7134 270.154 32.4601C269.673 32.1814 268.913 32.0421 267.874 32.0421H262.288V54.7661H254.954V0.312049H270.344C273.789 0.312049 276.766 0.666716 279.274 1.37605C281.782 2.06005 283.847 3.06072 285.468 4.37805C287.115 5.69538 288.331 7.29138 289.116 9.16605C289.901 11.0154 290.294 13.0927 290.294 15.3981C290.294 17.3234 289.99 19.1221 289.382 20.7941C288.774 22.466 287.887 23.9734 286.722 25.3161C285.582 26.6334 284.176 27.7607 282.504 28.6981C280.857 29.6354 278.983 30.3447 276.88 30.8261C277.817 31.3581 278.628 32.1307 279.312 33.1441L295.196 54.7661ZM336.194 48.7621L336.156 54.7661H302.602V0.312049H336.156V6.31605H309.974V24.4041H331.178V30.1801H309.974V48.7621H336.194ZM377.36 48.5721V54.7661H346.466V0.312049H353.8V48.5721H377.36ZM392.877 54.7661H385.505V0.312049H392.877V54.7661ZM440.398 48.7621L440.36 54.7661H406.806V0.312049H440.36V6.31605H414.178V24.4041H435.382V30.1801H414.178V48.7621H440.398ZM458.041 6.31605V25.3541H480.423V31.3581H458.041V54.7661H450.669V0.312049H484.223V6.31605H458.041Z" fill="#383F51"/>
</svg>
