<svg width="265" height="61" viewBox="0 0 265 61" fill="none" xmlns="http://www.w3.org/2000/svg">
<path d="M73.2134 54.4913C73.3038 54.4913 73.3829 54.528 73.4507 54.6015L74.1033 55.3049C73.6061 55.8813 73.0015 56.3304 72.2896 56.6525C71.5833 56.9746 70.7273 57.1356 69.7216 57.1356C68.8514 57.1356 68.0604 56.9859 67.3485 56.6864C66.6365 56.3813 66.0291 55.9575 65.5263 55.4151C65.0234 54.867 64.6335 54.2116 64.3567 53.4488C64.0798 52.6861 63.9414 51.847 63.9414 50.9317C63.9414 50.0163 64.0855 49.1773 64.3736 48.4145C64.6618 47.6517 65.0658 46.9963 65.5856 46.4482C66.1111 45.9001 66.7382 45.4764 67.4671 45.1769C68.196 44.8718 69.0012 44.7192 69.8826 44.7192C70.7471 44.7192 71.5099 44.8577 72.1709 45.1345C72.832 45.4114 73.414 45.7871 73.9169 46.2617L73.3744 47.0161C73.3405 47.0726 73.2953 47.1206 73.2388 47.1601C73.188 47.194 73.1174 47.211 73.0269 47.211C72.9252 47.211 72.8009 47.1573 72.654 47.05C72.5071 46.937 72.315 46.8126 72.0777 46.677C71.8404 46.5414 71.5438 46.42 71.1878 46.3126C70.8318 46.1996 70.3939 46.1431 69.8741 46.1431C69.2469 46.1431 68.6735 46.2533 68.1536 46.4736C67.6338 46.6883 67.1846 47.0019 66.8061 47.4144C66.4331 47.8269 66.1421 48.3297 65.9331 48.923C65.724 49.5163 65.6195 50.1858 65.6195 50.9317C65.6195 51.6888 65.7269 52.364 65.9416 52.9573C66.1619 53.5505 66.4586 54.0534 66.8315 54.4659C67.21 54.8727 67.6536 55.1835 68.1621 55.3982C68.6763 55.6129 69.23 55.7202 69.8233 55.7202C70.1849 55.7202 70.5098 55.7004 70.7979 55.6609C71.0917 55.6157 71.3601 55.5479 71.6031 55.4575C71.8517 55.3671 72.0805 55.2541 72.2896 55.1185C72.5043 54.9772 72.7162 54.8105 72.9252 54.6184C73.0213 54.5337 73.1174 54.4913 73.2134 54.4913ZM77.1709 49.5587C77.5381 49.1688 77.9449 48.858 78.3913 48.6264C78.8377 48.3947 79.3518 48.2789 79.9338 48.2789C80.4028 48.2789 80.8153 48.358 81.1712 48.5162C81.5328 48.6687 81.8323 48.8891 82.0696 49.1773C82.3126 49.4598 82.4962 49.8016 82.6205 50.2028C82.7448 50.6039 82.807 51.0475 82.807 51.5334V57H81.2899V51.5334C81.2899 50.8836 81.1401 50.3808 80.8407 50.0248C80.5469 49.6632 80.0977 49.4824 79.4931 49.4824C79.0467 49.4824 78.6286 49.5897 78.2387 49.8044C77.8545 50.0191 77.4986 50.3101 77.1709 50.6774V57H75.6538V44.5158H77.1709V49.5587ZM89.7587 53.1352C89.0637 53.1578 88.4705 53.2143 87.9789 53.3048C87.493 53.3895 87.0946 53.5025 86.7839 53.6438C86.4788 53.785 86.2556 53.9517 86.1143 54.1438C85.9787 54.3359 85.9109 54.5506 85.9109 54.7879C85.9109 55.0139 85.9476 55.2089 86.0211 55.3727C86.0945 55.5366 86.1934 55.6722 86.3177 55.7796C86.4477 55.8813 86.5974 55.9575 86.7669 56.0084C86.9421 56.0536 87.1285 56.0762 87.3263 56.0762C87.5919 56.0762 87.8348 56.0508 88.0552 55.9999C88.2755 55.9434 88.4818 55.8643 88.6739 55.7626C88.8716 55.6609 89.0581 55.5394 89.2332 55.3982C89.4141 55.2569 89.5892 55.0959 89.7587 54.9151V53.1352ZM84.8854 49.6265C85.36 49.1688 85.8714 48.827 86.4194 48.6009C86.9675 48.3749 87.5749 48.2619 88.2416 48.2619C88.7219 48.2619 89.1485 48.341 89.5214 48.4992C89.8943 48.6574 90.2079 48.8778 90.4622 49.1603C90.7164 49.4428 90.9085 49.7847 91.0385 50.1858C91.1684 50.587 91.2334 51.0277 91.2334 51.508V57H90.5639C90.417 57 90.304 56.9774 90.2249 56.9322C90.1458 56.8813 90.0836 56.7853 90.0384 56.644L89.8689 55.8304C89.6429 56.0395 89.4225 56.2259 89.2078 56.3898C88.9931 56.548 88.7671 56.6836 88.5298 56.7966C88.2925 56.9039 88.0382 56.9859 87.767 57.0424C87.5015 57.1045 87.2048 57.1356 86.8771 57.1356C86.5437 57.1356 86.2302 57.0904 85.9363 57C85.6425 56.9039 85.3854 56.7627 85.1651 56.5762C84.9504 56.3898 84.778 56.1553 84.6481 55.8728C84.5238 55.5846 84.4616 55.2456 84.4616 54.8557C84.4616 54.5167 84.5549 54.1918 84.7413 53.8811C84.9278 53.5647 85.2301 53.285 85.6482 53.042C86.0663 52.7991 86.6115 52.6013 87.2839 52.4487C87.9563 52.2905 88.7812 52.2001 89.7587 52.1775V51.508C89.7587 50.8413 89.6146 50.3384 89.3265 49.9994C89.0383 49.6547 88.6174 49.4824 88.0637 49.4824C87.6907 49.4824 87.3771 49.5304 87.1229 49.6265C86.8743 49.7169 86.6567 49.8214 86.4703 49.94C86.2895 50.053 86.1313 50.1576 85.9957 50.2536C85.8657 50.344 85.7358 50.3892 85.6058 50.3892C85.5041 50.3892 85.4165 50.3638 85.3431 50.313C85.2696 50.2565 85.2075 50.1887 85.1566 50.1096L84.8854 49.6265ZM94.9553 49.6604C95.1417 49.4513 95.3395 49.262 95.5486 49.0925C95.7576 48.923 95.978 48.7789 96.2096 48.6603C96.447 48.536 96.6956 48.4427 96.9555 48.3806C97.221 48.3128 97.5064 48.2789 97.8115 48.2789C98.2804 48.2789 98.6929 48.358 99.0489 48.5162C99.4105 48.6687 99.71 48.8891 99.9473 49.1773C100.19 49.4598 100.374 49.8016 100.498 50.2028C100.622 50.6039 100.685 51.0475 100.685 51.5334V57H99.1675V51.5334C99.1675 50.8836 99.0178 50.3808 98.7183 50.0248C98.4245 49.6632 97.9753 49.4824 97.3708 49.4824C96.9244 49.4824 96.5063 49.5897 96.1164 49.8044C95.7322 50.0191 95.3762 50.3101 95.0485 50.6774V57H93.5314V48.4145H94.4383C94.653 48.4145 94.7858 48.519 94.8366 48.7281L94.9553 49.6604ZM105.975 52.8047C106.28 52.8047 106.549 52.7623 106.78 52.6776C107.012 52.5928 107.207 52.4742 107.365 52.3216C107.523 52.1691 107.642 51.9883 107.721 51.7792C107.8 51.5645 107.84 51.33 107.84 51.0757C107.84 50.5503 107.679 50.1322 107.357 49.8214C107.04 49.5106 106.58 49.3552 105.975 49.3552C105.365 49.3552 104.899 49.5106 104.577 49.8214C104.26 50.1322 104.102 50.5503 104.102 51.0757C104.102 51.33 104.142 51.5645 104.221 51.7792C104.306 51.9883 104.427 52.1691 104.585 52.3216C104.743 52.4742 104.938 52.5928 105.17 52.6776C105.402 52.7623 105.67 52.8047 105.975 52.8047ZM108.696 57.4661C108.696 57.2571 108.636 57.0876 108.518 56.9576C108.399 56.8277 108.238 56.726 108.035 56.6525C107.837 56.5791 107.605 56.5282 107.34 56.5C107.074 56.4661 106.792 56.4406 106.492 56.4237C106.198 56.4067 105.899 56.3898 105.594 56.3728C105.289 56.3559 104.995 56.3276 104.712 56.2881C104.396 56.435 104.136 56.6214 103.933 56.8474C103.735 57.0678 103.636 57.3277 103.636 57.6272C103.636 57.8193 103.684 57.9973 103.78 58.1611C103.882 58.3306 104.034 58.4747 104.238 58.5934C104.441 58.7177 104.695 58.8137 105.001 58.8815C105.311 58.955 105.676 58.9917 106.094 58.9917C106.501 58.9917 106.865 58.955 107.187 58.8815C107.509 58.8081 107.78 58.7035 108.001 58.5679C108.227 58.4323 108.399 58.2713 108.518 58.0848C108.636 57.8984 108.696 57.6922 108.696 57.4661ZM110.23 48.7535V49.3129C110.23 49.4993 110.111 49.618 109.874 49.6688L108.899 49.796C109.091 50.1689 109.187 50.5813 109.187 51.0334C109.187 51.4515 109.105 51.8329 108.942 52.1775C108.783 52.5165 108.563 52.8075 108.281 53.0505C107.998 53.2935 107.659 53.4799 107.263 53.6099C106.868 53.7398 106.439 53.8048 105.975 53.8048C105.574 53.8048 105.195 53.7568 104.84 53.6607C104.659 53.7737 104.52 53.8952 104.424 54.0252C104.328 54.1495 104.28 54.2766 104.28 54.4065C104.28 54.61 104.362 54.7653 104.526 54.8727C104.695 54.9744 104.916 55.0478 105.187 55.093C105.458 55.1383 105.766 55.1665 106.111 55.1778C106.461 55.1891 106.817 55.2089 107.179 55.2371C107.546 55.2597 107.902 55.3021 108.247 55.3643C108.597 55.4264 108.908 55.5281 109.179 55.6694C109.45 55.8106 109.668 56.0056 109.831 56.2542C110.001 56.5028 110.086 56.8248 110.086 57.2204C110.086 57.5876 109.993 57.9436 109.806 58.2883C109.625 58.6329 109.363 58.938 109.018 59.2036C108.673 59.4748 108.249 59.6895 107.747 59.8477C107.249 60.0116 106.687 60.0935 106.06 60.0935C105.433 60.0935 104.885 60.0313 104.416 59.907C103.947 59.7827 103.557 59.6161 103.246 59.407C102.935 59.1979 102.701 58.955 102.543 58.6781C102.39 58.4069 102.314 58.1216 102.314 57.8221C102.314 57.3983 102.447 57.0396 102.712 56.7457C102.978 56.4519 103.342 56.2174 103.806 56.0423C103.551 55.9293 103.348 55.7796 103.195 55.5931C103.048 55.401 102.975 55.1439 102.975 54.8218C102.975 54.6975 102.998 54.5704 103.043 54.4404C103.088 54.3048 103.156 54.1721 103.246 54.0421C103.342 53.9065 103.458 53.7794 103.594 53.6607C103.729 53.5421 103.887 53.4375 104.068 53.3471C103.644 53.1098 103.314 52.7962 103.077 52.4064C102.839 52.0109 102.721 51.5532 102.721 51.0334C102.721 50.6152 102.8 50.2367 102.958 49.8977C103.122 49.553 103.348 49.262 103.636 49.0247C103.924 48.7817 104.266 48.5953 104.662 48.4653C105.063 48.3354 105.501 48.2704 105.975 48.2704C106.348 48.2704 106.696 48.3128 107.018 48.3975C107.34 48.4766 107.634 48.5953 107.899 48.7535H110.23ZM113.383 48.4145V57H111.875V48.4145H113.383ZM113.705 45.7193C113.705 45.8662 113.674 46.0047 113.612 46.1346C113.556 46.2589 113.476 46.3719 113.375 46.4736C113.279 46.5697 113.163 46.646 113.027 46.7025C112.897 46.759 112.759 46.7872 112.612 46.7872C112.465 46.7872 112.327 46.759 112.197 46.7025C112.072 46.646 111.962 46.5697 111.866 46.4736C111.77 46.3719 111.694 46.2589 111.637 46.1346C111.581 46.0047 111.553 45.8662 111.553 45.7193C111.553 45.5724 111.581 45.434 111.637 45.304C111.694 45.1684 111.77 45.0526 111.866 44.9565C111.962 44.8548 112.072 44.7757 112.197 44.7192C112.327 44.6627 112.465 44.6345 112.612 44.6345C112.759 44.6345 112.897 44.6627 113.027 44.7192C113.163 44.7757 113.279 44.8548 113.375 44.9565C113.476 45.0526 113.556 45.1684 113.612 45.304C113.674 45.434 113.705 45.5724 113.705 45.7193ZM117.286 49.6604C117.472 49.4513 117.67 49.262 117.879 49.0925C118.088 48.923 118.309 48.7789 118.54 48.6603C118.777 48.536 119.026 48.4427 119.286 48.3806C119.552 48.3128 119.837 48.2789 120.142 48.2789C120.611 48.2789 121.023 48.358 121.379 48.5162C121.741 48.6687 122.04 48.8891 122.278 49.1773C122.521 49.4598 122.704 49.8016 122.829 50.2028C122.953 50.6039 123.015 51.0475 123.015 51.5334V57H121.498V51.5334C121.498 50.8836 121.348 50.3808 121.049 50.0248C120.755 49.6632 120.306 49.4824 119.701 49.4824C119.255 49.4824 118.837 49.5897 118.447 49.8044C118.063 50.0191 117.707 50.3101 117.379 50.6774V57H115.862V48.4145H116.769C116.984 48.4145 117.116 48.519 117.167 48.7281L117.286 49.6604ZM128.306 52.8047C128.611 52.8047 128.879 52.7623 129.111 52.6776C129.343 52.5928 129.537 52.4742 129.696 52.3216C129.854 52.1691 129.973 51.9883 130.052 51.7792C130.131 51.5645 130.17 51.33 130.17 51.0757C130.17 50.5503 130.009 50.1322 129.687 49.8214C129.371 49.5106 128.91 49.3552 128.306 49.3552C127.696 49.3552 127.229 49.5106 126.907 49.8214C126.591 50.1322 126.433 50.5503 126.433 51.0757C126.433 51.33 126.472 51.5645 126.551 51.7792C126.636 51.9883 126.758 52.1691 126.916 52.3216C127.074 52.4742 127.269 52.5928 127.501 52.6776C127.732 52.7623 128.001 52.8047 128.306 52.8047ZM131.026 57.4661C131.026 57.2571 130.967 57.0876 130.848 56.9576C130.73 56.8277 130.569 56.726 130.365 56.6525C130.167 56.5791 129.936 56.5282 129.67 56.5C129.405 56.4661 129.122 56.4406 128.823 56.4237C128.529 56.4067 128.229 56.3898 127.924 56.3728C127.619 56.3559 127.325 56.3276 127.043 56.2881C126.727 56.435 126.467 56.6214 126.263 56.8474C126.065 57.0678 125.967 57.3277 125.967 57.6272C125.967 57.8193 126.015 57.9973 126.111 58.1611C126.212 58.3306 126.365 58.4747 126.568 58.5934C126.772 58.7177 127.026 58.8137 127.331 58.8815C127.642 58.955 128.006 58.9917 128.424 58.9917C128.831 58.9917 129.196 58.955 129.518 58.8815C129.84 58.8081 130.111 58.7035 130.331 58.5679C130.557 58.4323 130.73 58.2713 130.848 58.0848C130.967 57.8984 131.026 57.6922 131.026 57.4661ZM132.56 48.7535V49.3129C132.56 49.4993 132.442 49.618 132.204 49.6688L131.23 49.796C131.422 50.1689 131.518 50.5813 131.518 51.0334C131.518 51.4515 131.436 51.8329 131.272 52.1775C131.114 52.5165 130.894 52.8075 130.611 53.0505C130.329 53.2935 129.99 53.4799 129.594 53.6099C129.198 53.7398 128.769 53.8048 128.306 53.8048C127.905 53.8048 127.526 53.7568 127.17 53.6607C126.989 53.7737 126.851 53.8952 126.755 54.0252C126.659 54.1495 126.611 54.2766 126.611 54.4065C126.611 54.61 126.693 54.7653 126.856 54.8727C127.026 54.9744 127.246 55.0478 127.518 55.093C127.789 55.1383 128.097 55.1665 128.441 55.1778C128.792 55.1891 129.148 55.2089 129.509 55.2371C129.877 55.2597 130.232 55.3021 130.577 55.3643C130.927 55.4264 131.238 55.5281 131.509 55.6694C131.781 55.8106 131.998 56.0056 132.162 56.2542C132.332 56.5028 132.416 56.8248 132.416 57.2204C132.416 57.5876 132.323 57.9436 132.137 58.2883C131.956 58.6329 131.693 58.938 131.348 59.2036C131.004 59.4748 130.58 59.6895 130.077 59.8477C129.58 60.0116 129.018 60.0935 128.39 60.0935C127.763 60.0935 127.215 60.0313 126.746 59.907C126.277 59.7827 125.887 59.6161 125.577 59.407C125.266 59.1979 125.031 58.955 124.873 58.6781C124.721 58.4069 124.644 58.1216 124.644 57.8221C124.644 57.3983 124.777 57.0396 125.043 56.7457C125.308 56.4519 125.673 56.2174 126.136 56.0423C125.882 55.9293 125.678 55.7796 125.526 55.5931C125.379 55.401 125.305 55.1439 125.305 54.8218C125.305 54.6975 125.328 54.5704 125.373 54.4404C125.418 54.3048 125.486 54.1721 125.577 54.0421C125.673 53.9065 125.789 53.7794 125.924 53.6607C126.06 53.5421 126.218 53.4375 126.399 53.3471C125.975 53.1098 125.644 52.7962 125.407 52.4064C125.17 52.0109 125.051 51.5532 125.051 51.0334C125.051 50.6152 125.13 50.2367 125.289 49.8977C125.452 49.553 125.678 49.262 125.967 49.0247C126.255 48.7817 126.597 48.5953 126.992 48.4653C127.393 48.3354 127.831 48.2704 128.306 48.2704C128.679 48.2704 129.026 48.3128 129.348 48.3975C129.67 48.4766 129.964 48.5953 130.23 48.7535H132.56ZM141.093 57.1356C140.415 57.1356 139.892 56.9463 139.525 56.5678C139.164 56.1892 138.983 55.6439 138.983 54.932V49.6773H137.949C137.858 49.6773 137.782 49.6519 137.72 49.601C137.658 49.5445 137.627 49.4598 137.627 49.3468V48.745L139.034 48.567L139.381 45.9143C139.398 45.8295 139.435 45.7617 139.491 45.7109C139.553 45.6544 139.633 45.6261 139.729 45.6261H140.491V48.584H142.975V49.6773H140.491V54.8303C140.491 55.1919 140.579 55.4603 140.754 55.6355C140.929 55.8106 141.155 55.8982 141.432 55.8982C141.59 55.8982 141.726 55.8784 141.839 55.8389C141.958 55.7937 142.059 55.7457 142.144 55.6948C142.229 55.6439 142.299 55.5987 142.356 55.5592C142.418 55.514 142.472 55.4914 142.517 55.4914C142.596 55.4914 142.667 55.5394 142.729 55.6355L143.17 56.3559C142.91 56.5988 142.596 56.7909 142.229 56.9322C141.862 57.0678 141.483 57.1356 141.093 57.1356ZM146.05 49.5587C146.417 49.1688 146.824 48.858 147.27 48.6264C147.716 48.3947 148.231 48.2789 148.812 48.2789C149.281 48.2789 149.694 48.358 150.05 48.5162C150.411 48.6687 150.711 48.8891 150.948 49.1773C151.191 49.4598 151.375 49.8016 151.499 50.2028C151.623 50.6039 151.686 51.0475 151.686 51.5334V57H150.169V51.5334C150.169 50.8836 150.019 50.3808 149.719 50.0248C149.426 49.6632 148.976 49.4824 148.372 49.4824C147.925 49.4824 147.507 49.5897 147.117 49.8044C146.733 50.0191 146.377 50.3101 146.05 50.6774V57H144.532V44.5158H146.05V49.5587ZM159.731 51.7707C159.731 51.4204 159.68 51.1012 159.578 50.813C159.482 50.5192 159.338 50.2678 159.146 50.0587C158.959 49.844 158.731 49.6801 158.459 49.5671C158.188 49.4485 157.88 49.3891 157.536 49.3891C156.812 49.3891 156.239 49.601 155.815 50.0248C155.397 50.4429 155.137 51.0249 155.035 51.7707H159.731ZM160.951 55.7965C160.765 56.0225 160.542 56.2203 160.282 56.3898C160.022 56.5536 159.742 56.6892 159.443 56.7966C159.149 56.9039 158.844 56.983 158.527 57.0339C158.211 57.0904 157.897 57.1187 157.586 57.1187C156.993 57.1187 156.445 57.0198 155.942 56.822C155.445 56.6186 155.013 56.3248 154.645 55.9406C154.284 55.5507 154.001 55.0704 153.798 54.4998C153.595 53.9291 153.493 53.2737 153.493 52.5335C153.493 51.9346 153.583 51.3752 153.764 50.8554C153.951 50.3356 154.216 49.8864 154.561 49.5078C154.905 49.1236 155.326 48.8241 155.824 48.6094C156.321 48.3891 156.88 48.2789 157.502 48.2789C158.016 48.2789 158.49 48.3665 158.926 48.5416C159.366 48.7111 159.745 48.9597 160.061 49.2874C160.383 49.6095 160.635 50.0107 160.816 50.4909C160.996 50.9656 161.087 51.508 161.087 52.1182C161.087 52.3555 161.061 52.5137 161.01 52.5928C160.96 52.6719 160.864 52.7115 160.722 52.7115H154.985C155.001 53.2539 155.075 53.7257 155.205 54.1269C155.34 54.528 155.527 54.8642 155.764 55.1354C156.002 55.401 156.284 55.6016 156.612 55.7372C156.939 55.8671 157.307 55.9321 157.714 55.9321C158.092 55.9321 158.417 55.8897 158.688 55.805C158.965 55.7146 159.202 55.6185 159.4 55.5168C159.598 55.4151 159.762 55.3219 159.892 55.2371C160.027 55.1467 160.143 55.1015 160.239 55.1015C160.364 55.1015 160.46 55.1496 160.527 55.2456L160.951 55.7965ZM178.769 48.4145L175.989 57H174.794C174.647 57 174.546 56.9039 174.489 56.7118L172.591 50.8893C172.545 50.7593 172.509 50.6294 172.481 50.4994C172.452 50.3638 172.424 50.231 172.396 50.1011C172.368 50.231 172.339 50.3638 172.311 50.4994C172.283 50.6294 172.246 50.7622 172.201 50.8978L170.268 56.7118C170.218 56.9039 170.105 57 169.929 57H168.794L166.014 48.4145H167.2C167.319 48.4145 167.418 48.4456 167.497 48.5077C167.582 48.5699 167.638 48.6433 167.667 48.7281L169.311 54.254C169.407 54.6608 169.483 55.045 169.54 55.4066C169.59 55.2202 169.641 55.0309 169.692 54.8388C169.749 54.6467 169.808 54.4517 169.87 54.254L171.684 48.6942C171.712 48.6094 171.76 48.5388 171.828 48.4823C171.901 48.4258 171.989 48.3975 172.091 48.3975H172.752C172.865 48.3975 172.958 48.4258 173.031 48.4823C173.105 48.5388 173.156 48.6094 173.184 48.6942L174.955 54.254C175.017 54.4517 175.074 54.6467 175.125 54.8388C175.176 55.0309 175.224 55.2202 175.269 55.4066C175.297 55.2202 175.331 55.0337 175.371 54.8473C175.416 54.6552 175.464 54.4574 175.515 54.254L177.193 48.7281C177.221 48.6377 177.275 48.5642 177.354 48.5077C177.433 48.4456 177.526 48.4145 177.634 48.4145H178.769ZM184.792 53.1352C184.097 53.1578 183.503 53.2143 183.012 53.3048C182.526 53.3895 182.128 53.5025 181.817 53.6438C181.512 53.785 181.289 53.9517 181.147 54.1438C181.012 54.3359 180.944 54.5506 180.944 54.7879C180.944 55.0139 180.981 55.2089 181.054 55.3727C181.128 55.5366 181.226 55.6722 181.351 55.7796C181.481 55.8813 181.63 55.9575 181.8 56.0084C181.975 56.0536 182.162 56.0762 182.359 56.0762C182.625 56.0762 182.868 56.0508 183.088 55.9999C183.309 55.9434 183.515 55.8643 183.707 55.7626C183.905 55.6609 184.091 55.5394 184.266 55.3982C184.447 55.2569 184.622 55.0959 184.792 54.9151V53.1352ZM179.918 49.6265C180.393 49.1688 180.904 48.827 181.452 48.6009C182.001 48.3749 182.608 48.2619 183.275 48.2619C183.755 48.2619 184.182 48.341 184.554 48.4992C184.927 48.6574 185.241 48.8778 185.495 49.1603C185.749 49.4428 185.942 49.7847 186.072 50.1858C186.201 50.587 186.266 51.0277 186.266 51.508V57H185.597C185.45 57 185.337 56.9774 185.258 56.9322C185.179 56.8813 185.117 56.7853 185.071 56.644L184.902 55.8304C184.676 56.0395 184.456 56.2259 184.241 56.3898C184.026 56.548 183.8 56.6836 183.563 56.7966C183.326 56.9039 183.071 56.9859 182.8 57.0424C182.534 57.1045 182.238 57.1356 181.91 57.1356C181.577 57.1356 181.263 57.0904 180.969 57C180.676 56.9039 180.418 56.7627 180.198 56.5762C179.983 56.3898 179.811 56.1553 179.681 55.8728C179.557 55.5846 179.495 55.2456 179.495 54.8557C179.495 54.5167 179.588 54.1918 179.774 53.8811C179.961 53.5647 180.263 53.285 180.681 53.042C181.099 52.7991 181.645 52.6013 182.317 52.4487C182.989 52.2905 183.814 52.2001 184.792 52.1775V51.508C184.792 50.8413 184.648 50.3384 184.359 49.9994C184.071 49.6547 183.65 49.4824 183.097 49.4824C182.724 49.4824 182.41 49.5304 182.156 49.6265C181.907 49.7169 181.69 49.8214 181.503 49.94C181.323 50.053 181.164 50.1576 181.029 50.2536C180.899 50.344 180.769 50.3892 180.639 50.3892C180.537 50.3892 180.45 50.3638 180.376 50.313C180.303 50.2565 180.24 50.1887 180.19 50.1096L179.918 49.6265ZM195.773 48.4145L190.985 59.5341C190.934 59.6471 190.869 59.7375 190.79 59.8053C190.716 59.8731 190.6 59.907 190.442 59.907H189.324L190.891 56.5L187.349 48.4145H188.654C188.784 48.4145 188.886 48.4484 188.959 48.5162C189.038 48.5783 189.092 48.649 189.12 48.7281L191.417 54.1353C191.507 54.3726 191.584 54.6213 191.646 54.8812C191.725 54.6156 191.81 54.3642 191.9 54.1269L194.129 48.7281C194.163 48.6377 194.219 48.5642 194.299 48.5077C194.383 48.4456 194.477 48.4145 194.578 48.4145H195.773ZM212.522 48.4145L209.742 57H208.547C208.4 57 208.298 56.9039 208.242 56.7118L206.343 50.8893C206.298 50.7593 206.261 50.6294 206.233 50.4994C206.205 50.3638 206.176 50.231 206.148 50.1011C206.12 50.231 206.092 50.3638 206.063 50.4994C206.035 50.6294 205.998 50.7622 205.953 50.8978L204.021 56.7118C203.97 56.9039 203.857 57 203.682 57H202.546L199.766 48.4145H200.953C201.071 48.4145 201.17 48.4456 201.249 48.5077C201.334 48.5699 201.391 48.6433 201.419 48.7281L203.063 54.254C203.159 54.6608 203.235 55.045 203.292 55.4066C203.343 55.2202 203.394 55.0309 203.444 54.8388C203.501 54.6467 203.56 54.4517 203.622 54.254L205.436 48.6942C205.464 48.6094 205.512 48.5388 205.58 48.4823C205.654 48.4258 205.741 48.3975 205.843 48.3975H206.504C206.617 48.3975 206.71 48.4258 206.784 48.4823C206.857 48.5388 206.908 48.6094 206.936 48.6942L208.708 54.254C208.77 54.4517 208.826 54.6467 208.877 54.8388C208.928 55.0309 208.976 55.2202 209.021 55.4066C209.05 55.2202 209.083 55.0337 209.123 54.8473C209.168 54.6552 209.216 54.4574 209.267 54.254L210.945 48.7281C210.973 48.6377 211.027 48.5642 211.106 48.5077C211.185 48.4456 211.279 48.4145 211.386 48.4145H212.522ZM219.621 51.7707C219.621 51.4204 219.57 51.1012 219.468 50.813C219.372 50.5192 219.228 50.2678 219.036 50.0587C218.85 49.844 218.621 49.6801 218.35 49.5671C218.078 49.4485 217.77 49.3891 217.426 49.3891C216.703 49.3891 216.129 49.601 215.705 50.0248C215.287 50.4429 215.027 51.0249 214.926 51.7707H219.621ZM220.841 55.7965C220.655 56.0225 220.432 56.2203 220.172 56.3898C219.912 56.5536 219.632 56.6892 219.333 56.7966C219.039 56.9039 218.734 56.983 218.417 57.0339C218.101 57.0904 217.787 57.1187 217.477 57.1187C216.883 57.1187 216.335 57.0198 215.832 56.822C215.335 56.6186 214.903 56.3248 214.536 55.9406C214.174 55.5507 213.892 55.0704 213.688 54.4998C213.485 53.9291 213.383 53.2737 213.383 52.5335C213.383 51.9346 213.473 51.3752 213.654 50.8554C213.841 50.3356 214.106 49.8864 214.451 49.5078C214.796 49.1236 215.217 48.8241 215.714 48.6094C216.211 48.3891 216.77 48.2789 217.392 48.2789C217.906 48.2789 218.381 48.3665 218.816 48.5416C219.256 48.7111 219.635 48.9597 219.951 49.2874C220.273 49.6095 220.525 50.0107 220.706 50.4909C220.887 50.9656 220.977 51.508 220.977 52.1182C220.977 52.3555 220.951 52.5137 220.901 52.5928C220.85 52.6719 220.754 52.7115 220.612 52.7115H214.875C214.892 53.2539 214.965 53.7257 215.095 54.1269C215.231 54.528 215.417 54.8642 215.654 55.1354C215.892 55.401 216.174 55.6016 216.502 55.7372C216.83 55.8671 217.197 55.9321 217.604 55.9321C217.982 55.9321 218.307 55.8897 218.578 55.805C218.855 55.7146 219.093 55.6185 219.29 55.5168C219.488 55.4151 219.652 55.3219 219.782 55.2371C219.918 55.1467 220.033 55.1015 220.129 55.1015C220.254 55.1015 220.35 55.1496 220.418 55.2456L220.841 55.7965ZM231.82 53.1352C231.125 53.1578 230.532 53.2143 230.04 53.3048C229.554 53.3895 229.156 53.5025 228.845 53.6438C228.54 53.785 228.317 53.9517 228.176 54.1438C228.04 54.3359 227.972 54.5506 227.972 54.7879C227.972 55.0139 228.009 55.2089 228.082 55.3727C228.156 55.5366 228.255 55.6722 228.379 55.7796C228.509 55.8813 228.659 55.9575 228.828 56.0084C229.003 56.0536 229.19 56.0762 229.387 56.0762C229.653 56.0762 229.896 56.0508 230.116 55.9999C230.337 55.9434 230.543 55.8643 230.735 55.7626C230.933 55.6609 231.119 55.5394 231.294 55.3982C231.475 55.2569 231.65 55.0959 231.82 54.9151V53.1352ZM226.947 49.6265C227.421 49.1688 227.933 48.827 228.481 48.6009C229.029 48.3749 229.636 48.2619 230.303 48.2619C230.783 48.2619 231.21 48.341 231.583 48.4992C231.956 48.6574 232.269 48.8778 232.523 49.1603C232.778 49.4428 232.97 49.7847 233.1 50.1858C233.23 50.587 233.295 51.0277 233.295 51.508V57H232.625C232.478 57 232.365 56.9774 232.286 56.9322C232.207 56.8813 232.145 56.7853 232.1 56.644L231.93 55.8304C231.704 56.0395 231.484 56.2259 231.269 56.3898C231.054 56.548 230.828 56.6836 230.591 56.7966C230.354 56.9039 230.099 56.9859 229.828 57.0424C229.563 57.1045 229.266 57.1356 228.938 57.1356C228.605 57.1356 228.291 57.0904 227.998 57C227.704 56.9039 227.447 56.7627 227.226 56.5762C227.012 56.3898 226.839 56.1553 226.709 55.8728C226.585 55.5846 226.523 55.2456 226.523 54.8557C226.523 54.5167 226.616 54.1918 226.803 53.8811C226.989 53.5647 227.291 53.285 227.709 53.042C228.127 52.7991 228.673 52.6013 229.345 52.4487C230.017 52.2905 230.842 52.2001 231.82 52.1775V51.508C231.82 50.8413 231.676 50.3384 231.388 49.9994C231.1 49.6547 230.679 49.4824 230.125 49.4824C229.752 49.4824 229.438 49.5304 229.184 49.6265C228.935 49.7169 228.718 49.8214 228.531 49.94C228.351 50.053 228.192 50.1576 228.057 50.2536C227.927 50.344 227.797 50.3892 227.667 50.3892C227.565 50.3892 227.478 50.3638 227.404 50.313C227.331 50.2565 227.269 50.1887 227.218 50.1096L226.947 49.6265ZM238.584 52.8047C238.89 52.8047 239.158 52.7623 239.39 52.6776C239.621 52.5928 239.816 52.4742 239.974 52.3216C240.133 52.1691 240.251 51.9883 240.33 51.7792C240.409 51.5645 240.449 51.33 240.449 51.0757C240.449 50.5503 240.288 50.1322 239.966 49.8214C239.649 49.5106 239.189 49.3552 238.584 49.3552C237.974 49.3552 237.508 49.5106 237.186 49.8214C236.87 50.1322 236.711 50.5503 236.711 51.0757C236.711 51.33 236.751 51.5645 236.83 51.7792C236.915 51.9883 237.036 52.1691 237.194 52.3216C237.353 52.4742 237.548 52.5928 237.779 52.6776C238.011 52.7623 238.279 52.8047 238.584 52.8047ZM241.305 57.4661C241.305 57.2571 241.246 57.0876 241.127 56.9576C241.008 56.8277 240.847 56.726 240.644 56.6525C240.446 56.5791 240.215 56.5282 239.949 56.5C239.683 56.4661 239.401 56.4406 239.101 56.4237C238.808 56.4067 238.508 56.3898 238.203 56.3728C237.898 56.3559 237.604 56.3276 237.322 56.2881C237.005 56.435 236.745 56.6214 236.542 56.8474C236.344 57.0678 236.245 57.3277 236.245 57.6272C236.245 57.8193 236.293 57.9973 236.389 58.1611C236.491 58.3306 236.644 58.4747 236.847 58.5934C237.05 58.7177 237.305 58.8137 237.61 58.8815C237.921 58.955 238.285 58.9917 238.703 58.9917C239.11 58.9917 239.474 58.955 239.796 58.8815C240.118 58.8081 240.39 58.7035 240.61 58.5679C240.836 58.4323 241.008 58.2713 241.127 58.0848C241.246 57.8984 241.305 57.6922 241.305 57.4661ZM242.839 48.7535V49.3129C242.839 49.4993 242.72 49.618 242.483 49.6688L241.508 49.796C241.701 50.1689 241.797 50.5813 241.797 51.0334C241.797 51.4515 241.715 51.8329 241.551 52.1775C241.393 52.5165 241.172 52.8075 240.89 53.0505C240.607 53.2935 240.268 53.4799 239.873 53.6099C239.477 53.7398 239.048 53.8048 238.584 53.8048C238.183 53.8048 237.805 53.7568 237.449 53.6607C237.268 53.7737 237.129 53.8952 237.033 54.0252C236.937 54.1495 236.889 54.2766 236.889 54.4065C236.889 54.61 236.971 54.7653 237.135 54.8727C237.305 54.9744 237.525 55.0478 237.796 55.093C238.067 55.1383 238.375 55.1665 238.72 55.1778C239.07 55.1891 239.426 55.2089 239.788 55.2371C240.155 55.2597 240.511 55.3021 240.856 55.3643C241.206 55.4264 241.517 55.5281 241.788 55.6694C242.059 55.8106 242.277 56.0056 242.441 56.2542C242.61 56.5028 242.695 56.8248 242.695 57.2204C242.695 57.5876 242.602 57.9436 242.415 58.2883C242.234 58.6329 241.972 58.938 241.627 59.2036C241.282 59.4748 240.859 59.6895 240.356 59.8477C239.859 60.0116 239.296 60.0935 238.669 60.0935C238.042 60.0935 237.494 60.0313 237.025 59.907C236.556 59.7827 236.166 59.6161 235.855 59.407C235.545 59.1979 235.31 58.955 235.152 58.6781C234.999 58.4069 234.923 58.1216 234.923 57.8221C234.923 57.3983 235.056 57.0396 235.321 56.7457C235.587 56.4519 235.951 56.2174 236.415 56.0423C236.16 55.9293 235.957 55.7796 235.805 55.5931C235.658 55.401 235.584 55.1439 235.584 54.8218C235.584 54.6975 235.607 54.5704 235.652 54.4404C235.697 54.3048 235.765 54.1721 235.855 54.0421C235.951 53.9065 236.067 53.7794 236.203 53.6607C236.338 53.5421 236.497 53.4375 236.677 53.3471C236.254 53.1098 235.923 52.7962 235.686 52.4064C235.449 52.0109 235.33 51.5532 235.33 51.0334C235.33 50.6152 235.409 50.2367 235.567 49.8977C235.731 49.553 235.957 49.262 236.245 49.0247C236.533 48.7817 236.875 48.5953 237.271 48.4653C237.672 48.3354 238.11 48.2704 238.584 48.2704C238.957 48.2704 239.305 48.3128 239.627 48.3975C239.949 48.4766 240.243 48.5953 240.508 48.7535H242.839ZM250.013 51.7707C250.013 51.4204 249.962 51.1012 249.86 50.813C249.764 50.5192 249.62 50.2678 249.428 50.0587C249.242 49.844 249.013 49.6801 248.742 49.5671C248.47 49.4485 248.162 49.3891 247.818 49.3891C247.095 49.3891 246.521 49.601 246.097 50.0248C245.679 50.4429 245.419 51.0249 245.318 51.7707H250.013ZM251.233 55.7965C251.047 56.0225 250.824 56.2203 250.564 56.3898C250.304 56.5536 250.024 56.6892 249.725 56.7966C249.431 56.9039 249.126 56.983 248.809 57.0339C248.493 57.0904 248.179 57.1187 247.869 57.1187C247.275 57.1187 246.727 57.0198 246.224 56.822C245.727 56.6186 245.295 56.3248 244.928 55.9406C244.566 55.5507 244.284 55.0704 244.08 54.4998C243.877 53.9291 243.775 53.2737 243.775 52.5335C243.775 51.9346 243.865 51.3752 244.046 50.8554C244.233 50.3356 244.498 49.8864 244.843 49.5078C245.188 49.1236 245.609 48.8241 246.106 48.6094C246.603 48.3891 247.162 48.2789 247.784 48.2789C248.298 48.2789 248.773 48.3665 249.208 48.5416C249.648 48.7111 250.027 48.9597 250.343 49.2874C250.665 49.6095 250.917 50.0107 251.098 50.4909C251.279 50.9656 251.369 51.508 251.369 52.1182C251.369 52.3555 251.344 52.5137 251.293 52.5928C251.242 52.6719 251.146 52.7115 251.005 52.7115H245.267C245.284 53.2539 245.357 53.7257 245.487 54.1269C245.623 54.528 245.809 54.8642 246.046 55.1354C246.284 55.401 246.566 55.6016 246.894 55.7372C247.222 55.8671 247.589 55.9321 247.996 55.9321C248.374 55.9321 248.699 55.8897 248.97 55.805C249.247 55.7146 249.485 55.6185 249.682 55.5168C249.88 55.4151 250.044 55.3219 250.174 55.2371C250.31 55.1467 250.425 55.1015 250.521 55.1015C250.646 55.1015 250.742 55.1496 250.81 55.2456L251.233 55.7965Z" fill="#383F51"/>
<path d="M4.62838 3.34677V23.4187C4.62838 25.7765 5.07312 27.7364 5.9626 29.2986C7.28147 31.6563 9.50516 32.8352 12.6337 32.8352C16.3848 32.8352 18.935 31.5605 20.2842 29.0109C21.0108 27.6256 21.3741 25.7614 21.3741 23.4182V3.34677H25.8667V21.5836C25.8667 25.5773 25.3255 28.65 24.2431 30.8017C22.2572 34.7216 18.5063 36.6815 12.9907 36.6815C7.47501 36.6815 3.73139 34.7216 1.75983 30.8017C0.67743 28.65 0.13623 25.5773 0.13623 21.5836V3.34677H4.62838Z" fill="#383F51"/>
<path d="M32.5646 17.6575C32.5692 15.4719 32.9596 13.3041 33.718 11.2527C34.4664 9.17747 35.5972 7.25901 37.0526 5.59552C38.5422 3.90718 40.3584 2.53411 42.3931 1.55809C44.6483 0.495114 47.1208 -0.0337907 49.6163 0.0129026C52.5143 -0.060584 55.3742 0.682478 57.8654 2.15623C60.0902 3.4781 61.8767 5.4187 63.0044 7.73839L57.6901 11.3771C57.3321 10.4507 56.8051 9.59805 56.1355 8.86196C55.538 8.20989 54.8346 7.66221 54.0546 7.24177C53.3196 6.84954 52.5353 6.55628 51.7225 6.36972C50.9664 6.1923 50.1925 6.10026 49.4157 6.09534C47.9106 6.06246 46.4234 6.42344 45.1029 7.14208C43.8918 7.8179 42.8406 8.7442 42.0205 9.8584C41.1841 11.0037 40.5549 12.2852 40.1613 13.6452C39.7501 15.0119 39.5389 16.4304 39.5342 17.8569C39.5294 19.3898 39.7749 20.9133 40.2611 22.3681C40.7124 23.7511 41.4092 25.0426 42.3186 26.1814C43.1902 27.2662 44.2732 28.1647 45.5028 28.8232C46.7506 29.4905 48.1478 29.8334 49.5647 29.8201C50.3598 29.8168 51.1513 29.7164 51.9217 29.521C52.7398 29.3153 53.5248 28.9965 54.2538 28.574C55.0279 28.1245 55.7294 27.5617 56.3347 26.9044C56.9971 26.1801 57.5236 25.3438 57.8893 24.435L63.556 27.6763C63.0288 28.9938 62.2353 30.1898 61.2244 31.1902C60.1951 32.2106 59.0208 33.0754 57.7389 33.7569C56.4387 34.4535 55.0578 34.9893 53.6267 35.3524C52.2342 35.7123 50.8016 35.8965 49.3628 35.9007C47.0008 35.9272 44.668 35.3797 42.5675 34.3057C40.5446 33.2685 38.7402 31.8559 37.2518 30.1443C35.7576 28.421 34.5861 26.4456 33.793 24.3116C32.9833 22.1853 32.5671 19.931 32.5646 17.6575ZM64.1578 35.6016L78.1992 0.211823H83.8158L97.8085 35.6016H90.4855L87.2268 26.7791H74.739L71.4794 35.6016H64.1578ZM81.0075 7.6387L75.8924 21.9442H85.9722L81.0075 7.6387ZM101.618 35.6016V0.211823H117.365C118.937 0.196914 120.491 0.546875 121.903 1.23387C123.262 1.89329 124.479 2.80723 125.489 3.92549C126.493 5.04038 127.291 6.32283 127.846 7.7137C128.402 9.0667 128.692 10.5135 128.698 11.9752C128.723 14.1804 128.123 16.348 126.968 18.231C125.883 20.0496 124.24 21.474 122.279 22.2945L130.654 35.6016H122.833L115.359 23.7386H108.539V35.6016H101.618ZM108.539 17.7074H117.214C117.837 17.7107 118.449 17.5563 118.995 17.2588C119.552 16.9551 120.038 16.539 120.424 16.0373C120.843 15.4889 121.165 14.8738 121.377 14.2182C121.615 13.4943 121.733 12.7368 121.728 11.9752C121.736 11.193 121.6 10.4158 121.326 9.68234C121.078 9.01706 120.713 8.40094 120.248 7.86277C119.817 7.36325 119.288 6.95622 118.693 6.6665C118.141 6.39174 117.532 6.24687 116.913 6.24305H108.54L108.539 17.7074ZM160.141 29.5704V35.6016H135.418V0.211823H159.688V6.24351H142.338V14.767H157.333V20.3496H142.338V29.5709L160.141 29.5704Z" fill="#EC6571"/>
<path d="M168.297 6.10352e-05H174.052L192.22 28.9626V6.10352e-05H196.849V35.753H191.389L172.95 6.81462V35.753H168.297V6.10352e-05ZM204.977 6.10352e-05H231.201V4.38092H209.728V15.2357H229.587V19.3732H209.728V31.4915H231.57V35.753H204.978L204.977 6.10352e-05ZM264.136 6.10352e-05V4.25928H252.016V35.753H247.07V4.25928H234.95V6.10352e-05H264.136Z" fill="#383F51"/>
<path d="M19.3211 39.3256H6.27115C5.06854 39.3256 4.09363 40.2946 4.09363 41.49V41.8357C4.09363 43.031 5.06854 44.0001 6.27115 44.0001H19.3211C20.5237 44.0001 21.4987 43.031 21.4987 41.8357V41.49C21.4987 40.2946 20.5237 39.3256 19.3211 39.3256Z" fill="#EC6571"/>
</svg>
