<svg width="301" height="51" viewBox="0 0 301 51" fill="none" xmlns="http://www.w3.org/2000/svg">
<path d="M5.24095 4.25977V27.2075C5.24095 29.9031 5.74633 32.1439 6.7571 33.9298C8.25582 36.6254 10.7827 37.9732 14.3379 37.9732C18.6005 37.9732 21.4984 36.5158 23.0317 33.6009C23.8574 32.0172 24.2702 29.8858 24.2702 27.207V4.25977H29.3754V25.1094C29.3754 29.6753 28.7604 33.1883 27.5304 35.6483C25.2736 40.1298 21.0113 42.3706 14.7436 42.3706C8.47575 42.3706 4.22164 40.1298 1.98123 35.6483C0.751229 33.1883 0.13623 29.6753 0.13623 25.1094V4.25977H5.24095Z" fill="white"/>
<path d="M36.9866 20.6207C36.9918 18.122 37.4354 15.6436 38.2973 13.2982C39.1477 10.9257 40.4327 8.73236 42.0866 6.83053C43.7793 4.90029 45.8432 3.33049 48.1554 2.21464C50.7181 0.999363 53.5277 0.394679 56.3635 0.448063C59.6568 0.364047 62.9066 1.21357 65.7375 2.89847C68.2656 4.40973 70.2958 6.62837 71.5773 9.28042L65.5383 13.4404C65.1315 12.3814 64.5326 11.4065 63.7717 10.565C63.0928 9.81947 62.2934 9.19332 61.407 8.71265C60.5718 8.26421 59.6806 7.92894 58.7569 7.71565C57.8977 7.51282 57.0184 7.40759 56.1355 7.40196C54.4253 7.36437 52.7352 7.77707 51.2347 8.59867C49.8584 9.37132 48.6639 10.4303 47.7319 11.7042C46.7815 13.0136 46.0665 14.4786 45.6192 16.0336C45.1519 17.5961 44.9119 19.2177 44.9066 20.8486C44.9012 22.6012 45.1802 24.343 45.7327 26.0062C46.2455 27.5873 47.0373 29.0639 48.0707 30.3659C49.0611 31.606 50.2919 32.6333 51.689 33.3862C53.107 34.1491 54.6948 34.5411 56.3049 34.5259C57.2084 34.5221 58.1079 34.4073 58.9833 34.184C59.913 33.9488 60.805 33.5843 61.6334 33.1012C62.513 32.5873 63.3102 31.9438 63.9981 31.1924C64.7508 30.3644 65.3491 29.4082 65.7647 28.3693L72.2041 32.0749C71.6051 33.5812 70.7033 34.9485 69.5545 36.0922C68.3849 37.2589 67.0504 38.2476 65.5937 39.0268C64.1163 39.8231 62.547 40.4357 60.9208 40.8508C59.3384 41.2622 57.7105 41.4728 56.0754 41.4777C53.3913 41.508 50.7405 40.882 48.3535 39.6541C46.0548 38.4683 44.0044 36.8534 42.313 34.8966C40.615 32.9264 39.2838 30.6679 38.3825 28.2281C37.4623 25.7972 36.9894 23.2199 36.9866 20.6207ZM72.888 41.1358L88.8441 0.675484H95.2266L111.127 41.1358H102.806L99.1027 31.0492H84.9121L81.208 41.1358H72.888ZM92.0354 9.16645L86.2228 25.5215H97.677L92.0354 9.16645ZM115.457 41.1358V0.675484H133.35C135.137 0.658438 136.903 1.05854 138.508 1.84397C140.052 2.59786 141.435 3.64275 142.582 4.92123C143.723 6.19585 144.63 7.66204 145.261 9.25219C145.893 10.799 146.222 12.4531 146.229 14.1243C146.257 16.6454 145.576 19.1236 144.263 21.2763C143.03 23.3555 141.163 24.984 138.935 25.922L148.452 41.1358H139.564L131.071 27.573H123.321V41.1358H115.457ZM123.321 20.6777H133.179C133.887 20.6815 134.583 20.505 135.203 20.1648C135.836 19.8176 136.389 19.342 136.827 18.7684C137.303 18.1414 137.669 17.4381 137.909 16.6886C138.18 15.861 138.315 14.995 138.308 14.1243C138.318 13.2299 138.164 12.3414 137.852 11.5029C137.57 10.7423 137.156 10.0379 136.627 9.42262C136.137 8.85153 135.536 8.38619 134.86 8.05495C134.232 7.74083 133.54 7.5752 132.838 7.57083H123.322L123.321 20.6777ZM181.96 34.2404V41.1358H153.866V0.675484H181.445V7.57135H161.73V17.316H178.769V23.6985H161.73V34.241L181.96 34.2404Z" fill="#EC6571"/>
<path d="M191.228 0.433594H197.768L218.414 33.5458V0.433594H223.673V41.309H217.468L196.516 8.22451V41.309H191.228V0.433594ZM232.91 0.433594H262.71V5.44212H238.309V17.8521H260.876V22.5825H238.309V36.4369H263.13V41.309H232.911L232.91 0.433594ZM300.136 0.433594V5.30305H286.364V41.309H280.743V5.30305H266.97V0.433594H300.136Z" fill="white"/>
<path d="M21.9372 45.3936H7.10764C5.74103 45.3936 4.63318 46.5014 4.63318 47.868V48.2633C4.63318 49.6299 5.74103 50.7377 7.10764 50.7377H21.9372C23.3038 50.7377 24.4116 49.6299 24.4116 48.2633V47.868C24.4116 46.5014 23.3038 45.3936 21.9372 45.3936Z" fill="#EC6571"/>
</svg>
