<svg width="264" height="61" viewBox="0 0 264 61" fill="none" xmlns="http://www.w3.org/2000/svg">
<path d="M73.0772 54.4913C73.1676 54.4913 73.2467 54.528 73.3145 54.6015L73.9671 55.3049C73.4699 55.8813 72.8653 56.3304 72.1534 56.6525C71.4471 56.9746 70.5911 57.1356 69.5853 57.1356C68.7152 57.1356 67.9242 56.9859 67.2122 56.6864C66.5003 56.3813 65.8929 55.9575 65.39 55.4151C64.8872 54.867 64.4973 54.2116 64.2204 53.4488C63.9436 52.6861 63.8052 51.847 63.8052 50.9317C63.8052 50.0163 63.9492 49.1773 64.2374 48.4145C64.5256 47.6517 64.9296 46.9963 65.4494 46.4482C65.9748 45.9001 66.602 45.4764 67.3309 45.1769C68.0598 44.8718 68.8649 44.7192 69.7464 44.7192C70.6109 44.7192 71.3736 44.8577 72.0347 45.1345C72.6958 45.4114 73.2778 45.7871 73.7806 46.2617L73.2382 47.0161C73.2043 47.0726 73.1591 47.1206 73.1026 47.1601C73.0517 47.194 72.9811 47.211 72.8907 47.211C72.789 47.211 72.6647 47.1573 72.5178 47.05C72.3709 46.937 72.1788 46.8126 71.9415 46.677C71.7042 46.5414 71.4075 46.42 71.0516 46.3126C70.6956 46.1996 70.2577 46.1431 69.7379 46.1431C69.1107 46.1431 68.5372 46.2533 68.0174 46.4736C67.4976 46.6883 67.0484 47.0019 66.6698 47.4144C66.2969 47.8269 66.0059 48.3297 65.7969 48.923C65.5878 49.5163 65.4833 50.1858 65.4833 50.9317C65.4833 51.6888 65.5906 52.364 65.8053 52.9573C66.0257 53.5505 66.3223 54.0534 66.6952 54.4659C67.0738 54.8727 67.5174 55.1835 68.0259 55.3982C68.54 55.6129 69.0938 55.7202 69.687 55.7202C70.0487 55.7202 70.3735 55.7004 70.6617 55.6609C70.9555 55.6157 71.2239 55.5479 71.4669 55.4575C71.7155 55.3671 71.9443 55.2541 72.1534 55.1185C72.3681 54.9772 72.58 54.8105 72.789 54.6184C72.8851 54.5337 72.9811 54.4913 73.0772 54.4913ZM77.0346 49.5587C77.4019 49.1688 77.8087 48.858 78.2551 48.6264C78.7014 48.3947 79.2156 48.2789 79.7976 48.2789C80.2666 48.2789 80.679 48.358 81.035 48.5162C81.3966 48.6687 81.6961 48.8891 81.9334 49.1773C82.1763 49.4598 82.36 49.8016 82.4843 50.2028C82.6086 50.6039 82.6707 51.0475 82.6707 51.5334V57H81.1536V51.5334C81.1536 50.8836 81.0039 50.3808 80.7044 50.0248C80.4106 49.6632 79.9614 49.4824 79.3569 49.4824C78.9105 49.4824 78.4924 49.5897 78.1025 49.8044C77.7183 50.0191 77.3623 50.3101 77.0346 50.6774V57H75.5175V44.5158H77.0346V49.5587ZM89.6225 53.1352C88.9275 53.1578 88.3342 53.2143 87.8427 53.3048C87.3567 53.3895 86.9584 53.5025 86.6476 53.6438C86.3425 53.785 86.1193 53.9517 85.9781 54.1438C85.8425 54.3359 85.7747 54.5506 85.7747 54.7879C85.7747 55.0139 85.8114 55.2089 85.8849 55.3727C85.9583 55.5366 86.0572 55.6722 86.1815 55.7796C86.3115 55.8813 86.4612 55.9575 86.6307 56.0084C86.8059 56.0536 86.9923 56.0762 87.1901 56.0762C87.4556 56.0762 87.6986 56.0508 87.9189 55.9999C88.1393 55.9434 88.3455 55.8643 88.5376 55.7626C88.7354 55.6609 88.9219 55.5394 89.097 55.3982C89.2778 55.2569 89.453 55.0959 89.6225 54.9151V53.1352ZM84.7492 49.6265C85.2238 49.1688 85.7351 48.827 86.2832 48.6009C86.8313 48.3749 87.4387 48.2619 88.1054 48.2619C88.5857 48.2619 89.0123 48.341 89.3852 48.4992C89.7581 48.6574 90.0717 48.8778 90.3259 49.1603C90.5802 49.4428 90.7723 49.7847 90.9023 50.1858C91.0322 50.587 91.0972 51.0277 91.0972 51.508V57H90.4276C90.2807 57 90.1677 56.9774 90.0886 56.9322C90.0095 56.8813 89.9474 56.7853 89.9022 56.644L89.7327 55.8304C89.5067 56.0395 89.2863 56.2259 89.0716 56.3898C88.8569 56.548 88.6309 56.6836 88.3936 56.7966C88.1563 56.9039 87.902 56.9859 87.6308 57.0424C87.3652 57.1045 87.0686 57.1356 86.7409 57.1356C86.4075 57.1356 86.0939 57.0904 85.8001 57C85.5063 56.9039 85.2492 56.7627 85.0289 56.5762C84.8141 56.3898 84.6418 56.1553 84.5119 55.8728C84.3876 55.5846 84.3254 55.2456 84.3254 54.8557C84.3254 54.5167 84.4186 54.1918 84.6051 53.8811C84.7915 53.5647 85.0938 53.285 85.5119 53.042C85.9301 52.7991 86.4753 52.6013 87.1477 52.4487C87.8201 52.2905 88.645 52.2001 89.6225 52.1775V51.508C89.6225 50.8413 89.4784 50.3384 89.1902 49.9994C88.9021 49.6547 88.4811 49.4824 87.9274 49.4824C87.5545 49.4824 87.2409 49.5304 86.9867 49.6265C86.738 49.7169 86.5205 49.8214 86.3341 49.94C86.1533 50.053 85.995 50.1576 85.8594 50.2536C85.7295 50.344 85.5995 50.3892 85.4696 50.3892C85.3679 50.3892 85.2803 50.3638 85.2068 50.313C85.1334 50.2565 85.0712 50.1887 85.0204 50.1096L84.7492 49.6265ZM94.8191 49.6604C95.0055 49.4513 95.2033 49.262 95.4123 49.0925C95.6214 48.923 95.8418 48.7789 96.0734 48.6603C96.3107 48.536 96.5593 48.4427 96.8192 48.3806C97.0848 48.3128 97.3701 48.2789 97.6752 48.2789C98.1442 48.2789 98.5567 48.358 98.9126 48.5162C99.2743 48.6687 99.5737 48.8891 99.811 49.1773C100.054 49.4598 100.238 49.8016 100.362 50.2028C100.486 50.6039 100.548 51.0475 100.548 51.5334V57H99.0313V51.5334C99.0313 50.8836 98.8816 50.3808 98.5821 50.0248C98.2883 49.6632 97.8391 49.4824 97.2345 49.4824C96.7882 49.4824 96.37 49.5897 95.9802 49.8044C95.596 50.0191 95.24 50.3101 94.9123 50.6774V57H93.3952V48.4145H94.3021C94.5168 48.4145 94.6496 48.519 94.7004 48.7281L94.8191 49.6604ZM105.839 52.8047C106.144 52.8047 106.412 52.7623 106.644 52.6776C106.876 52.5928 107.071 52.4742 107.229 52.3216C107.387 52.1691 107.506 51.9883 107.585 51.7792C107.664 51.5645 107.704 51.33 107.704 51.0757C107.704 50.5503 107.543 50.1322 107.22 49.8214C106.904 49.5106 106.444 49.3552 105.839 49.3552C105.229 49.3552 104.763 49.5106 104.441 49.8214C104.124 50.1322 103.966 50.5503 103.966 51.0757C103.966 51.33 104.005 51.5645 104.085 51.7792C104.169 51.9883 104.291 52.1691 104.449 52.3216C104.607 52.4742 104.802 52.5928 105.034 52.6776C105.265 52.7623 105.534 52.8047 105.839 52.8047ZM108.56 57.4661C108.56 57.2571 108.5 57.0876 108.382 56.9576C108.263 56.8277 108.102 56.726 107.898 56.6525C107.701 56.5791 107.469 56.5282 107.204 56.5C106.938 56.4661 106.655 56.4406 106.356 56.4237C106.062 56.4067 105.763 56.3898 105.458 56.3728C105.152 56.3559 104.859 56.3276 104.576 56.2881C104.26 56.435 104 56.6214 103.796 56.8474C103.599 57.0678 103.5 57.3277 103.5 57.6272C103.5 57.8193 103.548 57.9973 103.644 58.1611C103.746 58.3306 103.898 58.4747 104.102 58.5934C104.305 58.7177 104.559 58.8137 104.864 58.8815C105.175 58.955 105.54 58.9917 105.958 58.9917C106.364 58.9917 106.729 58.955 107.051 58.8815C107.373 58.8081 107.644 58.7035 107.865 58.5679C108.091 58.4323 108.263 58.2713 108.382 58.0848C108.5 57.8984 108.56 57.6922 108.56 57.4661ZM110.094 48.7535V49.3129C110.094 49.4993 109.975 49.618 109.738 49.6688L108.763 49.796C108.955 50.1689 109.051 50.5813 109.051 51.0334C109.051 51.4515 108.969 51.8329 108.805 52.1775C108.647 52.5165 108.427 52.8075 108.144 53.0505C107.862 53.2935 107.523 53.4799 107.127 53.6099C106.732 53.7398 106.302 53.8048 105.839 53.8048C105.438 53.8048 105.059 53.7568 104.703 53.6607C104.522 53.7737 104.384 53.8952 104.288 54.0252C104.192 54.1495 104.144 54.2766 104.144 54.4065C104.144 54.61 104.226 54.7653 104.39 54.8727C104.559 54.9744 104.78 55.0478 105.051 55.093C105.322 55.1383 105.63 55.1665 105.975 55.1778C106.325 55.1891 106.681 55.2089 107.042 55.2371C107.41 55.2597 107.766 55.3021 108.11 55.3643C108.461 55.4264 108.771 55.5281 109.043 55.6694C109.314 55.8106 109.531 56.0056 109.695 56.2542C109.865 56.5028 109.95 56.8248 109.95 57.2204C109.95 57.5876 109.856 57.9436 109.67 58.2883C109.489 58.6329 109.226 58.938 108.882 59.2036C108.537 59.4748 108.113 59.6895 107.61 59.8477C107.113 60.0116 106.551 60.0935 105.924 60.0935C105.297 60.0935 104.748 60.0313 104.28 59.907C103.811 59.7827 103.421 59.6161 103.11 59.407C102.799 59.1979 102.565 58.955 102.406 58.6781C102.254 58.4069 102.178 58.1216 102.178 57.8221C102.178 57.3983 102.31 57.0396 102.576 56.7457C102.842 56.4519 103.206 56.2174 103.669 56.0423C103.415 55.9293 103.212 55.7796 103.059 55.5931C102.912 55.401 102.839 55.1439 102.839 54.8218C102.839 54.6975 102.861 54.5704 102.907 54.4404C102.952 54.3048 103.02 54.1721 103.11 54.0421C103.206 53.9065 103.322 53.7794 103.457 53.6607C103.593 53.5421 103.751 53.4375 103.932 53.3471C103.508 53.1098 103.178 52.7962 102.94 52.4064C102.703 52.0109 102.584 51.5532 102.584 51.0334C102.584 50.6152 102.664 50.2367 102.822 49.8977C102.986 49.553 103.212 49.262 103.5 49.0247C103.788 48.7817 104.13 48.5953 104.525 48.4653C104.926 48.3354 105.364 48.2704 105.839 48.2704C106.212 48.2704 106.559 48.3128 106.881 48.3975C107.204 48.4766 107.497 48.5953 107.763 48.7535H110.094ZM113.247 48.4145V57H111.738V48.4145H113.247ZM113.569 45.7193C113.569 45.8662 113.538 46.0047 113.476 46.1346C113.419 46.2589 113.34 46.3719 113.238 46.4736C113.142 46.5697 113.027 46.646 112.891 46.7025C112.761 46.759 112.623 46.7872 112.476 46.7872C112.329 46.7872 112.19 46.759 112.06 46.7025C111.936 46.646 111.826 46.5697 111.73 46.4736C111.634 46.3719 111.558 46.2589 111.501 46.1346C111.445 46.0047 111.416 45.8662 111.416 45.7193C111.416 45.5724 111.445 45.434 111.501 45.304C111.558 45.1684 111.634 45.0526 111.73 44.9565C111.826 44.8548 111.936 44.7757 112.06 44.7192C112.19 44.6627 112.329 44.6345 112.476 44.6345C112.623 44.6345 112.761 44.6627 112.891 44.7192C113.027 44.7757 113.142 44.8548 113.238 44.9565C113.34 45.0526 113.419 45.1684 113.476 45.304C113.538 45.434 113.569 45.5724 113.569 45.7193ZM117.15 49.6604C117.336 49.4513 117.534 49.262 117.743 49.0925C117.952 48.923 118.172 48.7789 118.404 48.6603C118.641 48.536 118.89 48.4427 119.15 48.3806C119.415 48.3128 119.701 48.2789 120.006 48.2789C120.475 48.2789 120.887 48.358 121.243 48.5162C121.605 48.6687 121.904 48.8891 122.142 49.1773C122.385 49.4598 122.568 49.8016 122.692 50.2028C122.817 50.6039 122.879 51.0475 122.879 51.5334V57H121.362V51.5334C121.362 50.8836 121.212 50.3808 120.913 50.0248C120.619 49.6632 120.17 49.4824 119.565 49.4824C119.119 49.4824 118.701 49.5897 118.311 49.8044C117.926 50.0191 117.571 50.3101 117.243 50.6774V57H115.726V48.4145H116.633C116.847 48.4145 116.98 48.519 117.031 48.7281L117.15 49.6604ZM128.17 52.8047C128.475 52.8047 128.743 52.7623 128.975 52.6776C129.206 52.5928 129.401 52.4742 129.559 52.3216C129.718 52.1691 129.836 51.9883 129.915 51.7792C129.995 51.5645 130.034 51.33 130.034 51.0757C130.034 50.5503 129.873 50.1322 129.551 49.8214C129.235 49.5106 128.774 49.3552 128.17 49.3552C127.559 49.3552 127.093 49.5106 126.771 49.8214C126.455 50.1322 126.296 50.5503 126.296 51.0757C126.296 51.33 126.336 51.5645 126.415 51.7792C126.5 51.9883 126.621 52.1691 126.78 52.3216C126.938 52.4742 127.133 52.5928 127.364 52.6776C127.596 52.7623 127.864 52.8047 128.17 52.8047ZM130.89 57.4661C130.89 57.2571 130.831 57.0876 130.712 56.9576C130.593 56.8277 130.432 56.726 130.229 56.6525C130.031 56.5791 129.8 56.5282 129.534 56.5C129.268 56.4661 128.986 56.4406 128.687 56.4237C128.393 56.4067 128.093 56.3898 127.788 56.3728C127.483 56.3559 127.189 56.3276 126.907 56.2881C126.59 56.435 126.33 56.6214 126.127 56.8474C125.929 57.0678 125.83 57.3277 125.83 57.6272C125.83 57.8193 125.878 57.9973 125.974 58.1611C126.076 58.3306 126.229 58.4747 126.432 58.5934C126.635 58.7177 126.89 58.8137 127.195 58.8815C127.506 58.955 127.87 58.9917 128.288 58.9917C128.695 58.9917 129.059 58.955 129.381 58.8815C129.704 58.8081 129.975 58.7035 130.195 58.5679C130.421 58.4323 130.593 58.2713 130.712 58.0848C130.831 57.8984 130.89 57.6922 130.89 57.4661ZM132.424 48.7535V49.3129C132.424 49.4993 132.305 49.618 132.068 49.6688L131.094 49.796C131.286 50.1689 131.382 50.5813 131.382 51.0334C131.382 51.4515 131.3 51.8329 131.136 52.1775C130.978 52.5165 130.757 52.8075 130.475 53.0505C130.192 53.2935 129.853 53.4799 129.458 53.6099C129.062 53.7398 128.633 53.8048 128.17 53.8048C127.768 53.8048 127.39 53.7568 127.034 53.6607C126.853 53.7737 126.715 53.8952 126.619 54.0252C126.522 54.1495 126.474 54.2766 126.474 54.4065C126.474 54.61 126.556 54.7653 126.72 54.8727C126.89 54.9744 127.11 55.0478 127.381 55.093C127.653 55.1383 127.96 55.1665 128.305 55.1778C128.655 55.1891 129.011 55.2089 129.373 55.2371C129.74 55.2597 130.096 55.3021 130.441 55.3643C130.791 55.4264 131.102 55.5281 131.373 55.6694C131.644 55.8106 131.862 56.0056 132.026 56.2542C132.195 56.5028 132.28 56.8248 132.28 57.2204C132.28 57.5876 132.187 57.9436 132 58.2883C131.82 58.6329 131.557 58.938 131.212 59.2036C130.867 59.4748 130.444 59.6895 129.941 59.8477C129.444 60.0116 128.881 60.0935 128.254 60.0935C127.627 60.0935 127.079 60.0313 126.61 59.907C126.141 59.7827 125.751 59.6161 125.44 59.407C125.13 59.1979 124.895 58.955 124.737 58.6781C124.584 58.4069 124.508 58.1216 124.508 57.8221C124.508 57.3983 124.641 57.0396 124.907 56.7457C125.172 56.4519 125.537 56.2174 126 56.0423C125.746 55.9293 125.542 55.7796 125.39 55.5931C125.243 55.401 125.169 55.1439 125.169 54.8218C125.169 54.6975 125.192 54.5704 125.237 54.4404C125.282 54.3048 125.35 54.1721 125.44 54.0421C125.537 53.9065 125.652 53.7794 125.788 53.6607C125.924 53.5421 126.082 53.4375 126.263 53.3471C125.839 53.1098 125.508 52.7962 125.271 52.4064C125.034 52.0109 124.915 51.5532 124.915 51.0334C124.915 50.6152 124.994 50.2367 125.152 49.8977C125.316 49.553 125.542 49.262 125.83 49.0247C126.118 48.7817 126.46 48.5953 126.856 48.4653C127.257 48.3354 127.695 48.2704 128.17 48.2704C128.542 48.2704 128.89 48.3128 129.212 48.3975C129.534 48.4766 129.828 48.5953 130.093 48.7535H132.424ZM140.957 57.1356C140.279 57.1356 139.756 56.9463 139.389 56.5678C139.027 56.1892 138.847 55.6439 138.847 54.932V49.6773H137.813C137.722 49.6773 137.646 49.6519 137.584 49.601C137.522 49.5445 137.491 49.4598 137.491 49.3468V48.745L138.897 48.567L139.245 45.9143C139.262 45.8295 139.299 45.7617 139.355 45.7109C139.417 45.6544 139.496 45.6261 139.592 45.6261H140.355V48.584H142.838V49.6773H140.355V54.8303C140.355 55.1919 140.443 55.4603 140.618 55.6355C140.793 55.8106 141.019 55.8982 141.296 55.8982C141.454 55.8982 141.59 55.8784 141.703 55.8389C141.821 55.7937 141.923 55.7457 142.008 55.6948C142.093 55.6439 142.163 55.5987 142.22 55.5592C142.282 55.514 142.336 55.4914 142.381 55.4914C142.46 55.4914 142.531 55.5394 142.593 55.6355L143.033 56.3559C142.773 56.5988 142.46 56.7909 142.093 56.9322C141.725 57.0678 141.347 57.1356 140.957 57.1356ZM145.913 49.5587C146.281 49.1688 146.687 48.858 147.134 48.6264C147.58 48.3947 148.094 48.2789 148.676 48.2789C149.145 48.2789 149.558 48.358 149.914 48.5162C150.275 48.6687 150.575 48.8891 150.812 49.1773C151.055 49.4598 151.239 49.8016 151.363 50.2028C151.487 50.6039 151.549 51.0475 151.549 51.5334V57H150.032V51.5334C150.032 50.8836 149.883 50.3808 149.583 50.0248C149.289 49.6632 148.84 49.4824 148.236 49.4824C147.789 49.4824 147.371 49.5897 146.981 49.8044C146.597 50.0191 146.241 50.3101 145.913 50.6774V57H144.396V44.5158H145.913V49.5587ZM159.594 51.7707C159.594 51.4204 159.544 51.1012 159.442 50.813C159.346 50.5192 159.202 50.2678 159.01 50.0587C158.823 49.844 158.594 49.6801 158.323 49.5671C158.052 49.4485 157.744 49.3891 157.399 49.3891C156.676 49.3891 156.103 49.601 155.679 50.0248C155.261 50.4429 155.001 51.0249 154.899 51.7707H159.594ZM160.815 55.7965C160.628 56.0225 160.405 56.2203 160.145 56.3898C159.885 56.5536 159.606 56.6892 159.306 56.7966C159.012 56.9039 158.707 56.983 158.391 57.0339C158.075 57.0904 157.761 57.1187 157.45 57.1187C156.857 57.1187 156.309 57.0198 155.806 56.822C155.309 56.6186 154.877 56.3248 154.509 55.9406C154.148 55.5507 153.865 55.0704 153.662 54.4998C153.458 53.9291 153.357 53.2737 153.357 52.5335C153.357 51.9346 153.447 51.3752 153.628 50.8554C153.814 50.3356 154.08 49.8864 154.425 49.5078C154.769 49.1236 155.19 48.8241 155.687 48.6094C156.185 48.3891 156.744 48.2789 157.365 48.2789C157.88 48.2789 158.354 48.3665 158.789 48.5416C159.23 48.7111 159.609 48.9597 159.925 49.2874C160.247 49.6095 160.499 50.0107 160.679 50.4909C160.86 50.9656 160.951 51.508 160.951 52.1182C160.951 52.3555 160.925 52.5137 160.874 52.5928C160.823 52.6719 160.727 52.7115 160.586 52.7115H154.848C154.865 53.2539 154.939 53.7257 155.069 54.1269C155.204 54.528 155.391 54.8642 155.628 55.1354C155.865 55.401 156.148 55.6016 156.476 55.7372C156.803 55.8671 157.171 55.9321 157.577 55.9321C157.956 55.9321 158.281 55.8897 158.552 55.805C158.829 55.7146 159.066 55.6185 159.264 55.5168C159.462 55.4151 159.626 55.3219 159.755 55.2371C159.891 55.1467 160.007 55.1015 160.103 55.1015C160.227 55.1015 160.323 55.1496 160.391 55.2456L160.815 55.7965ZM178.633 48.4145L175.853 57H174.658C174.511 57 174.409 56.9039 174.353 56.7118L172.454 50.8893C172.409 50.7593 172.373 50.6294 172.344 50.4994C172.316 50.3638 172.288 50.231 172.26 50.1011C172.231 50.231 172.203 50.3638 172.175 50.4994C172.147 50.6294 172.11 50.7622 172.065 50.8978L170.132 56.7118C170.081 56.9039 169.968 57 169.793 57H168.658L165.878 48.4145H167.064C167.183 48.4145 167.282 48.4456 167.361 48.5077C167.446 48.5699 167.502 48.6433 167.53 48.7281L169.175 54.254C169.271 54.6608 169.347 55.045 169.403 55.4066C169.454 55.2202 169.505 55.0309 169.556 54.8388C169.612 54.6467 169.672 54.4517 169.734 54.254L171.548 48.6942C171.576 48.6094 171.624 48.5388 171.692 48.4823C171.765 48.4258 171.853 48.3975 171.954 48.3975H172.615C172.728 48.3975 172.822 48.4258 172.895 48.4823C172.969 48.5388 173.019 48.6094 173.048 48.6942L174.819 54.254C174.881 54.4517 174.938 54.6467 174.989 54.8388C175.039 55.0309 175.087 55.2202 175.133 55.4066C175.161 55.2202 175.195 55.0337 175.234 54.8473C175.28 54.6552 175.328 54.4574 175.378 54.254L177.057 48.7281C177.085 48.6377 177.138 48.5642 177.218 48.5077C177.297 48.4456 177.39 48.4145 177.497 48.4145H178.633ZM184.656 53.1352C183.961 53.1578 183.367 53.2143 182.876 53.3048C182.39 53.3895 181.991 53.5025 181.681 53.6438C181.376 53.785 181.152 53.9517 181.011 54.1438C180.876 54.3359 180.808 54.5506 180.808 54.7879C180.808 55.0139 180.844 55.2089 180.918 55.3727C180.991 55.5366 181.09 55.6722 181.215 55.7796C181.344 55.8813 181.494 55.9575 181.664 56.0084C181.839 56.0536 182.025 56.0762 182.223 56.0762C182.489 56.0762 182.732 56.0508 182.952 55.9999C183.172 55.9434 183.379 55.8643 183.571 55.7626C183.768 55.6609 183.955 55.5394 184.13 55.3982C184.311 55.2569 184.486 55.0959 184.656 54.9151V53.1352ZM179.782 49.6265C180.257 49.1688 180.768 48.827 181.316 48.6009C181.864 48.3749 182.472 48.2619 183.138 48.2619C183.619 48.2619 184.045 48.341 184.418 48.4992C184.791 48.6574 185.105 48.8778 185.359 49.1603C185.613 49.4428 185.805 49.7847 185.935 50.1858C186.065 50.587 186.13 51.0277 186.13 51.508V57H185.461C185.314 57 185.201 56.9774 185.122 56.9322C185.043 56.8813 184.98 56.7853 184.935 56.644L184.766 55.8304C184.54 56.0395 184.319 56.2259 184.105 56.3898C183.89 56.548 183.664 56.6836 183.427 56.7966C183.189 56.9039 182.935 56.9859 182.664 57.0424C182.398 57.1045 182.102 57.1356 181.774 57.1356C181.441 57.1356 181.127 57.0904 180.833 57C180.539 56.9039 180.282 56.7627 180.062 56.5762C179.847 56.3898 179.675 56.1553 179.545 55.8728C179.421 55.5846 179.358 55.2456 179.358 54.8557C179.358 54.5167 179.452 54.1918 179.638 53.8811C179.825 53.5647 180.127 53.285 180.545 53.042C180.963 52.7991 181.508 52.6013 182.181 52.4487C182.853 52.2905 183.678 52.2001 184.656 52.1775V51.508C184.656 50.8413 184.511 50.3384 184.223 49.9994C183.935 49.6547 183.514 49.4824 182.96 49.4824C182.588 49.4824 182.274 49.5304 182.02 49.6265C181.771 49.7169 181.554 49.8214 181.367 49.94C181.186 50.053 181.028 50.1576 180.892 50.2536C180.763 50.344 180.633 50.3892 180.503 50.3892C180.401 50.3892 180.313 50.3638 180.24 50.313C180.166 50.2565 180.104 50.1887 180.053 50.1096L179.782 49.6265ZM195.637 48.4145L190.848 59.5341C190.798 59.6471 190.733 59.7375 190.654 59.8053C190.58 59.8731 190.464 59.907 190.306 59.907H189.187L190.755 56.5L187.213 48.4145H188.518C188.648 48.4145 188.749 48.4484 188.823 48.5162C188.902 48.5783 188.956 48.649 188.984 48.7281L191.281 54.1353C191.371 54.3726 191.447 54.6213 191.51 54.8812C191.589 54.6156 191.673 54.3642 191.764 54.1269L193.993 48.7281C194.027 48.6377 194.083 48.5642 194.162 48.5077C194.247 48.4456 194.34 48.4145 194.442 48.4145H195.637ZM212.385 48.4145L209.605 57H208.41C208.264 57 208.162 56.9039 208.105 56.7118L206.207 50.8893C206.162 50.7593 206.125 50.6294 206.097 50.4994C206.068 50.3638 206.04 50.231 206.012 50.1011C205.984 50.231 205.955 50.3638 205.927 50.4994C205.899 50.6294 205.862 50.7622 205.817 50.8978L203.885 56.7118C203.834 56.9039 203.721 57 203.546 57H202.41L199.63 48.4145H200.817C200.935 48.4145 201.034 48.4456 201.113 48.5077C201.198 48.5699 201.254 48.6433 201.283 48.7281L202.927 54.254C203.023 54.6608 203.099 55.045 203.156 55.4066C203.207 55.2202 203.257 55.0309 203.308 54.8388C203.365 54.6467 203.424 54.4517 203.486 54.254L205.3 48.6942C205.328 48.6094 205.376 48.5388 205.444 48.4823C205.518 48.4258 205.605 48.3975 205.707 48.3975H206.368C206.481 48.3975 206.574 48.4258 206.648 48.4823C206.721 48.5388 206.772 48.6094 206.8 48.6942L208.571 54.254C208.634 54.4517 208.69 54.6467 208.741 54.8388C208.792 55.0309 208.84 55.2202 208.885 55.4066C208.913 55.2202 208.947 55.0337 208.987 54.8473C209.032 54.6552 209.08 54.4574 209.131 54.254L210.809 48.7281C210.837 48.6377 210.891 48.5642 210.97 48.5077C211.049 48.4456 211.142 48.4145 211.25 48.4145H212.385ZM219.485 51.7707C219.485 51.4204 219.434 51.1012 219.332 50.813C219.236 50.5192 219.092 50.2678 218.9 50.0587C218.713 49.844 218.485 49.6801 218.213 49.5671C217.942 49.4485 217.634 49.3891 217.29 49.3891C216.566 49.3891 215.993 49.601 215.569 50.0248C215.151 50.4429 214.891 51.0249 214.789 51.7707H219.485ZM220.705 55.7965C220.519 56.0225 220.295 56.2203 220.036 56.3898C219.776 56.5536 219.496 56.6892 219.196 56.7966C218.903 56.9039 218.598 56.983 218.281 57.0339C217.965 57.0904 217.651 57.1187 217.34 57.1187C216.747 57.1187 216.199 57.0198 215.696 56.822C215.199 56.6186 214.767 56.3248 214.399 55.9406C214.038 55.5507 213.755 55.0704 213.552 54.4998C213.348 53.9291 213.247 53.2737 213.247 52.5335C213.247 51.9346 213.337 51.3752 213.518 50.8554C213.704 50.3356 213.97 49.8864 214.315 49.5078C214.659 49.1236 215.08 48.8241 215.578 48.6094C216.075 48.3891 216.634 48.2789 217.256 48.2789C217.77 48.2789 218.244 48.3665 218.679 48.5416C219.12 48.7111 219.499 48.9597 219.815 49.2874C220.137 49.6095 220.389 50.0107 220.569 50.4909C220.75 50.9656 220.841 51.508 220.841 52.1182C220.841 52.3555 220.815 52.5137 220.764 52.5928C220.714 52.6719 220.618 52.7115 220.476 52.7115H214.738C214.755 53.2539 214.829 53.7257 214.959 54.1269C215.094 54.528 215.281 54.8642 215.518 55.1354C215.755 55.401 216.038 55.6016 216.366 55.7372C216.693 55.8671 217.061 55.9321 217.468 55.9321C217.846 55.9321 218.171 55.8897 218.442 55.805C218.719 55.7146 218.956 55.6185 219.154 55.5168C219.352 55.4151 219.516 55.3219 219.646 55.2371C219.781 55.1467 219.897 55.1015 219.993 55.1015C220.117 55.1015 220.214 55.1496 220.281 55.2456L220.705 55.7965ZM231.684 53.1352C230.989 53.1578 230.395 53.2143 229.904 53.3048C229.418 53.3895 229.02 53.5025 228.709 53.6438C228.404 53.785 228.181 53.9517 228.039 54.1438C227.904 54.3359 227.836 54.5506 227.836 54.7879C227.836 55.0139 227.873 55.2089 227.946 55.3727C228.02 55.5366 228.118 55.6722 228.243 55.7796C228.373 55.8813 228.522 55.9575 228.692 56.0084C228.867 56.0536 229.054 56.0762 229.251 56.0762C229.517 56.0762 229.76 56.0508 229.98 55.9999C230.201 55.9434 230.407 55.8643 230.599 55.7626C230.797 55.6609 230.983 55.5394 231.158 55.3982C231.339 55.2569 231.514 55.0959 231.684 54.9151V53.1352ZM226.81 49.6265C227.285 49.1688 227.796 48.827 228.344 48.6009C228.892 48.3749 229.5 48.2619 230.167 48.2619C230.647 48.2619 231.073 48.341 231.446 48.4992C231.819 48.6574 232.133 48.8778 232.387 49.1603C232.641 49.4428 232.834 49.7847 232.963 50.1858C233.093 50.587 233.158 51.0277 233.158 51.508V57H232.489C232.342 57 232.229 56.9774 232.15 56.9322C232.071 56.8813 232.009 56.7853 231.963 56.644L231.794 55.8304C231.568 56.0395 231.348 56.2259 231.133 56.3898C230.918 56.548 230.692 56.6836 230.455 56.7966C230.217 56.9039 229.963 56.9859 229.692 57.0424C229.426 57.1045 229.13 57.1356 228.802 57.1356C228.469 57.1356 228.155 57.0904 227.861 57C227.568 56.9039 227.31 56.7627 227.09 56.5762C226.875 56.3898 226.703 56.1553 226.573 55.8728C226.449 55.5846 226.387 55.2456 226.387 54.8557C226.387 54.5167 226.48 54.1918 226.666 53.8811C226.853 53.5647 227.155 53.285 227.573 53.042C227.991 52.7991 228.537 52.6013 229.209 52.4487C229.881 52.2905 230.706 52.2001 231.684 52.1775V51.508C231.684 50.8413 231.54 50.3384 231.251 49.9994C230.963 49.6547 230.542 49.4824 229.989 49.4824C229.616 49.4824 229.302 49.5304 229.048 49.6265C228.799 49.7169 228.582 49.8214 228.395 49.94C228.214 50.053 228.056 50.1576 227.921 50.2536C227.791 50.344 227.661 50.3892 227.531 50.3892C227.429 50.3892 227.341 50.3638 227.268 50.313C227.195 50.2565 227.132 50.1887 227.082 50.1096L226.81 49.6265ZM238.448 52.8047C238.753 52.8047 239.022 52.7623 239.253 52.6776C239.485 52.5928 239.68 52.4742 239.838 52.3216C239.996 52.1691 240.115 51.9883 240.194 51.7792C240.273 51.5645 240.313 51.33 240.313 51.0757C240.313 50.5503 240.152 50.1322 239.83 49.8214C239.513 49.5106 239.053 49.3552 238.448 49.3552C237.838 49.3552 237.372 49.5106 237.05 49.8214C236.733 50.1322 236.575 50.5503 236.575 51.0757C236.575 51.33 236.615 51.5645 236.694 51.7792C236.779 51.9883 236.9 52.1691 237.058 52.3216C237.216 52.4742 237.411 52.5928 237.643 52.6776C237.875 52.7623 238.143 52.8047 238.448 52.8047ZM241.169 57.4661C241.169 57.2571 241.109 57.0876 240.991 56.9576C240.872 56.8277 240.711 56.726 240.508 56.6525C240.31 56.5791 240.078 56.5282 239.813 56.5C239.547 56.4661 239.265 56.4406 238.965 56.4237C238.671 56.4067 238.372 56.3898 238.067 56.3728C237.762 56.3559 237.468 56.3276 237.185 56.2881C236.869 56.435 236.609 56.6214 236.406 56.8474C236.208 57.0678 236.109 57.3277 236.109 57.6272C236.109 57.8193 236.157 57.9973 236.253 58.1611C236.355 58.3306 236.507 58.4747 236.711 58.5934C236.914 58.7177 237.168 58.8137 237.474 58.8815C237.784 58.955 238.149 58.9917 238.567 58.9917C238.974 58.9917 239.338 58.955 239.66 58.8815C239.982 58.8081 240.253 58.7035 240.474 58.5679C240.7 58.4323 240.872 58.2713 240.991 58.0848C241.109 57.8984 241.169 57.6922 241.169 57.4661ZM242.703 48.7535V49.3129C242.703 49.4993 242.584 49.618 242.347 49.6688L241.372 49.796C241.564 50.1689 241.66 50.5813 241.66 51.0334C241.66 51.4515 241.578 51.8329 241.415 52.1775C241.256 52.5165 241.036 52.8075 240.753 53.0505C240.471 53.2935 240.132 53.4799 239.736 53.6099C239.341 53.7398 238.912 53.8048 238.448 53.8048C238.047 53.8048 237.668 53.7568 237.313 53.6607C237.132 53.7737 236.993 53.8952 236.897 54.0252C236.801 54.1495 236.753 54.2766 236.753 54.4065C236.753 54.61 236.835 54.7653 236.999 54.8727C237.168 54.9744 237.389 55.0478 237.66 55.093C237.931 55.1383 238.239 55.1665 238.584 55.1778C238.934 55.1891 239.29 55.2089 239.652 55.2371C240.019 55.2597 240.375 55.3021 240.72 55.3643C241.07 55.4264 241.381 55.5281 241.652 55.6694C241.923 55.8106 242.141 56.0056 242.304 56.2542C242.474 56.5028 242.559 56.8248 242.559 57.2204C242.559 57.5876 242.466 57.9436 242.279 58.2883C242.098 58.6329 241.836 58.938 241.491 59.2036C241.146 59.4748 240.722 59.6895 240.22 59.8477C239.722 60.0116 239.16 60.0935 238.533 60.0935C237.906 60.0935 237.358 60.0313 236.889 59.907C236.42 59.7827 236.03 59.6161 235.719 59.407C235.408 59.1979 235.174 58.955 235.016 58.6781C234.863 58.4069 234.787 58.1216 234.787 57.8221C234.787 57.3983 234.92 57.0396 235.185 56.7457C235.451 56.4519 235.815 56.2174 236.279 56.0423C236.024 55.9293 235.821 55.7796 235.668 55.5931C235.521 55.401 235.448 55.1439 235.448 54.8218C235.448 54.6975 235.471 54.5704 235.516 54.4404C235.561 54.3048 235.629 54.1721 235.719 54.0421C235.815 53.9065 235.931 53.7794 236.067 53.6607C236.202 53.5421 236.36 53.4375 236.541 53.3471C236.117 53.1098 235.787 52.7962 235.55 52.4064C235.312 52.0109 235.194 51.5532 235.194 51.0334C235.194 50.6152 235.273 50.2367 235.431 49.8977C235.595 49.553 235.821 49.262 236.109 49.0247C236.397 48.7817 236.739 48.5953 237.135 48.4653C237.536 48.3354 237.974 48.2704 238.448 48.2704C238.821 48.2704 239.169 48.3128 239.491 48.3975C239.813 48.4766 240.107 48.5953 240.372 48.7535H242.703ZM249.877 51.7707C249.877 51.4204 249.826 51.1012 249.724 50.813C249.628 50.5192 249.484 50.2678 249.292 50.0587C249.105 49.844 248.877 49.6801 248.605 49.5671C248.334 49.4485 248.026 49.3891 247.682 49.3891C246.958 49.3891 246.385 49.601 245.961 50.0248C245.543 50.4429 245.283 51.0249 245.181 51.7707H249.877ZM251.097 55.7965C250.911 56.0225 250.687 56.2203 250.428 56.3898C250.168 56.5536 249.888 56.6892 249.589 56.7966C249.295 56.9039 248.99 56.983 248.673 57.0339C248.357 57.0904 248.043 57.1187 247.732 57.1187C247.139 57.1187 246.591 57.0198 246.088 56.822C245.591 56.6186 245.159 56.3248 244.791 55.9406C244.43 55.5507 244.147 55.0704 243.944 54.4998C243.741 53.9291 243.639 53.2737 243.639 52.5335C243.639 51.9346 243.729 51.3752 243.91 50.8554C244.096 50.3356 244.362 49.8864 244.707 49.5078C245.051 49.1236 245.472 48.8241 245.97 48.6094C246.467 48.3891 247.026 48.2789 247.648 48.2789C248.162 48.2789 248.636 48.3665 249.072 48.5416C249.512 48.7111 249.891 48.9597 250.207 49.2874C250.529 49.6095 250.781 50.0107 250.962 50.4909C251.142 50.9656 251.233 51.508 251.233 52.1182C251.233 52.3555 251.207 52.5137 251.156 52.5928C251.106 52.6719 251.01 52.7115 250.868 52.7115H245.13C245.147 53.2539 245.221 53.7257 245.351 54.1269C245.486 54.528 245.673 54.8642 245.91 55.1354C246.148 55.401 246.43 55.6016 246.758 55.7372C247.085 55.8671 247.453 55.9321 247.86 55.9321C248.238 55.9321 248.563 55.8897 248.834 55.805C249.111 55.7146 249.348 55.6185 249.546 55.5168C249.744 55.4151 249.908 55.3219 250.038 55.2371C250.173 55.1467 250.289 55.1015 250.385 55.1015C250.509 55.1015 250.606 55.1496 250.673 55.2456L251.097 55.7965Z" fill="#383F51"/>
<path d="M4.49215 3.34677V23.4187C4.49215 25.7765 4.93689 27.7364 5.82637 29.2986C7.14524 31.6563 9.36893 32.8352 12.4974 32.8352C16.2486 32.8352 18.7987 31.5605 20.148 29.0109C20.8746 27.6256 21.2379 25.7614 21.2379 23.4182V3.34677H25.7305V21.5836C25.7305 25.5773 25.1893 28.65 24.1069 30.8017C22.1209 34.7216 18.3701 36.6815 12.8544 36.6815C7.33878 36.6815 3.59516 34.7216 1.6236 30.8017C0.541199 28.65 0 25.5773 0 21.5836V3.34677H4.49215Z" fill="#383F51"/>
<path d="M32.4282 17.6575C32.4328 15.4719 32.8232 13.3041 33.5816 11.2527C34.33 9.17746 35.4608 7.259 36.9162 5.59551C38.4058 3.90717 40.2221 2.5341 42.2568 1.55808C44.512 0.495103 46.9844 -0.0338017 49.4799 0.0128916C52.378 -0.060595 55.2379 0.682467 57.729 2.15622C59.9538 3.47808 61.7404 5.41869 62.868 7.73838L57.5537 11.3771C57.1957 10.4507 56.6687 9.59804 55.9991 8.86195C55.4017 8.20988 54.6983 7.6622 53.9182 7.24176C53.1832 6.84953 52.399 6.55627 51.5861 6.36971C50.83 6.19229 50.0562 6.10025 49.2793 6.09533C47.7743 6.06245 46.287 6.42343 44.9666 7.14207C43.7554 7.81789 42.7043 8.74418 41.8841 9.85839C41.0477 11.0037 40.4186 12.2852 40.025 13.6452C39.6137 15.0119 39.4025 16.4304 39.3979 17.8569C39.3931 19.3898 39.6386 20.9133 40.1248 22.3681C40.576 23.7511 41.2729 25.0426 42.1822 26.1814C43.0538 27.2661 44.1369 28.1647 45.3664 28.8232C46.6142 29.4905 48.0115 29.8334 49.4284 29.8201C50.2234 29.8168 51.015 29.7164 51.7853 29.521C52.6035 29.3153 53.3885 28.9965 54.1174 28.574C54.8915 28.1245 55.593 27.5616 56.1984 26.9044C56.8607 26.1801 57.3872 25.3438 57.7529 24.435L63.4197 27.6763C62.8925 28.9938 62.0989 30.1898 61.088 31.1901C60.0587 32.2106 58.8844 33.0754 57.6025 33.7569C56.3024 34.4535 54.9214 34.9893 53.4904 35.3524C52.0978 35.7122 50.6652 35.8965 49.2264 35.9007C46.8644 35.9272 44.5317 35.3797 42.4311 34.3057C40.4083 33.2685 38.6039 31.8559 37.1154 30.1443C35.6212 28.421 34.4498 26.4456 33.6566 24.3116C32.8469 22.1853 32.4307 19.931 32.4282 17.6575ZM64.0214 35.6016L78.0629 0.211812H83.6794L97.6721 35.6016H90.3491L87.0904 26.7791H74.6027L71.343 35.6016H64.0214ZM80.8712 7.63869L75.7561 21.9442H85.8358L80.8712 7.63869ZM101.482 35.6016V0.211812H117.228C118.801 0.196903 120.355 0.546864 121.767 1.23386C123.125 1.89328 124.343 2.80722 125.352 3.92548C126.356 5.04037 127.154 6.32282 127.709 7.71369C128.266 9.06669 128.555 10.5135 128.562 11.9752C128.586 14.1804 127.987 16.348 126.832 18.2309C125.747 20.0496 124.103 21.474 122.143 22.2944L130.518 35.6016H122.696L115.223 23.7386H108.402V35.6016H101.482ZM108.402 17.7073H117.078C117.7 17.7107 118.313 17.5563 118.858 17.2587C119.415 16.9551 119.902 16.539 120.287 16.0373C120.706 15.4889 121.028 14.8738 121.24 14.2182C121.478 13.4943 121.597 12.7368 121.591 11.9752C121.6 11.1929 121.464 10.4158 121.19 9.68233C120.942 9.01705 120.577 8.40093 120.112 7.86276C119.681 7.36324 119.152 6.95621 118.557 6.66649C118.004 6.39173 117.395 6.24686 116.777 6.24304H108.404L108.402 17.7073ZM160.005 29.5704V35.6016H135.282V0.211812H159.552V6.24349H142.202V14.767H157.196V20.3496H142.202V29.5709L160.005 29.5704Z" fill="#EC6571"/>
<path d="M168.16 6.10352e-05H173.916L192.084 28.9626V6.10352e-05H196.712V35.753H191.252L172.814 6.81462V35.753H168.16V6.10352e-05ZM204.841 6.10352e-05H231.065V4.38092H209.592V15.2357H229.451V19.3732H209.592V31.4915H231.434V35.753H204.842L204.841 6.10352e-05ZM264 6.10352e-05V4.25928H251.88V35.753H246.934V4.25928H234.813V6.10352e-05H264Z" fill="#383F51"/>
<path d="M19.185 39.3256H6.13505C4.93243 39.3256 3.95752 40.2946 3.95752 41.49V41.8357C3.95752 43.031 4.93243 44.0001 6.13505 44.0001H19.185C20.3876 44.0001 21.3625 43.031 21.3625 41.8357V41.49C21.3625 40.2946 20.3876 39.3256 19.185 39.3256Z" fill="#EC6571"/>
</svg>
