<svg width="31" height="33" viewBox="0 0 31 33" fill="none" xmlns="http://www.w3.org/2000/svg">
<path d="M29.6983 30.9961C29.6983 30.9961 24.2201 26.2841 21.012 23.021" stroke="#21506E" stroke-width="2.26811" stroke-linecap="round"/>
<path d="M25.7775 15.2078C25.0914 22.0212 19.1294 26.9401 12.4683 26.2036C5.80713 25.467 0.956358 19.3524 1.64253 12.5391C2.32869 5.72573 8.29065 0.806759 14.9518 1.54332C21.6129 2.27988 26.4637 8.39448 25.7775 15.2078Z" stroke="#383F51" stroke-width="0.378217"/>
<path d="M12.5627 25.2659C18.7226 25.9471 24.2299 21.3986 24.8635 15.1066C25.4972 8.81458 21.0173 3.16173 14.8574 2.48059C8.69746 1.79946 3.19017 6.34795 2.5565 12.64C1.92284 18.9319 6.40275 24.5848 12.5627 25.2659Z" stroke="#21506E" stroke-width="2.2693"/>
</svg>
