<svg width="41" height="41" viewBox="0 0 41 41" fill="none" xmlns="http://www.w3.org/2000/svg">
<path fill-rule="evenodd" clip-rule="evenodd" d="M20.5004 0.388184C9.45467 0.388184 0.500366 9.34249 0.500366 20.3882C0.500366 31.4339 9.45467 40.3882 20.5004 40.3882C31.5461 40.3882 40.5004 31.4339 40.5004 20.3882C40.5004 9.34249 31.5461 0.388184 20.5004 0.388184ZM19.9433 17.3365L19.9014 16.6444C19.7755 14.8508 20.8806 13.2125 22.6293 12.5769C23.2729 12.3509 24.364 12.3227 25.0775 12.5204C25.3573 12.6051 25.8889 12.8876 26.2666 13.1418L26.9521 13.6079L27.7076 13.3678C28.1272 13.2407 28.6868 13.0289 28.9386 12.8876C29.1765 12.7605 29.3863 12.6899 29.3863 12.7323C29.3863 12.9724 28.8687 13.7915 28.435 14.2435C27.8475 14.879 28.0153 14.9355 29.2044 14.5118C29.9179 14.2717 29.9319 14.2717 29.792 14.5401C29.7081 14.6813 29.2744 15.1756 28.8127 15.6276C28.0293 16.4043 27.9873 16.4891 27.9873 17.1388C27.9873 18.1415 27.5117 20.2318 27.0361 21.3758C26.1547 23.5225 24.2661 25.7399 22.3775 26.8556C19.7195 28.4233 16.1801 28.8188 13.2004 27.9008C12.2071 27.59 10.5004 26.7991 10.5004 26.6579C10.5004 26.6155 11.018 26.559 11.6475 26.5449C12.9625 26.5167 14.2776 26.1495 15.3967 25.4998L16.1522 25.0478L15.2848 24.7512C14.0537 24.3275 12.9485 23.353 12.6688 22.435C12.5848 22.1384 12.6128 22.1243 13.3962 22.1243L14.2076 22.1102L13.5221 21.7853C12.7107 21.3758 11.9693 20.6837 11.6055 19.9776C11.3397 19.4691 11.004 18.1839 11.1019 18.085C11.1299 18.0426 11.4237 18.1274 11.7594 18.2404C12.7247 18.5935 12.8506 18.5087 12.291 17.9155C11.2418 16.8422 10.9201 15.2462 11.4237 13.735L11.6615 13.0571L12.5848 13.9751C14.4734 15.8253 16.6978 16.9269 19.2439 17.2517L19.9433 17.3365Z" fill="white"/>
</svg>
