<svg width="41" height="41" viewBox="0 0 41 41" fill="none" xmlns="http://www.w3.org/2000/svg">
<path fill-rule="evenodd" clip-rule="evenodd" d="M20.1362 0.388184C9.09054 0.388184 0.13623 9.34249 0.13623 20.3882C0.13623 31.4339 9.09054 40.3882 20.1362 40.3882C31.1819 40.3882 40.1362 31.4339 40.1362 20.3882C40.1362 9.34249 31.1819 0.388184 20.1362 0.388184ZM9.73758 16.9531H14.27V30.5711H9.73758V16.9531ZM14.5685 12.7404C14.5391 11.4052 13.5843 10.3882 12.0338 10.3882C10.4832 10.3882 9.46956 11.4052 9.46956 12.7404C9.46956 14.048 10.4533 15.0943 11.9749 15.0943H12.0039C13.5843 15.0943 14.5685 14.048 14.5685 12.7404ZM25.3972 16.6333C28.3797 16.6333 30.6157 18.5801 30.6157 22.763L30.6155 30.5711H26.0833V23.2855C26.0833 21.4555 25.4274 20.2067 23.7866 20.2067C22.5345 20.2067 21.7886 21.0485 21.4611 21.8616C21.3412 22.153 21.3118 22.559 21.3118 22.966V30.5715H16.7788C16.7788 30.5715 16.8386 18.2313 16.7788 16.9534H21.3118V18.8823C21.9134 17.9551 22.9908 16.6333 25.3972 16.6333Z" fill="white"/>
</svg>
