<svg width="41" height="41" viewBox="0 0 41 41" fill="none" xmlns="http://www.w3.org/2000/svg">
<path fill-rule="evenodd" clip-rule="evenodd" d="M20.6823 0.388184C9.63656 0.388184 0.682251 9.34249 0.682251 20.3882C0.682251 31.4339 9.63656 40.3882 20.6823 40.3882C31.7279 40.3882 40.6823 31.4339 40.6823 20.3882C40.6823 9.34249 31.7279 0.388184 20.6823 0.388184ZM16.285 9.78596C17.4228 9.73418 17.7863 9.72152 20.6833 9.72152H20.6799C23.5777 9.72152 23.94 9.73418 25.0777 9.78596C26.2133 9.83796 26.9889 10.0177 27.6689 10.2815C28.3711 10.5537 28.9644 10.9182 29.5578 11.5115C30.1511 12.1044 30.5156 12.6995 30.7889 13.4011C31.0511 14.0793 31.2311 14.8545 31.2845 15.99C31.3356 17.1278 31.3489 17.4914 31.3489 20.3883C31.3489 23.2852 31.3356 23.6479 31.2845 24.7857C31.2311 25.9208 31.0511 26.6961 30.7889 27.3746C30.5156 28.0759 30.1511 28.671 29.5578 29.2639C28.9651 29.8573 28.3709 30.2226 27.6695 30.4951C26.9909 30.7588 26.2149 30.9386 25.0793 30.9906C23.9415 31.0424 23.5791 31.0551 20.6819 31.0551C17.7852 31.0551 17.4219 31.0424 16.2841 30.9906C15.1487 30.9386 14.3734 30.7588 13.6947 30.4951C12.9936 30.2226 12.3985 29.8573 11.8058 29.2639C11.2127 28.671 10.8483 28.0759 10.5756 27.3744C10.312 26.6961 10.1323 25.921 10.08 24.7854C10.0285 23.6477 10.0156 23.2852 10.0156 20.3883C10.0156 17.4914 10.0289 17.1276 10.0798 15.9898C10.1309 14.8547 10.3109 14.0793 10.5754 13.4009C10.8487 12.6995 11.2132 12.1044 11.8065 11.5115C12.3994 10.9184 12.9945 10.554 13.6961 10.2815C14.3743 10.0177 15.1494 9.83796 16.285 9.78596Z" fill="white"/>
<path fill-rule="evenodd" clip-rule="evenodd" d="M19.7264 11.6438C19.9122 11.6435 20.112 11.6436 20.3277 11.6437L20.6833 11.6438C23.5313 11.6438 23.8688 11.654 24.9935 11.7051C26.0335 11.7527 26.598 11.9264 26.974 12.0725C27.4718 12.2658 27.8267 12.4969 28.1998 12.8702C28.5731 13.2436 28.8042 13.5991 28.998 14.0969C29.144 14.4725 29.318 15.0369 29.3653 16.0769C29.4165 17.2014 29.4276 17.5392 29.4276 20.3859C29.4276 23.2326 29.4165 23.5703 29.3653 24.6948C29.3178 25.7348 29.144 26.2993 28.998 26.6748C28.8047 27.1726 28.5731 27.5271 28.1998 27.9002C27.8264 28.2735 27.472 28.5046 26.974 28.698C26.5984 28.8446 26.0335 29.018 24.9935 29.0655C23.8691 29.1166 23.5313 29.1277 20.6833 29.1277C17.835 29.1277 17.4974 29.1166 16.373 29.0655C15.333 29.0175 14.7685 28.8437 14.3923 28.6977C13.8945 28.5044 13.539 28.2733 13.1656 27.9C12.7923 27.5266 12.5612 27.1719 12.3674 26.6739C12.2214 26.2984 12.0474 25.7339 12.0001 24.6939C11.9489 23.5695 11.9387 23.2317 11.9387 20.3832C11.9387 17.5347 11.9489 17.1987 12.0001 16.0743C12.0476 15.0343 12.2214 14.4698 12.3674 14.0938C12.5607 13.596 12.7923 13.2405 13.1656 12.8671C13.539 12.4938 13.8945 12.2627 14.3923 12.0689C14.7683 11.9222 15.333 11.7489 16.373 11.7011C17.357 11.6567 17.7383 11.6433 19.7264 11.6411V11.6438ZM26.3771 13.4149C25.6704 13.4149 25.0971 13.9876 25.0971 14.6945C25.0971 15.4012 25.6704 15.9745 26.3771 15.9745C27.0838 15.9745 27.6571 15.4012 27.6571 14.6945C27.6571 13.9878 27.0838 13.4145 26.3771 13.4145V13.4149ZM15.2054 20.3883C15.2054 17.3632 17.658 14.9106 20.683 14.9105C23.7082 14.9105 26.1602 17.3632 26.1602 20.3883C26.1602 23.4135 23.7084 25.865 20.6833 25.865C17.6581 25.865 15.2054 23.4135 15.2054 20.3883Z" fill="white"/>
<path d="M20.6833 16.8325C22.6469 16.8325 24.2389 18.4243 24.2389 20.3881C24.2389 22.3517 22.6469 23.9437 20.6833 23.9437C18.7195 23.9437 17.1277 22.3517 17.1277 20.3881C17.1277 18.4243 18.7195 16.8325 20.6833 16.8325Z" fill="white"/>
</svg>
