<svg width="115" height="115" viewBox="0 0 115 115" fill="none" xmlns="http://www.w3.org/2000/svg">
<path d="M79.8876 58.6338H78.4473V82.6587H79.8876V58.6338Z" fill="#6395B4"/>
<path d="M50.5614 48.8994H49.1211V70.5305H50.5614V48.8994Z" fill="#6395B4"/>
<path d="M82.1055 54.3798C82.367 54.8003 82.5116 55.2831 82.5245 55.7783C82.5374 56.2735 82.418 56.7632 82.1787 57.1968C81.9394 57.6303 81.5889 57.9921 81.1633 58.2448C80.7377 58.4974 80.2525 58.6317 79.7577 58.6339H49.8275C48.7818 58.587 47.7835 58.184 46.9977 57.4917C46.212 56.7994 45.6859 55.8593 45.5064 54.8268L43.0146 26.3604H45.8953C46.8244 26.3609 47.7192 26.7111 48.4023 27.3416C49.0854 27.972 49.5067 28.8366 49.5826 29.7636L51.0229 47.0685C51.1296 48.3832 51.7101 49.6142 52.6561 50.5321C53.6021 51.4501 54.8492 51.9924 56.1649 52.0581L80.3339 53.3127C80.6998 53.3311 81.0559 53.4378 81.3719 53.6236C81.6878 53.8093 81.9543 54.0688 82.1487 54.3798" fill="#386A89"/>
<path d="M49.8254 59.7145H82.4491C82.7375 59.7145 83.0141 59.5998 83.218 59.3956C83.4219 59.1914 83.5365 58.9145 83.5365 58.6257C83.5365 58.337 83.4219 58.06 83.218 57.8558C83.0141 57.6517 82.7375 57.537 82.4491 57.537H49.8254C49.0281 57.5352 48.2593 57.2406 47.6646 56.709C47.0699 56.1773 46.6907 55.4457 46.599 54.6528L43.7183 26.2584C43.5822 25.1659 43.0544 24.1601 42.2331 23.428C41.4118 22.6959 40.3529 22.2873 39.2533 22.2783H28.105C27.9622 22.2783 27.8208 22.3065 27.6889 22.3612C27.5569 22.4159 27.4371 22.4961 27.3361 22.5972C27.2351 22.6983 27.155 22.8183 27.1004 22.9504C27.0457 23.0825 27.0176 23.2241 27.0176 23.3671C27.0176 23.5101 27.0457 23.6516 27.1004 23.7837C27.155 23.9158 27.2351 24.0359 27.3361 24.137C27.4371 24.2381 27.5569 24.3183 27.6889 24.373C27.8208 24.4277 27.9622 24.4558 28.105 24.4558H39.2533C39.8257 24.4581 40.3779 24.6685 40.8071 25.0478C41.2363 25.4271 41.5133 25.9496 41.5866 26.518L44.4673 54.9124C44.6257 56.2316 45.2612 57.4471 46.2537 58.3292C47.2462 59.2113 48.527 59.699 49.8542 59.7001" fill="#B1CAD9"/>
<path d="M57.5007 50.4165L49.5332 69.7607L50.6118 70.2061L58.5793 50.8618L57.5007 50.4165Z" fill="#B1CAD9"/>
<path d="M69.2781 61.3534L49.8359 69.4521L50.2841 70.5306L69.7263 62.4319L69.2781 61.3534Z" fill="#B1CAD9"/>
<path d="M50.2739 69.4348L49.8291 70.5146L69.1501 78.4917L69.5949 77.4119L50.2739 69.4348Z" fill="#B1CAD9"/>
<path d="M50.5928 69.7691L49.5156 70.2178L58.0473 90.7484L59.1244 90.2997L50.5928 69.7691Z" fill="#B1CAD9"/>
<path d="M49.5261 69.7661L41.5586 89.1104L42.6372 89.5557L50.6047 70.2114L49.5261 69.7661Z" fill="#B1CAD9"/>
<path d="M49.8475 69.446L29.8867 77.7607L30.3349 78.8392L50.2957 70.5244L49.8475 69.446Z" fill="#B1CAD9"/>
<path d="M30.9614 61.4719L30.5166 62.5518L49.8376 70.5288L50.2824 69.449L30.9614 61.4719Z" fill="#B1CAD9"/>
<path d="M42.5684 50.4507L41.4912 50.8994L49.5194 70.2185L50.5965 69.7698L42.5684 50.4507Z" fill="#B1CAD9"/>
<path d="M44.3257 67.6027C43.8554 68.7471 43.7345 70.0054 43.9783 71.2186C44.2221 72.4318 44.8196 73.5454 45.6954 74.4186C46.5711 75.2919 47.6858 75.8856 48.8985 76.1248C50.1112 76.3639 51.3675 76.2378 52.5086 75.7622C53.6498 75.2867 54.6244 74.4832 55.3095 73.4531C55.9946 72.4231 56.3594 71.2129 56.3576 69.9754C56.3559 68.7379 55.9878 67.5287 55.2998 66.5006C54.6118 65.4725 53.6349 64.6717 52.4924 64.1994C51.7331 63.8854 50.9193 63.7244 50.0978 63.7256C49.2762 63.7267 48.4629 63.89 47.7045 64.2061C46.946 64.5222 46.2572 64.9849 45.6774 65.5677C45.0977 66.1505 44.6383 66.842 44.3257 67.6027" fill="#98A678"/>
<path d="M46.4697 68.4987C46.1625 69.2077 46.073 69.9922 46.2125 70.7523C46.3521 71.5124 46.7145 72.2138 47.2535 72.767C47.7925 73.3203 48.4837 73.7004 49.2392 73.859C49.9947 74.0176 50.7802 73.9476 51.4958 73.6577C52.2114 73.3679 52.8246 72.8714 53.2575 72.2314C53.6903 71.5915 53.9231 70.8371 53.9262 70.0642C53.9294 69.2914 53.7028 68.5351 53.2752 67.8916C52.8476 67.2482 52.2385 66.7467 51.5253 66.451C51.0525 66.2552 50.5458 66.1547 50.0341 66.1553C49.5225 66.1559 49.016 66.2576 48.5437 66.4545C48.0714 66.6514 47.6425 66.9397 47.2817 67.3029C46.9208 67.666 46.6351 68.0969 46.4409 68.5708" fill="#68744D"/>
<path d="M30.7427 62.0081C29.1734 65.8321 28.7706 70.0359 29.5852 74.0888C30.3999 78.1418 32.3954 81.8623 35.32 84.7808C38.2446 87.6993 41.9672 89.685 46.018 90.4873C50.0687 91.2896 54.266 90.8726 58.0803 89.2888C61.8945 87.705 65.1546 85.0254 67.4492 81.5883C69.7438 78.1512 70.97 74.1106 70.9731 69.9764C70.9762 65.8422 69.756 61.7997 67.4666 58.3591C65.1771 54.9186 61.921 52.2341 58.1092 50.6446C55.5674 49.5888 52.8425 49.0453 50.0907 49.0451C47.3388 49.045 44.6139 49.5882 42.072 50.6437C39.53 51.6992 37.221 53.2462 35.2769 55.1963C33.3329 57.1464 31.7921 59.4612 30.7427 62.0081ZM28.5822 61.1141C30.3339 56.8576 33.3071 53.2168 37.1256 50.6522C40.9441 48.0876 45.4365 46.7143 50.0346 46.7061C54.6327 46.6979 59.13 48.055 62.9576 50.6059C66.7853 53.1569 69.7714 56.7869 71.5384 61.0371C73.3053 65.2873 73.7736 69.9666 72.8842 74.4833C71.9948 79 69.7875 83.1511 66.5415 86.4118C63.2956 89.6724 59.1567 91.8961 54.6484 92.8015C50.1401 93.7069 45.4649 93.2535 41.214 91.4985C35.5201 89.1395 30.9929 84.6163 28.625 78.9205C26.2571 73.2247 26.2417 66.8212 28.5822 61.1141Z" fill="#6395B4"/>
<path d="M31.6793 62.3982C30.1747 66.0404 29.7835 70.0477 30.5551 73.9127C31.3267 77.7777 33.2265 81.3266 36.0138 84.1099C38.8011 86.8933 42.3507 88.7859 46.2131 89.5483C50.0755 90.3106 54.0769 89.9084 57.7108 88.3924C61.3447 86.8765 64.4476 84.315 66.6266 81.0324C68.8056 77.7498 69.9627 73.8937 69.9514 69.9522C69.9401 66.0108 68.7609 62.1614 66.5632 58.8913C64.3654 55.6213 61.2479 53.0777 57.6054 51.5826C52.7334 49.5911 47.2722 49.6107 42.4145 51.6372C37.5569 53.6637 33.6975 57.5323 31.6793 62.3982V62.3982ZM30.599 61.9511C32.1935 58.1016 34.8918 54.8115 38.353 52.4965C41.8141 50.1814 45.8829 48.9453 50.0454 48.9443C54.2079 48.9433 58.2773 50.1774 61.7395 52.4908C65.2018 54.8041 67.9017 58.0929 69.4981 61.9417C71.0944 65.7905 71.5157 70.0266 70.7087 74.115C69.9017 78.2034 67.9026 81.9606 64.9639 84.9121C62.0252 87.8635 58.2787 89.8768 54.1978 90.6976C50.1168 91.5183 45.8845 91.1098 42.0353 89.5235C36.8741 87.3852 32.7712 83.2839 30.6271 78.12C28.483 72.9561 28.4729 67.1514 30.599 61.98" fill="#B1CAD9"/>
<path d="M76.2275 86.1334C76.2275 87.3741 76.595 88.5869 77.2835 89.6185C77.9719 90.6501 78.9505 91.4541 80.0953 91.9289C81.2402 92.4037 82.5 92.5279 83.7153 92.2858C84.9307 92.0438 86.0471 91.4463 86.9234 90.5691C87.7996 89.6918 88.3963 88.574 88.6381 87.3572C88.8799 86.1403 88.7558 84.879 88.2816 83.7328C87.8073 82.5865 87.0043 81.6068 85.9739 80.9175C84.9436 80.2283 83.7322 79.8604 82.493 79.8604C80.8313 79.8604 79.2377 80.5213 78.0627 81.6977C76.8876 82.8741 76.2275 84.4697 76.2275 86.1334" fill="#98A678"/>
<path d="M78.5889 86.1336C78.5889 86.9065 78.8178 87.6621 79.2467 88.3048C79.6756 88.9474 80.2852 89.4483 80.9985 89.7441C81.7117 90.0399 82.4965 90.1173 83.2537 89.9665C84.0109 89.8157 84.7064 89.4435 85.2523 88.897C85.7981 88.3504 86.1699 87.6541 86.3205 86.896C86.4711 86.1379 86.3938 85.3522 86.0984 84.6381C85.8029 83.924 85.3027 83.3136 84.6608 82.8842C84.0189 82.4548 83.2642 82.2256 82.4922 82.2256C81.457 82.2256 80.4641 82.6373 79.7321 83.3702C79.0001 84.1031 78.5889 85.0971 78.5889 86.1336" fill="#68744D"/>
<path d="M76.2429 86.1342C76.2429 87.372 76.6095 88.582 77.2964 89.6112C77.9833 90.6405 78.9595 91.4426 80.1018 91.9163C81.244 92.39 82.5009 92.514 83.7135 92.2725C84.9261 92.031 86.0399 91.4349 86.9141 90.5596C87.7884 89.6844 88.3837 88.5692 88.6249 87.3551C88.8661 86.1411 88.7423 84.8827 88.2692 83.7391C87.7961 82.5955 86.9948 81.618 85.9669 80.9303C84.9389 80.2426 83.7303 79.8756 82.494 79.8756C80.8372 79.8794 79.2495 80.54 78.078 81.7129C76.9065 82.8858 76.2467 84.4754 76.2429 86.1342V86.1342ZM75.5371 86.1342C75.5371 84.7566 75.9451 83.4099 76.7095 82.2645C77.474 81.1191 78.5605 80.2263 79.8317 79.6991C81.1029 79.172 82.5017 79.034 83.8512 79.3028C85.2007 79.5715 86.4402 80.2349 87.4132 81.209C88.3861 82.1831 89.0487 83.4242 89.3171 84.7753C89.5856 86.1264 89.4478 87.5269 88.9212 88.7996C88.3947 90.0723 87.503 91.1602 86.359 91.9255C85.2149 92.6909 83.8699 93.0994 82.494 93.0994C80.6489 93.0994 78.8794 92.3655 77.5747 91.0593C76.2701 89.7531 75.5371 87.9814 75.5371 86.1342" fill="#CBD2BC"/>
<path d="M35.7689 24.6301L27.0405 24.8897C26.6585 24.9031 26.2868 24.764 26.0072 24.503C25.7277 24.2421 25.5631 23.8806 25.5497 23.4981C25.5363 23.1157 25.6753 22.7435 25.9359 22.4636C26.1966 22.1837 26.5576 22.019 26.9396 22.0056L35.6825 21.746C35.8716 21.7394 36.0603 21.7701 36.2375 21.8365C36.4148 21.9028 36.5773 22.0035 36.7157 22.1327C36.8542 22.2619 36.9658 22.4172 37.0443 22.5896C37.1228 22.762 37.1666 22.9482 37.1733 23.1376C37.1799 23.327 37.1492 23.5158 37.0829 23.6933C37.0166 23.8708 36.9161 24.0335 36.787 24.1721C36.658 24.3107 36.5029 24.4225 36.3307 24.5011C36.1585 24.5797 35.9725 24.6235 35.7833 24.6301" fill="#386A89"/>
</svg>
