<svg width="115" height="116" viewBox="0 0 115 116" fill="none" xmlns="http://www.w3.org/2000/svg">
<g clip-path="url(#clip0_1414_40859)">
<path d="M49.8457 20.1914H48.2927C46.1019 20.1914 44.0008 21.0692 42.4517 22.6317C40.9025 24.1941 40.0322 26.3133 40.0322 28.523V54.0509H41.5852V28.5396C41.583 27.4441 41.7951 26.3589 42.2092 25.3462C42.6234 24.3334 43.2315 23.413 43.9988 22.6376C44.7661 21.8621 45.6774 21.2469 46.6807 20.8272C47.684 20.4075 48.7595 20.1914 49.8457 20.1914V20.1914Z" fill="#B1CAD9"/>
<path d="M41.5525 58.25H39.9995V98.4082C39.9933 98.8217 39.8661 99.2242 39.6339 99.5651C39.4017 99.906 39.0748 100.17 38.6943 100.324C39.0104 100.453 39.3528 100.501 39.6915 100.464C40.0302 100.428 40.3548 100.308 40.637 100.116C40.9191 99.9231 41.1502 99.6637 41.3098 99.3602C41.4694 99.0567 41.5527 98.7184 41.5525 98.3748" fill="#B1CAD9"/>
<path d="M61.2131 15.9922H59.6602C62.9582 15.9966 66.1199 17.32 68.4519 19.6721C70.784 22.0242 72.0961 25.2131 72.1004 28.5395V89.4266C72.1007 89.8459 71.9766 90.2556 71.744 90.6031C71.5114 90.9506 71.1809 91.2198 70.7953 91.3762C71.1113 91.5044 71.4537 91.5523 71.7924 91.5159C72.1311 91.4795 72.4558 91.3598 72.7379 91.1674C73.0201 90.9749 73.2511 90.7155 73.4107 90.412C73.5703 90.1085 73.6537 89.7702 73.6534 89.4266V28.5395C73.649 25.2131 72.337 22.0242 70.0049 19.6721C67.6728 17.32 64.5111 15.9966 61.2131 15.9922V15.9922Z" fill="#386A89"/>
<path d="M72.1002 89.4266V28.5395C72.0959 25.2102 70.7815 22.0188 68.4459 19.6662C66.1103 17.3136 62.9443 15.9922 59.6434 15.9922H49.8465C46.5485 15.9966 43.3868 17.32 41.0547 19.6721C38.7227 22.0242 37.4106 25.2131 37.4062 28.5395V98.4081C37.4111 98.8197 37.5359 99.2209 37.765 99.5616C37.9941 99.9023 38.3175 100.168 38.6949 100.324C39.0806 100.168 39.411 99.8987 39.6436 99.5512C39.8762 99.2037 40.0003 98.794 40 98.3747V58.2499H69.4899V89.4266C69.4896 89.8459 69.6138 90.2556 69.8464 90.6031C70.079 90.9506 70.4094 91.2198 70.7951 91.3762C71.1808 91.2198 71.5112 90.9506 71.7438 90.6031C71.9764 90.2556 72.1005 89.8459 72.1002 89.4266V89.4266ZM69.4899 54.0508H40V28.5395C40 26.3299 40.8703 24.2107 42.4195 22.6482C43.9686 21.0857 46.0697 20.208 48.2605 20.208H61.1799C63.3707 20.208 65.4718 21.0857 67.0209 22.6482C68.5701 24.2107 69.4404 26.3299 69.4404 28.5395L69.4899 54.0508Z" fill="#6395B4"/>
<path d="M62.8983 15.3418H48.1616C46.6652 15.3418 45.4521 16.5653 45.4521 18.0746V18.6078C45.4521 20.117 46.6652 21.3405 48.1616 21.3405H62.8983C64.3946 21.3405 65.6077 20.117 65.6077 18.6078V18.0746C65.6077 16.5653 64.3946 15.3418 62.8983 15.3418Z" fill="#68744D"/>
<path d="M65.5264 93.7598C65.5264 94.9613 65.8792 96.1358 66.5404 97.1353C67.2015 98.1347 68.1414 98.9143 69.2413 99.3756C70.3413 99.8369 71.552 99.9593 72.7208 99.7273C73.8897 99.4953 74.9642 98.9193 75.8088 98.0721C76.6534 97.2248 77.2303 96.1442 77.4667 94.9666C77.7031 93.789 77.5884 92.5672 77.1371 91.4553C76.6857 90.3434 75.918 89.3912 74.9307 88.7189C73.9434 88.0466 72.7808 87.6843 71.5896 87.6777C69.9903 87.6777 68.4565 88.3185 67.3256 89.4591C66.1947 90.5997 65.5594 92.1467 65.5594 93.7598" fill="#98A678"/>
<path d="M67.8047 93.7591C67.8047 94.5058 68.0239 95.2358 68.4345 95.8571C68.8451 96.4783 69.4289 96.9631 70.1123 97.2504C70.7956 97.5376 71.548 97.6145 72.2745 97.4712C73.0011 97.3279 73.6693 96.971 74.1951 96.4453C74.7209 95.9196 75.0807 95.2488 75.2291 94.5172C75.3775 93.7857 75.3079 93.0262 75.0291 92.3345C74.7503 91.6428 74.2748 91.0498 73.6624 90.6302C73.0501 90.2106 72.3283 89.9831 71.588 89.9766C71.0955 89.9766 70.6078 90.0744 70.1528 90.2645C69.6978 90.4546 69.2844 90.7332 68.9362 91.0844C68.5879 91.4357 68.3117 91.8527 68.1232 92.3116C67.9347 92.7705 67.8377 93.2624 67.8377 93.7591" fill="#68744D"/>
<path d="M65.5408 93.759C65.5408 94.9572 65.8927 96.1285 66.552 97.1253C67.2114 98.122 68.1486 98.8994 69.2455 99.3594C70.3425 99.8195 71.5499 99.9415 72.7155 99.7102C73.8811 99.4788 74.9527 98.9044 75.795 98.0595C76.6374 97.2146 77.2127 96.137 77.4484 94.9626C77.6842 93.7882 77.5698 92.5698 77.1197 91.4609C76.6696 90.352 75.904 89.4024 74.9194 88.732C73.9348 88.0615 72.7754 87.7002 71.5875 87.6936C69.9926 87.6936 68.463 88.3327 67.3352 89.4701C66.2074 90.6076 65.5738 92.1504 65.5738 93.759H65.5408ZM64.8965 93.759C64.8965 92.4407 65.2841 91.1521 66.0102 90.056C66.7363 88.9599 67.7684 88.1056 68.9759 87.6011C70.1835 87.0966 71.5122 86.9646 72.7941 87.2218C74.076 87.479 75.2535 88.1138 76.1777 89.046C77.1019 89.9781 77.7313 91.1657 77.9863 92.4587C78.2412 93.7516 78.1104 95.0918 77.6102 96.3097C77.11 97.5276 76.263 98.5686 75.1763 99.301C74.0895 100.033 72.8119 100.424 71.5049 100.424C69.7589 100.403 68.0904 99.6935 66.8557 98.4482C65.621 97.2028 64.9179 95.52 64.8965 93.759" fill="#CBD2BC"/>
<path d="M36.8944 93.3422V97.7913C36.8487 98.4641 37.0675 99.1281 37.5035 99.6395C37.9394 100.151 38.5574 100.469 39.2239 100.524H39.6865C40.3529 100.469 40.9709 100.151 41.4069 99.6395C41.8428 99.1281 42.0616 98.4641 42.0159 97.7913V93.3422C42.0707 92.6003 41.8321 91.8666 41.3523 91.3015C40.8725 90.7364 40.1905 90.3858 39.4552 90.3262C38.7199 90.3858 38.0379 90.7364 37.5581 91.3015C37.0783 91.8666 36.8397 92.6003 36.8944 93.3422V93.3422Z" fill="#68744D"/>
</g>
<defs>
<clipPath id="clip0_1414_40859">
<rect width="115" height="115" fill="white" transform="translate(0 0.433594)"/>
</clipPath>
</defs>
</svg>
