<svg width="116" height="115" viewBox="0 0 116 115" fill="none" xmlns="http://www.w3.org/2000/svg">
<path d="M72.2814 35.3371L70.822 36.2285C70.0644 36.6913 69.8247 37.6817 70.2866 38.4407L70.3756 38.5869C70.8375 39.346 71.8261 39.5861 72.5838 39.1234L74.0432 38.232C74.8008 37.7692 75.0406 36.7788 74.5786 36.0197L74.4897 35.8735C74.0277 35.1145 73.0391 34.8743 72.2814 35.3371Z" fill="#B1CAD9"/>
<path d="M69.7502 36.4618L59.4433 43.1674C58.8732 43.5382 58.7112 44.3018 59.0814 44.8729L60.1147 46.467C60.4849 47.038 61.2471 47.2003 61.8171 46.8295L72.124 40.1239C72.694 39.7531 72.8561 38.9895 72.4859 38.4184L71.4525 36.8243C71.0824 36.2533 70.3202 36.091 69.7502 36.4618Z" fill="#386A89"/>
<path d="M56.8937 29.9389C56.8937 29.9389 66.6365 28.8602 64.1752 57.3368L49.8174 58.878C50.7986 56.0721 51.2901 53.1179 51.2703 50.1449C51.1848 41.7543 50.3302 30.2643 56.8937 29.9389Z" fill="#21506E"/>
<path d="M58.2261 28.7741C61.7283 28.7741 64.5675 25.9299 64.5675 22.4212C64.5675 18.9126 61.7283 16.0684 58.2261 16.0684C54.7239 16.0684 51.8848 18.9126 51.8848 22.4212C51.8848 25.9299 54.7239 28.7741 58.2261 28.7741Z" fill="#B1CAD9"/>
<path d="M72.1923 93.6211L67.5261 95.8814L57.168 73.6035C59.4998 69.6539 61.5283 65.5324 63.2358 61.2744C65.0306 67.7472 72.0898 92.7649 72.1923 93.6211Z" fill="#525B3F"/>
<path d="M72.1922 93.6384H76.6533C76.8323 93.6391 77.0087 93.6811 77.1688 93.7613C77.3289 93.8415 77.4684 93.9577 77.5763 94.1008V94.1008C77.6701 94.2431 77.7316 94.4042 77.7564 94.573C77.7812 94.7417 77.7687 94.9138 77.7198 95.0771C77.6709 95.2405 77.5867 95.391 77.4733 95.5182C77.3599 95.6454 77.22 95.7461 77.0635 95.8131L68.9617 98.9125L67.5088 95.7789L72.1751 93.5186L72.1922 93.6384Z" fill="#21506E"/>
<path d="M47.7839 75.7277C50.6726 68.8611 49.818 58.878 49.818 58.878L64.1586 57.3711C64.0214 58.705 63.6992 60.0133 63.2015 61.2582L62.7741 59.7342L55.2876 69.6145L57.1678 73.6043C51.664 83.2621 44.9979 93.1254 44.9979 93.1254L40.0752 90.0773C42.9435 85.4613 45.5182 80.6686 47.7839 75.7277V75.7277Z" fill="#98A678"/>
<path d="M62.7727 59.751L63.2 61.275C61.5035 65.5319 59.4865 69.6535 57.1663 73.604L55.2861 69.6142L62.7727 59.751Z" fill="#98A678"/>
<path d="M40.0745 90.0771L45.0142 93.1252L47.2192 96.5499C47.382 96.8057 47.4685 97.1027 47.4685 97.4061C47.4685 97.7094 47.382 98.0065 47.2192 98.2623C47.0903 98.4435 46.9249 98.5956 46.7337 98.7089C46.5425 98.8222 46.3297 98.894 46.109 98.9198C45.8884 98.9457 45.6648 98.9249 45.4527 98.8588C45.2406 98.7927 45.0446 98.6828 44.8775 98.5362L38.3652 92.9026C38.3652 92.9026 39.066 91.7895 40.0745 90.0771Z" fill="#21506E"/>
<path d="M62.7896 52.5296L61.2958 51.6974C60.5203 51.2653 59.542 51.5449 59.1107 52.3218L59.0276 52.4714C58.5963 53.2483 58.8754 54.2284 59.6509 54.6605L61.1447 55.4927C61.9202 55.9248 62.8985 55.6452 63.3297 54.8683L63.4128 54.7187C63.8441 53.9418 63.5651 52.9617 62.7896 52.5296Z" fill="#B1CAD9"/>
<path d="M47.937 44.8702L55.2185 31.9932C55.4324 31.6154 55.728 31.2904 56.0836 31.0419C56.4391 30.7935 56.8457 30.6279 57.2735 30.5573C57.7012 30.4867 58.1393 30.5129 58.5557 30.6339C58.972 30.755 59.3561 30.9678 59.6796 31.2568C60.169 31.7133 60.4895 32.3224 60.5888 32.9848C60.6881 33.6472 60.5605 34.3238 60.2266 34.9042L53.7485 46.5141L60.9616 50.7778C61.1306 50.8809 61.2524 51.0465 61.3003 51.2388C61.3483 51.4311 61.3187 51.6347 61.218 51.8053L59.7651 54.2711C59.6623 54.4405 59.4969 54.5624 59.305 54.6105C59.113 54.6586 58.9098 54.6289 58.7395 54.5279L49.0822 48.86H48.9797C48.6475 48.6688 48.3566 48.4132 48.1239 48.1083C47.8913 47.8034 47.7215 47.4551 47.6245 47.0838C47.5274 46.7125 47.5051 46.3256 47.5587 45.9455C47.6124 45.5655 47.741 45.1999 47.937 44.8702Z" fill="#386A89"/>
</svg>
