<svg width="115" height="115" viewBox="0 0 115 115" fill="none" xmlns="http://www.w3.org/2000/svg">
<g clip-path="url(#clip0_1414_40855)">
<path d="M78.0475 93.1193L83.5784 94.9823C83.8031 95.0604 84.0068 95.1902 84.1732 95.3616C84.3396 95.533 84.4642 95.7412 84.5371 95.9697C84.6122 96.1993 84.6328 96.4434 84.5975 96.6826C84.5622 96.9217 84.4719 97.1491 84.3339 97.3466C84.1958 97.5441 84.0139 97.7061 83.8026 97.8196C83.5914 97.9331 83.3567 97.995 83.1175 98.0003L71.4656 98.3729C71.3776 98.3729 71.2932 98.3376 71.231 98.2747C71.1688 98.2118 71.1338 98.1265 71.1338 98.0376V93.9017L77.9737 93.082L78.0475 93.1193Z" fill="#21506E"/>
<path d="M75.7623 94.2746L81.2933 96.1376C81.518 96.2156 81.7216 96.3455 81.888 96.5169C82.0544 96.6883 82.179 96.8965 82.252 97.125C82.327 97.3545 82.3477 97.5987 82.3124 97.8378C82.2771 98.077 82.1868 98.3044 82.0487 98.5019C81.9107 98.6993 81.7287 98.8614 81.5175 98.9749C81.3062 99.0884 81.0716 99.1503 80.8324 99.1556L69.1805 99.5282C69.0925 99.5282 69.0081 99.4929 68.9458 99.43C68.8836 99.3671 68.8486 99.2818 68.8486 99.1929V95.057L75.6886 94.2373L75.7623 94.2746Z" fill="#386A89"/>
<path d="M55.002 60.7969L72.0742 62.2686C73.6777 62.2854 75.2147 62.9188 76.3724 64.0402C77.5301 65.1616 78.2214 66.6865 78.3057 68.3047L79.541 92.9708C79.5485 93.1149 79.5269 93.259 79.4774 93.3944C79.428 93.5297 79.3518 93.6535 79.2534 93.7581C79.1551 93.8627 79.0367 93.946 78.9054 94.0028C78.7742 94.0596 78.6329 94.0888 78.4901 94.0886H71.1155V76.8186C71.12 76.0253 70.9622 75.2397 70.652 74.5109C70.3419 73.7821 69.8859 73.126 69.3129 72.5837C68.7399 72.0414 68.0622 71.6247 67.3222 71.3596C66.5823 71.0945 65.7961 70.9869 65.013 71.0434L55.4813 71.7327L55.002 60.7969Z" fill="#6395B4"/>
<path d="M63.1891 76.6885H61.7695V100.572H63.1891V76.6885Z" fill="#98A678"/>
<path d="M34.6667 73.1113H33.2471V100.591H34.6667V73.1113Z" fill="#98A678"/>
<path d="M38.3543 75.607H65.1979C65.5485 75.1666 65.7547 74.6267 65.7878 74.0625C65.8208 73.4982 65.6791 72.9376 65.3822 72.4585C65.1851 72.1419 64.9138 71.8793 64.5921 71.694C64.2705 71.5088 63.9086 71.4066 63.5386 71.3966L44.5305 70.2974C43.2313 70.2334 41.9996 69.693 41.0663 68.7774C40.133 67.8617 39.5621 66.6337 39.4605 65.3232L38.0777 47.9415C37.9947 47.0125 37.5698 46.1488 36.8871 45.521C36.2044 44.8932 35.3135 44.547 34.3904 44.5508H32.3809L35.1832 72.7752C35.2817 73.5557 35.6577 74.2734 36.2411 74.7944C36.8246 75.3154 37.5757 75.6042 38.3543 75.607Z" fill="#68744D"/>
<path d="M65.7145 75.6076H65.1983C64.9493 75.9431 64.6264 76.2154 64.2552 76.403C63.884 76.5905 63.4747 76.6881 63.0597 76.6881H38.3547C37.3353 76.6424 36.3613 76.2492 35.5913 75.5726C34.8213 74.896 34.3007 73.9759 34.1143 72.9622L31.6623 44.626H31.5148C31.3564 44.6278 31.2002 44.6629 31.056 44.7289C30.9118 44.795 30.7827 44.8906 30.677 45.0097C30.5712 45.1288 30.4911 45.2688 30.4418 45.4208C30.3924 45.5728 30.3748 45.7336 30.3901 45.8928L33.0634 73.018C33.2249 74.3222 33.8513 75.5221 34.8253 76.3932C35.7993 77.2642 37.0541 77.7466 38.3547 77.7501H65.7145C65.9981 77.7501 66.2701 77.6362 66.4706 77.4336C66.6712 77.2309 66.7838 76.9561 66.7838 76.6695C66.7838 76.3829 66.6712 76.1081 66.4706 75.9055C66.2701 75.7028 65.9981 75.589 65.7145 75.589V75.6076Z" fill="#98A678"/>
<path d="M34.0589 72.9063C34.2453 73.92 34.7659 74.8401 35.5359 75.5167C36.3059 76.1933 37.2799 76.5865 38.2993 76.6323H63.0595C63.4745 76.6323 63.8838 76.5346 64.255 76.3471C64.6263 76.1595 64.9491 75.8872 65.1981 75.5517H38.3546C37.57 75.553 36.8121 75.2636 36.2243 74.7383C35.6366 74.2131 35.2597 73.4884 35.165 72.7013L32.3811 44.626H31.6621L34.0589 72.9063Z" fill="#98A678"/>
<path d="M52.6973 61.9521L69.7695 63.4239C71.3826 63.4264 72.9335 64.0536 74.1029 65.1764C75.2724 66.2992 75.9714 67.8322 76.0563 69.46L77.2916 94.1261C77.2991 94.2702 77.2775 94.4143 77.2281 94.5497C77.1786 94.685 77.1024 94.8088 77.0041 94.9134C76.9057 95.018 76.7873 95.1012 76.6561 95.1581C76.5248 95.2149 76.3835 95.2441 76.2407 95.2439H68.8661V77.9739C68.8661 74.6205 66.3956 72.832 63.0955 73.0742L53.2319 72.9066L52.6973 61.9521Z" fill="#B1CAD9"/>
<path d="M48.1627 32.6465C48.1627 32.6465 60.4968 35.5528 57.381 73.0735H45.4526C44.5957 73.0728 43.748 72.8945 42.962 72.5498C42.1759 72.205 41.4682 71.701 40.8825 71.069C40.2967 70.437 39.8455 69.6903 39.5565 68.8751C39.2676 68.0599 39.1471 67.1935 39.2026 66.3295C40.0322 53.866 42.3368 32.9446 48.1627 32.6465Z" fill="#21506E"/>
<path d="M49.8962 31.1379C54.468 31.1379 58.1742 27.3928 58.1742 22.7731C58.1742 18.1533 54.468 14.4082 49.8962 14.4082C45.3244 14.4082 41.6182 18.1533 41.6182 22.7731C41.6182 27.3928 45.3244 31.1379 49.8962 31.1379Z" fill="#B1CAD9"/>
<path d="M65.1199 58.684L62.8736 58.5682C61.7245 58.509 60.7455 59.4022 60.6868 60.5634L60.6737 60.8239C60.6151 61.985 61.4991 62.9743 62.6482 63.0336L64.8945 63.1493C66.0436 63.2086 67.0227 62.3153 67.0813 61.1541L67.0944 60.8937C67.153 59.7325 66.269 58.7432 65.1199 58.684Z" fill="#B1CAD9"/>
<path d="M43.2777 58.2629L44.4208 38.8318C44.4555 38.2625 44.6155 37.7081 44.889 37.209C45.1625 36.71 45.5426 36.2788 46.0017 35.9469C46.4609 35.615 46.9875 35.3907 47.5432 35.2904C48.0989 35.19 48.6698 35.216 49.2143 35.3667C50.0616 35.616 50.7985 36.1517 51.3018 36.8841C51.8052 37.6165 52.0445 38.5014 51.9797 39.3907L50.9657 56.847L61.8617 57.6854C61.9902 57.6948 62.1155 57.7298 62.2305 57.7883C62.3456 57.8469 62.448 57.9278 62.5319 58.0265C62.6159 58.1252 62.6797 58.2397 62.7197 58.3634C62.7598 58.4871 62.7752 58.6175 62.7651 58.7473L62.4886 62.4733C62.4792 62.6031 62.4446 62.7297 62.3867 62.8459C62.3287 62.9622 62.2486 63.0657 62.151 63.1505C62.0533 63.2353 61.94 63.2998 61.8176 63.3403C61.6952 63.3807 61.5661 63.3963 61.4377 63.3861L46.965 62.3056H46.7622H46.5778C45.6118 62.2066 44.7234 61.7265 44.1056 60.9696C43.4877 60.2127 43.1902 59.2401 43.2777 58.2629V58.2629Z" fill="#386A89"/>
</g>
<defs>
<clipPath id="clip0_1414_40855">
<rect width="115" height="115" fill="white"/>
</clipPath>
</defs>
</svg>
