<svg width="115" height="115" viewBox="0 0 115 115" fill="none" xmlns="http://www.w3.org/2000/svg">
<path d="M39.3937 24.6592V31.7585C39.3939 32.0449 39.3173 32.326 39.1719 32.5718C39.0266 32.8177 38.818 33.0191 38.5684 33.1546C38.7995 33.2872 39.0605 33.3576 39.3263 33.3589C39.7462 33.3589 40.149 33.1903 40.4459 32.8901C40.7428 32.59 40.9096 32.183 40.9096 31.7585V24.6592C40.9114 22.7791 41.6001 20.9659 42.8436 19.5676C44.0871 18.1694 45.7977 17.2846 47.6471 17.0832L46.9228 16.998C45.9304 17.0003 44.9482 17.2003 44.0325 17.5868C43.1167 17.9732 42.2853 18.5384 41.586 19.25C40.8866 19.9616 40.333 20.8057 39.9568 21.7339C39.5806 22.6621 39.3893 23.6562 39.3937 24.6592V24.6592Z" fill="#6395B4"/>
<path d="M48.4396 13.8652H47.6816C50.373 14.0715 52.8877 15.2985 54.7215 17.3004C56.5552 19.3022 57.5723 21.9308 57.5688 24.6589V83.3944C57.5691 83.6808 57.4924 83.9619 57.3471 84.2077C57.2017 84.4536 56.9931 84.655 56.7435 84.7905C56.9746 84.9231 57.2357 84.9935 57.5015 84.9948C57.9214 84.9948 58.3241 84.8261 58.621 84.526C58.918 84.2259 59.0848 83.8189 59.0848 83.3944V24.6589C59.0804 21.8035 57.9585 19.0659 55.964 17.0436C53.9696 15.0213 51.2646 13.8787 48.4396 13.8652V13.8652Z" fill="#386A89"/>
<path d="M57.5679 83.3936V24.6581C57.5628 21.9359 56.5419 19.3157 54.709 17.3211C52.8762 15.3265 50.3662 14.1042 47.6807 13.8984C44.9891 14.096 42.4709 15.3147 40.6309 17.3102C38.791 19.3057 37.7654 21.9304 37.7598 24.6581V31.7574C37.7596 32.0438 37.8362 32.3249 37.9816 32.5707C38.1269 32.8166 38.3355 33.018 38.5851 33.1535C38.8347 33.018 39.0433 32.8166 39.1887 32.5707C39.334 32.3249 39.4106 32.0438 39.4104 31.7574V24.6581C39.406 23.6565 39.5968 22.6638 39.9719 21.7367C40.3471 20.8097 40.8992 19.9663 41.5968 19.2549C42.2943 18.5435 43.1237 17.978 44.0375 17.5905C44.9514 17.2031 45.9317 17.0014 46.9227 16.9969H47.6807H48.4386C50.4282 17.0239 52.3268 17.844 53.7211 19.2788C55.1154 20.7136 55.8926 22.647 55.8835 24.6581V83.3936C55.8833 83.68 55.9599 83.961 56.1053 84.2069C56.2506 84.4527 56.4592 84.6541 56.7088 84.7896C56.9647 84.6587 57.1802 84.4593 57.3317 84.2131C57.4831 83.9669 57.5648 83.6835 57.5679 83.3936V83.3936Z" fill="#6395B4"/>
<path d="M39.2402 82.543C38.8202 82.543 38.4175 82.7116 38.1206 83.0117C37.8237 83.3118 37.6569 83.7189 37.6569 84.1433V99.5848C37.634 99.8076 37.6577 100.033 37.7265 100.246C37.7952 100.459 37.9075 100.655 38.0559 100.821C38.2044 100.988 38.3858 101.121 38.5883 101.212C38.7909 101.303 39.0101 101.35 39.2317 101.35C39.4534 101.35 39.6726 101.303 39.8752 101.212C40.0777 101.121 40.2591 100.988 40.4075 100.821C40.556 100.655 40.6682 100.459 40.737 100.246C40.8057 100.033 40.8295 99.8076 40.8066 99.5848V85.7266H57.566V82.543H39.2402Z" fill="#6395B4"/>
<path d="M75.8417 82.5431H57.5664V85.7267H74.2921V99.5678C74.3325 99.9616 74.5158 100.326 74.8067 100.591C75.0975 100.857 75.4753 101.003 75.867 101.003C76.2587 101.003 76.6365 100.857 76.9273 100.591C77.2182 100.326 77.4015 99.9616 77.4419 99.5678V84.1434C77.4419 83.9318 77.4004 83.7223 77.3198 83.527C77.2391 83.3317 77.121 83.1546 76.9722 83.0057C76.8234 82.8569 76.6469 82.7394 76.4528 82.66C76.2588 82.5805 76.0511 82.5408 75.8417 82.5431Z" fill="#386A89"/>
<path d="M37.3549 96.1117V99.3974C37.322 99.888 37.4794 100.372 37.7939 100.747C38.1084 101.122 38.5551 101.359 39.0393 101.406H39.3762C39.8603 101.359 40.307 101.122 40.6215 100.747C40.936 100.372 41.0935 99.888 41.0605 99.3974V96.1117C41.0977 95.566 40.9205 95.0276 40.5673 94.6132C40.2141 94.1988 39.7134 93.942 39.174 93.8984C38.6468 93.9586 38.163 94.2226 37.8239 94.6351C37.4848 95.0476 37.3168 95.5767 37.3549 96.1117V96.1117Z" fill="#68744D"/>
<path d="M73.9409 96.1117V99.3974C73.9079 99.888 74.0654 100.372 74.3799 100.747C74.6944 101.122 75.1411 101.359 75.6252 101.406H75.9621C76.4462 101.359 76.893 101.122 77.2075 100.747C77.5219 100.372 77.6794 99.888 77.6465 99.3974V96.1117C77.6837 95.566 77.5064 95.0276 77.1532 94.6132C76.8 94.1988 76.2994 93.942 75.76 93.8984C75.2327 93.9586 74.7489 94.2226 74.4098 94.6351C74.0708 95.0476 73.9027 95.5767 73.9409 96.1117V96.1117Z" fill="#68744D"/>
<path d="M57.5673 35.2152C57.0804 35.2152 56.6134 35.0197 56.2691 34.6717C55.9248 34.3237 55.7314 33.8517 55.7314 33.3595V24.6599C55.7314 22.7115 54.9657 20.843 53.6026 19.4653C52.2396 18.0876 50.391 17.3137 48.4634 17.3137C46.5358 17.3137 44.6871 18.0876 43.3241 19.4653C41.9611 20.843 41.1953 22.7115 41.1953 24.6599V33.3595C41.1953 33.8517 41.0019 34.3237 40.6576 34.6717C40.3133 35.0197 39.8463 35.2152 39.3594 35.2152C38.8725 35.2152 38.4055 35.0197 38.0612 34.6717C37.7169 34.3237 37.5234 33.8517 37.5234 33.3595V24.6599C37.5234 21.7249 38.6769 18.9102 40.7301 16.8349C42.7834 14.7596 45.5681 13.5938 48.4718 13.5938C51.3755 13.5938 54.1602 14.7596 56.2134 16.8349C58.2667 18.9102 59.4201 21.7249 59.4201 24.6599V33.3595C59.4202 33.6047 59.3721 33.8474 59.2788 34.0736C59.1855 34.2999 59.0487 34.5052 58.8765 34.6778C58.7042 34.8503 58.4998 34.9866 58.2751 35.0789C58.0504 35.1711 57.8099 35.2175 57.5673 35.2152Z" fill="#68744D"/>
</svg>
