<svg width="115" height="116" viewBox="0 0 115 116" fill="none" xmlns="http://www.w3.org/2000/svg">
<path d="M18.0118 52.2305C16.031 52.2925 14.1378 53.0667 12.6753 54.4127C11.2129 55.7587 10.278 57.5873 10.04 59.5673L11.1756 59.0874C11.1756 62.8815 13.0834 66.4242 16.8535 66.4242L42.4267 66.2642V52.2305H18.0118Z" fill="#B1CAD9"/>
<path d="M103.975 65.1904H101.522C100.995 65.1904 100.568 65.6202 100.568 66.1504V83.7497C100.568 84.2799 100.995 84.7097 101.522 84.7097H103.975C104.502 84.7097 104.929 84.2799 104.929 83.7497V66.1504C104.929 65.6202 104.502 65.1904 103.975 65.1904Z" fill="#525B3F"/>
<path d="M12.3112 32.9856C12.3112 32.3544 11.8028 31.8428 11.1756 31.8428C10.5485 31.8428 10.04 32.3544 10.04 32.9856V83.5666C10.04 84.1977 10.5485 84.7094 11.1756 84.7094C11.8028 84.7094 12.3112 84.1977 12.3112 83.5666V32.9856Z" fill="#68744D"/>
<path d="M30.9573 49.0996H17.285C15.7296 49.0996 14.4688 50.3634 14.4688 51.9224C14.4688 53.4813 15.7296 54.7451 17.285 54.7451H30.9573C32.5127 54.7451 33.7736 53.4813 33.7736 51.9224C33.7736 50.3634 32.5127 49.0996 30.9573 49.0996Z" fill="#386A89"/>
<path d="M30.9562 53.4878H17.3293C16.6835 53.4791 16.0602 53.2473 15.5641 52.8311C15.0679 52.415 14.7289 51.8399 14.6039 51.2021C14.5009 51.6144 14.4921 52.0448 14.5782 52.461C14.6643 52.8772 14.843 53.2683 15.101 53.6049C15.359 53.9415 15.6894 54.2149 16.0675 54.4044C16.4456 54.5939 16.8615 54.6947 17.2839 54.6992H30.9108C31.3346 54.7008 31.7532 54.6054 32.1349 54.4201C32.5166 54.2348 32.8514 53.9646 33.114 53.6299C33.3766 53.2951 33.5601 52.9047 33.6506 52.488C33.741 52.0714 33.7361 51.6395 33.6362 51.225C33.5084 51.851 33.1742 52.4152 32.6877 52.8259C32.2012 53.2367 31.591 53.4699 30.9562 53.4878V53.4878Z" fill="#21506E"/>
<path d="M17.285 49.0996C16.6391 49.1083 16.0159 49.3401 15.5197 49.7563C15.0235 50.1724 14.6845 50.7475 14.5596 51.3852C14.6845 52.023 15.0235 52.5981 15.5197 53.0142C16.0159 53.4303 16.6391 53.6622 17.285 53.6709H30.9119C31.5577 53.6622 32.181 53.4303 32.6771 53.0142C33.1733 52.5981 33.5123 52.023 33.6373 51.3852" fill="#386A89"/>
<path d="M31.8199 48.5048C31.8199 48.5048 35.9307 39.1794 64.5472 47.2705L62.7984 56.6416C62.6709 57.3201 62.4065 57.965 62.0216 58.5365C61.6366 59.1081 61.1393 59.5942 60.5604 59.9648C59.9815 60.3353 59.3332 60.5825 58.6556 60.691C57.978 60.7996 57.2855 60.7671 56.6209 60.5957C47.1502 58.0816 31.2067 53.1446 31.8199 48.5048Z" fill="#21506E"/>
<path d="M30.9341 46.8949C31.6142 43.273 29.2479 39.7821 25.649 39.0978C22.05 38.4134 18.5812 40.7947 17.9012 44.4166C17.2212 48.0385 19.5874 51.5294 23.1864 52.2138C26.7853 52.8981 30.2541 50.5168 30.9341 46.8949Z" fill="#B1CAD9"/>
<path d="M54.7347 53.8538V53.991C54.4986 54.7247 53.9942 55.3406 53.3237 55.7141C52.6532 56.0876 51.8667 56.1906 51.1236 56.0023L36.0886 52.4139C35.653 52.3001 35.248 52.0906 34.9025 51.8004C34.5571 51.5102 34.2799 51.1465 34.091 50.7356C33.902 50.3246 33.8059 49.8766 33.8097 49.4238C33.8134 48.971 33.9169 48.5246 34.1127 48.1169C34.4322 47.4825 34.9583 46.9777 35.6031 46.6865C36.2478 46.3953 36.9723 46.3355 37.6556 46.5169L51.1009 49.8997" fill="#386A89"/>
<path d="M103.407 56.5281C103.407 47.9341 102.249 42.54 96.5935 42.54H47.5139C44.7204 42.54 42.4492 45.5342 42.4492 49.2369V54.9282C42.4492 51.2254 44.7204 48.2313 47.5139 48.2313H96.5935C101.295 48.2313 102.885 51.9568 103.407 58.128C103.481 57.598 103.519 57.0634 103.521 56.5281H103.407Z" fill="#CBD2BC"/>
<path d="M96.5935 65.5552L42.4492 65.9667V71.6579L96.5935 71.2465C100.364 71.2465 103.407 67.2009 103.407 62.2182C103.407 60.7554 103.407 59.384 103.293 58.127C102.726 62.3325 99.9321 65.5552 96.5935 65.5552Z" fill="#6395B4"/>
<path d="M96.5935 48.2314H47.5139C44.7204 48.2314 42.4492 51.2256 42.4492 54.9283V65.9679L96.5935 65.5565C99.9548 65.5565 102.726 62.3566 103.407 58.1282C102.885 51.957 101.295 48.2314 96.5935 48.2314Z" fill="#98A678"/>
<path d="M101.839 63.5449H12.2588V68.4819H104.96V66.6534C104.943 65.8227 104.606 65.0321 104.023 64.4511C103.439 63.87 102.655 63.5447 101.839 63.5449Z" fill="#21506E"/>
<path d="M104.929 68.4814H11.1758V74.3098H104.929V68.4814Z" fill="#68744D"/>
</svg>
