<svg width="298" height="251" viewBox="0 0 298 251" fill="none" xmlns="http://www.w3.org/2000/svg">
<rect x="145" y="56.0898" width="10" height="13" rx="3" fill="#525B3F"/>
<rect x="162" y="51.0898" width="9" height="24" rx="3" transform="rotate(90 162 51.0898)" fill="#98A678"/>
<circle cx="150" cy="126.09" r="60" fill="#68744D"/>
<circle cx="150" cy="126.09" r="52" fill="#6395B4"/>
<path d="M186.539 162.629C206.846 142.322 206.846 109.397 186.539 89.0898L113 162.629C133.307 182.936 166.232 182.936 186.539 162.629Z" fill="#386A89"/>
<path d="M192.933 127.59C193.762 127.59 194.433 126.918 194.433 126.09C194.433 125.261 193.762 124.59 192.933 124.59V127.59ZM151.5 98.0898C151.5 97.2614 150.828 96.5898 150 96.5898C149.172 96.5898 148.5 97.2614 148.5 98.0898H151.5ZM150 126.09H148.5V127.59H150V126.09ZM192.933 124.59H150V127.59H192.933V124.59ZM151.5 126.09V98.0898H148.5V126.09H151.5Z" fill="#C2C2C2"/>
<circle cx="150" cy="126.09" r="3.5" fill="#386A89" stroke="#C2C2C2" stroke-width="3"/>
<rect x="130.772" y="182.961" width="54.2365" height="27.8136" rx="13.9068" transform="rotate(-119.799 130.772 182.961)" fill="white"/>
<path d="M142.858 176.04C136.188 179.859 127.684 177.537 123.882 170.857L115.736 156.547L139.743 142.633L148.012 157.086C151.821 163.743 149.514 172.228 142.858 176.04V176.04Z" fill="#EC6571"/>
<circle cx="117.759" cy="168.014" r="13.4399" fill="#F6EEE1" stroke="#D7C5A9"/>
<line x1="107.708" y1="177.357" x2="127.102" y2="157.963" stroke="#D7C5A9"/>
</svg>
