<svg width="298" height="251" viewBox="0 0 298 251" fill="none" xmlns="http://www.w3.org/2000/svg">
<path d="M196.548 81.4952L192.409 84.0187C191.145 84.7893 190.745 86.4387 191.516 87.7027L192.378 89.1173C193.149 90.3812 194.798 90.7812 196.062 90.0105L200.201 87.4871C201.465 86.7164 201.865 85.0671 201.094 83.8031L200.232 82.3885C199.461 81.1246 197.812 80.7246 196.548 81.4952Z" fill="#B1CAD9"/>
<path d="M191.159 83.8906L168.947 98.3154C167.996 98.933 167.726 100.205 168.344 101.155L171.03 105.293C171.648 106.244 172.919 106.514 173.87 105.896L196.083 91.4716C197.034 90.8541 197.304 89.5825 196.686 88.6316L194 84.4943C193.382 83.5433 192.11 83.273 191.159 83.8906Z" fill="#68744D"/>
<path d="M164.081 70.6556C164.081 70.6556 184.287 68.4229 179.194 127.373L149.407 130.563C151.442 124.755 152.461 118.639 152.421 112.485C152.241 95.1161 150.47 71.3314 164.081 70.6556Z" fill="#525B3F"/>
<path d="M166.846 68.2479C174.11 68.2479 179.998 62.3598 179.998 55.0966C179.998 47.8333 174.11 41.9453 166.846 41.9453C159.583 41.9453 153.695 47.8333 153.695 55.0966C153.695 62.3598 159.583 68.2479 166.846 68.2479Z" fill="#B1CAD9"/>
<path d="M195.807 202.487L186.129 207.166L164.648 161.049C169.484 152.873 173.691 144.341 177.232 135.527C180.953 148.93 195.593 200.716 195.807 202.487Z" fill="#6395B4"/>
<path d="M195.807 202.525H205.057C205.429 202.527 205.794 202.614 206.126 202.78C206.458 202.947 206.747 203.187 206.971 203.484C207.168 203.778 207.297 204.112 207.35 204.463C207.403 204.813 207.378 205.17 207.277 205.51C207.176 205.85 207.002 206.163 206.766 206.427C206.53 206.691 206.239 206.9 205.913 207.039L189.112 213.455L186.095 206.957L195.773 202.277L195.807 202.525Z" fill="#21506E"/>
<path d="M145.186 165.445C151.174 151.23 149.403 130.565 149.403 130.565L179.145 127.445C178.857 130.207 178.185 132.916 177.149 135.492L176.262 132.339L160.735 152.793L164.633 161.062C153.227 181.054 139.394 201.474 139.394 201.474L129.2 195.149C135.148 185.594 140.487 175.673 145.186 165.445Z" fill="#B1CAD9"/>
<path d="M176.276 132.375L177.163 135.529C173.645 144.341 169.462 152.872 164.65 161.05L160.75 152.792L176.276 132.375Z" fill="#B1CAD9"/>
<path d="M129.2 195.148L139.446 201.459L144.008 208.548C144.346 209.077 144.525 209.692 144.525 210.32C144.525 210.948 144.346 211.563 144.008 212.092C143.741 212.466 143.399 212.78 143.003 213.014C142.608 213.248 142.167 213.397 141.711 213.451C141.254 213.504 140.792 213.462 140.353 213.326C139.913 213.19 139.507 212.964 139.161 212.663L125.656 200.997C125.656 200.997 127.11 198.693 129.2 195.148Z" fill="#21506E"/>
<path d="M176.876 117.741L172.639 115.385C171.345 114.665 169.713 115.131 168.994 116.425L168.189 117.873C167.469 119.167 167.935 120.799 169.229 121.518L173.466 123.874C174.759 124.594 176.392 124.128 177.111 122.834L177.916 121.386C178.636 120.092 178.17 118.46 176.876 117.741Z" fill="#B1CAD9"/>
<path d="M145.509 101.573L160.622 74.9169C161.066 74.1358 161.678 73.4639 162.415 72.9501C163.152 72.4364 163.994 72.0938 164.88 71.9476C165.766 71.8013 166.674 71.8551 167.537 72.1049C168.4 72.3547 169.196 72.7942 169.867 73.3913C170.882 74.3356 171.548 75.5962 171.755 76.9676C171.963 78.3389 171.699 79.74 171.007 80.9421L157.559 104.975L172.519 113.815C172.869 114.028 173.121 114.371 173.221 114.769C173.32 115.168 173.258 115.589 173.049 115.942L170.035 121.046C169.821 121.397 169.478 121.649 169.08 121.748C168.682 121.847 168.261 121.786 167.908 121.577L147.884 109.831H147.67C146.98 109.435 146.375 108.906 145.892 108.274C145.408 107.642 145.056 106.92 144.854 106.15C144.653 105.38 144.607 104.578 144.72 103.79C144.832 103.002 145.1 102.245 145.509 101.562V101.573Z" fill="#68744D"/>
<path d="M167.444 120.562L164.4 116.784C163.471 115.631 161.74 115.429 160.535 116.335L159.186 117.349C157.98 118.254 157.757 119.924 158.686 121.077L161.73 124.855C162.66 126.009 164.39 126.21 165.596 125.304L166.945 124.291C168.15 123.385 168.374 121.716 167.444 120.562Z" fill="#6395B4"/>
<path d="M164.392 115.54L147.155 95.3684C146.417 94.5048 145.087 94.3872 144.184 95.1057L140.257 98.2316C139.354 98.9501 139.221 100.233 139.959 101.096L157.196 121.268C157.934 122.132 159.264 122.249 160.166 121.531L164.094 118.405C164.996 117.686 165.13 116.404 164.392 115.54Z" fill="#21506E"/>
<path d="M139.677 66.5505C139.677 66.5505 159.687 64.2536 154.643 124.897L125.146 128.179C127.162 122.204 128.171 115.913 128.131 109.581C127.953 91.7136 126.2 67.2457 139.677 66.5505Z" fill="#386A89"/>
<path d="M142.416 64.0738C149.608 64.0738 155.439 58.0166 155.439 50.5447C155.439 43.0728 149.608 37.0156 142.416 37.0156C135.223 37.0156 129.393 43.0728 129.393 50.5447C129.393 58.0166 135.223 64.0738 142.416 64.0738Z" fill="#6395B4"/>
<path d="M171.092 202.169L161.509 206.982L140.237 159.54C145.026 151.129 149.192 142.352 152.698 133.285C156.383 147.072 170.881 200.347 171.092 202.169Z" fill="#21506E"/>
<path d="M171.092 202.208H180.252C180.62 202.21 180.982 202.3 181.31 202.471C181.639 202.642 181.925 202.889 182.147 203.194C182.342 203.497 182.47 203.841 182.523 204.201C182.575 204.561 182.55 204.929 182.45 205.279C182.35 205.628 182.177 205.95 181.944 206.222C181.71 206.494 181.422 206.709 181.099 206.852L164.462 213.452L161.474 206.767L171.058 201.953L171.092 202.208Z" fill="#68744D"/>
<path d="M120.967 164.064C126.896 149.441 125.143 128.182 125.143 128.182L154.595 124.973C154.309 127.814 153.644 130.6 152.618 133.251L151.74 130.006L136.365 151.048L140.225 159.555C128.93 180.122 115.232 201.128 115.232 201.128L105.137 194.622C111.027 184.792 116.314 174.586 120.967 164.064Z" fill="#6395B4"/>
<path d="M151.753 130.043L152.632 133.287C149.148 142.352 145.006 151.129 140.241 159.542L136.378 151.047L151.753 130.043Z" fill="#6395B4"/>
<path d="M105.136 194.625L115.282 201.117L119.8 208.409C120.134 208.954 120.312 209.586 120.312 210.232C120.312 210.878 120.134 211.511 119.8 212.056C119.535 212.44 119.196 212.764 118.804 213.004C118.413 213.245 117.977 213.398 117.525 213.453C117.073 213.508 116.614 213.465 116.18 213.325C115.745 213.185 115.343 212.953 114.999 212.642L101.626 200.642C101.626 200.642 103.066 198.271 105.136 194.625Z" fill="#98A678"/>
<path d="M146.371 132.644L145.695 127.84C145.488 126.373 144.105 125.313 142.606 125.473L140.928 125.651C139.429 125.811 138.381 127.13 138.588 128.597L139.265 133.401C139.471 134.868 140.854 135.928 142.353 135.768L144.031 135.59C145.53 135.43 146.578 134.111 146.371 132.644Z" fill="#386A89"/>
<path d="M146.873 127.242L142.414 101.086C142.223 99.9664 141.05 99.1959 139.795 99.3652L134.332 100.102C133.077 100.271 132.214 101.316 132.405 102.436L136.864 128.592C137.055 129.712 138.228 130.482 139.483 130.313L144.945 129.576C146.201 129.407 147.064 128.362 146.873 127.242Z" fill="#21506E"/>
<line x1="141.991" y1="74.5049" x2="137.882" y2="101.751" stroke="#21506F" stroke-width="11" stroke-linecap="round"/>
</svg>
