<svg width="296" height="251" viewBox="0 0 296 251" fill="none" xmlns="http://www.w3.org/2000/svg">
<path d="M145.582 123.592L145.582 123.592C145.583 124.234 145.838 124.849 146.292 125.303C146.746 125.757 147.361 126.012 148.003 126.013L148.003 125.513L148.004 126.013C148.646 126.012 149.262 125.756 149.716 125.302C150.17 124.847 150.425 124.231 150.425 123.589V108.022C153.82 107.574 157.028 106.194 159.691 104.03C162.47 101.772 164.535 98.7566 165.636 95.3494C166.738 91.9422 166.829 88.2888 165.898 84.8311C164.967 81.3734 163.054 78.2594 160.391 75.8658C157.727 73.4722 154.428 71.9014 150.891 71.3435C147.353 70.7856 143.73 71.2644 140.46 72.722C137.189 74.1797 134.411 76.5537 132.461 79.557C130.511 82.5603 129.472 86.0642 129.472 89.6451L129.967 89.6452H129.472C129.472 90.2939 129.729 90.9161 130.188 91.3748C130.647 91.8335 131.269 92.0912 131.918 92.0912C132.566 92.0912 133.189 91.8335 133.647 91.3748C134.106 90.9161 134.364 90.2939 134.364 89.6452C134.364 86.9475 135.164 84.3105 136.662 82.0675C138.161 79.8244 140.291 78.0762 142.784 77.0439C145.276 76.0115 148.018 75.7414 150.664 76.2677C153.31 76.794 155.74 78.093 157.648 80.0006C159.555 81.9081 160.854 84.3384 161.381 86.9842C161.907 89.6301 161.637 92.3725 160.605 94.8648C159.572 97.3571 157.824 99.4873 155.581 100.986C153.338 102.485 150.701 103.285 148.003 103.285H148.003C147.361 103.286 146.746 103.541 146.292 103.995C145.838 104.448 145.583 105.064 145.582 105.705V105.706V123.592Z" fill="#386A89" stroke="#21506E"/>
<path d="M245.859 179.364L245.861 179.351C246.589 179.363 247.31 179.21 247.97 178.903C248.645 178.589 249.239 178.123 249.704 177.541L249.711 177.532L249.718 177.523C250.042 177.077 250.263 176.564 250.362 176.022C250.462 175.48 250.439 174.922 250.295 174.39C250.151 173.858 249.889 173.365 249.528 172.948C249.173 172.535 248.73 172.207 248.232 171.987L150.428 119.838L150.428 119.838L150.424 119.836C149.677 119.446 148.846 119.242 148.003 119.242C147.16 119.242 146.33 119.446 145.582 119.836L145.578 119.838L47.7664 171.991C47.1273 172.302 46.5853 172.781 46.1994 173.378C45.8116 173.978 45.5963 174.673 45.5771 175.387L45.5763 175.417L45.5791 175.447C45.6857 176.578 46.2316 177.621 47.0995 178.354C47.9625 179.082 49.0753 179.444 50.201 179.364H245.859ZM229.609 171.413H66.4346L148.177 127.917L229.609 171.413Z" fill="#68744D" stroke="#68744D"/>
<path d="M192.154 151.526L229.599 171.415H160.667H160.538L160.426 171.476L147.779 178.428L148.02 179.366H245.858L245.861 179.353C246.588 179.364 247.309 179.211 247.969 178.904C248.645 178.59 249.238 178.124 249.704 177.542L249.711 177.533L249.717 177.524C250.042 177.079 250.262 176.566 250.362 176.024C250.462 175.481 250.439 174.924 250.294 174.392C250.15 173.859 249.888 173.367 249.528 172.949C249.172 172.537 248.729 172.209 248.232 171.988L199.338 145.918L199.067 145.773L198.815 145.95L192.101 150.676L191.435 151.144L192.154 151.526Z" fill="#525B3F" stroke="#525B3F"/>
</svg>
