<svg width="298" height="251" viewBox="0 0 298 251" fill="none" xmlns="http://www.w3.org/2000/svg">
<path d="M92.061 198.417C91.0885 198.412 90.1414 198.106 89.3496 197.541C88.5578 196.977 87.96 196.181 87.6382 195.264C87.3165 194.346 87.2865 193.351 87.5524 192.416C87.8183 191.48 88.3671 190.65 89.1234 190.039C92.8704 187.052 95.8941 183.258 97.9686 178.939C100.043 174.62 101.115 169.888 101.104 165.096V163.263C101.104 162.014 101.6 160.815 102.484 159.931C103.368 159.047 104.567 158.551 105.817 158.551C107.066 158.551 108.265 159.047 109.149 159.931C110.033 160.815 110.529 162.014 110.529 163.263V165.096C110.539 171.295 109.151 177.417 106.467 183.006C103.783 188.594 99.8724 193.505 95.0273 197.372C94.196 198.046 93.1596 198.415 92.0898 198.419" fill="#6395B4"/>
<path d="M205.933 198.418C204.864 198.414 203.827 198.044 202.996 197.371C198.148 193.503 194.236 188.591 191.551 183C188.866 177.41 187.478 171.286 187.489 165.084V163.252C187.489 162.002 187.985 160.803 188.869 159.919C189.753 159.036 190.952 158.539 192.201 158.539C193.451 158.539 194.65 159.036 195.534 159.919C196.418 160.803 196.914 162.002 196.914 163.252V165.084C196.903 169.876 197.975 174.608 200.049 178.927C202.124 183.246 205.148 187.041 208.895 190.027C209.651 190.638 210.2 191.469 210.466 192.404C210.731 193.339 210.701 194.334 210.38 195.252C210.058 196.17 209.46 196.965 208.668 197.53C207.877 198.094 206.929 198.4 205.957 198.405" fill="#386A89"/>
<path d="M87.3726 128.455C86.8058 128.456 86.2443 128.346 85.7203 128.13C85.1962 127.914 84.7199 127.597 84.3186 127.197C83.9174 126.796 83.599 126.321 83.3818 125.797C83.1645 125.274 83.0527 124.713 83.0527 124.146V69.325C83.0527 62.8674 85.618 56.6743 90.1842 52.1081C94.7505 47.5418 100.944 44.9766 107.401 44.9766C113.859 44.9766 120.052 47.5418 124.618 52.1081C129.184 56.6743 131.75 62.8674 131.75 69.325V71.5766C131.778 72.1618 131.688 72.7467 131.484 73.2959C131.28 73.8451 130.966 74.3472 130.562 74.7715C130.158 75.1959 129.672 75.5337 129.134 75.7646C128.595 75.9954 128.016 76.1145 127.43 76.1145C126.844 76.1145 126.264 75.9954 125.726 75.7646C125.187 75.5337 124.701 75.1959 124.297 74.7715C123.893 74.3472 123.58 73.8451 123.376 73.2959C123.171 72.7467 123.081 72.1618 123.11 71.5766V69.325C123.11 65.1588 121.455 61.1633 118.509 58.2173C115.563 55.2714 111.567 53.6163 107.401 53.6163C103.235 53.6163 99.2394 55.2714 96.2935 58.2173C93.3475 61.1633 91.6925 65.1588 91.6925 69.325V124.146C91.6925 125.289 91.2385 126.385 90.4303 127.193C89.6221 128.001 88.526 128.455 87.3831 128.455" fill="#525B3F"/>
<path d="M198.328 131.917H74.0747V149.675C74.0747 169.395 88.4403 185.358 106.037 185.358H171.33C195.39 185.358 198.197 148.4 198.231 131.914" fill="#6395B4"/>
<path d="M223.826 149.677V131.918H198.328C198.328 148.242 195.487 185.362 171.427 185.362H191.995C209.591 185.362 223.857 169.391 223.857 149.679" fill="#386A89"/>
<path d="M229.214 131.916H68.7863C66.7212 131.916 64.7408 131.096 63.2805 129.636C61.8203 128.176 61 126.195 61 124.13C61 122.065 61.8203 120.085 63.2805 118.624C64.7408 117.164 66.7212 116.344 68.7863 116.344H229.214C231.279 116.344 233.259 117.164 234.72 118.624C236.18 120.085 237 122.065 237 124.13C237 126.195 236.18 128.176 234.72 129.636C233.259 131.096 231.279 131.916 229.214 131.916" fill="#6395B4"/>
<path d="M223.825 131.918H74.1714V134.79H223.825V131.918Z" fill="#386A89"/>
<path d="M127.747 64.7604C124.534 65.2286 121.64 66.9534 119.699 69.5555C117.758 72.1576 116.93 75.424 117.397 78.6364L141.62 75.0784C141.152 71.8662 139.427 68.9714 136.825 67.0306C134.223 65.0898 130.956 64.2619 127.744 64.729" fill="#98A678"/>
<path d="M142.24 80.3653L118.31 83.8919C117.97 83.9607 117.62 83.9618 117.279 83.895C116.938 83.8283 116.614 83.6951 116.324 83.503C116.035 83.311 115.786 83.0638 115.593 82.7757C115.399 82.4875 115.264 82.164 115.195 81.8236C115.126 81.4833 115.125 81.1327 115.192 80.7919C115.259 80.4511 115.392 80.1268 115.584 79.8375C115.776 79.5482 116.023 79.2995 116.311 79.1058C116.599 78.912 116.923 78.7768 117.263 78.7081C117.352 78.6924 117.444 78.6793 117.525 78.6688L141.455 75.1422C141.795 75.0734 142.146 75.0724 142.486 75.1391C142.827 75.2059 143.151 75.339 143.441 75.5311C143.73 75.7232 143.979 75.9703 144.172 76.2585C144.366 76.5466 144.501 76.8701 144.57 77.2105C144.639 77.5509 144.64 77.9015 144.573 78.2423C144.507 78.583 144.373 78.9073 144.181 79.1967C143.989 79.486 143.742 79.7346 143.454 79.9284C143.166 80.1222 142.842 80.2573 142.502 80.3261C142.413 80.3418 142.321 80.3549 142.24 80.3653Z" fill="#525B3F"/>
</svg>
