<svg width="298" height="251" viewBox="0 0 298 251" fill="none" xmlns="http://www.w3.org/2000/svg">
<ellipse rx="49.9376" ry="46.3148" transform="matrix(-1 0 0 1 125.063 136.487)" fill="#525B3F"/>
<path d="M95.5665 195.711C95.5665 195.711 115.359 189.266 127.612 180.477C139.866 171.687 96.0175 151.919 97.5653 164.736C99.1131 177.553 95.5665 195.711 95.5665 195.711Z" fill="#525B3F"/>
<ellipse rx="49.9376" ry="46.3148" transform="matrix(-1 0 0 1 122.063 132.487)" fill="#68744D"/>
<path d="M92.5665 191.711C92.5665 191.711 112.359 185.266 124.612 176.477C136.866 167.687 93.0175 147.919 94.5653 160.736C96.1131 173.553 92.5665 191.711 92.5665 191.711Z" fill="#68744D"/>
<ellipse cx="161.375" cy="107.672" rx="64.5" ry="56.75" fill="#386A89"/>
<path d="M199.473 180.236C199.473 180.236 173.909 172.34 158.082 161.569C142.255 150.799 198.89 126.578 196.891 142.283C194.892 157.987 199.473 180.236 199.473 180.236Z" fill="#386A89"/>
<ellipse cx="157.375" cy="101.672" rx="64.5" ry="56.75" fill="#6395B4"/>
<path d="M195.473 174.236C195.473 174.236 169.909 166.34 154.082 155.569C138.255 144.799 194.89 120.578 192.891 136.283C190.892 151.987 195.473 174.236 195.473 174.236Z" fill="#6395B4"/>
<path d="M141.869 99.9219H172.881" stroke="#F7F7F7" stroke-width="60" stroke-linecap="round"/>
<path d="M148.578 84.3258C149.201 83.7758 149.879 83.2533 150.613 82.7583C151.364 82.2633 152.171 81.8324 153.033 81.4658C153.894 81.0991 154.829 80.8149 155.838 80.6133C156.846 80.3933 157.937 80.2833 159.11 80.2833C160.705 80.2833 162.153 80.5033 163.455 80.9433C164.775 81.3833 165.903 82.0158 166.838 82.8408C167.773 83.6474 168.497 84.6283 169.01 85.7833C169.523 86.9383 169.78 88.2308 169.78 89.6608C169.78 91.0541 169.578 92.2641 169.175 93.2908C168.772 94.2991 168.268 95.1791 167.663 95.9308C167.058 96.6824 166.388 97.3333 165.655 97.8833C164.94 98.4333 164.262 98.9558 163.62 99.4508C162.978 99.9274 162.419 100.404 161.943 100.881C161.484 101.339 161.209 101.862 161.118 102.448L160.485 106.463H155.838L155.37 101.981C155.26 101.119 155.379 100.367 155.728 99.7258C156.094 99.0658 156.571 98.4699 157.158 97.9383C157.763 97.3883 158.432 96.8658 159.165 96.3708C159.898 95.8574 160.586 95.3074 161.228 94.7208C161.869 94.1158 162.401 93.4466 162.823 92.7133C163.263 91.9616 163.483 91.0724 163.483 90.0458C163.483 89.3858 163.354 88.7991 163.098 88.2858C162.859 87.7541 162.52 87.3049 162.08 86.9383C161.64 86.5533 161.108 86.2599 160.485 86.0583C159.88 85.8566 159.22 85.7558 158.505 85.7558C157.46 85.7558 156.571 85.8749 155.838 86.1133C155.123 86.3333 154.508 86.5899 153.995 86.8833C153.5 87.1583 153.078 87.4149 152.73 87.6533C152.382 87.8733 152.07 87.9833 151.795 87.9833C151.135 87.9833 150.658 87.7083 150.365 87.1583L148.578 84.3258ZM153.775 116.748C153.775 116.18 153.876 115.639 154.078 115.126C154.298 114.612 154.591 114.172 154.958 113.806C155.324 113.439 155.764 113.146 156.278 112.926C156.791 112.706 157.341 112.596 157.928 112.596C158.514 112.596 159.055 112.706 159.55 112.926C160.063 113.146 160.503 113.439 160.87 113.806C161.255 114.172 161.558 114.612 161.777 115.126C161.998 115.639 162.108 116.18 162.108 116.748C162.108 117.335 161.998 117.885 161.777 118.398C161.558 118.893 161.255 119.324 160.87 119.691C160.503 120.057 160.063 120.342 159.55 120.543C159.055 120.763 158.514 120.873 157.928 120.873C157.341 120.873 156.791 120.763 156.278 120.543C155.764 120.342 155.324 120.057 154.958 119.691C154.591 119.324 154.298 118.893 154.078 118.398C153.876 117.885 153.775 117.335 153.775 116.748Z" fill="#EC6571"/>
</svg>
