<svg width="298" height="251" viewBox="0 0 298 251" fill="none" xmlns="http://www.w3.org/2000/svg">
<path d="M178.107 82.9925L167.885 75.8047L150.953 107.751L165.808 132.988L169.322 127.717L179.545 108.869L181.781 92.2568L178.107 82.9925Z" fill="#525B3F" stroke="#525B3F" stroke-width="0.319458"/>
<path d="M136.738 56.9502L152.231 54.3945L169.482 56.9502L177.628 68.1312L180.663 86.1806L169.482 75.958L157.023 72.4439L136.738 73.562L122.681 81.7082L128.591 64.2977L136.738 56.9502Z" fill="#525B3F" stroke="#525B3F" stroke-width="0.319458"/>
<path d="M134.576 133.727C134.576 133.727 114.009 161.328 106.163 169.988L120.37 198.129C120.37 198.129 143.281 169.174 150.971 158.622L134.576 133.727Z" fill="#525B3F" stroke="#525B3F" stroke-width="3.19458" stroke-linecap="round" stroke-linejoin="round"/>
<path d="M195.632 170.09L181.433 197.541C148.463 156.726 133.276 133.92 119.818 93.8571L119.83 93.8315C119.855 93.777 119.892 93.6964 119.941 93.5918C120.038 93.3825 120.181 93.0775 120.365 92.6949C120.733 91.9297 121.262 90.8543 121.909 89.614C123.204 87.1322 124.966 83.9948 126.843 81.3612C127.782 80.0443 128.746 78.8573 129.692 77.9421C130.641 77.0243 131.558 76.3931 132.4 76.1666C132.818 76.0541 133.215 76.0422 133.589 76.1417C133.963 76.2411 134.323 76.4543 134.665 76.8071C135.352 77.5172 135.958 78.7862 136.422 80.7867C136.894 82.8188 138.178 85.7379 140.054 89.2809C141.931 92.8275 144.408 97.0114 147.273 101.577C153.004 110.709 160.295 121.374 167.467 131.535C174.64 141.697 181.697 151.356 186.959 158.474C189.591 162.033 191.774 164.957 193.299 166.992C194.062 168.009 194.66 168.804 195.068 169.344C195.272 169.614 195.428 169.821 195.533 169.96L195.632 170.09Z" fill="#525B3F" stroke="#525B3F" stroke-width="0.319458"/>
<path d="M134.576 133.734C134.576 133.734 114.009 161.336 106.163 169.996L120.37 198.137C120.37 198.137 143.281 169.181 150.971 158.63L134.576 133.734Z" stroke="#525B3F" stroke-width="3.19458" stroke-linecap="round" stroke-linejoin="round"/>
<path d="M195.819 169.638L181.568 198.14C181.568 198.14 116.805 119.301 120.597 90.9773C120.597 90.9773 121.411 72.4711 150.945 72.2188C174.224 72.2188 182.156 86.802 182.051 93.418C181.99 97.2323 182.309 107.394 166.643 133.012C166.634 133.012 191.491 166.024 195.819 169.638Z" stroke="#525B3F" stroke-width="3.19458" stroke-linecap="round" stroke-linejoin="round"/>
<path d="M134.653 76.543C134.653 76.543 148.904 109.977 166.621 133.007" stroke="#525B3F" stroke-width="3.19458" stroke-linecap="round" stroke-linejoin="round"/>
<path d="M167.189 76.0352C167.189 76.0352 162.222 91.8547 150.97 108.997" stroke="#525B3F" stroke-width="3.19458" stroke-linecap="round" stroke-linejoin="round"/>
<path d="M181.057 88.6049C181.057 88.6049 182.479 65.8946 168.323 57.4225C163.563 54.573 153.663 53.752 149.562 54.0555C124.43 55.9083 126.433 71.8812 120.759 89.7709" stroke="#525B3F" stroke-width="3.19458" stroke-linecap="round" stroke-linejoin="round"/>
<path d="M173.975 81.0706L163.753 73.8828L146.821 105.829L161.676 131.066L165.19 125.795L175.413 106.947L177.649 90.3349L173.975 81.0706Z" fill="#386A89" stroke="#B1CAD9" stroke-width="0.319458"/>
<path d="M132.605 55.0361L148.099 52.4805L165.35 55.0361L173.496 66.2172L176.531 84.2666L165.35 74.0439L152.891 70.5299L132.605 71.648L118.549 79.7941L124.459 62.3837L132.605 55.0361Z" fill="#6395B4" stroke="#B1CAD9" stroke-width="0.319458"/>
<path d="M130.444 131.812C130.444 131.812 109.877 159.414 102.031 168.074L116.238 196.215C116.238 196.215 139.149 167.26 146.838 156.708L130.444 131.812Z" fill="#386A89" stroke="#B1CAD9" stroke-width="3.19458" stroke-linecap="round" stroke-linejoin="round"/>
<path d="M191.499 168.176L177.3 195.627C144.33 154.812 129.143 132.006 115.686 91.943L115.698 91.9175C115.723 91.863 115.76 91.7823 115.809 91.6777C115.906 91.4684 116.049 91.1634 116.233 90.7809C116.601 90.0156 117.13 88.9402 117.777 87.6999C119.072 85.2181 120.834 82.0807 122.711 79.4471C123.65 78.1302 124.614 76.9432 125.56 76.0281C126.509 75.1102 127.426 74.4791 128.268 74.2525C128.686 74.14 129.083 74.1281 129.457 74.2276C129.83 74.327 130.191 74.5402 130.533 74.8931C131.22 75.6031 131.826 76.8721 132.29 78.8726C132.762 80.9047 134.046 83.8239 135.922 87.3668C137.799 90.9134 140.276 95.0973 143.141 99.663C148.872 108.795 156.163 119.46 163.335 129.621C170.508 139.783 177.564 149.442 182.827 156.56C185.459 160.119 187.642 163.043 189.167 165.078C189.93 166.095 190.528 166.889 190.936 167.43C191.14 167.7 191.296 167.907 191.401 168.046L191.499 168.176Z" fill="#6395B4" stroke="#B1CAD9" stroke-width="0.319458"/>
<path d="M130.444 131.816C130.444 131.816 109.877 159.418 102.031 168.078L116.237 196.219C116.237 196.219 139.149 167.264 146.838 156.712L130.444 131.816Z" stroke="#B1CAD9" stroke-width="3.19458" stroke-linecap="round" stroke-linejoin="round"/>
<path d="M191.687 167.72L177.436 196.222C177.436 196.222 112.672 117.383 116.464 89.0594C116.464 89.0594 117.279 70.5532 146.813 70.3008C170.092 70.3008 178.024 84.884 177.918 91.5C177.858 95.3144 178.177 105.476 162.511 131.094C162.501 131.094 187.358 164.106 191.687 167.72Z" stroke="#B1CAD9" stroke-width="3.19458" stroke-linecap="round" stroke-linejoin="round"/>
<path d="M130.52 74.625C130.52 74.625 144.771 108.059 162.488 131.089" stroke="#B1CAD9" stroke-width="3.19458" stroke-linecap="round" stroke-linejoin="round"/>
<path d="M163.057 74.1172C163.057 74.1172 158.089 89.9368 146.838 107.079" stroke="#B1CAD9" stroke-width="3.19458" stroke-linecap="round" stroke-linejoin="round"/>
<path d="M176.925 86.6869C176.925 86.6869 178.346 63.9766 164.191 55.5046C159.431 52.655 149.531 51.834 145.429 52.1375C120.298 53.9904 122.301 69.9633 116.627 87.8529" stroke="#B1CAD9" stroke-width="3.19458" stroke-linecap="round" stroke-linejoin="round"/>
</svg>
