<svg width="298" height="251" viewBox="0 0 298 251" fill="none" xmlns="http://www.w3.org/2000/svg">
<rect x="221.429" y="108.184" width="11.8519" height="9.21818" rx="2.63377" transform="rotate(90 221.429 108.184)" fill="#386A89"/>
<rect x="85.7896" y="108.184" width="11.8519" height="9.21818" rx="2.63377" transform="rotate(90 85.7896 108.184)" fill="#6395B4"/>
<path d="M83.156 100.938H214.844V146.37C214.844 159.461 204.232 170.074 191.14 170.074H106.86C93.7686 170.074 83.156 159.461 83.156 146.37V100.938Z" fill="#6395B4"/>
<ellipse cx="149" cy="102.587" rx="65.8442" ry="22.7162" fill="#6395B4"/>
<path d="M200.688 104.891H214.823L214.844 147.689C214.844 156.908 205.349 170.076 193.637 170.076H179.947C204.638 159.212 201.675 128.265 200.688 104.891Z" fill="#386A89"/>
<rect x="83.156" y="103.574" width="131.688" height="4.60909" fill="#386A89"/>
<path d="M142.945 75.7045C143.439 75.0123 144.237 74.6016 145.088 74.6016H152.912C153.763 74.6016 154.561 75.0123 155.055 75.7045L157.877 79.6551C159.122 81.3983 157.876 83.8197 155.734 83.8197H142.266C140.124 83.8197 138.878 81.3983 140.123 79.6551L142.945 75.7045Z" fill="#525B3F"/>
<rect x="135.172" y="68.6758" width="27.6545" height="9.21818" rx="2.63377" fill="#68744D"/>
<rect x="81.1804" y="99.6211" width="135.639" height="5.26753" rx="1.31688" fill="#6395B4"/>
<path d="M171.157 124.133C178.11 129.397 189.115 126.574 195.738 117.827C202.361 109.08 202.093 97.7214 195.141 92.457C195.476 100.926 191.15 119.118 171.157 124.133Z" fill="#B74D56"/>
<ellipse cx="181.649" cy="106.046" rx="15.7905" ry="19.8655" transform="rotate(37.1317 181.649 106.046)" fill="#EC6571"/>
<rect x="116.93" y="177.379" width="90.7068" height="6.74679" rx="3.37339" transform="rotate(-48.8903 116.93 177.379)" fill="#EC6571"/>
</svg>
