<svg width="98" height="97" viewBox="0 0 98 97" fill="none" xmlns="http://www.w3.org/2000/svg">
<circle cx="48.9999" cy="48.5239" r="48.2778" fill="#F7F7F7"/>
<path d="M34.1774 27.0313V25.8647C34.1774 24.9039 34.5784 23.9825 35.2923 23.3032C36.0062 22.6238 36.9744 22.2422 37.9839 22.2422V22.2422C38.9935 22.2422 39.9617 22.6238 40.6756 23.3032C41.3895 23.9825 41.7905 24.9039 41.7905 25.8647V27.019" stroke="#386A89" stroke-width="0.860246" stroke-miterlimit="10" stroke-linecap="round"/>
<path d="M57.4943 27.0313V25.8647C57.4943 24.9039 57.8954 23.9825 58.6092 23.3032C59.3231 22.6238 60.2913 22.2422 61.3009 22.2422V22.2422C62.3105 22.2422 63.2787 22.6238 63.9926 23.3032C64.7065 23.9825 65.1075 24.9039 65.1075 25.8647V27.019" stroke="#386A89" stroke-width="0.860246" stroke-miterlimit="10" stroke-linecap="round"/>
<path d="M76.5229 27.9531H25.119V67.6138H76.5229V27.9531Z" fill="#FFFCFB" stroke="#4E5974" stroke-width="0.860246" stroke-miterlimit="10" stroke-linecap="round" stroke-linejoin="round"/>
<path d="M33.7473 26.6211V25.4545C33.7473 24.4938 34.1483 23.5724 34.8622 22.893C35.576 22.2137 36.5443 21.832 37.5538 21.832V21.832C38.5634 21.832 39.5316 22.2137 40.2455 22.893C40.9594 23.5724 41.3604 24.4938 41.3604 25.4545V26.6088" stroke="#6395B4" stroke-width="0.860246" stroke-miterlimit="10" stroke-linecap="round"/>
<path d="M57.0641 26.6211V25.4545C57.0641 24.4938 57.4652 23.5724 58.1791 22.893C58.8929 22.2137 59.8612 21.832 60.8707 21.832V21.832C61.8803 21.832 62.8485 22.2137 63.5624 22.893C64.2763 23.5724 64.6773 24.4938 64.6773 25.4545V26.6088" stroke="#6395B4" stroke-width="0.860246" stroke-miterlimit="10" stroke-linecap="round"/>
<path d="M74.91 26.6211H23.506V66.2817H74.91V26.6211Z" fill="#FFFCFB" stroke="#4E5974" stroke-width="0.860246" stroke-miterlimit="10" stroke-linecap="round" stroke-linejoin="round"/>
<path d="M51.064 43.2266H58.1481" stroke="#737C94" stroke-width="0.860246" stroke-miterlimit="10" stroke-linecap="round"/>
<path d="M61.8602 43.2266H68.9443" stroke="#737C94" stroke-width="0.860246" stroke-miterlimit="10" stroke-linecap="round"/>
<path d="M29.4719 43.2266H36.5603" stroke="#737C94" stroke-width="0.860246" stroke-miterlimit="10" stroke-linecap="round"/>
<path d="M40.268 43.2266H47.3521" stroke="#737C94" stroke-width="0.860246" stroke-miterlimit="10" stroke-linecap="round"/>
<path d="M51.064 37.1914H58.1481" stroke="#737C94" stroke-width="0.860246" stroke-miterlimit="10" stroke-linecap="round"/>
<path d="M61.86 37.1914H68.9442" stroke="#737C94" stroke-width="0.860246" stroke-miterlimit="10" stroke-linecap="round"/>
<path d="M51.064 49.2656H58.1481" stroke="#737C94" stroke-width="0.860246" stroke-miterlimit="10" stroke-linecap="round"/>
<path d="M61.8602 49.2656H68.9443" stroke="#737C94" stroke-width="0.860246" stroke-miterlimit="10" stroke-linecap="round"/>
<path d="M29.4719 49.2656H36.5603" stroke="#737C94" stroke-width="0.860246" stroke-miterlimit="10" stroke-linecap="round"/>
<path d="M40.268 49.2656H47.3521" stroke="#737C94" stroke-width="0.860246" stroke-miterlimit="10" stroke-linecap="round"/>
<path d="M51.064 55.3008H58.1481" stroke="#737C94" stroke-width="0.860246" stroke-miterlimit="10" stroke-linecap="round"/>
<path d="M61.8602 55.3008H68.9443" stroke="#737C94" stroke-width="0.860246" stroke-miterlimit="10" stroke-linecap="round"/>
<path d="M29.4719 55.3008H36.5603" stroke="#737C94" stroke-width="0.860246" stroke-miterlimit="10" stroke-linecap="round"/>
<path d="M40.268 55.3008H47.3521" stroke="#737C94" stroke-width="0.860246" stroke-miterlimit="10" stroke-linecap="round"/>
<path d="M51.064 61.3398H58.1481" stroke="#737C94" stroke-width="0.860246" stroke-miterlimit="10" stroke-linecap="round"/>
<path d="M61.8602 61.3398H68.9443" stroke="#737C94" stroke-width="0.860246" stroke-miterlimit="10" stroke-linecap="round"/>
<path d="M29.4719 61.3398H36.5603" stroke="#737C94" stroke-width="0.860246" stroke-miterlimit="10" stroke-linecap="round"/>
<path d="M40.268 61.3398H47.3521" stroke="#737C94" stroke-width="0.860246" stroke-miterlimit="10" stroke-linecap="round"/>
<rect x="27.3771" y="30.0938" width="43.6575" height="2.96753" rx="0.860246" fill="#525B3F"/>
<rect x="71.3223" y="43.793" width="2.02075" height="5.66284" rx="1.01038" transform="rotate(90 71.3223 43.793)" fill="#386A89"/>
<ellipse cx="68.4909" cy="58.5862" rx="14.1572" ry="13.4729" fill="#386A89"/>
<ellipse cx="68.4908" cy="58.5541" rx="12.4156" ry="11.8158" fill="#98A678"/>
<path d="M77.2148 66.8594C82.0634 62.2451 82.0634 54.7639 77.2148 50.1496L59.6566 66.8594C64.5051 71.4737 72.3662 71.4737 77.2148 66.8594Z" fill="#68744D"/>
<path d="M78.7416 58.5574H68.4908V52.1953" stroke="#F8A6AE" stroke-width="1.07531" stroke-linecap="round"/>
<path d="M69.2545 58.554C69.2545 58.9239 68.933 59.2598 68.4909 59.2598C68.0487 59.2598 67.7272 58.9239 67.7272 58.554C67.7272 58.184 68.0487 57.8481 68.4909 57.8481C68.933 57.8481 69.2545 58.184 69.2545 58.554Z" fill="#525B3F" stroke="#F8A6AE" stroke-width="0.860246"/>
</svg>
