<svg width="98" height="98" viewBox="0 0 98 98" fill="none" xmlns="http://www.w3.org/2000/svg">
<circle cx="49.0001" cy="48.7739" r="48.2778" fill="#F7F7F7"/>
<path d="M27.3683 74.8539L24.0575 75.94C23.9229 75.9855 23.801 76.0612 23.7014 76.1612C23.6017 76.2611 23.5271 76.3826 23.4834 76.5158C23.4381 76.6498 23.4253 76.7924 23.4462 76.9321C23.4671 77.0718 23.5211 77.2047 23.6037 77.3201C23.6864 77.4356 23.7954 77.5303 23.9221 77.5966C24.0487 77.663 24.1895 77.6992 24.3329 77.7022L31.3069 77.9194C31.3595 77.9194 31.41 77.8989 31.4472 77.8622C31.4845 77.8256 31.5054 77.7759 31.5054 77.7241V75.3102L27.4109 74.832L27.3683 74.8539Z" fill="#68744D"/>
<path d="M28.7363 75.5258L25.4255 76.6119C25.2909 76.6575 25.169 76.7332 25.0693 76.8332C24.9697 76.9331 24.8951 77.0546 24.8514 77.1878C24.8061 77.3218 24.7933 77.4644 24.8142 77.6041C24.8351 77.7438 24.8891 77.8768 24.9717 77.9922C25.0544 78.1076 25.1634 78.2024 25.2901 78.2687C25.4167 78.3351 25.5574 78.3713 25.7009 78.3743L32.675 78.5916C32.7276 78.5916 32.7781 78.571 32.8153 78.5343C32.8525 78.4977 32.8734 78.448 32.8734 78.3962V75.9822L28.7789 75.5039L28.7363 75.5258Z" fill="#98A678"/>
<path d="M41.161 56.0117L30.9421 56.8696C29.9817 56.8795 29.0612 57.2495 28.3684 57.9041C27.6755 58.5586 27.2623 59.4486 27.213 60.3926L26.4711 74.7708C26.4666 74.8548 26.4795 74.9388 26.509 75.0177C26.5386 75.0967 26.5842 75.1688 26.643 75.2298C26.7019 75.2908 26.7727 75.3393 26.8513 75.3724C26.9298 75.4056 27.0144 75.4226 27.0999 75.4225H31.5161V65.3511C31.5134 64.8886 31.6078 64.4306 31.7935 64.0057C31.9792 63.5809 32.2521 63.1983 32.5951 62.8822C32.9381 62.566 33.3438 62.3231 33.7868 62.1686C34.2297 62.014 34.7004 61.9513 35.1691 61.9843L40.8744 62.3858L41.161 56.0117Z" fill="#386A89"/>
<path d="M36.2618 65.2734H37.1113V79.1965H36.2618V65.2734Z" fill="#D7C5A9"/>
<path d="M53.3335 63.1875H54.183V79.2063H53.3335V63.1875Z" fill="#D7C5A9"/>
<path d="M51.1264 64.644H35.0593C34.8483 64.3869 34.7242 64.0714 34.7045 63.7415C34.6847 63.4116 34.7701 63.0838 34.9489 62.8041C35.0669 62.6195 35.2294 62.4665 35.4219 62.3586C35.6144 62.2506 35.831 62.1911 36.0525 62.1853L47.4298 61.5464C48.2074 61.509 48.9445 61.1939 49.5031 60.6602C50.0617 60.1264 50.4034 59.4106 50.4643 58.6468L51.2915 48.516C51.3412 47.9743 51.5955 47.4708 52.0042 47.1048C52.4128 46.7387 52.9461 46.5369 53.4987 46.5391H54.7015L53.0229 62.993C52.9642 63.4478 52.7394 63.8661 52.3905 64.1699C52.0416 64.4736 51.5923 64.6422 51.1264 64.644Z" fill="#D7C5A9"/>
<path d="M34.7503 64.6461H35.0591C35.2082 64.8416 35.4014 65.0003 35.6235 65.1096C35.8456 65.219 36.0906 65.2759 36.3389 65.2759H51.1263C51.7365 65.2493 52.3196 65.02 52.7805 64.6256C53.2414 64.2311 53.553 63.6947 53.6645 63.1037L55.1317 46.5859H55.2244C55.3192 46.587 55.4127 46.6075 55.499 46.646C55.5853 46.6845 55.6625 46.7402 55.7258 46.8096C55.7891 46.879 55.8371 46.9606 55.8667 47.0492C55.8963 47.1378 55.9068 47.2315 55.8977 47.3243L54.2933 63.1365C54.1965 63.8967 53.8216 64.596 53.2386 65.1037C52.6557 65.6114 51.9047 65.8926 51.1263 65.8947H34.7503C34.5806 65.8947 34.4178 65.8283 34.2978 65.7102C34.1778 65.5921 34.1104 65.4319 34.1104 65.2649C34.1104 65.0979 34.1778 64.9377 34.2978 64.8196C34.4178 64.7015 34.5806 64.6352 34.7503 64.6352V64.6461Z" fill="#FFFCFB"/>
<path d="M53.6969 63.072C53.5854 63.6631 53.2738 64.1995 52.8129 64.594C52.3519 64.9885 51.7689 65.2177 51.1586 65.2443H36.3389C36.0905 65.2443 35.8456 65.1874 35.6235 65.0781C35.4013 64.9687 35.2081 64.81 35.0591 64.6145H51.1262C51.596 64.6154 52.0498 64.4467 52.4017 64.1404C52.7536 63.8341 52.9792 63.4115 53.0357 62.9525L54.7013 46.5859H55.1316L53.6969 63.072Z" fill="#FFFCFB"/>
<path d="M42.542 56.6836L32.323 57.5415C31.3574 57.5428 30.429 57.9083 29.7289 58.5627C29.0289 59.2172 28.6104 60.1109 28.5596 61.0599L27.8177 75.4383C27.8131 75.5223 27.826 75.6063 27.8556 75.6852C27.8851 75.7641 27.9307 75.8363 27.9896 75.8973C28.0484 75.9583 28.1193 76.0068 28.1978 76.0399C28.2764 76.0731 28.361 76.0901 28.4464 76.09H32.8609V66.0231C32.8609 64.0681 34.3391 63.0258 36.3145 63.1673L42.2183 63.0696L42.542 56.6836Z" fill="#6395B4"/>
<path d="M45.2558 39.6016C45.2558 39.6016 37.8737 41.2955 39.7378 63.1681H46.8787C47.3918 63.1676 47.8994 63.0634 48.37 62.8622C48.8406 62.661 49.2643 62.3669 49.6148 61.9981C49.9654 61.6294 50.2353 61.1937 50.408 60.7182C50.5807 60.2427 50.6525 59.7374 50.6189 59.2335C50.1218 51.9712 48.7428 39.775 45.2558 39.6016Z" fill="#68744D"/>
<path d="M44.2182 38.722C41.4816 38.722 39.2631 36.5387 39.2631 33.8454C39.2631 31.1521 41.4816 28.9688 44.2182 28.9688C46.9548 28.9688 49.1732 31.1521 49.1732 33.8454C49.1732 36.5387 46.9548 38.722 44.2182 38.722Z" fill="#6395B4"/>
<path d="M34.9077 54.7885L36.6498 54.701C37.2278 54.672 37.7203 55.1096 37.7498 55.6784L37.7779 56.2217C37.8074 56.7905 37.3627 57.2752 36.7847 57.3042L35.0425 57.3917C34.4645 57.4208 33.9721 56.9831 33.9426 56.4143L33.9144 55.871C33.885 55.3022 34.3296 54.8175 34.9077 54.7885Z" fill="#6395B4"/>
<path d="M48.1815 54.5359L47.4971 43.2086C47.4763 42.8767 47.3806 42.5535 47.2169 42.2626C47.0531 41.9717 46.8256 41.7204 46.5507 41.5269C46.2759 41.3334 45.9607 41.2027 45.628 41.1442C45.2954 41.0858 44.9537 41.101 44.6277 41.1889C44.1206 41.3342 43.6796 41.6464 43.3782 42.0734C43.0769 42.5003 42.9337 43.0161 42.9723 43.5345L43.5789 53.7099L37.0528 54.1991C36.9759 54.2047 36.901 54.2251 36.8322 54.2592C36.7634 54.2934 36.7021 54.3405 36.6519 54.398C36.6016 54.4555 36.5634 54.5222 36.5394 54.5943C36.5155 54.6663 36.5062 54.7423 36.5121 54.8179L36.6772 56.9901C36.6828 57.0657 36.7036 57.1395 36.7383 57.2072C36.7729 57.2749 36.8209 57.3353 36.8793 57.3847C36.9377 57.4341 37.0055 57.4717 37.0787 57.4953C37.1519 57.5189 37.2292 57.5281 37.306 57.5222L45.9688 56.8925H46.2006C46.7798 56.836 47.3129 56.5568 47.6839 56.1154C48.0549 55.6741 48.2337 55.1064 48.1815 54.5359Z" fill="#525B3F"/>
<path d="M46.0382 42.7442L47.5914 41.943C48.0657 41.6983 48.6754 41.8653 48.9533 42.316L49.2642 42.8203C49.542 43.2709 49.3827 43.8346 48.9084 44.0793L47.3553 44.8805C46.881 45.1252 46.2712 44.9582 45.9934 44.5076L45.6825 44.0032C45.4046 43.5526 45.5639 42.9889 46.0382 42.7442Z" fill="#6395B4"/>
<path d="M47.7689 41.5461L56.3928 37.3996C56.762 37.222 57.2253 37.3622 57.4277 37.7125L58.3082 39.2369C58.5106 39.5872 58.3754 40.0152 58.0062 40.1927L49.3823 44.3392C49.0131 44.5167 48.5497 44.3766 48.3473 44.0262L47.4668 42.5019C47.2644 42.1515 47.3997 41.7236 47.7689 41.5461Z" fill="#21506E"/>
<path d="M60.7072 28.4336C60.7072 28.4336 53.4209 27.6376 55.2574 48.6536L65.9987 49.7911C65.2648 47.7204 64.8972 45.5401 64.9118 43.346C64.9766 37.1539 65.6151 28.6746 60.7072 28.4336Z" fill="#386A89"/>
<path d="M59.7102 27.5762C57.0911 27.5762 54.9679 25.4771 54.9679 22.8877C54.9679 20.2983 57.0911 18.1992 59.7102 18.1992C62.3293 18.1992 64.4525 20.2983 64.4525 22.8877C64.4525 25.4771 62.3293 27.5762 59.7102 27.5762Z" fill="#6395B4"/>
<path d="M49.2676 75.4337L52.7575 77.1019L60.5034 60.6609C58.7596 57.7463 57.2426 54.7047 55.9657 51.5625C54.6238 56.3404 49.3447 74.8024 49.2676 75.4337Z" fill="#21506E"/>
<path d="M49.2677 75.4478H45.932C45.7982 75.4484 45.6663 75.4795 45.5466 75.5387C45.4269 75.598 45.3227 75.6838 45.2421 75.7894C45.1711 75.8944 45.1243 76.0136 45.1052 76.1384C45.0861 76.2633 45.0951 76.3908 45.1315 76.5119C45.168 76.6329 45.2309 76.7445 45.316 76.8388C45.401 76.933 45.506 77.0076 45.6236 77.0571L51.6821 79.3445L52.77 77.0276L49.2801 75.3594L49.2677 75.4478Z" fill="#68744D"/>
<path d="M67.5207 62.2268C65.3614 57.1591 65.9999 49.7918 65.9999 49.7918L55.2751 48.6797C55.3791 49.6644 55.6213 50.6299 55.9949 51.5485L56.3147 50.4242L61.9136 57.7162L60.508 60.6643C64.621 67.7916 69.6091 75.0714 69.6091 75.0714L73.2852 72.8166C71.1403 69.4101 69.215 65.8731 67.5207 62.2268Z" fill="#6395B4"/>
<path d="M56.3098 50.4375L55.99 51.5618C57.2586 54.7033 58.7669 57.7449 60.5019 60.6603L61.9086 57.7162L56.3098 50.4375Z" fill="#6395B4"/>
<path d="M73.2853 72.8164L69.5908 75.0661L67.9456 77.5934C67.8238 77.7822 67.7592 78.0014 67.7592 78.2253C67.7592 78.4491 67.8238 78.6683 67.9456 78.8571C68.0419 78.9904 68.1653 79.1024 68.308 79.1858C68.4507 79.2692 68.6094 79.3222 68.7741 79.3413C68.9387 79.3605 69.1055 79.3454 69.2639 79.297C69.4222 79.2486 69.5686 79.168 69.6936 79.0604L74.5635 74.9015C74.5635 74.9015 74.0391 74.08 73.2853 72.8164Z" fill="#98A678"/>
<path d="M56.0939 45.2183L57.6218 44.3785C58.0883 44.122 58.6769 44.288 58.9363 44.7492L59.2267 45.2654C59.4861 45.7267 59.3182 46.3085 58.8517 46.565L57.3238 47.4048C56.8573 47.6613 56.2687 47.4953 56.0093 47.034L55.7189 46.5178C55.4595 46.0566 55.6274 45.4748 56.0939 45.2183Z" fill="#6395B4"/>
<path d="M67.4046 39.4575L61.9548 29.9544C61.7949 29.676 61.574 29.4364 61.3083 29.2533C61.0426 29.0701 60.7389 28.948 60.4193 28.8959C60.0998 28.8437 59.7725 28.8629 59.4614 28.9519C59.1502 29.041 58.8632 29.1977 58.6213 29.4105C58.255 29.7472 58.0149 30.1966 57.9402 30.6855C57.8655 31.1744 57.9606 31.6739 58.2099 32.1025L63.0592 40.6702L57.665 43.8217C57.5386 43.8978 57.4477 44.0201 57.4118 44.162C57.376 44.304 57.3983 44.4542 57.4737 44.58L58.5606 46.3997C58.6376 46.5247 58.7613 46.6146 58.9049 46.65C59.0484 46.6854 59.2004 46.6634 59.3277 46.5888L66.5481 42.4015H66.6252C66.8741 42.2604 67.0922 42.0717 67.2665 41.8464C67.4409 41.6211 67.5681 41.3636 67.6406 41.0891C67.7132 40.8147 67.7297 40.5286 67.6892 40.2478C67.6486 39.9669 67.5519 39.6969 67.4046 39.4534V39.4575Z" fill="#21506E"/>
</svg>
