<svg width="98" height="98" viewBox="0 0 98 98" fill="none" xmlns="http://www.w3.org/2000/svg">
<circle cx="49.2004" cy="48.8989" r="48.2778" fill="#F7F7F7"/>
<path d="M79.315 26.5645L58.6489 21.2348C58.4673 21.1899 58.2782 21.1797 58.0925 21.2048C57.9068 21.2299 57.7282 21.2897 57.5669 21.3809C57.4056 21.4721 57.265 21.5928 57.1531 21.7361C57.0411 21.8793 56.9601 22.0423 56.9148 22.2155L55.2966 27.7901C55.1357 27.7027 54.9846 27.6 54.8457 27.4835C54.0445 26.9739 53.1049 26.6972 52.1414 26.687C51.2291 26.6779 50.3308 26.9002 49.5387 27.331C48.7466 27.7618 48.0894 28.3855 47.6345 29.1381C47.256 29.7789 47.0412 30.4955 47.0076 31.2299C46.974 31.9643 47.1225 32.6959 47.441 33.3656C47.7383 34.029 48.1876 34.6208 48.7561 35.0978C49.3246 35.5748 49.9978 35.9249 50.7267 36.1225C51.2319 36.2439 51.7508 36.3058 52.2719 36.3066H52.8515L51.2424 41.8821C51.1952 42.0549 51.1845 42.2348 51.2108 42.4116C51.2372 42.5883 51.3001 42.7583 51.3959 42.9118C51.4917 43.0653 51.6185 43.1991 51.7691 43.3056C51.9196 43.4122 52.0908 43.4892 52.2728 43.5324L59.8701 45.4928C60.0699 45.5529 60.2815 45.5691 60.4889 45.5402C60.6962 45.5114 60.8941 45.4382 61.0675 45.3263C61.2409 45.2143 61.3855 45.0664 61.4903 44.8936C61.5951 44.7209 61.6574 44.5278 61.6726 44.3289C61.7564 43.5144 61.778 42.6952 61.7374 41.8777C61.7237 41.6716 61.7456 41.4648 61.8023 41.2654C61.8922 40.9702 62.048 40.6969 62.2591 40.4643C62.4701 40.2316 62.7315 40.0451 63.0253 39.9173C63.3332 39.786 63.6702 39.7285 64.0069 39.7498C64.3436 39.7712 64.6696 39.8707 64.9565 40.0398C65.2924 40.2124 65.572 40.4694 65.7651 40.7827C65.9582 41.096 66.0574 41.4537 66.0518 41.8169C66.0525 42.2335 65.9176 42.6401 65.6657 42.9809C65.1933 43.6605 64.7841 44.3781 64.4427 45.1254C64.3475 45.306 64.2979 45.5053 64.2979 45.7074C64.2979 45.9094 64.3475 46.1087 64.4427 46.2893C64.5336 46.463 64.6603 46.6176 64.8152 46.7438C64.9701 46.8701 65.1501 46.9654 65.3444 47.0241L72.9417 48.8621C73.0633 48.9119 73.1957 48.9331 73.3278 48.9237C73.6353 48.9256 73.9348 48.8304 74.1794 48.6529C74.424 48.4755 74.5999 48.2258 74.6795 47.9431L80.2807 28.2756C80.3753 27.9271 80.3284 27.5575 80.1494 27.2404C79.9705 26.9232 79.6726 26.6819 79.315 26.5645ZM72.2973 45.8646L67.8552 44.7041C67.905 44.5942 67.9701 44.491 68.0487 44.3975C68.5842 43.6351 68.875 42.7409 68.8857 41.8239C68.9181 40.9524 68.6869 40.0904 68.2195 39.3403C67.752 38.5903 67.0681 37.9838 66.2489 37.593C65.5756 37.2327 64.8226 37.0284 64.0509 36.9964C63.2793 36.9644 62.5105 37.1057 61.8068 37.4088C61.1097 37.6918 60.4878 38.1194 59.9866 38.6604C59.4854 39.2014 59.1176 39.8421 58.9099 40.5358C58.7823 41.0165 58.7173 41.5104 58.7164 42.0063V42.4354L54.2743 41.2715L55.9446 35.3234C56.0099 35.1385 56.0265 34.9412 55.9927 34.7488C55.959 34.5564 55.876 34.3749 55.7511 34.2203C55.6308 34.0641 55.4766 33.9344 55.2989 33.84C55.1213 33.7456 54.9244 33.6886 54.7216 33.673C53.8227 33.5933 52.9191 33.5727 52.0173 33.6114C51.8007 33.6244 51.5833 33.6036 51.3738 33.5497C51.0636 33.4641 50.7765 33.3158 50.532 33.115C50.2875 32.9141 50.0915 32.6654 49.9573 32.3858C49.8183 32.0664 49.765 31.7191 49.8021 31.3752C49.8392 31.0313 49.9656 30.7015 50.1699 30.4157C50.3742 30.1298 50.65 29.8968 50.9725 29.7376C51.295 29.5785 51.654 29.4981 52.0173 29.5038C52.4369 29.4937 52.8469 29.6237 53.1764 29.8712C53.9337 30.3413 54.7305 30.7512 55.5585 31.0968C55.7483 31.1874 55.9577 31.2346 56.17 31.2346C56.3823 31.2346 56.5917 31.1874 56.7815 31.0968C56.9641 31.0103 57.1265 30.8897 57.2591 30.7423C57.3917 30.5949 57.4919 30.4236 57.5537 30.2386L59.2275 24.2957L77.1255 28.8906L72.2973 45.8646Z" fill="#21506E"/>
<path d="M27.1026 57.9336C26.8859 58.6105 26.8635 59.3303 27.0378 60.0182C27.204 60.671 27.556 61.2677 28.0551 61.7427C28.5542 62.2176 29.1812 62.5526 29.8671 62.7108C30.4455 62.8433 31.0478 62.8502 31.6293 62.731C32.2109 62.6119 32.7568 62.3698 33.2267 62.0226C33.6966 61.6755 34.0784 61.2321 34.3439 60.7255C34.6093 60.2188 34.7516 59.6618 34.7601 59.0958C34.7638 58.7003 34.6985 58.3069 34.5666 57.9319C34.2843 57.1116 34.0691 56.2718 33.9232 55.4199H42.4861V47.2725C41.6283 47.3898 40.7865 47.5951 39.9752 47.8849C39.5811 48.0104 39.1678 48.0726 38.7522 48.069C38.1535 48.0721 37.562 47.9442 37.0235 47.695C36.485 47.4458 36.0139 47.0821 35.6467 46.6319C35.2795 46.1818 35.026 45.6574 34.9059 45.0991C34.7857 44.5409 34.802 43.9638 34.9536 43.4125C35.1091 42.7549 35.4575 42.1528 35.9583 41.6761C36.4592 41.1995 37.0919 40.8679 37.7829 40.7199C38.5271 40.5555 39.3033 40.5768 40.0364 40.7816C40.8733 41.0265 41.6455 41.2107 42.4824 41.3939V33.2422H20.8579C20.6377 33.2407 20.4193 33.2809 20.2155 33.3604C20.0117 33.44 19.8266 33.5572 19.6708 33.7055C19.5151 33.8537 19.3918 34.0299 19.3083 34.2238C19.2247 34.4178 19.1825 34.6256 19.1841 34.8352V55.4824H27.747C27.6161 56.3174 27.4003 57.1383 27.1026 57.9336Z" fill="#525B3F"/>
<path d="M59.3571 52.9715C59.5271 52.4852 59.5895 51.9708 59.5403 51.4605C59.4911 50.9502 59.3315 50.4551 59.0715 50.0064C58.8115 49.5576 58.4567 49.165 58.0294 48.8531C57.6022 48.5412 57.1117 48.3169 56.5889 48.1942C56.0148 48.0493 55.4135 48.0312 54.8309 48.1415C54.2483 48.2517 53.7 48.4873 53.2278 48.8302C52.7556 49.1731 52.3721 49.6143 52.1066 50.12C51.8411 50.6256 51.7006 51.1824 51.696 51.7476C51.6922 52.1431 51.7576 52.5365 51.8895 52.9115C52.1718 53.7318 52.3869 54.5716 52.5329 55.4235H45.3865V60.1417C45.727 60.0887 46.0722 60.068 46.417 60.08C47.4444 60.0779 48.459 60.2973 49.3845 60.7219C50.3101 61.1464 51.1225 61.765 51.7608 62.5312C52.4607 63.3672 52.9309 64.3558 53.129 65.408C53.327 66.4601 53.2468 67.5426 52.8954 68.5579C52.544 69.5731 51.9326 70.4891 51.1163 71.2233C50.3 71.9574 49.3045 72.4867 48.2195 72.7632C47.6525 72.9043 47.0711 72.9864 46.4854 73.0081C46.1407 73.0182 45.7957 72.9975 45.455 72.9465V77.6638H64.314C64.5342 77.6653 64.7526 77.6251 64.9564 77.5456C65.1602 77.4661 65.3454 77.3488 65.5011 77.2006C65.6569 77.0523 65.7801 76.8761 65.8637 76.6822C65.9472 76.4882 65.9895 76.2804 65.9879 76.0708V55.4218H58.7119C58.8585 54.59 59.0742 53.7707 59.3571 52.9715Z" fill="#525B3F"/>
<path d="M47.4465 70.1263C48.1202 69.9567 48.7332 69.617 49.2205 69.143C49.7078 68.6689 50.0514 68.0783 50.2147 67.4336C50.3539 66.8832 50.3612 66.3101 50.236 65.7566C50.1108 65.2032 49.8564 64.6836 49.4916 64.2364C49.1268 63.7892 48.6609 63.4259 48.1286 63.1733C47.5962 62.9207 47.0109 62.7853 46.4161 62.7772C46.0005 62.7736 45.5872 62.8358 45.1931 62.9613C44.3312 63.23 43.4487 63.4347 42.5536 63.5736V58.1172H37.5292C37.5849 58.4412 37.6066 58.7697 37.594 59.0978C37.5941 59.9427 37.4193 60.7794 37.0796 61.56C36.74 62.3406 36.242 63.0499 35.6142 63.6473C34.9864 64.2448 34.2411 64.7187 33.4209 65.0419C32.6006 65.3652 31.7215 65.5315 30.8337 65.5314C29.3399 65.5315 27.8876 65.0637 26.7008 64.2004C25.514 63.337 24.6587 62.126 24.2668 60.7542C24.0322 59.8932 23.9893 58.9949 24.1409 58.1172H19.1841V76.0691C19.1827 76.2786 19.2251 76.4862 19.3088 76.68C19.3925 76.8737 19.5157 77.0497 19.6715 77.1977C19.8272 77.3458 20.0123 77.4629 20.2159 77.5423C20.4196 77.6217 20.6378 77.6619 20.8579 77.6604H42.5536V69.4522C43.4496 69.591 44.333 69.7958 45.1958 70.0646C45.916 70.3323 46.7114 70.3541 47.4465 70.1263Z" fill="#68744D"/>
<path d="M78.2033 25.5059L57.5372 20.1762C57.3556 20.1313 57.1666 20.1211 56.9808 20.1462C56.7951 20.1713 56.6165 20.2311 56.4552 20.3223C56.294 20.4135 56.1533 20.5342 56.0414 20.6775C55.9294 20.8207 55.8484 20.9837 55.8031 21.1569L54.1849 26.7315C54.024 26.6441 53.873 26.5414 53.734 26.4248C52.9329 25.9153 51.9932 25.6385 51.0297 25.6284C50.1174 25.6193 49.2191 25.8416 48.427 26.2724C47.6349 26.7032 46.9777 27.3269 46.5228 28.0795C46.1443 28.7203 45.9295 29.4368 45.8959 30.1712C45.8623 30.9056 46.0108 31.6372 46.3293 32.3069C46.6266 32.9703 47.0759 33.5622 47.6444 34.0391C48.2129 34.5161 48.8861 34.8662 49.615 35.0638C50.1202 35.1853 50.6392 35.2471 51.1602 35.2479H51.7398L50.1307 40.8234C50.0835 40.9962 50.0728 41.1761 50.0991 41.3529C50.1255 41.5296 50.1884 41.6996 50.2842 41.8531C50.38 42.0066 50.5069 42.1404 50.6574 42.247C50.8079 42.3535 50.9791 42.4305 51.1611 42.4737L58.7584 44.4341C58.9582 44.4942 59.1698 44.5104 59.3772 44.4815C59.5846 44.4527 59.7824 44.3795 59.9558 44.2676C60.1293 44.1556 60.2738 44.0077 60.3786 43.8349C60.4834 43.6622 60.5457 43.4691 60.561 43.2702C60.6447 42.4557 60.6663 41.6365 60.6258 40.8191C60.612 40.6129 60.6339 40.4061 60.6906 40.2067C60.7805 39.9115 60.9363 39.6382 61.1474 39.4056C61.3584 39.1729 61.6198 38.9864 61.9136 38.8587C62.2215 38.7273 62.5585 38.6698 62.8952 38.6912C63.2319 38.7125 63.5579 38.8121 63.8448 38.9811C64.1807 39.1537 64.4603 39.4107 64.6535 39.724C64.8466 40.0373 64.9457 40.3951 64.9401 40.7583C64.9408 41.1749 64.8059 41.5815 64.554 41.9222C64.0816 42.6018 63.6724 43.3194 63.331 44.0667C63.2358 44.2473 63.1862 44.4466 63.1862 44.6487C63.1862 44.8507 63.2358 45.05 63.331 45.2306C63.4219 45.4043 63.5486 45.5589 63.7035 45.6851C63.8584 45.8113 64.0384 45.9067 64.2327 45.9654L71.83 47.8034C71.9516 47.8532 72.084 47.8744 72.2161 47.865C72.5236 47.8669 72.8231 47.7717 73.0677 47.5942C73.3123 47.4168 73.4882 47.1671 73.5678 46.8844L79.169 27.217C79.2636 26.8685 79.2167 26.4988 79.0378 26.1817C78.8588 25.8646 78.5609 25.6233 78.2033 25.5059ZM71.1856 44.8059L66.7435 43.6454C66.7933 43.5355 66.8584 43.4323 66.937 43.3388C67.4725 42.5764 67.7633 41.6822 67.774 40.7652C67.8065 39.8937 67.5752 39.0317 67.1078 38.2816C66.6403 37.5316 65.9564 36.9251 65.1372 36.5343C64.4639 36.1741 63.7109 35.9697 62.9393 35.9377C62.1676 35.9057 61.3988 36.047 60.6951 36.3502C59.998 36.6331 59.3761 37.0607 58.8749 37.6017C58.3737 38.1427 58.0059 38.7834 57.7982 39.4771C57.6706 39.9579 57.6056 40.4517 57.6047 40.9476V41.3767L53.1627 40.2128L54.8329 34.2647C54.8982 34.0798 54.9148 33.8825 54.881 33.6901C54.8473 33.4978 54.7643 33.3162 54.6394 33.1616C54.5191 33.0055 54.3649 32.8758 54.1872 32.7813C54.0096 32.6869 53.8127 32.63 53.6099 32.6144C52.711 32.5346 51.8074 32.514 50.9056 32.5527C50.689 32.5658 50.4716 32.5449 50.2621 32.4911C49.9519 32.4055 49.6648 32.2572 49.4203 32.0563C49.1758 31.8554 48.9798 31.6067 48.8456 31.3271C48.7066 31.0077 48.6533 30.6604 48.6904 30.3165C48.7275 29.9726 48.8539 29.6429 49.0582 29.357C49.2625 29.0712 49.5384 28.8382 49.8608 28.679C50.1833 28.5198 50.5423 28.4395 50.9056 28.4452C51.3252 28.4351 51.7353 28.5651 52.0647 28.8126C52.822 29.2827 53.6188 29.6926 54.4468 30.0382C54.6366 30.1288 54.846 30.176 55.0583 30.176C55.2706 30.176 55.48 30.1288 55.6698 30.0382C55.8524 29.9516 56.0148 29.8311 56.1474 29.6837C56.2801 29.5362 56.3802 29.365 56.442 29.18L58.1158 23.2371L76.0138 27.832L71.1856 44.8059Z" fill="#386A89"/>
<path d="M25.9908 56.875C25.7742 57.5519 25.7518 58.2717 25.926 58.9596C26.0923 59.6124 26.4443 60.2091 26.9434 60.6841C27.4425 61.1591 28.0694 61.494 28.7554 61.6522C29.3338 61.7847 29.936 61.7916 30.5176 61.6725C31.0991 61.5533 31.6451 61.3112 32.115 60.964C32.5849 60.6169 32.9667 60.1735 33.2321 59.6669C33.4975 59.1602 33.6398 58.6032 33.6483 58.0372C33.6521 57.6417 33.5867 57.2483 33.4549 56.8733C33.1725 56.053 32.9574 55.2132 32.8114 54.3613H41.3743V46.2139C40.5166 46.3312 39.6747 46.5365 38.8635 46.8263C38.4694 46.9518 38.056 47.014 37.6405 47.0104C37.0417 47.0136 36.4502 46.8856 35.9117 46.6364C35.3732 46.3872 34.9022 46.0235 34.535 45.5734C34.1678 45.1232 33.9143 44.5988 33.7941 44.0405C33.6739 43.4823 33.6902 42.9052 33.8418 42.3539C33.9973 41.6963 34.3457 41.0942 34.8466 40.6175C35.3474 40.1409 35.9802 39.8093 36.6712 39.6613C37.4154 39.4969 38.1916 39.5182 38.9246 39.723C39.7616 39.9679 40.5337 40.1521 41.3706 40.3353V32.1836H19.7462C19.5259 32.1821 19.3076 32.2223 19.1038 32.3018C18.9 32.3814 18.7148 32.4986 18.5591 32.6469C18.4033 32.7951 18.2801 32.9713 18.1965 33.1652C18.1129 33.3592 18.0707 33.567 18.0723 33.7766V54.4238H26.6352C26.5044 55.2588 26.2886 56.0797 25.9908 56.875Z" fill="#525B3F"/>
<path d="M58.2454 51.9129C58.4153 51.4266 58.4777 50.9122 58.4285 50.4019C58.3794 49.8916 58.2198 49.3965 57.9598 48.9478C57.6997 48.499 57.3449 48.1064 56.9177 47.7945C56.4904 47.4826 56 47.2583 55.4772 47.1356C54.9031 46.9907 54.3017 46.9726 53.7191 47.0829C53.1366 47.1931 52.5882 47.4287 52.116 47.7716C51.6438 48.1145 51.2603 48.5557 50.9948 49.0614C50.7293 49.567 50.5889 50.1238 50.5842 50.689C50.5805 51.0845 50.6459 51.4779 50.7777 51.8529C51.0601 52.6732 51.2752 53.513 51.4212 54.3649H44.2748V59.0831C44.6153 59.0301 44.9604 59.0094 45.3052 59.0214C46.3326 59.0193 47.3472 59.2387 48.2728 59.6633C49.1983 60.0878 50.0107 60.7064 50.649 61.4726C51.3489 62.3086 51.8191 63.2972 52.0172 64.3494C52.2153 65.4015 52.135 66.484 51.7836 67.4993C51.4323 68.5145 50.8209 69.4305 50.0045 70.1647C49.1882 70.8988 48.1927 71.4281 47.1078 71.7046C46.5408 71.8457 45.9593 71.9278 45.3737 71.9495C45.0289 71.9596 44.6839 71.9389 44.3432 71.8879V76.6052H63.2022C63.4225 76.6067 63.6409 76.5665 63.8447 76.487C64.0485 76.4075 64.2336 76.2902 64.3894 76.142C64.5451 75.9937 64.6684 75.8175 64.7519 75.6236C64.8355 75.4296 64.8777 75.2218 64.8761 75.0122V54.3632H57.6001C57.7467 53.5314 57.9625 52.7121 58.2454 51.9129Z" fill="#68744D"/>
<path d="M46.3348 69.0676C47.0085 68.8981 47.6215 68.5583 48.1088 68.0843C48.5961 67.6103 48.9396 67.0197 49.103 66.375C49.2422 65.8246 49.2494 65.2514 49.1242 64.698C48.9991 64.1445 48.7447 63.625 48.3799 63.1778C48.0151 62.7306 47.5492 62.3672 47.0168 62.1146C46.4845 61.862 45.8992 61.7267 45.3044 61.7185C44.8888 61.715 44.4755 61.7772 44.0814 61.9027C43.2195 62.1714 42.337 62.3761 41.4418 62.515V57.0586H36.4175C36.4732 57.3826 36.4949 57.7111 36.4823 58.0392C36.4824 58.8841 36.3076 59.7208 35.9679 60.5014C35.6282 61.282 35.1303 61.9913 34.5025 62.5887C33.8747 63.1861 33.1294 63.66 32.3091 63.9833C31.4889 64.3066 30.6097 64.4729 29.7219 64.4728C28.2281 64.4728 26.7758 64.0051 25.589 63.1417C24.4023 62.2784 23.547 61.0674 23.1551 59.6956C22.9205 58.8346 22.8776 57.9363 23.0291 57.0586H18.0723V75.0104C18.071 75.2199 18.1134 75.4275 18.197 75.6213C18.2807 75.815 18.404 75.991 18.5597 76.139C18.7154 76.2871 18.9005 76.4042 19.1042 76.4836C19.3079 76.563 19.5261 76.6031 19.7462 76.6016H41.4418V68.3936C42.3379 68.5324 43.2213 68.7371 44.0841 69.0059C44.8043 69.2736 45.5997 69.2954 46.3348 69.0676Z" fill="#98A678"/>
</svg>
