<svg width="98" height="97" viewBox="0 0 98 97" fill="none" xmlns="http://www.w3.org/2000/svg">
<circle cx="49.1718" cy="48.5239" r="48.2778" fill="#F7F7F7"/>
<path d="M49.1715 73.5086C50.1579 74.7396 50.1583 74.7392 50.1588 74.7388L50.1602 74.7377L50.1644 74.7343L50.1782 74.7232L50.2272 74.6833C50.2693 74.6489 50.3298 74.5991 50.4077 74.5342C50.5634 74.4044 50.7883 74.2142 51.0728 73.9664C51.6417 73.4711 52.4493 72.7454 53.4176 71.813C55.3524 69.9499 57.9377 67.2531 60.5435 63.9129C65.7264 57.2691 71.1312 47.8999 71.4254 37.3799C71.449 36.5333 70.7999 35.8191 69.955 35.762C64.5079 35.3938 61.0635 33.7241 58.3011 31.4174C56.2118 29.6728 54.5334 27.6026 52.6489 25.2782C51.9317 24.3935 51.1845 23.472 50.3736 22.5176C50.0649 22.1544 49.6085 21.9502 49.1319 21.9622C48.6554 21.9741 48.2098 22.201 47.9197 22.5793C47.5495 23.0622 47.19 23.5359 46.8379 23.9998C44.6029 26.9446 42.6655 29.4973 40.1785 31.5164C37.3854 33.7841 33.8586 35.3922 28.3881 35.762C27.5431 35.8191 26.8941 36.5333 26.9177 37.3799C27.2119 47.8999 32.6167 57.2691 37.7996 63.9129C40.4053 67.2531 42.9907 69.9499 44.9255 71.813C45.8938 72.7454 46.7014 73.4711 47.2702 73.9664C47.5547 74.2142 47.7797 74.4044 47.9354 74.5342C48.0133 74.5991 48.0738 74.6489 48.1158 74.6833L48.1649 74.7232L48.1787 74.7343L48.1829 74.7377L48.1843 74.7388C48.1848 74.7392 48.1852 74.7396 49.1715 73.5086ZM49.1715 73.5086L50.1579 74.7396C49.5814 75.2014 48.7617 75.2014 48.1852 74.7396L49.1715 73.5086Z" stroke="#383F51" stroke-width="3.15478" stroke-linejoin="round"/>
<path fill-rule="evenodd" clip-rule="evenodd" d="M49.1715 60.5841C55.8329 60.5841 61.2331 55.184 61.2331 48.5225C61.2331 41.8611 55.8329 36.4609 49.1715 36.4609C42.51 36.4609 37.1099 41.8611 37.1099 48.5225C37.1099 55.184 42.51 60.5841 49.1715 60.5841ZM44.1028 48.4535C43.2873 47.7001 42.0154 47.7504 41.262 48.5659C40.5086 49.3814 40.559 50.6532 41.3745 51.4066L44.5996 54.3862C46.1776 55.844 48.6707 55.614 49.9554 53.8921L56.8137 44.6991C57.4776 43.8092 57.2944 42.5496 56.4046 41.8857C55.5147 41.2218 54.2551 41.405 53.5912 42.2949L46.9999 51.13L44.1028 48.4535Z" fill="#3B8C09"/>
</svg>
