<svg width="115" height="115" viewBox="0 0 115 115" fill="none" xmlns="http://www.w3.org/2000/svg">
<path d="M89.1544 51.5303C89.1544 52.9314 88.5979 54.2751 87.6071 55.2658C86.6164 56.2565 85.2727 56.8131 83.8716 56.8131C82.4705 56.8131 81.1268 56.2565 80.1361 55.2658C79.1454 54.2751 78.5888 52.9314 78.5888 51.5303C78.5888 52.9314 78.0322 54.2751 77.0415 55.2658C76.0508 56.2565 74.707 56.8131 73.306 56.8131C71.9049 56.8131 70.5611 56.2565 69.5704 55.2658C68.5797 54.2751 68.0231 52.9314 68.0231 51.5303V51.5303C68.0231 52.9314 67.4665 54.2751 66.4758 55.2658C65.4851 56.2565 64.1414 56.8131 62.7403 56.8131C61.3392 56.8131 59.9955 56.2565 59.0048 55.2658C58.014 54.2751 57.4575 52.9314 57.4575 51.5303C57.4575 52.9314 56.9009 54.2751 55.9101 55.2658C54.9194 56.2565 53.5757 56.8131 52.1746 56.8131C50.7735 56.8131 49.4298 56.2565 48.4391 55.2658C47.4484 54.2751 46.8918 52.9314 46.8918 51.5303V51.5303C46.8918 52.9314 46.3352 54.2751 45.3445 55.2658C44.3538 56.2565 43.0101 56.8131 41.609 56.8131C40.2079 56.8131 38.8642 56.2565 37.8734 55.2658C36.8827 54.2751 36.3261 52.9314 36.3261 51.5303C36.3261 52.9314 35.7695 54.2751 34.7788 55.2658C33.7881 56.2565 32.4444 56.8131 31.0433 56.8131C29.6422 56.8131 28.2985 56.2565 27.3078 55.2658C26.317 54.2751 25.7605 52.9314 25.7605 51.5303C25.7166 52.7938 25.2211 53.9996 24.3639 54.9289C23.5067 55.8582 22.3447 56.4493 21.0889 56.5948V88.6192H94.5246V56.6166H94.3281C92.9794 56.5897 91.692 56.0478 90.7301 55.102C89.7681 54.1563 89.2043 52.8784 89.1544 51.5303" fill="#B1CAD9"/>
<path d="M25.5202 51.5303H20.8486V56.5948C22.1045 56.4493 23.2665 55.8582 24.1237 54.9289C24.9809 53.9996 25.4764 52.7938 25.5202 51.5303Z" fill="#6395B4"/>
<path d="M30.8248 56.6385C32.1962 56.6392 33.5141 56.1067 34.4999 55.1534C35.4858 54.2001 36.0623 52.9009 36.1077 51.5303H25.542C25.5873 52.9009 26.1639 54.2001 27.1497 55.1534C28.1356 56.1067 29.4535 56.6392 30.8248 56.6385" fill="#6395B4"/>
<path d="M41.4127 56.6385C42.7841 56.6392 44.102 56.1067 45.0878 55.1534C46.0737 54.2001 46.6502 52.9009 46.6955 51.5303H36.1299C36.1752 52.9009 36.7517 54.2001 37.7376 55.1534C38.7235 56.1067 40.0414 56.6392 41.4127 56.6385" fill="#6395B4"/>
<path d="M52.0423 56.6385C53.4137 56.6392 54.7316 56.1067 55.7174 55.1534C56.7033 54.2001 57.2798 52.9009 57.3251 51.5303H46.7158C46.7614 52.9085 47.344 54.2142 48.3392 55.1687C49.3344 56.1231 50.6634 56.6506 52.0423 56.6385" fill="#6395B4"/>
<path d="M57.2815 42.1436H47.6982L46.7158 51.5304H57.2815V51.3339V42.1436Z" fill="#6395B4"/>
<path d="M37.9418 42.1436L36.1299 51.5304H46.6955C46.6955 51.5304 46.6955 51.3994 46.6955 51.3339C46.6955 51.2684 46.6955 51.4649 46.6955 51.5304L47.6779 42.1436H37.9418Z" fill="#6395B4"/>
<path d="M25.5421 51.4649L28.0307 42.1436H20.8486V51.5304H25.5202C25.5202 51.5304 25.5202 51.3994 25.5202 51.3339C25.5202 51.2684 25.5202 51.3339 25.5202 51.4649" fill="#6395B4"/>
<path d="M28.0306 42.1426L25.542 51.464H36.1077C36.1077 51.464 36.1077 51.333 36.1077 51.2675C36.1077 51.202 36.1077 51.3985 36.1077 51.464L37.9195 42.0771L28.0306 42.1426Z" fill="#6395B4"/>
<path d="M89.1533 51.5303C89.1987 52.9009 89.7752 54.2001 90.761 55.1534C91.7469 56.1067 93.0648 56.6392 94.4361 56.6385H94.6326V51.5303H89.1533Z" fill="#6395B4"/>
<path d="M83.7399 56.6385C85.1112 56.6392 86.4291 56.1067 87.415 55.1534C88.4008 54.2001 88.9774 52.9009 89.0227 51.5303H78.457C78.5024 52.9009 79.0789 54.2001 80.0647 55.1534C81.0506 56.1067 82.3685 56.6392 83.7399 56.6385" fill="#6395B4"/>
<path d="M73.152 56.6385C74.5233 56.6392 75.8412 56.1067 76.8271 55.1534C77.8129 54.2001 78.3895 52.9009 78.4348 51.5303H67.8691C67.9145 52.9009 68.491 54.2001 69.4769 55.1534C70.4627 56.1067 71.7806 56.6392 73.152 56.6385" fill="#6395B4"/>
<path d="M62.5875 56.6385C63.9589 56.6392 65.2768 56.1067 66.2626 55.1534C67.2485 54.2001 67.825 52.9009 67.8704 51.5303H57.3047C57.35 52.9009 57.9266 54.2001 58.9124 55.1534C59.8983 56.1067 61.2162 56.6392 62.5875 56.6385" fill="#6395B4"/>
<path d="M57.3047 42.1436V51.3339V51.5304H67.8704L66.888 42.1436H57.3047Z" fill="#6395B4"/>
<path d="M66.8867 42.1436L67.8691 51.5304C67.8691 51.5304 67.8691 51.3994 67.8691 51.3339C67.8691 51.2684 67.8691 51.4649 67.8691 51.5304H78.4347L76.6228 42.1436H66.8867Z" fill="#6395B4"/>
<path d="M89.0436 51.3339C89.0436 51.3339 89.0436 51.4649 89.0436 51.5304H94.5229V42.1436H86.5332L89.0218 51.4867C89.0218 51.4867 89.0218 51.4867 89.0218 51.3558" fill="#6395B4"/>
<path d="M78.434 51.5304C78.434 51.5304 78.434 51.3994 78.434 51.3339C78.434 51.2684 78.434 51.4649 78.434 51.5304H88.9996L86.5328 42.1436H76.6221L78.434 51.5304Z" fill="#6395B4"/>
<path d="M88.4107 54.9785H68.6328V88.6184H88.4107V54.9785Z" fill="#68744D"/>
<path d="M61.6914 74.6475H26.458V78.7951H61.6914V74.6475Z" fill="#68744D"/>
<path d="M17.115 52.1853C18.2729 52.1853 19.3834 51.7253 20.2022 50.9065C21.021 50.0878 21.481 48.9773 21.481 47.8193H12.749C12.749 48.9773 13.209 50.0878 14.0278 50.9065C14.8466 51.7253 15.9571 52.1853 17.115 52.1853Z" fill="#386A89"/>
<path d="M26.1958 52.1853C27.3538 52.1853 28.4643 51.7253 29.283 50.9065C30.1018 50.0878 30.5618 48.9773 30.5618 47.8193H21.7207C21.7207 48.9773 22.1807 50.0878 22.9995 50.9065C23.8182 51.7253 24.9288 52.1853 26.0867 52.1853" fill="#21506E"/>
<path d="M35.1242 52.1853C36.2821 52.1853 37.3926 51.7253 38.2114 50.9065C39.0302 50.0878 39.4902 48.9773 39.4902 47.8193H30.6709C30.6709 48.9773 31.1309 50.0878 31.9497 50.9065C32.7684 51.7253 33.8789 52.1853 35.0369 52.1853" fill="#386A89"/>
<path d="M44.0754 52.1853C44.6487 52.1853 45.2164 52.0724 45.7462 51.853C46.2759 51.6336 46.7572 51.312 47.1626 50.9065C47.568 50.5011 47.8896 50.0198 48.109 49.4901C48.3284 48.9604 48.4413 48.3927 48.4413 47.8193H39.6221C39.6221 48.9773 40.0821 50.0878 40.9008 50.9065C41.7196 51.7253 42.8301 52.1853 43.988 52.1853" fill="#21506E"/>
<path d="M53.024 52.1853C54.1819 52.1853 55.2924 51.7253 56.1112 50.9065C56.9299 50.0878 57.3899 48.9773 57.3899 47.8193H48.5488C48.5488 48.9773 49.0088 50.0878 49.8276 50.9065C50.6464 51.7253 51.7569 52.1853 52.9148 52.1853" fill="#386A89"/>
<path d="M50.7767 26.3818L48.5938 47.8843H57.5222C57.5222 47.8843 57.5222 47.8843 57.5222 47.7315V26.3818H50.7767Z" fill="#B1CAD9"/>
<path d="M43.7483 26.3818L39.6006 47.8843H48.5508C48.5508 47.8843 48.5508 47.8843 48.5508 47.7315C48.5508 47.5787 48.5508 47.7315 48.5508 47.8843L50.7338 26.3818H43.7483Z" fill="#386A89"/>
<path d="M30.6726 47.8188L36.3921 26.3818H29.079L21.6787 47.8843H30.6508C30.6508 47.8843 30.6508 47.8843 30.6508 47.7315C30.6508 47.5787 30.6508 47.7315 30.6508 47.8406" fill="#386A89"/>
<path d="M36.3903 26.3818L30.6709 47.8188H39.5993C39.5993 47.8188 39.5993 47.8188 39.5993 47.666C39.5993 47.5132 39.5993 47.666 39.5993 47.8188L43.747 26.3818H36.3903Z" fill="#B1CAD9"/>
<path d="M21.1535 26.3818L14.037 44.5661L12.749 47.8624V47.8843H21.6774L29.0778 26.3818H21.1535Z" fill="#B1CAD9"/>
<path d="M97.7537 52.1853C96.5957 52.1853 95.4852 51.7253 94.6665 50.9065C93.8477 50.0878 93.3877 48.9773 93.3877 47.8193H102.251C102.251 48.9773 101.791 50.0878 100.972 50.9065C100.153 51.7253 99.0426 52.1853 97.8847 52.1853" fill="#21506E"/>
<path d="M88.782 52.1853C87.6241 52.1853 86.5136 51.7253 85.6948 50.9065C84.876 50.0878 84.416 48.9773 84.416 47.8193H93.3444C93.3444 48.9773 92.8844 50.0878 92.0657 50.9065C91.2469 51.7253 90.1364 52.1853 88.9785 52.1853" fill="#386A89"/>
<path d="M79.8318 52.1853C78.6739 52.1853 77.5634 51.7253 76.7446 50.9065C75.9258 50.0878 75.4658 48.9773 75.4658 47.8193H84.3942C84.3942 48.9773 83.9343 50.0878 83.1155 50.9065C82.2967 51.7253 81.1862 52.1853 80.0283 52.1853" fill="#21506E"/>
<path d="M70.9031 52.1853C69.7452 52.1853 68.6347 51.7253 67.8159 50.9065C66.9971 50.0878 66.5371 48.9773 66.5371 47.8193H75.4655C75.4655 48.9773 75.0055 50.0878 74.1868 50.9065C73.368 51.7253 72.2575 52.1853 71.0996 52.1853" fill="#386A89"/>
<path d="M61.9539 52.1853C60.7959 52.1853 59.6854 51.7253 58.8667 50.9065C58.0479 50.0878 57.5879 48.9773 57.5879 47.8193H66.5163C66.5163 48.9773 66.0563 50.0878 65.2375 50.9065C64.4188 51.7253 63.3083 52.1853 62.1503 52.1853" fill="#21506E"/>
<path d="M64.2008 26.3818L66.3838 47.8843H57.499C57.499 47.8843 57.499 47.8843 57.499 47.7315V26.3818H64.2008Z" fill="#386A89"/>
<path d="M71.2324 26.3818L75.38 47.8843H66.4298C66.4298 47.8843 66.4298 47.8843 66.4298 47.7315C66.4298 47.5787 66.4298 47.7315 66.4298 47.8843L64.2031 26.3818H71.2324Z" fill="#B1CAD9"/>
<path d="M84.3083 47.8188L78.5889 26.3818H85.9019L93.3022 47.8843H84.3301C84.3301 47.8843 84.3301 47.8843 84.3301 47.7315C84.3301 47.5787 84.3301 47.7315 84.3301 47.8406" fill="#B1CAD9"/>
<path d="M78.5881 26.3818L84.3075 47.8188H75.3791C75.3791 47.8188 75.3791 47.8188 75.3791 47.666C75.3791 47.5132 75.3791 47.666 75.3791 47.8188L71.2314 26.3818H78.5881Z" fill="#386A89"/>
<path d="M93.8038 26.3818L100.942 44.5661L102.23 47.8624V47.8843H93.3017L85.9014 26.3818H93.8038Z" fill="#386A89"/>
<path d="M28.0508 58.4941V67.5972L34.7744 58.4941H28.0508Z" fill="#F1F1F1"/>
<path d="M34.7744 58.4941L28.0508 67.5972V74.2771L39.7079 58.4941H34.7744Z" fill="white"/>
<path d="M60.075 58.4941H52.2599L40.3408 74.6483H60.075V58.4941Z" fill="#F1F1F1"/>
<path d="M49.7951 58.4941L37.876 74.6483H40.3428L52.2619 58.4941H49.7951Z" fill="white"/>
<path d="M39.7079 58.4941L28.0508 74.2771V74.6483H37.8742L49.7933 58.4941H39.7079Z" fill="#F1F1F1"/>
<path d="M71.1865 58.9082V68.9063L78.3031 58.9082H71.1865Z" fill="#F1F1F1"/>
<path d="M85.8575 72.3552V66.1992L81.4697 72.3552H85.8575Z" fill="#F1F1F1"/>
<path d="M78.3031 58.9082L71.1865 68.9063V72.3554H72.7583L82.3416 58.9082H78.3031Z" fill="white"/>
<path d="M85.8567 58.9082H82.3421L72.7588 72.3554H79.0895L85.8567 62.8812V58.9082Z" fill="#F1F1F1"/>
<path d="M85.8571 66.2V62.8818L79.0898 72.356H81.4693L85.8571 66.2Z" fill="white"/>
<path d="M85.8584 84.6892V78.2275L81.2305 84.6892H85.8584Z" fill="#F1F1F1"/>
<path d="M78.5869 76.3945L77.1461 78.4247L78.5869 76.3945H76.2074L75.356 77.5952L76.2074 76.3945H71.1865V84.6899H77.3207L83.2148 76.3945H78.5869Z" fill="#F1F1F1"/>
<path d="M83.2163 76.3945L77.3223 84.6899H81.2298L85.8578 78.2282V76.3945H83.2163Z" fill="white"/>
</svg>
