<svg width="116" height="116" viewBox="0 0 116 116" fill="none" xmlns="http://www.w3.org/2000/svg">
<path d="M81.4495 46.2761H75.6864V34.3788C75.6864 32.0629 74.7665 29.8419 73.1289 28.2043C71.4914 26.5668 69.2703 25.6468 66.9545 25.6468H50.3856C48.0697 25.6468 45.8487 26.5668 44.2112 28.2043C42.5736 29.8419 41.6537 32.0629 41.6537 34.3788V46.2761H35.9561V34.3788C35.9561 30.5518 37.4763 26.8816 40.1824 24.1755C42.8884 21.4695 46.5587 19.9492 50.3856 19.9492H67.0418C70.865 19.955 74.5296 21.4778 77.2309 24.1832C79.9323 26.8887 81.4495 30.5556 81.4495 34.3788V46.2761Z" fill="#98A678"/>
<path d="M26.4603 38.5918C26.5881 39.2095 26.6539 39.8384 26.6568 40.4692C26.6568 42.9627 25.6692 45.3548 23.9101 47.1222C22.1509 48.8895 19.7635 49.8881 17.2699 49.8997C16.5354 49.9047 15.8028 49.8241 15.0869 49.6595V86.7703C15.8028 86.6058 16.5354 86.5252 17.2699 86.5302C19.771 86.5302 22.1697 87.5238 23.9383 89.2924C25.7068 91.0609 26.7004 93.4596 26.7004 95.9607C26.6976 96.5915 26.6318 97.2204 26.5039 97.8381H58.9432V38.5918H26.4603Z" fill="#B1CAD9"/>
<path d="M90.7723 40.4477C90.7751 39.8169 90.8409 39.188 90.9688 38.5703H58.9443V97.8384H90.9688C90.6432 96.2828 90.7171 94.67 91.1835 93.1507C91.6498 91.6313 92.4934 90.2548 93.6356 89.1496C94.7778 88.0445 96.1814 87.2467 97.7153 86.8307C99.2493 86.4147 100.864 86.3941 102.408 86.7707V49.6599C101.025 49.9827 99.5873 49.9885 98.2021 49.6767C96.817 49.3649 95.5203 48.7437 94.4094 47.8595C93.2985 46.9754 92.402 45.8513 91.7873 44.5715C91.1725 43.2917 90.8554 41.8893 90.8596 40.4695L90.7723 40.4477Z" fill="#6395B4"/>
<path d="M26.635 40.4477C26.6322 39.8169 26.5663 39.188 26.4385 38.5703H18.5579C18.1003 38.5703 17.6471 38.6608 17.2246 38.8366C16.8021 39.0124 16.4184 39.27 16.0959 39.5946C15.7733 39.9193 15.518 40.3045 15.3449 40.7281C15.1718 41.1518 15.0841 41.6054 15.087 42.0631V49.6599C15.8028 49.8245 16.5354 49.9051 17.27 49.9C19.7635 49.8827 22.1487 48.8785 23.9038 47.1071C25.6588 45.3357 26.6408 42.9413 26.635 40.4477V40.4477Z" fill="#386A89"/>
<path d="M98.8695 38.5914H90.967C90.6415 40.1471 90.7154 41.7598 91.1817 43.2792C91.6481 44.7986 92.4917 46.1751 93.6339 47.2802C94.7761 48.3854 96.1797 49.1832 97.7136 49.5992C99.2475 50.0152 100.862 50.0358 102.406 49.6592V42.0624C102.406 41.601 102.314 41.1443 102.136 40.7188C101.957 40.2934 101.696 39.9078 101.366 39.5846C101.037 39.2614 100.647 39.0071 100.218 38.8366C99.7892 38.6661 99.3308 38.5827 98.8695 38.5914V38.5914Z" fill="#386A89"/>
<path d="M17.2699 86.5305C16.5354 86.5254 15.8028 86.606 15.0869 86.7706L15.0869 94.3674C15.0869 94.8232 15.1767 95.2746 15.3511 95.6957C15.5256 96.1168 15.7812 96.4994 16.1035 96.8218C16.4258 97.1441 16.8085 97.3997 17.2296 97.5742C17.6507 97.7486 18.1021 97.8384 18.5579 97.8384H26.4603C26.5881 97.2207 26.6539 96.5918 26.6568 95.961C26.6568 93.4674 25.6692 91.0753 23.9101 89.308C22.1509 87.5407 19.7635 86.542 17.2699 86.5305V86.5305Z" fill="#386A89"/>
<path d="M90.7705 95.9612C90.7733 96.592 90.8392 97.2209 90.967 97.8386H98.8694C99.3307 97.8473 99.7891 97.764 100.218 97.5934C100.646 97.4229 101.037 97.1686 101.366 96.8454C101.695 96.5223 101.957 96.1367 102.136 95.7112C102.314 95.2858 102.406 94.829 102.406 94.3677V86.7709C101.023 86.448 99.5855 86.4423 98.2003 86.7541C96.8152 87.0659 95.5185 87.6871 94.4076 88.5712C93.2967 89.4554 92.4002 90.5795 91.7855 91.8593C91.1707 93.1391 90.8536 94.5414 90.8578 95.9612H90.7705Z" fill="#386A89"/>
<path d="M34.5595 38.4609H31.416V97.7072H34.5595V38.4609Z" fill="#386A89"/>
<path d="M85.9902 38.4609H82.8467V97.7072H85.9902V38.4609Z" fill="#386A89"/>
</svg>
