<svg width="115" height="115" viewBox="0 0 115 115" fill="none" xmlns="http://www.w3.org/2000/svg">
<path d="M19.1782 27.0039H95.5828C96.6712 27.0039 97.7151 27.4363 98.4847 28.2059C99.2544 28.9756 99.6868 30.0195 99.6868 31.1079V81.7969H15.1396V31.1079C15.1395 30.0307 15.5629 28.9967 16.3184 28.2289C17.074 27.4611 18.1011 27.0211 19.1782 27.0039V27.0039Z" fill="#6395B4"/>
<path d="M96.194 30.1475H18.6543V78.2605H96.194V30.1475Z" fill="#386A89"/>
<path d="M108.593 81.7969H6.40723V85.0932H108.593V81.7969Z" fill="#B1CAD9"/>
<path d="M6.40723 85.0928H108.593C108.593 85.8628 108.287 86.6013 107.743 87.1458C107.198 87.6903 106.46 87.9961 105.69 87.9961H9.3106C8.54058 87.9961 7.80209 87.6903 7.25761 87.1458C6.71312 86.6013 6.40723 85.8628 6.40723 85.0928V85.0928Z" fill="#B1CAD9"/>
<path d="M49.9154 81.7969H64.9998C64.9998 82.2369 64.825 82.6589 64.5139 82.97C64.2028 83.2812 63.7808 83.4559 63.3408 83.4559H51.5526C51.3348 83.4559 51.119 83.413 50.9177 83.3297C50.7164 83.2463 50.5335 83.1241 50.3795 82.97C50.2254 82.816 50.1032 82.6331 50.0198 82.4318C49.9365 82.2305 49.8936 82.0147 49.8936 81.7969V81.7969H49.9154Z" fill="#386A89"/>
<path d="M106.192 83.1719H101.608C101.451 83.1719 101.324 83.2989 101.324 83.4557C101.324 83.6124 101.451 83.7395 101.608 83.7395H106.192C106.349 83.7395 106.476 83.6124 106.476 83.4557C106.476 83.2989 106.349 83.1719 106.192 83.1719Z" fill="#386A89"/>
</svg>
