<svg width="116" height="115" viewBox="0 0 116 115" fill="none" xmlns="http://www.w3.org/2000/svg">
<path d="M94.7747 27.6007L69.0552 20.631C68.8293 20.5723 68.5939 20.5589 68.3628 20.5917C68.1317 20.6245 67.9093 20.7028 67.7086 20.8221C67.508 20.9413 67.3329 21.0992 67.1936 21.2865C67.0543 21.4738 66.9535 21.6869 66.897 21.9134L64.8831 29.2034C64.683 29.0892 64.495 28.9548 64.322 28.8025C63.325 28.1361 62.1556 27.7742 60.9564 27.7609C59.8211 27.749 58.7031 28.0397 57.7174 28.6031C56.7316 29.1664 55.9136 29.9821 55.3475 30.9663C54.8764 31.8042 54.6092 32.7413 54.5673 33.7017C54.5255 34.6621 54.7103 35.6188 55.1067 36.4946C55.4767 37.3621 56.0359 38.1361 56.7434 38.7598C57.4509 39.3836 58.2888 39.8414 59.1958 40.0998C59.8245 40.2587 60.4704 40.3396 61.1189 40.3406H61.8402L59.8376 47.6318C59.7789 47.8577 59.7655 48.093 59.7983 48.3242C59.8311 48.5553 59.9094 48.7776 60.0287 48.9783C60.1479 49.179 60.3058 49.3541 60.4931 49.4934C60.6804 49.6327 60.8935 49.7335 61.12 49.7899L70.575 52.3536C70.8237 52.4321 71.087 52.4533 71.3451 52.4156C71.6032 52.3779 71.8494 52.2822 72.0652 52.1358C72.2811 51.9893 72.461 51.7959 72.5914 51.57C72.7218 51.3441 72.7994 51.0917 72.8183 50.8315C72.9225 49.7664 72.9495 48.6951 72.899 47.6261C72.8819 47.3565 72.9092 47.086 72.9796 46.8253C73.0915 46.4392 73.2855 46.0819 73.5481 45.7776C73.8108 45.4734 74.1361 45.2294 74.5017 45.0624C74.8849 44.8907 75.3044 44.8155 75.7234 44.8434C76.1424 44.8713 76.5482 45.0015 76.9052 45.2226C77.3232 45.4483 77.6712 45.7843 77.9115 46.1941C78.1519 46.6038 78.2752 47.0716 78.2682 47.5466C78.2691 48.0914 78.1013 48.6231 77.7878 49.0686C77.1999 49.9575 76.6906 50.8958 76.2657 51.8731C76.1472 52.1093 76.0855 52.3699 76.0855 52.6341C76.0855 52.8984 76.1472 53.159 76.2657 53.3952C76.3789 53.6223 76.5365 53.8245 76.7293 53.9895C76.9221 54.1546 77.1461 54.2793 77.3879 54.3561L86.8429 56.7596C86.9942 56.8248 87.1591 56.8525 87.3234 56.8403C87.7062 56.8427 88.0789 56.7182 88.3833 56.4861C88.6877 56.2541 88.9066 55.9276 89.0056 55.5579L95.9764 29.8384C96.0942 29.3826 96.0359 28.8992 95.8132 28.4845C95.5904 28.0698 95.2197 27.7543 94.7747 27.6007V27.6007ZM86.041 52.8397L80.5127 51.3222C80.5747 51.1784 80.6557 51.0435 80.7535 50.9212C81.4199 49.9242 81.7818 48.7548 81.7951 47.5557C81.8355 46.416 81.5478 45.2887 80.966 44.3079C80.3843 43.327 79.5331 42.5339 78.5136 42.0228C77.6756 41.5517 76.7386 41.2845 75.7782 41.2426C74.8178 41.2008 73.861 41.3856 72.9853 41.782C72.1177 42.1521 71.3438 42.7112 70.72 43.4187C70.0963 44.1262 69.6385 44.9641 69.3801 45.8712C69.2212 46.4999 69.1403 47.1457 69.1393 47.7942V48.3553L63.611 46.8333L65.6896 39.0548C65.771 38.8131 65.7915 38.555 65.7495 38.3034C65.7075 38.0519 65.6043 37.8145 65.4488 37.6123C65.2991 37.4081 65.1072 37.2385 64.8861 37.115C64.665 36.9915 64.4199 36.9171 64.1675 36.8967C63.0489 36.7923 61.9244 36.7654 60.802 36.816C60.5324 36.8331 60.2619 36.8058 60.0012 36.7354C59.6151 36.6235 59.2578 36.4295 58.9535 36.1668C58.6493 35.9042 58.4053 35.5789 58.2383 35.2133C58.0653 34.7956 57.9989 34.3414 58.0451 33.8917C58.0913 33.442 58.2486 33.0108 58.5029 32.6369C58.7572 32.2631 59.1005 31.9584 59.5018 31.7503C59.9031 31.5421 60.3499 31.437 60.802 31.4445C61.3242 31.4313 61.8345 31.6013 62.2445 31.925C63.187 32.5397 64.1786 33.0757 65.2091 33.5277C65.4453 33.6462 65.7059 33.7079 65.9702 33.7079C66.2344 33.7079 66.495 33.6462 66.7312 33.5277C66.9584 33.4145 67.1605 33.2569 67.3256 33.0641C67.4907 32.8713 67.6153 32.6473 67.6922 32.4054L69.7753 24.6338L92.0497 30.6426L86.041 52.8397Z" fill="#68744D"/>
<path d="M29.7953 68.6234C29.5256 69.5086 29.4978 70.4499 29.7146 71.3495C29.9215 72.2032 30.3596 72.9834 30.9807 73.6046C31.6019 74.2257 32.3821 74.6638 33.2358 74.8707C33.9556 75.0439 34.7052 75.0529 35.4289 74.8971C36.1527 74.7413 36.8321 74.4247 37.4169 73.9707C38.0017 73.5167 38.4769 72.937 38.8072 72.2744C39.1376 71.6118 39.3146 70.8835 39.3252 70.1432C39.3299 69.626 39.2485 69.1116 39.0844 68.6211C38.7331 67.5485 38.4653 66.4502 38.2836 65.3362H48.9404V54.6817C47.8729 54.8351 46.8252 55.1036 45.8156 55.4825C45.3251 55.6466 44.8107 55.728 44.2935 55.7233C43.5483 55.7274 42.8122 55.56 42.142 55.2342C41.4719 54.9083 40.8856 54.4327 40.4287 53.844C39.9717 53.2554 39.6562 52.5695 39.5066 51.8395C39.3571 51.1095 39.3774 50.3548 39.566 49.6339C39.7595 48.7739 40.1932 47.9865 40.8165 47.3632C41.4398 46.7399 42.2272 46.3062 43.0872 46.1127C44.0134 45.8978 44.9794 45.9255 45.8917 46.1934C46.9333 46.5137 47.8942 46.7545 48.9358 46.9942V36.334H22.0237C21.7496 36.3321 21.4778 36.3846 21.2241 36.4886C20.9705 36.5926 20.7401 36.746 20.5463 36.9398C20.3524 37.1336 20.199 37.3641 20.0951 37.6177C19.9911 37.8713 19.9385 38.1431 19.9405 38.4172V65.418H30.5972C30.4344 66.5099 30.1658 67.5834 29.7953 68.6234V68.6234Z" fill="#21506E"/>
<path d="M69.9366 62.1349C70.1481 61.499 70.2257 60.8263 70.1645 60.159C70.1033 59.4916 69.9047 58.8442 69.5811 58.2574C69.2575 57.6706 68.8159 57.1571 68.2842 56.7493C67.7525 56.3414 67.1421 56.0481 66.4915 55.8876C65.777 55.6981 65.0286 55.6745 64.3035 55.8186C63.5785 55.9628 62.8961 56.2709 62.3084 56.7193C61.7208 57.1677 61.2435 57.7447 60.913 58.4059C60.5826 59.0672 60.4078 59.7953 60.4021 60.5345C60.3974 61.0517 60.4788 61.566 60.6429 62.0565C60.9943 63.1292 61.262 64.2275 61.4437 65.3415H52.5498V71.5115C52.9735 71.4422 53.4031 71.4152 53.8322 71.4309C55.1109 71.4281 56.3735 71.715 57.5254 72.2702C58.6773 72.8254 59.6883 73.6343 60.4827 74.6363C61.3537 75.7295 61.9389 77.0224 62.1854 78.3983C62.4319 79.7742 62.3321 81.1898 61.8948 82.5175C61.4575 83.8451 60.6966 85.043 59.6806 86.0031C58.6647 86.9632 57.4258 87.6552 56.0755 88.0168C55.3699 88.2013 54.6462 88.3087 53.9174 88.3372C53.4883 88.3503 53.059 88.3233 52.635 88.2565V94.4254H76.1055C76.3796 94.4274 76.6514 94.3748 76.905 94.2708C77.1586 94.1668 77.389 94.0135 77.5829 93.8196C77.7767 93.6258 77.9301 93.3954 78.0341 93.1418C78.1381 92.8881 78.1906 92.6163 78.1887 92.3422V65.3392H69.1335C69.3159 64.2515 69.5845 63.1801 69.9366 62.1349Z" fill="#6395B4"/>
<path d="M55.1138 84.5688C55.9522 84.3471 56.7151 83.9028 57.3216 83.2829C57.928 82.663 58.3556 81.8907 58.5589 81.0476C58.7321 80.3278 58.7411 79.5783 58.5853 78.8545C58.4295 78.1307 58.1129 77.4513 57.6589 76.8665C57.2049 76.2817 56.6252 75.8065 55.9626 75.4762C55.3001 75.1459 54.5717 74.9688 53.8314 74.9582C53.3142 74.9535 52.7998 75.0349 52.3093 75.199C51.2367 75.5504 50.1384 75.8181 49.0244 75.9998V68.8643H42.7714C42.8408 69.288 42.8678 69.7176 42.8521 70.1467C42.8522 71.2516 42.6347 72.3457 42.212 73.3665C41.7892 74.3873 41.1695 75.3149 40.3882 76.0962C39.6069 76.8774 38.6794 77.4972 37.6585 77.9199C36.6377 78.3427 35.5436 78.5602 34.4387 78.56C32.5796 78.5601 30.7722 77.9484 29.2952 76.8194C27.8183 75.6904 26.7538 74.1067 26.2661 72.3128C25.9742 71.1867 25.9208 70.0121 26.1094 68.8643H19.9405V92.3404C19.9388 92.6143 19.9916 92.8859 20.0957 93.1392C20.1998 93.3926 20.3533 93.6228 20.5471 93.8164C20.7409 94.0099 20.9712 94.1631 21.2247 94.267C21.4781 94.3708 21.7497 94.4233 22.0237 94.4213H49.0244V83.6874C50.1396 83.8689 51.239 84.1366 52.3127 84.4882C53.209 84.8382 54.1989 84.8667 55.1138 84.5688V84.5688Z" fill="#B1CAD9"/>
</svg>
