<svg width="115" height="115" viewBox="0 0 115 115" fill="none" xmlns="http://www.w3.org/2000/svg">
<path d="M57.5 65.6533C30.8238 65.6533 9.19043 72.5734 9.19043 81.1307H105.788C105.788 72.5734 84.1761 65.6533 57.5 65.6533Z" fill="#CBD2BC"/>
<path d="M57.5 96.5858C84.1761 96.5858 105.809 89.6657 105.809 81.1084H9.19043C9.19043 89.6657 30.8238 96.5858 57.5 96.5858Z" fill="#98A678"/>
<path d="M82.4954 79.8207C85.0272 79.8207 87.0797 78.5306 87.0797 76.9392C87.0797 75.3477 85.0272 74.0576 82.4954 74.0576C79.9636 74.0576 77.9111 75.3477 77.9111 76.9392C77.9111 78.5306 79.9636 79.8207 82.4954 79.8207Z" fill="#525B3F"/>
<path d="M68.3047 29.1539H83.8257V20.6621L68.3047 29.1539Z" fill="#B1CAD9"/>
<path d="M83.8257 37.6451L68.3047 29.1533H83.8257" fill="#6395B4"/>
<path d="M85.0721 18.4131C84.7479 18.4131 84.4369 18.5419 84.2077 18.7711C83.9784 19.0004 83.8496 19.3113 83.8496 19.6356V77.9432C83.8496 78.2674 83.9784 78.5783 84.2077 78.8076C84.4369 79.0368 84.7479 79.1656 85.0721 79.1656V18.4131Z" fill="#21506E"/>
<path d="M85.0713 18.4131V79.1656C85.2318 79.1656 85.3908 79.134 85.5391 79.0726C85.6874 79.0112 85.8222 78.9211 85.9357 78.8076C86.0492 78.6941 86.1393 78.5593 86.2007 78.411C86.2621 78.2627 86.2938 78.1037 86.2938 77.9432V19.6356C86.2938 19.475 86.2621 19.3161 86.2007 19.1677C86.1393 19.0194 86.0492 18.8847 85.9357 18.7711C85.8222 18.6576 85.6874 18.5676 85.5391 18.5061C85.3908 18.4447 85.2318 18.4131 85.0713 18.4131V18.4131Z" fill="#386A89"/>
</svg>
