<svg width="119" height="116" viewBox="0 0 119 116" fill="none" xmlns="http://www.w3.org/2000/svg">
<path fill-rule="evenodd" clip-rule="evenodd" d="M91.4951 91.2291C91.3717 91.2293 91.2492 91.2085 91.1328 91.1677L40.381 73.514C40.1111 73.4132 39.8914 73.2108 39.7689 72.9501C39.6463 72.6894 39.6306 72.3911 39.7251 72.119C39.8196 71.8469 40.0169 71.6225 40.2747 71.4939C40.5324 71.3653 40.8303 71.3427 41.1045 71.4309L91.8575 89.0891C92.1036 89.1748 92.3114 89.3448 92.4441 89.5691C92.5767 89.7934 92.6257 90.0575 92.5823 90.3144C92.5389 90.5714 92.4059 90.8047 92.2069 90.9729C92.0079 91.1412 91.7557 91.2335 91.4951 91.2336" fill="#68744D"/>
<path d="M59.4986 71.3673C72.2947 71.3673 82.668 60.9939 82.668 48.1978C82.668 35.4016 72.2947 25.0283 59.4986 25.0283C46.7024 25.0283 36.3291 35.4016 36.3291 48.1978C36.3291 60.9939 46.7024 71.3673 59.4986 71.3673Z" fill="#B1CAD9"/>
<path d="M84.8747 75.7807C88.5308 75.7807 91.4946 72.8169 91.4946 69.1609C91.4946 65.5048 88.5308 62.541 84.8747 62.541C81.2187 62.541 78.2549 65.5048 78.2549 69.1609C78.2549 72.8169 81.2187 75.7807 84.8747 75.7807Z" fill="#68744D"/>
<path fill-rule="evenodd" clip-rule="evenodd" d="M34.1233 63.6455C33.0321 63.6452 31.9654 63.9686 31.058 64.5747C30.1506 65.1808 29.4433 66.0423 29.0256 67.0504C28.6078 68.0584 28.4984 69.1677 28.7111 70.238C28.9239 71.3082 29.4492 72.2914 30.2207 73.063C30.9923 73.8347 31.9753 74.3603 33.0455 74.5732C34.1157 74.7862 35.225 74.677 36.2332 74.2595C37.2413 73.8419 38.103 73.1348 38.7093 72.2275C39.3155 71.3203 39.6391 70.2536 39.6391 69.1624C39.6376 67.6999 39.056 66.2977 38.022 65.2634C36.9879 64.2291 35.5859 63.6473 34.1233 63.6455V63.6455ZM34.1233 76.8863C32.5957 76.8863 31.1023 76.4333 29.8322 75.5846C28.562 74.7359 27.572 73.5296 26.9874 72.1182C26.4028 70.7068 26.2498 69.1538 26.5478 67.6555C26.8459 66.1572 27.5815 64.781 28.6617 63.7008C29.7419 62.6206 31.1182 61.8849 32.6165 61.5869C34.1148 61.2889 35.6678 61.4418 37.0791 62.0264C38.4905 62.611 39.6968 63.601 40.5455 64.8712C41.3942 66.1414 41.8472 67.6347 41.8472 69.1624C41.8448 71.2102 41.0303 73.1734 39.5823 74.6214C38.1343 76.0694 36.1711 76.8839 34.1233 76.8863" fill="#98A678"/>
<path fill-rule="evenodd" clip-rule="evenodd" d="M27.502 91.2291C27.2437 91.2258 26.9948 91.132 26.7986 90.964C26.6025 90.796 26.4715 90.5645 26.4285 90.3098C26.3855 90.0551 26.4332 89.7934 26.5634 89.5703C26.6936 89.3473 26.8979 89.1769 27.1408 89.0891L77.8937 71.4309C78.168 71.3427 78.4658 71.3653 78.7236 71.4939C78.9814 71.6225 79.1786 71.8469 79.2731 72.119C79.3677 72.3911 79.352 72.6894 79.2294 72.9501C79.1068 73.2108 78.8871 73.4132 78.6173 73.514L27.8643 91.1677C27.7479 91.2085 27.6254 91.2293 27.502 91.2291" fill="#98A678"/>
<path fill-rule="evenodd" clip-rule="evenodd" d="M43.8974 41.4174L42.749 39.5307L64.4441 26.291L65.5902 28.172L43.8974 41.4174Z" fill="#6395B4"/>
<path fill-rule="evenodd" clip-rule="evenodd" d="M53.4786 43.6096L52.2803 41.7559L71.0369 29.6191L72.2352 31.4729L53.4786 43.6096Z" fill="#6395B4"/>
<path fill-rule="evenodd" clip-rule="evenodd" d="M62.2912 45.8271L61.127 43.9473L76.5748 34.415L77.7356 36.2915L62.2912 45.8271Z" fill="#6395B4"/>
<path fill-rule="evenodd" clip-rule="evenodd" d="M71.8696 54.7813L38.2559 45.9556L38.8158 43.8213L72.4296 52.6436L71.8696 54.7813Z" fill="#386A89"/>
<path fill-rule="evenodd" clip-rule="evenodd" d="M63.4852 59.5016L37.1387 50.7793L37.8327 48.6836L64.1792 57.4071L63.4852 59.5016Z" fill="#386A89"/>
<path fill-rule="evenodd" clip-rule="evenodd" d="M54.7154 63.5798L39.2676 58.0629L40.0093 55.9854L55.4571 61.5023L54.7154 63.5798Z" fill="#386A89"/>
<path fill-rule="evenodd" clip-rule="evenodd" d="M70.1883 47.444L69.1172 45.513L79.9261 39.5088L80.9984 41.4398L70.1883 47.444Z" fill="#6395B4"/>
<path fill-rule="evenodd" clip-rule="evenodd" d="M54.6736 70.6054L53.6865 68.6312L79.3379 55.8027L80.3249 57.7769L54.6736 70.6054Z" fill="#6395B4"/>
<path fill-rule="evenodd" clip-rule="evenodd" d="M47.8696 67.9345L46.8564 65.974L81.0597 48.3203L82.0729 50.2808L47.8696 67.9345Z" fill="#6395B4"/>
<path fill-rule="evenodd" clip-rule="evenodd" d="M59.5009 27.2358C55.3546 27.2354 51.3013 28.4644 47.8536 30.7676C44.4059 33.0708 41.7186 36.3447 40.1315 40.1751C38.5444 44.0056 38.1289 48.2207 38.9374 52.2874C39.746 56.3541 41.7423 60.0896 44.6739 63.0217C47.6055 65.9538 51.3407 67.9507 55.4073 68.7599C59.4738 69.5691 63.6889 69.1543 67.5197 67.5678C71.3504 65.9814 74.6247 63.2946 76.9285 59.8472C79.2322 56.3999 80.462 52.3468 80.4622 48.2005C80.4565 42.6427 78.2463 37.3141 74.3167 33.3837C70.387 29.4534 65.0587 27.2424 59.5009 27.2358V27.2358ZM59.5009 71.3689C54.9178 71.3689 50.4376 70.0098 46.627 67.4635C42.8163 64.9172 39.8463 61.2981 38.0926 57.0638C36.3389 52.8295 35.8802 48.1703 36.7746 43.6753C37.669 39.1803 39.8762 35.0515 43.1172 31.811C46.3581 28.5706 50.4873 26.3639 54.9824 25.4702C59.4775 24.5765 64.1366 25.0359 68.3707 26.7902C72.6047 28.5446 76.2234 31.5151 78.7691 35.3261C81.3148 39.1371 82.6733 43.6175 82.6726 48.2005C82.666 54.344 80.2226 60.234 75.8784 64.5781C71.5343 68.9222 65.6443 71.3657 59.5009 71.3723" fill="#386A89"/>
<path fill-rule="evenodd" clip-rule="evenodd" d="M81.3118 50.3743L39.3857 40.4445L39.8946 38.2988L81.8207 48.2286L81.3118 50.3743Z" fill="#386A89"/>
<path fill-rule="evenodd" clip-rule="evenodd" d="M84.8763 63.6456C83.7851 63.6454 82.7183 63.9688 81.8109 64.5748C80.9035 65.1809 80.1962 66.0425 79.7785 67.0505C79.3607 68.0586 79.2513 69.1679 79.4641 70.2382C79.6768 71.3084 80.2022 72.2915 80.9737 73.0632C81.7452 73.8349 82.7282 74.3604 83.7984 74.5734C84.8686 74.7863 85.9779 74.6772 86.9861 74.2596C87.9942 73.8421 88.8559 73.135 89.4622 72.2277C90.0685 71.3204 90.392 70.2537 90.392 69.1625C90.3905 67.7 89.809 66.2978 88.7749 65.2636C87.7409 64.2293 86.3388 63.6474 84.8763 63.6456V63.6456ZM84.8763 76.8853C83.3486 76.8853 81.8553 76.4323 80.5851 75.5836C79.3149 74.7349 78.3249 73.5286 77.7403 72.1172C77.1557 70.7059 77.0027 69.1528 77.3008 67.6546C77.5988 66.1563 78.3344 64.78 79.4146 63.6998C80.4948 62.6196 81.8711 61.8839 83.3694 61.5859C84.8677 61.2879 86.4207 61.4408 87.8321 62.0255C89.2434 62.6101 90.4497 63.6 91.2985 64.8702C92.1472 66.1404 92.6002 67.6338 92.6002 69.1614C92.5978 71.2092 91.7832 73.1724 90.3352 74.6204C88.8872 76.0684 86.924 76.8829 84.8763 76.8853" fill="#68744D"/>
<path fill-rule="evenodd" clip-rule="evenodd" d="M82.6684 71.3675C82.5234 71.3677 82.3798 71.3392 82.2458 71.2837C82.1119 71.2283 81.9902 71.147 81.8877 71.0444C81.7853 70.9418 81.7041 70.8201 81.6488 70.686C81.5934 70.552 81.5651 70.4084 81.5654 70.2634C81.5666 69.0934 82.0319 67.9717 82.8593 67.1444C83.6866 66.3171 84.8083 65.8518 85.9783 65.8506C86.2709 65.8506 86.5516 65.9668 86.7586 66.1738C86.9655 66.3807 87.0818 66.6614 87.0818 66.9541C87.0818 67.2467 86.9655 67.5274 86.7586 67.7344C86.5516 67.9413 86.2709 68.0576 85.9783 68.0576C85.3931 68.0582 84.8321 68.2909 84.4184 68.7047C84.0046 69.1184 83.7719 69.6794 83.7713 70.2646C83.7714 70.4095 83.743 70.5529 83.6876 70.6868C83.6323 70.8207 83.551 70.9424 83.4486 71.0448C83.3461 71.1472 83.2245 71.2285 83.0906 71.2839C82.9567 71.3392 82.8132 71.3677 82.6684 71.3675" fill="#CBD2BC"/>
<path d="M34.1238 75.7807C37.7798 75.7807 40.7436 72.8169 40.7436 69.1609C40.7436 65.5048 37.7798 62.541 34.1238 62.541C30.4677 62.541 27.5039 65.5048 27.5039 69.1609C27.5039 72.8169 30.4677 75.7807 34.1238 75.7807Z" fill="#98A678"/>
<path fill-rule="evenodd" clip-rule="evenodd" d="M31.9164 71.3675C31.7714 71.3677 31.6279 71.3392 31.4939 71.2837C31.3599 71.2283 31.2382 71.147 31.1358 71.0444C31.0333 70.9418 30.9521 70.8201 30.8968 70.686C30.8415 70.552 30.8132 70.4084 30.8135 70.2634C30.8147 69.0934 31.28 67.9717 32.1073 67.1444C32.9346 66.3171 34.0563 65.8518 35.2263 65.8506C35.519 65.8506 35.7997 65.9668 36.0066 66.1738C36.2136 66.3807 36.3298 66.6614 36.3298 66.9541C36.3298 67.2467 36.2136 67.5274 36.0066 67.7344C35.7997 67.9413 35.519 68.0576 35.2263 68.0576C34.6412 68.0582 34.0802 68.2909 33.6664 68.7047C33.2527 69.1184 33.0199 69.6794 33.0193 70.2646C33.0195 70.4095 32.9911 70.5529 32.9357 70.6868C32.8803 70.8207 32.7991 70.9424 32.6966 71.0448C32.5942 71.1472 32.4725 71.2285 32.3387 71.2839C32.2048 71.3392 32.0613 71.3677 31.9164 71.3675Z" fill="#68744D"/>
</svg>
