<svg width="116" height="115" viewBox="0 0 116 115" fill="none" xmlns="http://www.w3.org/2000/svg">
<path d="M104.29 38.6445L100.649 37.3184C101.079 37.4669 101.475 37.6995 101.814 38.0028C102.153 38.306 102.428 38.6738 102.623 39.0846C102.818 39.4953 102.93 39.9409 102.951 40.3953C102.972 40.8496 102.903 41.3036 102.746 41.7308L87.8695 82.4796C87.5455 83.3261 86.899 84.0096 86.0719 84.3802C85.2448 84.7508 84.3044 84.7784 83.457 84.4568L87.0979 85.7829C87.5206 85.9366 87.9694 86.0055 88.4188 85.9857C88.8681 85.9659 89.3092 85.8577 89.7167 85.6674C90.1242 85.4771 90.4902 85.2083 90.7939 84.8765C91.0975 84.5446 91.3328 84.1562 91.4862 83.7334L106.339 43.057C106.496 42.6328 106.568 42.1817 106.55 41.7297C106.532 41.2777 106.425 40.8337 106.234 40.4234C106.044 40.0131 105.774 39.6446 105.44 39.3393C105.106 39.034 104.715 38.7978 104.29 38.6445Z" fill="#6395B4"/>
<path d="M76.7769 32.2845L61.9494 73.0229C61.3026 74.7998 62.2188 76.7645 63.9957 77.4113L83.4813 84.5034C85.2582 85.1502 87.2229 84.234 87.8697 82.4571L102.697 41.7187C103.344 39.9418 102.428 37.977 100.651 37.3303L81.1653 30.2381C79.3884 29.5914 77.4237 30.5075 76.7769 32.2845Z" fill="#B1CAD9"/>
<path d="M75.7646 54.9918L81.0933 66.4207L87.1936 49.6631L75.7646 54.9918Z" fill="#98A678"/>
<path d="M87.193 49.6631L81.0928 66.4207L92.5217 61.092L87.193 49.6631Z" fill="#68744D"/>
<path d="M71.16 29H67.278C68.1819 29.0064 69.0466 29.3699 69.6835 30.0113C70.3204 30.6527 70.6778 31.52 70.6778 32.4239V75.825C70.6778 76.733 70.317 77.6039 69.6749 78.246C69.0328 78.8881 68.162 79.2488 67.2539 79.2488H71.16C72.0681 79.2488 72.9389 78.8881 73.581 78.246C74.2231 77.6039 74.5839 76.733 74.5839 75.825V32.4239C74.5839 31.9742 74.4953 31.529 74.3232 31.1136C74.1512 30.6982 73.899 30.3208 73.581 30.0028C73.2631 29.6849 72.8857 29.4327 72.4703 29.2606C72.0549 29.0886 71.6096 29 71.16 29V29Z" fill="#6395B4"/>
<path d="M67.2527 29H46.5166C44.6257 29 43.0928 30.5329 43.0928 32.4239V75.7768C43.0928 77.6677 44.6257 79.2006 46.5166 79.2006H67.2527C69.1437 79.2006 70.6766 77.6677 70.6766 75.7768V32.4239C70.6766 30.5329 69.1437 29 67.2527 29Z" fill="#B1CAD9"/>
<path d="M58.1642 45.2761C55.5119 47.0363 45.9396 53.9563 50.9307 59.7432C51.5264 60.5175 52.3834 61.0488 53.3419 61.2381C54.2295 61.2713 55.1146 61.1239 55.9436 60.8047C56.7725 60.4856 57.528 60.0014 58.1642 59.3815L58.5982 58.9716C58.5533 60.5486 58.004 62.0698 57.031 63.3117H58.8152V44.8662L58.1642 45.2761Z" fill="#98A678"/>
<path d="M58.8369 44.8662V63.3599H60.6212C59.6482 62.118 59.0989 60.5969 59.0539 59.0198C60.171 60.1272 61.5732 60.9034 63.1047 61.2622C63.805 61.384 64.5254 61.3087 65.1853 61.0447C65.8453 60.7807 66.4189 60.3384 66.842 59.7673C72.46 53.1124 58.8369 44.8662 58.8369 44.8662Z" fill="#68744D"/>
<path d="M36.5114 30.2539L32.8223 31.58C33.245 31.4263 33.6938 31.3574 34.1432 31.3772C34.5925 31.3971 35.0335 31.5052 35.4411 31.6956C35.8486 31.8859 36.2146 32.1547 36.5182 32.4865C36.8219 32.8183 37.0571 33.2067 37.2106 33.6295L52.1117 74.3783C52.2653 74.801 52.3342 75.2499 52.3144 75.6992C52.2946 76.1486 52.1864 76.5896 51.9961 76.9971C51.8058 77.4046 51.537 77.7707 51.2052 78.0743C50.8733 78.3779 50.4849 78.6132 50.0622 78.7667L53.703 77.4405C54.1258 77.287 54.5142 77.0518 54.846 76.7481C55.1779 76.4445 55.4466 76.0785 55.637 75.671C55.8273 75.2634 55.9355 74.8224 55.9553 74.3731C55.9751 73.9237 55.9062 73.4749 55.7525 73.0522L40.8997 32.2792C40.585 31.4298 39.9464 30.7397 39.1239 30.3601C38.3014 29.9804 37.362 29.9423 36.5114 30.2539Z" fill="#6395B4"/>
<path d="M32.867 31.563L13.3814 38.6551C11.6045 39.3019 10.6884 41.2666 11.3351 43.0436L26.1627 83.7819C26.8094 85.5589 28.7742 86.475 30.5511 85.8283L50.0366 78.7361C51.8135 78.0894 52.7297 76.1246 52.083 74.3477L37.2554 33.6093C36.6087 31.8324 34.6439 30.9162 32.867 31.563Z" fill="#B1CAD9"/>
<path d="M39.0909 49.9779C38.4885 49.6092 37.7959 49.4141 37.0896 49.4141C36.3833 49.4141 35.6907 49.6092 35.0883 49.9779C33.7025 50.9095 32.6077 52.2132 31.9297 53.7393V53.7393L36.752 66.8561C36.752 66.8561 46.6861 54.3662 39.0909 49.9779Z" fill="#68744D"/>
<path d="M31.0848 53.2803L30.8919 53.6179L31.0848 53.2803C30.2677 52.891 29.3789 52.675 28.4743 52.646C27.5697 52.6169 26.6688 52.7754 25.8285 53.1115C24.9925 53.6134 24.3671 54.4016 24.0683 55.3298C21.4642 62.5633 32.8209 65.7219 35.9072 66.4453L36.6787 66.6141L31.8564 53.4973C31.6025 53.4136 31.3451 53.3412 31.0848 53.2803V53.2803Z" fill="#98A678"/>
</svg>
