<svg width="115" height="115" viewBox="0 0 115 115" fill="none" xmlns="http://www.w3.org/2000/svg">
<path d="M29.3444 50.3578C29.3444 49.562 28.6994 48.917 27.9037 48.917C27.1079 48.917 26.4629 49.562 26.4629 50.3578V62.9973C26.4629 63.793 27.1079 64.438 27.9037 64.438C28.6994 64.438 29.3444 63.793 29.3444 62.9973V50.3578Z" fill="#B1CAD9"/>
<path d="M15.2852 77.0127V79.3922C15.2909 81.932 16.3024 84.3662 18.0984 86.1622C19.8944 87.9582 22.3286 88.9697 24.8685 88.9755H57.0675V77.0127H15.2852Z" fill="#B1CAD9"/>
<path d="M57.0674 88.9755H89.2883C91.8282 88.9697 94.2624 87.9582 96.0584 86.1622C97.8543 84.3662 98.8658 81.932 98.8716 79.3922V77.0127H57.0674V88.9755Z" fill="#6395B4"/>
<path d="M24.8685 27C22.3286 27.0058 19.8944 28.0173 18.0984 29.8133C16.3024 31.6092 15.2909 34.0434 15.2852 36.5833V48.8299C15.2852 56.0556 22.3799 56.0774 26.5712 56.0774L35.3032 56.2957C36.8945 56.3995 38.4784 56.0027 39.8329 55.161C41.1874 54.3194 42.2446 53.075 42.8563 51.6023C43.4423 50.2538 44.3753 49.0847 45.5602 48.2142C46.7452 47.3437 48.1397 46.8029 49.6017 46.6469H57.0894V27H24.8685Z" fill="#21506E"/>
<path d="M89.2883 27H57.0674V46.6469H62.0446C64.1926 46.6469 66.2525 47.5002 67.7714 49.019C69.2902 50.5378 70.1435 52.5978 70.1435 54.7458V60.4434C70.1262 62.58 69.2653 64.6232 67.7483 66.1279C66.2314 67.6326 64.1813 68.4768 62.0446 68.4768H57.0674V76.9249H98.8716V36.5833C98.8658 34.0434 97.8543 31.6092 96.0584 29.8133C94.2624 28.0173 91.8282 27.0058 89.2883 27V27Z" fill="#386A89"/>
<path d="M57.0675 68.5645H53.7712H49.6017H15.2852V77.0126H57.0675V68.5645Z" fill="#21506E"/>
<path d="M74.9893 58.6964V67.4283C74.9893 67.7695 75.0565 68.1073 75.187 68.4225C75.3176 68.7376 75.5089 69.024 75.7501 69.2652C75.9913 69.5065 76.2777 69.6978 76.5929 69.8284C76.9081 69.9589 77.2459 70.0261 77.587 70.0261H84.136V56.0986H77.587C77.2459 56.0986 76.9081 56.1658 76.5929 56.2964C76.2777 56.4269 75.9913 56.6183 75.7501 56.8595C75.5089 57.1007 75.3176 57.3871 75.187 57.7023C75.0565 58.0174 74.9893 58.3552 74.9893 58.6964V58.6964Z" fill="#B1CAD9"/>
<path d="M90.8156 70.0261C91.1567 70.0261 91.4945 69.9589 91.8097 69.8284C92.1249 69.6978 92.4112 69.5065 92.6525 69.2652C92.8937 69.024 93.085 68.7376 93.2156 68.4225C93.3461 68.1073 93.4133 67.7695 93.4133 67.4283V58.6964C93.4133 58.0074 93.1396 57.3467 92.6525 56.8595C92.1653 56.3723 91.5045 56.0986 90.8156 56.0986H84.2666V70.0261H90.8156Z" fill="#6395B4"/>
<path d="M93.4133 49.4196V40.6876C93.4133 39.9986 93.1396 39.3379 92.6525 38.8507C92.1653 38.3635 91.5045 38.0898 90.8156 38.0898H84.2666V52.0173H90.8156C91.1567 52.0173 91.4945 51.9501 91.8097 51.8196C92.1249 51.689 92.4112 51.4977 92.6525 51.2564C92.8937 51.0152 93.085 50.7288 93.2156 50.4137C93.3461 50.0985 93.4133 49.7607 93.4133 49.4196Z" fill="#6395B4"/>
<path d="M77.587 38.0898C76.898 38.0898 76.2373 38.3635 75.7501 38.8507C75.2629 39.3379 74.9893 39.9986 74.9893 40.6876V49.4196C74.9893 50.1085 75.2629 50.7693 75.7501 51.2564C76.2373 51.7436 76.898 52.0173 77.587 52.0173H84.136V38.0898H77.587Z" fill="#B1CAD9"/>
</svg>
