<svg width="116" height="116" viewBox="0 0 116 116" fill="none" xmlns="http://www.w3.org/2000/svg">
<path d="M41.2148 54.2758C34.7205 51.0143 27.5686 49.2748 20.3018 49.1895H19.8652C19.8652 49.1895 19.3194 66.828 29.8414 77.3718C36.5432 84.0518 46.1702 86.2566 52.2171 87.0206C48.1567 81.7596 41.062 70.7355 41.062 57.6813C41.062 56.4588 41.1275 55.3673 41.2148 54.2758Z" fill="#98A678"/>
<path d="M44.7292 40.9809C42.2554 39.1664 39.617 37.5877 36.8486 36.2656C35.6406 39.7311 34.8134 43.3178 34.3818 46.9623C36.9386 47.7219 39.4225 48.7082 41.804 49.9093C42.4745 46.8419 43.4546 43.8504 44.7292 40.9809V40.9809Z" fill="#98A678"/>
<path d="M81.6872 46.9623C81.2556 43.3178 80.4285 39.7311 79.2204 36.2656C76.453 37.5896 73.8148 39.1682 71.3398 40.9809C72.5569 43.7923 73.4929 46.7172 74.1341 49.7128C76.5641 48.5711 79.092 47.6506 81.6872 46.9623V46.9623Z" fill="#98A678"/>
<path d="M95.745 49.167C88.4763 49.2576 81.324 51.0047 74.832 54.2752C74.832 55.3885 75.0066 56.4582 75.0066 57.7025C75.0066 70.8004 67.9119 81.7154 63.8516 87.0418C69.9421 86.3215 79.5036 84.1166 86.2054 77.393C96.7492 66.8492 96.1816 49.2107 96.1816 49.2107L95.745 49.167Z" fill="#98A678"/>
<path d="M58.0237 27.9482C58.0237 27.9482 45.2969 41.1772 45.2969 57.6369C45.2969 72.9178 56.3646 85.5136 57.8491 87.1291H58.111C59.0497 86.1249 70.7505 73.2671 70.7505 57.5277C70.7505 41.1772 58.0237 27.9482 58.0237 27.9482Z" fill="#98A678"/>
<path d="M96.3778 44.9322H95.7884C92.4673 44.9828 89.1575 45.3335 85.8995 45.98C85.4112 42.1071 84.4961 38.3001 83.1707 34.6285C82.9484 34.1067 82.6236 33.6349 82.2155 33.241C81.8073 32.8471 81.3243 32.5393 80.7949 32.3357C80.2655 32.1321 79.7007 32.0369 79.1338 32.0557C78.5669 32.0746 78.0096 32.2071 77.495 32.4455C74.6875 33.7635 72.0059 35.3345 69.4834 37.1389C67.2205 32.7575 64.4031 28.6855 61.1007 25.0233C60.7044 24.5976 60.2246 24.258 59.6913 24.0258C59.158 23.7937 58.5826 23.6738 58.0009 23.6738C57.4192 23.6738 56.8438 23.7937 56.3105 24.0258C55.7771 24.258 55.2974 24.5976 54.901 25.0233C51.5941 28.6707 48.7695 32.7279 46.4965 37.0952C43.9894 35.3152 41.3305 33.7592 38.5505 32.4455C38.0369 32.2106 37.4816 32.0808 36.9171 32.0637C36.3527 32.0467 35.7905 32.1426 35.2637 32.346C34.7369 32.5495 34.2561 32.8562 33.8495 33.2481C33.443 33.6401 33.119 34.1094 32.8965 34.6285C31.5958 38.2673 30.6955 42.037 30.2114 45.8709C26.9535 45.2237 23.6437 44.873 20.3225 44.823H19.7331C18.6432 44.8824 17.6151 45.3479 16.8514 46.1278C16.0877 46.9077 15.6438 47.9453 15.6073 49.0362C15.6073 49.8221 15.127 68.6831 26.8278 80.3402C37.5245 91.0369 54.2898 91.5826 57.5425 91.5826H58.4593C61.712 91.5826 78.4991 91.0369 89.174 80.3402C100.875 68.6394 100.438 49.7784 100.395 49.0362C100.334 47.9821 99.8944 46.9854 99.1558 46.2309C98.4173 45.4763 97.4304 45.0149 96.3778 44.9322V44.9322ZM79.2632 36.2002C80.4712 39.6657 81.2984 43.2523 81.73 46.8969C79.1111 47.6671 76.5682 48.6755 74.1332 49.9094C73.492 46.9137 72.556 43.9888 71.3389 41.1774C73.806 39.2967 76.4445 37.6522 79.2195 36.2657L79.2632 36.2002ZM36.8914 36.2002C39.6598 37.5223 42.2982 39.1009 44.772 40.9155C43.4782 43.8044 42.4834 46.818 41.8031 49.9094C39.3766 48.7309 36.8486 47.7738 34.25 47.0497C34.7177 43.3706 35.5889 39.7542 36.8477 36.2657L36.8914 36.2002ZM29.8403 77.3495C19.2965 66.8057 19.8641 49.1672 19.8641 49.1672H20.3225C27.5836 49.2626 34.7278 51.0095 41.2137 54.2754C41.2137 55.3887 41.0609 56.4583 41.0609 57.6808C41.0609 70.7788 48.1556 81.6937 52.216 87.0202C46.1691 86.2561 36.5421 84.0513 29.8403 77.3495ZM58.2192 87.2385H57.9572C56.4728 85.6012 45.405 73.0272 45.405 57.7463C45.405 41.3521 58.1319 28.0577 58.1319 28.0577C58.1319 28.0577 70.7495 41.1774 70.7495 57.6372C70.7495 73.3765 59.0705 86.2343 58.11 87.2385H58.2192ZM86.3142 77.3495C79.5033 84.0513 69.92 86.2561 63.8513 87.0202C67.999 81.7374 74.9845 70.7133 74.9845 57.6372C74.9845 56.4802 74.9845 55.345 74.8099 54.2099C81.3055 50.9545 88.4576 49.2224 95.7229 49.1453H96.1813C96.1813 49.1453 96.7489 66.8057 86.2051 77.3495H86.3142Z" fill="#386A89"/>
</svg>
