<svg width="115" height="115" viewBox="0 0 115 115" fill="none" xmlns="http://www.w3.org/2000/svg">
<path d="M57.085 45.3227V40.8039C57.0825 38.6284 57.7407 36.5034 58.9726 34.7103C60.2044 32.9172 61.9517 31.5404 63.9832 30.7621L92.0783 20L97.1646 26.9637L57.085 45.3227Z" fill="#21506E"/>
<path d="M57.2808 45.3227V40.8039C57.2833 38.6284 56.6251 36.5034 55.3932 34.7103C54.1614 32.9172 52.4141 31.5404 50.3826 30.7621L22.2875 20L17.2012 26.9637L57.2808 45.3227Z" fill="#21506E"/>
<path d="M51.0391 34.8223V91.7109C51.8415 92.5308 52.8041 93.1768 53.8669 93.6087C54.9297 94.0406 56.07 94.2492 57.2169 94.2214V36.525C55.0312 36.6092 52.873 36.0144 51.0391 34.8223V34.8223Z" fill="#98A678"/>
<path d="M57.2168 36.525V94.2214C58.3638 94.2223 59.4998 93.9972 60.5598 93.5589C61.6198 93.1207 62.5831 92.4779 63.3947 91.6673V34.8223C61.6089 36.1181 59.4142 36.723 57.2168 36.525V36.525Z" fill="#98A678"/>
<path d="M51.0391 36.4385V93.3271C51.8377 94.1549 52.7986 94.809 53.8616 95.2485C54.9246 95.688 56.0669 95.9034 57.2169 95.8812V38.163C55.0289 38.2408 52.8705 37.6383 51.0391 36.4385V36.4385Z" fill="#525B3F"/>
<path d="M57.2168 38.163V95.8812C58.3638 95.8821 59.4998 95.6571 60.5598 95.2188C61.6198 94.7806 62.5831 94.1378 63.3947 93.3272V36.4385C61.6119 37.742 59.4169 38.3547 57.2168 38.163Z" fill="#525B3F"/>
<path d="M33.6617 29.6485L16.2852 22.8594V80.2501L33.6617 86.5153L51.0383 92.8023V36.4376L33.6617 29.6485Z" fill="#386A89"/>
<path d="M80.7929 29.6485L63.3945 36.4376V92.8023L80.7929 86.5153L98.1695 80.2501V22.8594L80.7929 29.6485Z" fill="#386A89"/>
<path d="M16.2852 22.8598L17.7259 22.0303L51.8242 35.1719L51.0383 36.438L16.2852 22.8598Z" fill="#383F51"/>
<path d="M98.1699 22.8598L96.7073 22.0303L62.6309 35.1719L63.4167 36.438L98.1699 22.8598Z" fill="#383F51"/>
<path d="M51.8249 35.1719V94.0689L51.0391 92.8028V36.438L51.8249 35.1719Z" fill="#98A678"/>
<path d="M62.6309 35.1719V94.0689L63.4167 92.8028V36.438L62.6309 35.1719Z" fill="#98A678"/>
</svg>
