<svg width="115" height="115" viewBox="0 0 115 115" fill="none" xmlns="http://www.w3.org/2000/svg">
<path d="M83.4775 50.3945H78.1729V92.4825C78.1729 93.8923 78.7329 95.2444 79.7297 96.2412C80.7266 97.2381 82.0786 97.7981 83.4884 97.7981C84.8982 97.7981 86.2502 97.2381 87.2471 96.2412C88.244 95.2444 88.804 93.8923 88.804 92.4825V50.3945H83.4775Z" fill="#6395B4"/>
<path d="M83.4775 37.4268C82.0724 37.4325 80.7265 37.9932 79.7329 38.9868C78.7393 39.9804 78.1786 41.3263 78.1729 42.7314V50.3937H88.804V42.7314C88.7982 41.3225 88.2345 39.9733 87.2362 38.9791C86.2379 37.9849 84.8864 37.4267 83.4775 37.4268V37.4268Z" fill="#B1CAD9"/>
<path d="M82.2317 17.2782C80.1579 19.9415 76.2285 25.6391 76.2285 30.6818C76.2285 37.5364 79.4812 40.5925 83.476 40.5925V16.667C83.2357 16.667 82.9986 16.722 82.7829 16.828C82.5671 16.934 82.3786 17.088 82.2317 17.2782Z" fill="#386A89"/>
<path d="M84.7228 17.2782C84.5759 17.088 84.3874 16.934 84.1717 16.828C83.956 16.722 83.7188 16.667 83.4785 16.667V40.6799C87.4734 40.6799 90.726 37.6237 90.726 30.7691C90.726 25.6391 86.7967 19.9415 84.7228 17.2782Z" fill="#21506E"/>
<path d="M88.804 87.1123H78.1729V88.9897H88.804V87.1123Z" fill="#386A89"/>
<path d="M53.5699 64.8457L48.2871 83.0737L50.4701 90.8888L58.1979 78.9915L54.0502 64.933L53.5699 64.8457Z" fill="#6395B4"/>
<path d="M41.0397 19.5264L33.9887 31.9476C33.931 32.0859 33.9014 32.2343 33.9014 32.3842C33.9014 32.534 33.931 32.6824 33.9887 32.8208L42.808 63.8847C44.467 58.2526 46.3881 51.7473 48.2218 45.4166C48.2818 45.2099 48.2818 44.9903 48.2218 44.7835C44.4452 31.8166 41.0397 19.5264 41.0397 19.5264Z" fill="#386A89"/>
<path d="M54.1369 64.8463L53.8531 63.8857L53.5693 64.8463H54.1369Z" fill="#386A89"/>
<path d="M42.5471 64.8457L38.3994 78.8823L46.1054 90.8888L48.2884 83.161L43.0492 64.933L42.5471 64.8457Z" fill="#B1CAD9"/>
<path d="M62.7812 32.7771C62.8388 32.6388 62.8685 32.4904 62.8685 32.3405C62.8685 32.1906 62.8388 32.0423 62.7812 31.9039L55.621 19.5264C55.621 19.5264 52.1937 31.7948 48.4171 44.7617C48.3571 44.9685 48.3571 45.188 48.4171 45.3948C50.2726 51.7254 52.1937 58.2526 53.8309 63.8629L62.7812 32.7771Z" fill="#21506E"/>
<path d="M42.8092 63.8857L42.5254 64.8463H43.0711L42.8092 63.8857Z" fill="#386A89"/>
<path d="M43.0918 64.8457L48.331 83.0737L53.5701 64.8457H43.0918Z" fill="#6395B4"/>
<path d="M53.5714 64.8456L53.8552 63.8851C52.1743 58.1438 50.2096 51.5949 48.2886 45.0459C46.4112 51.4857 44.4684 58.1438 42.7656 63.8414L43.0494 64.8019L53.5714 64.8456Z" fill="#386A89"/>
<path d="M61.3852 75.4551C59.1228 75.4551 56.9112 76.126 55.0301 77.3829C53.149 78.6398 51.6828 80.4263 50.817 82.5165C49.9512 84.6067 49.7247 86.9066 50.1661 89.1255C50.6075 91.3445 51.6969 93.3827 53.2967 94.9824C54.8964 96.5822 56.9346 97.6716 59.1535 98.113C61.3725 98.5544 63.6724 98.3278 65.7626 97.4621C67.8528 96.5963 69.6393 95.1301 70.8962 93.249C72.1531 91.3679 72.824 89.1563 72.824 86.8939C72.824 85.3918 72.5281 83.9043 71.9533 82.5165C71.3784 81.1287 70.5358 79.8676 69.4736 78.8054C68.4115 77.7432 67.1504 76.9007 65.7626 76.3258C64.3748 75.751 62.8873 75.4551 61.3852 75.4551ZM61.3852 93.5739C60.0587 93.5999 58.7546 93.2303 57.639 92.5123C56.5234 91.7943 55.6468 90.7604 55.1211 89.5423C54.5954 88.3242 54.4443 86.9772 54.687 85.6729C54.9298 84.3686 55.5554 83.1661 56.4842 82.2188C57.413 81.2714 58.6028 80.6221 59.9021 80.3536C61.2013 80.085 62.5511 80.2094 63.7793 80.7109C65.0076 81.2124 66.0586 82.0683 66.7986 83.1695C67.5386 84.2707 67.9339 85.5672 67.9341 86.8939C67.9345 88.6431 67.2487 90.3226 66.0241 91.5717C64.7996 92.8207 63.134 93.5396 61.3852 93.5739Z" fill="#6395B4"/>
<path d="M35.7133 75.4551C33.4509 75.4551 31.2393 76.126 29.3582 77.3829C27.4771 78.6398 26.0109 80.4263 25.1452 82.5165C24.2794 84.6067 24.0528 86.9066 24.4942 89.1255C24.9356 91.3445 26.025 93.3827 27.6248 94.9824C29.2245 96.5822 31.2627 97.6716 33.4817 98.113C35.7006 98.5544 38.0006 98.3278 40.0907 97.4621C42.1809 96.5963 43.9674 95.1301 45.2243 93.249C46.4813 91.3679 47.1521 89.1563 47.1521 86.8939C47.1521 83.8602 45.947 80.9506 43.8018 78.8054C41.6566 76.6602 38.7471 75.4551 35.7133 75.4551V75.4551ZM35.7133 93.5739C34.3921 93.5739 33.1006 93.1821 32.0021 92.4481C30.9036 91.7141 30.0474 90.6708 29.5418 89.4502C29.0362 88.2296 28.9039 86.8865 29.1617 85.5907C29.4194 84.295 30.0556 83.1047 30.9898 82.1705C31.9241 81.2363 33.1143 80.6001 34.4101 80.3423C35.7059 80.0846 37.049 80.2169 38.2696 80.7225C39.4902 81.2281 40.5334 82.0842 41.2674 83.1828C42.0015 84.2813 42.3932 85.5728 42.3932 86.8939C42.3932 88.6656 41.6894 90.3646 40.4367 91.6174C39.184 92.8701 37.4849 93.5739 35.7133 93.5739Z" fill="#B1CAD9"/>
<path d="M48.3307 72.9437C50.0909 72.9437 51.5179 71.5167 51.5179 69.7565C51.5179 67.9963 50.0909 66.5693 48.3307 66.5693C46.5705 66.5693 45.1436 67.9963 45.1436 69.7565C45.1436 71.5167 46.5705 72.9437 48.3307 72.9437Z" fill="#21506E"/>
</svg>
