<svg width="115" height="115" viewBox="0 0 115 115" fill="none" xmlns="http://www.w3.org/2000/svg">
<path d="M72.7808 24.8028C72.0444 25.1471 71.4433 25.7263 71.0718 26.4494C70.7004 27.1725 70.5797 27.9985 70.7288 28.7977L73.0646 43.5765C73.1752 44.1166 73.1752 44.6736 73.0646 45.2137L71.2527 52.1556L70.7507 51.9155L70.2704 51.7409H70.1176C69.5256 51.5719 68.906 51.5223 68.2946 51.5947C67.6833 51.6671 67.0924 51.8602 66.5563 52.1628C66.0202 52.4654 65.5495 52.8714 65.1715 53.3574C64.7936 53.8433 64.5158 54.3994 64.3545 54.9935L60.6434 69.7287C60.3731 70.8137 60.3689 71.948 60.6311 73.035C60.8934 74.122 61.4143 75.1296 62.1497 75.972L73.6104 89.07C73.905 89.405 74.3194 89.611 74.7644 89.6437C75.2094 89.6764 75.6494 89.5331 75.9898 89.2446C75.9898 89.2446 85.5513 79.2683 85.8569 78.9846C86.186 78.6945 86.3869 78.2859 86.4155 77.8482C86.4441 77.4105 86.2982 76.9792 86.0097 76.6488L79.2643 69.0301L83.6303 55.2118C84.1342 53.7356 84.2173 52.1483 83.8704 50.6275L77.9763 27.2259C77.8398 26.6951 77.5873 26.2011 77.2371 25.7794C76.8869 25.3578 76.4476 25.0189 75.9509 24.7873C75.4541 24.5556 74.9122 24.4368 74.3641 24.4395C73.816 24.4422 73.2753 24.5663 72.7808 24.8028V24.8028Z" fill="#B1CAD9"/>
<path d="M76.1866 89.7467C76.1345 89.9396 76.0315 90.115 75.8883 90.2544C75.7452 90.3938 75.5671 90.4921 75.3729 90.539C75.1786 90.5859 74.9753 90.5796 74.7843 90.5209C74.5933 90.4621 74.4217 90.3531 74.2874 90.2051L62.019 76.1249C61.3024 75.3026 60.7953 74.3194 60.5406 73.259C60.2859 72.1985 60.2913 71.0922 60.5564 70.0343L64.5294 54.2513C64.5988 53.6287 64.8014 53.0284 65.1234 52.4911C65.4453 51.9537 65.8792 51.4919 66.3954 51.1371C66.9117 50.7823 67.4982 50.5427 68.1153 50.4346C68.7323 50.3265 69.3654 50.3525 69.9715 50.5108C70.5776 50.669 71.1425 50.9558 71.628 51.3518C72.1134 51.7477 72.508 52.2434 72.7848 52.8054C73.0617 53.3673 73.2144 53.9822 73.2326 54.6084C73.2508 55.2345 73.134 55.8573 72.8902 56.4343L70.7073 64.6423C70.6714 64.7857 70.6077 64.9205 70.5197 65.0393C70.4318 65.158 70.3213 65.2582 70.1946 65.3342C70.0679 65.4102 69.9275 65.4605 69.7814 65.4823C69.6352 65.504 69.4862 65.4968 69.3429 65.461C69.1996 65.4251 69.0647 65.3614 68.946 65.2734C68.8273 65.1855 68.727 65.075 68.651 64.9483C68.575 64.8216 68.5247 64.6812 68.5029 64.5351C68.4812 64.3889 68.4884 64.2399 68.5243 64.0966L70.7073 55.8886C70.7813 55.6221 70.8002 55.3433 70.7627 55.0692C70.7251 54.7952 70.632 54.5317 70.489 54.295C70.2586 53.9621 69.9401 53.6998 69.5692 53.5374C69.1983 53.3751 68.7895 53.3191 68.3886 53.3758C67.9877 53.4324 67.6105 53.5994 67.2991 53.8581C66.9876 54.1168 66.7543 54.457 66.6251 54.8407L62.652 70.6237C62.4966 71.3284 62.5105 72.0599 62.6927 72.7581C62.8748 73.4564 63.22 74.1015 63.6999 74.6404L75.9683 88.7207C76.0862 88.8606 76.1677 89.0274 76.2058 89.2064C76.2439 89.3853 76.2373 89.5709 76.1866 89.7467Z" fill="#6395B4"/>
<path d="M42.2193 24.8024C42.9516 25.1502 43.5481 25.7309 43.9155 26.4537C44.2828 27.1765 44.4002 28.0006 44.2494 28.7973L41.9136 43.5106C41.8031 44.0507 41.8031 44.6077 41.9136 45.1478V45.1478L43.8565 52.0897L44.3586 51.8496L44.8388 51.675H44.9917C46.1782 51.3757 47.4349 51.5562 48.4892 52.1773C49.5435 52.7985 50.3105 53.8102 50.6238 54.9931L54.3348 69.7283C54.6052 70.8133 54.6094 71.9476 54.3472 73.0346C54.0849 74.1216 53.5639 75.1292 52.8286 75.9716L41.3679 89.0696C41.0733 89.4046 40.6589 89.6106 40.2139 89.6433C39.7689 89.676 39.3288 89.5327 38.9884 89.2442C38.9884 89.2442 29.4488 79.3116 29.1432 79.006C28.8141 78.7159 28.6132 78.3074 28.5846 77.8696C28.556 77.4319 28.7018 77.0006 28.9904 76.6702L35.7358 69.0516L31.3698 55.2332C30.8545 53.7524 30.7638 52.1569 31.1079 50.6271L37.0019 27.2255C37.1378 26.6918 37.3907 26.1949 37.7424 25.7711C38.094 25.3472 38.5357 25.007 39.0352 24.775C39.5347 24.543 40.0796 24.4251 40.6303 24.4298C41.181 24.4346 41.7238 24.5618 42.2193 24.8024V24.8024Z" fill="#B1CAD9"/>
<path d="M38.7917 89.7467C38.8438 89.9396 38.9468 90.115 39.0899 90.2544C39.2331 90.3938 39.4112 90.4921 39.6054 90.539C39.7996 90.5859 40.0029 90.5796 40.1939 90.5209C40.3849 90.4621 40.5566 90.3531 40.6909 90.2051L52.9593 76.1249C53.6758 75.3026 54.183 74.3194 54.4377 73.259C54.6924 72.1985 54.6869 71.0922 54.4219 70.0343L50.4052 54.2513C50.3358 53.6287 50.1332 53.0284 49.8113 52.4911C49.4893 51.9537 49.0554 51.4919 48.5392 51.1371C48.023 50.7823 47.4364 50.5427 46.8194 50.4346C46.2023 50.3265 45.5693 50.3525 44.9632 50.5108C44.3571 50.669 43.7921 50.9558 43.3067 51.3518C42.8212 51.7477 42.4267 52.2434 42.1498 52.8054C41.8729 53.3673 41.7202 53.9822 41.702 54.6084C41.6838 55.2345 41.8006 55.8573 42.0444 56.4343L44.2274 64.6423C44.2997 64.9318 44.4841 65.1807 44.74 65.3342C44.9959 65.4877 45.3022 65.5333 45.5917 65.461C45.8812 65.3886 46.1301 65.2042 46.2836 64.9483C46.4371 64.6924 46.4827 64.3861 46.4104 64.0966L44.2274 55.8886C44.1533 55.6221 44.1344 55.3433 44.172 55.0692C44.2095 54.7952 44.3026 54.5317 44.4457 54.295C44.6782 53.9842 44.9894 53.7411 45.3472 53.5906C45.705 53.4402 46.0964 53.3878 46.4811 53.439C46.8659 53.4901 47.23 53.6429 47.5361 53.8816C47.8421 54.1204 48.079 54.4363 48.2222 54.7971L52.1953 70.5801C52.3755 71.2811 52.3863 72.0149 52.2269 72.7209C52.0675 73.4269 51.7424 74.0849 51.2784 74.6404L39.0319 88.7425C38.9137 88.8781 38.8302 89.0402 38.7883 89.2151C38.7465 89.39 38.7477 89.5724 38.7917 89.7467Z" fill="#6395B4"/>
</svg>
