<svg width="85" height="85" viewBox="0 0 85 85" fill="none" xmlns="http://www.w3.org/2000/svg">
<circle cx="42.5" cy="42.5" r="42.5" fill="#383F51"/>
<path d="M30.3027 16.6269V44.9599C30.3027 48.2881 30.9266 51.0547 32.1746 53.2597C34.025 56.5879 37.145 58.252 41.5344 58.252C46.7973 58.252 50.3753 56.4526 52.2684 52.8537C53.2878 50.8982 53.7976 48.2668 53.7976 44.9592V16.6269H60.1009V42.3695C60.1009 48.0068 59.3416 52.3442 57.8229 55.3815C55.0365 60.9147 49.774 63.6813 42.0353 63.6813C34.2966 63.6813 29.0442 60.9147 26.278 55.3815C24.7593 52.3442 24 48.0068 24 42.3695V16.6269H30.3027Z" fill="white"/>
<path d="M50.917 67.4136H32.6074C30.9201 67.4136 29.5522 68.7814 29.5522 70.4688V70.9568C29.5522 72.6441 30.9201 74.0119 32.6074 74.0119H50.917C52.6043 74.0119 53.9722 72.6441 53.9722 70.9568V70.4688C53.9722 68.7814 52.6043 67.4136 50.917 67.4136Z" fill="#EC6571"/>
</svg>
