<svg width="40" height="68" viewBox="0 0 40 68" fill="none" xmlns="http://www.w3.org/2000/svg">
<path d="M6.81084 5V35.6174C6.81084 39.214 7.48514 42.2036 8.83373 44.5865C10.8334 48.183 14.2048 49.9813 18.9482 49.9813C24.6355 49.9813 28.502 48.0368 30.5477 44.1477C31.6493 42.0346 32.2001 39.1909 32.2001 35.6167V5H39.0117V32.8182C39.0117 38.9101 38.1911 43.5971 36.55 46.8793C33.539 52.8587 27.8521 55.8484 19.4895 55.8484C11.1268 55.8484 5.45086 52.8587 2.46164 46.8793C0.820547 43.5971 0 38.9101 0 32.8182V5H6.81084Z" fill="white"/>
<path d="M29.0874 59.8816H9.30149C7.47813 59.8816 6 61.3597 6 63.1831V63.7104C6 65.5338 7.47813 67.0119 9.30149 67.0119H29.0874C30.9108 67.0119 32.3889 65.5338 32.3889 63.7104V63.1831C32.3889 61.3597 30.9108 59.8816 29.0874 59.8816Z" fill="#EC6571"/>
</svg>
