<svg width="485" height="69" viewBox="0 0 485 69" fill="none" xmlns="http://www.w3.org/2000/svg">
<path d="M6.81084 6.45593V37.0733C6.81084 40.6699 7.48514 43.6596 8.83373 46.0424C10.8334 49.639 14.2048 51.4372 18.9482 51.4372C24.6355 51.4372 28.502 49.4927 30.5477 45.6036C31.6493 43.4905 32.2001 40.6469 32.2001 37.0726V6.45593H39.0117V34.2741C39.0117 40.366 38.1911 45.053 36.55 48.3352C33.539 54.3146 27.8521 57.3043 19.4895 57.3043C11.1268 57.3043 5.45086 54.3146 2.46164 48.3352C0.820547 45.053 0 40.366 0 34.2741V6.45593H6.81084Z" fill="white"/>
<path d="M49.1667 28.2853C49.1737 24.9515 49.7656 21.6448 50.9155 18.5155C52.0502 15.35 53.7647 12.4236 55.9713 9.88614C58.2298 7.31077 60.9835 5.2163 64.0684 3.7275C67.4877 2.10605 71.2363 1.29927 75.0199 1.37049C79.4139 1.2584 83.7499 2.39185 87.5269 4.63989C90.9001 6.65625 93.6088 9.61642 95.3185 13.1548L87.2612 18.7052C86.7184 17.2922 85.9193 15.9915 84.9042 14.8687C83.9983 13.8741 82.9318 13.0386 81.7491 12.3973C80.6348 11.799 79.4457 11.3517 78.2133 11.0671C77.0669 10.7965 75.8937 10.6561 74.7158 10.6486C72.4339 10.5984 70.1789 11.149 68.177 12.2452C66.3406 13.2761 64.7469 14.6891 63.5034 16.3887C62.2353 18.1357 61.2815 20.0904 60.6846 22.1651C60.0612 24.2498 59.7409 26.4135 59.7339 28.5895C59.7266 30.9277 60.0989 33.2517 60.836 35.4708C61.5202 37.5804 62.5767 39.5504 63.9554 41.2876C65.2769 42.9422 66.919 44.3129 68.7832 45.3173C70.675 46.3352 72.7936 46.8583 74.9418 46.838C76.1472 46.833 77.3473 46.6798 78.5153 46.3818C79.7557 46.068 80.9459 45.5817 82.0512 44.9372C83.2248 44.2515 84.2884 43.393 85.2062 42.3904C86.2104 41.2856 87.0087 40.0099 87.5632 38.6237L96.1549 43.5679C95.3556 45.5776 94.1524 47.4018 92.6197 48.9278C91.0592 50.4844 89.2787 51.8036 87.3351 52.8432C85.3639 53.9057 83.2701 54.723 81.1004 55.2769C78.9891 55.8258 76.8171 56.1068 74.6356 56.1132C71.0544 56.1537 67.5176 55.3185 64.3328 53.6802C61.2658 52.0981 58.5301 49.9434 56.2734 47.3325C54.0079 44.7039 52.2318 41.6905 51.0292 38.4353C49.8015 35.1919 49.1706 31.7533 49.1667 28.2853V28.2853ZM97.0673 55.6571L118.356 1.67392H126.872L148.087 55.6571H136.984L132.044 42.1993H113.11L108.168 55.6571H97.0673ZM122.614 13.0028L114.859 34.8241H130.141L122.614 13.0028ZM153.864 55.6571V1.67392H177.738C180.122 1.65118 182.478 2.18501 184.619 3.23294C186.679 4.23881 188.524 5.63292 190.055 7.3387C191.577 9.03933 192.787 10.9956 193.629 13.1172C194.472 15.181 194.911 17.3879 194.921 19.6176C194.958 22.9814 194.049 26.2879 192.298 29.16C190.653 31.9342 188.161 34.1069 185.189 35.3584L197.886 55.6571H186.028L174.697 37.5613H164.356V55.6571H153.864ZM164.356 28.3614H177.51C178.453 28.3664 179.382 28.1309 180.209 27.6771C181.053 27.2139 181.791 26.5792 182.376 25.8139C183.011 24.9773 183.499 24.0391 183.82 23.0391C184.182 21.9348 184.361 20.7794 184.353 19.6176C184.366 18.4244 184.16 17.2389 183.744 16.1201C183.368 15.1053 182.815 14.1655 182.109 13.3446C181.456 12.5826 180.654 11.9617 179.752 11.5198C178.914 11.1007 177.991 10.8797 177.054 10.8739H164.358L164.356 28.3614ZM242.594 46.4571V55.6571H205.11V1.67392H241.907V10.8746H215.602V23.8761H238.336V32.3918H215.602V46.4578L242.594 46.4571Z" fill="#EC6571"/>
<path d="M29.0874 61.3375H9.30149C7.47813 61.3375 6 62.8157 6 64.639V65.1664C6 66.9897 7.47813 68.4678 9.30149 68.4678H29.0874C30.9108 68.4678 32.3889 66.9897 32.3889 65.1664V64.639C32.3889 62.8157 30.9108 61.3375 29.0874 61.3375Z" fill="#EC6571"/>
<path d="M270.04 27.0349C272.168 27.0349 274.043 26.7816 275.664 26.2749C277.311 25.7429 278.679 25.0083 279.768 24.0709C280.883 23.1083 281.719 21.9683 282.276 20.6509C282.833 19.3336 283.112 17.8769 283.112 16.2809C283.112 13.0383 282.048 10.5936 279.92 8.94694C277.792 7.30027 274.6 6.47694 270.344 6.47694H262.288V27.0349H270.04ZM295.196 55.1169H288.66C287.317 55.1169 286.329 54.5976 285.696 53.5589L271.56 34.1029C271.129 33.4949 270.661 33.0643 270.154 32.8109C269.673 32.5323 268.913 32.3929 267.874 32.3929H262.288V55.1169H254.954V0.66294H270.344C273.789 0.66294 276.766 1.01761 279.274 1.72694C281.782 2.41094 283.847 3.41161 285.468 4.72894C287.115 6.04627 288.331 7.64227 289.116 9.51694C289.901 11.3663 290.294 13.4436 290.294 15.7489C290.294 17.6743 289.99 19.4729 289.382 21.1449C288.774 22.8169 287.887 24.3243 286.722 25.6669C285.582 26.9843 284.176 28.1116 282.504 29.0489C280.857 29.9863 278.983 30.6956 276.88 31.1769C277.817 31.7089 278.628 32.4816 279.312 33.4949L295.196 55.1169ZM336.194 49.1129L336.156 55.1169H302.602V0.66294H336.156V6.66694H309.974V24.7549H331.178V30.5309H309.974V49.1129H336.194ZM377.36 48.9229V55.1169H346.466V0.66294H353.8V48.9229H377.36ZM392.877 55.1169H385.505V0.66294H392.877V55.1169ZM440.398 49.1129L440.36 55.1169H406.806V0.66294H440.36V6.66694H414.178V24.7549H435.382V30.5309H414.178V49.1129H440.398ZM458.041 6.66694V25.7049H480.423V31.7089H458.041V55.1169H450.669V0.66294H484.223V6.66694H458.041Z" fill="white"/>
</svg>
