<svg width="443" height="68" viewBox="0 0 443 68" fill="none" xmlns="http://www.w3.org/2000/svg">
<path d="M6.81084 5.22198V35.8394C6.81084 39.4359 7.48514 42.4256 8.83373 44.8085C10.8334 48.405 14.2048 50.2033 18.9482 50.2033C24.6355 50.2033 28.502 48.2588 30.5477 44.3697C31.6493 42.2566 32.2001 39.4129 32.2001 35.8387V5.22198H39.0117V33.0401C39.0117 39.1321 38.1911 43.8191 36.55 47.1013C33.539 53.0807 27.8521 56.0703 19.4895 56.0703C11.1268 56.0703 5.45086 53.0807 2.46164 47.1013C0.820547 43.8191 0 39.1321 0 33.0401V5.22198H6.81084Z" fill="white"/>
<path d="M49.1667 27.0513C49.1737 23.7175 49.7656 20.4107 50.9155 17.2815C52.0502 14.116 53.7647 11.1896 55.9713 8.65213C58.2298 6.07676 60.9835 3.98229 64.0684 2.49349C67.4877 0.872043 71.2363 0.0652591 75.0199 0.136484C79.4139 0.0243891 83.7499 1.15784 87.5269 3.40588C90.9001 5.42224 93.6088 8.38241 95.3185 11.9208L87.2612 17.4712C86.7184 16.0582 85.9193 14.7575 84.9042 13.6347C83.9983 12.6401 82.9318 11.8046 81.7491 11.1633C80.6348 10.565 79.4457 10.1177 78.2133 9.83308C77.0669 9.56245 75.8937 9.42205 74.7158 9.41455C72.4339 9.3644 70.1789 9.91503 68.177 11.0112C66.3406 12.0421 64.7469 13.4551 63.5034 15.1547C62.2353 16.9017 61.2815 18.8564 60.6846 20.931C60.0612 23.0158 59.7409 25.1795 59.7339 27.3554C59.7266 29.6937 60.0989 32.0177 60.836 34.2367C61.5202 36.3464 62.5767 38.3164 63.9554 40.0536C65.2769 41.7082 66.919 43.0788 68.7832 44.0833C70.675 45.1012 72.7936 45.6243 74.9418 45.604C76.1472 45.599 77.3473 45.4457 78.5153 45.1478C79.7557 44.834 80.9459 44.3477 82.0512 43.7031C83.2248 43.0175 84.2884 42.1589 85.2062 41.1564C86.2104 40.0516 87.0087 38.7759 87.5632 37.3897L96.1549 42.3339C95.3556 44.3436 94.1524 46.1678 92.6197 47.6938C91.0592 49.2504 89.2787 50.5695 87.3351 51.6091C85.3639 52.6716 83.2701 53.489 81.1004 54.0429C78.9891 54.5918 76.8171 54.8728 74.6356 54.8792C71.0544 54.9197 67.5176 54.0844 64.3328 52.4462C61.2658 50.8641 58.5301 48.7094 56.2734 46.0985C54.0079 43.4698 52.2318 40.4565 51.0292 37.2013C49.8015 33.9579 49.1706 30.5193 49.1667 27.0513V27.0513ZM97.0673 54.423L118.356 0.439915H126.872L148.087 54.423H136.984L132.044 40.9653H113.11L108.168 54.423H97.0673ZM122.614 11.7688L114.859 33.5901H130.141L122.614 11.7688ZM153.864 54.423V0.439915H177.738C180.122 0.417173 182.478 0.950999 184.619 1.99893C186.679 3.0048 188.524 4.39891 190.055 6.10469C191.577 7.80532 192.787 9.76155 193.629 11.8832C194.472 13.947 194.911 16.1539 194.921 18.3836C194.958 21.7474 194.049 25.0539 192.298 27.926C190.653 30.7002 188.161 32.8729 185.189 34.1244L197.886 54.423H186.028L174.697 36.3273H164.356V54.423H153.864ZM164.356 27.1273H177.51C178.453 27.1324 179.382 26.8969 180.209 26.4431C181.053 25.9799 181.791 25.3452 182.376 24.5799C183.011 23.7433 183.499 22.8051 183.82 21.8051C184.182 20.7008 184.361 19.5454 184.353 18.3836C184.366 17.1904 184.16 16.0049 183.744 14.8861C183.368 13.8713 182.815 12.9315 182.109 12.1106C181.456 11.3486 180.654 10.7277 179.752 10.2858C178.914 9.86668 177.991 9.64569 177.054 9.63986H164.358L164.356 27.1273ZM242.594 45.2231V54.423H205.11V0.439915H241.907V9.64056H215.602V22.6421H238.336V31.1578H215.602V45.2238L242.594 45.2231Z" fill="#EC6571"/>
<path d="M254.959 0.116943H263.685L291.231 44.2961V0.116943H298.248V54.6539H289.97L262.014 10.5118V54.6539H254.959V0.116943ZM310.573 0.116943H350.333V6.79944H317.776V23.3571H347.885V29.6685H317.776V48.1535H350.892V54.6539H310.574L310.573 0.116943ZM400.267 0.116943V6.61389H381.892V54.6539H374.393V6.61389H356.016V0.116943H400.267Z" fill="white"/>
<path d="M29.0874 60.1036H9.30149C7.47813 60.1036 6 61.5817 6 63.4051V63.9324C6 65.7558 7.47813 67.2339 9.30149 67.2339H29.0874C30.9108 67.2339 32.3889 65.7558 32.3889 63.9324V63.4051C32.3889 61.5817 30.9108 60.1036 29.0874 60.1036Z" fill="#EC6571"/>
<path d="M442.28 31.1649H426.776V47.5049H421.266V31.1649H405.838V26.0349H421.266V9.80894H426.776V26.0349H442.28V31.1649Z" fill="white"/>
</svg>
