<svg width="480" height="70" viewBox="0 0 480 70" fill="none" xmlns="http://www.w3.org/2000/svg">
<path d="M6.81084 7.33899V37.9564C6.81084 41.553 7.48514 44.5426 8.83373 46.9255C10.8334 50.522 14.2048 52.3203 18.9482 52.3203C24.6355 52.3203 28.502 50.3758 30.5477 46.4867C31.6493 44.3736 32.2001 41.5299 32.2001 37.9557V7.33899H39.0117V35.1571C39.0117 41.2491 38.1911 45.9361 36.55 49.2183C33.539 55.1977 27.8521 58.1873 19.4895 58.1873C11.1268 58.1873 5.45086 55.1977 2.46164 49.2183C0.820547 45.9361 0 41.2491 0 35.1571V7.33899H6.81084Z" fill="white"/>
<path d="M49.1667 29.1684C49.1737 25.8346 49.7656 22.5278 50.9155 19.3985C52.0502 16.233 53.7647 13.3067 55.9713 10.7692C58.2298 8.19383 60.9835 6.09936 64.0684 4.61056C67.4877 2.98911 71.2363 2.18232 75.0199 2.25355C79.4139 2.14145 83.7499 3.27491 87.5269 5.52295C90.9001 7.53931 93.6088 10.4995 95.3185 14.0379L87.2612 19.5883C86.7184 18.1752 85.9193 16.8746 84.9042 15.7518C83.9983 14.7571 82.9318 13.9217 81.7491 13.2804C80.6348 12.6821 79.4457 12.2347 78.2133 11.9501C77.0669 11.6795 75.8937 11.5391 74.7158 11.5316C72.4339 11.4815 70.1789 12.0321 68.177 13.1283C66.3406 14.1592 64.7469 15.5721 63.5034 17.2717C62.2353 19.0188 61.2815 20.9735 60.6846 23.0481C60.0612 25.1329 59.7409 27.2965 59.7339 29.4725C59.7266 31.8108 60.0989 34.1348 60.836 36.3538C61.5202 38.4635 62.5767 40.4335 63.9554 42.1706C65.2769 43.8253 66.919 45.1959 68.7832 46.2004C70.675 47.2183 72.7936 47.7414 74.9418 47.721C76.1472 47.716 77.3473 47.5628 78.5153 47.2648C79.7557 46.9511 80.9459 46.4648 82.0512 45.8202C83.2248 45.1346 84.2884 44.276 85.2062 43.2735C86.2104 42.1687 87.0087 40.8929 87.5632 39.5067L96.1549 44.4509C95.3556 46.4606 94.1524 48.2849 92.6197 49.8109C91.0592 51.3674 89.2787 52.6866 87.3351 53.7262C85.3639 54.7887 83.2701 55.606 81.1004 56.1599C78.9891 56.7088 76.8171 56.9898 74.6356 56.9963C71.0544 57.0367 67.5176 56.2015 64.3328 54.5633C61.2658 52.9811 58.5301 50.8265 56.2734 48.2156C54.0079 45.5869 52.2318 42.5736 51.0292 39.3184C49.8015 36.075 49.1706 32.6363 49.1667 29.1684V29.1684ZM97.0673 56.5401L118.356 2.55698H126.872L148.087 56.5401H136.984L132.044 43.0823H113.11L108.168 56.5401H97.0673ZM122.614 13.8858L114.859 35.7072H130.141L122.614 13.8858ZM153.864 56.5401V2.55698H177.738C180.122 2.53424 182.478 3.06806 184.619 4.116C186.679 5.12187 188.524 6.51598 190.055 8.22176C191.577 9.92239 192.787 11.8786 193.629 14.0002C194.472 16.0641 194.911 18.271 194.921 20.5007C194.958 23.8645 194.049 27.1709 192.298 30.0431C190.653 32.8172 188.161 34.99 185.189 36.2415L197.886 56.5401H186.028L174.697 38.4444H164.356V56.5401H153.864ZM164.356 29.2444H177.51C178.453 29.2495 179.382 29.014 180.209 28.5601C181.053 28.0969 181.791 27.4623 182.376 26.697C183.011 25.8604 183.499 24.9221 183.82 23.9221C184.182 22.8179 184.361 21.6624 184.353 20.5007C184.366 19.3074 184.16 18.1219 183.744 17.0032C183.368 15.9884 182.815 15.0485 182.109 14.2276C181.456 13.4657 180.654 12.8448 179.752 12.4028C178.914 11.9837 177.991 11.7628 177.054 11.7569H164.358L164.356 29.2444ZM242.594 47.3402V56.5401H205.11V2.55698H241.907V11.7576H215.602V24.7592H238.336V33.2748H215.602V47.3409L242.594 47.3402Z" fill="#EC6571"/>
<path d="M29.0874 62.2206H9.30149C7.47813 62.2206 6 63.6987 6 65.5221V66.0494C6 67.8728 7.47813 69.3509 9.30149 69.3509H29.0874C30.9108 69.3509 32.3889 67.8728 32.3889 66.0494V65.5221C32.3889 63.6987 30.9108 62.2206 29.0874 62.2206Z" fill="#EC6571"/>
<path d="M285.848 49.806V56H254.954V1.546H262.288V49.806H285.848ZM301.365 56H293.993V1.546H301.365V56ZM359.412 1.546V56H355.726C355.143 56 354.649 55.8987 354.244 55.696C353.864 55.4933 353.484 55.1513 353.104 54.67L321.602 13.63C321.653 14.2633 321.691 14.884 321.716 15.492C321.741 16.1 321.754 16.67 321.754 17.202V56H315.294V1.546H319.094C319.423 1.546 319.702 1.57133 319.93 1.622C320.158 1.64733 320.361 1.71066 320.538 1.812C320.715 1.888 320.893 2.01466 321.07 2.192C321.247 2.344 321.437 2.54666 321.64 2.8L353.142 43.802C353.091 43.1433 353.041 42.51 352.99 41.902C352.965 41.2687 352.952 40.6733 352.952 40.116V1.546H359.412ZM417.565 29.818V50.718C414.829 52.694 411.903 54.176 408.787 55.164C405.696 56.1267 402.302 56.608 398.603 56.608C394.22 56.608 390.268 55.9367 386.747 54.594C383.226 53.226 380.211 51.326 377.703 48.894C375.22 46.4367 373.308 43.498 371.965 40.078C370.622 36.658 369.951 32.896 369.951 28.792C369.951 24.6373 370.597 20.85 371.889 17.43C373.206 14.01 375.068 11.084 377.475 8.652C379.882 6.19466 382.808 4.29466 386.253 2.952C389.698 1.60933 393.549 0.937995 397.805 0.937995C399.958 0.937995 401.96 1.10266 403.809 1.432C405.658 1.736 407.368 2.192 408.939 2.8C410.51 3.38266 411.966 4.10466 413.309 4.966C414.652 5.802 415.906 6.752 417.071 7.816L414.981 11.16C414.652 11.6667 414.221 11.996 413.689 12.148C413.182 12.2747 412.612 12.148 411.979 11.768C411.371 11.4133 410.674 10.9827 409.889 10.476C409.104 9.96933 408.141 9.488 407.001 9.032C405.886 8.55066 404.556 8.14533 403.011 7.816C401.491 7.48667 399.68 7.322 397.577 7.322C394.512 7.322 391.738 7.82867 389.255 8.842C386.772 9.83 384.657 11.2613 382.909 13.136C381.161 14.9853 379.818 17.24 378.881 19.9C377.944 22.5347 377.475 25.4987 377.475 28.792C377.475 32.212 377.956 35.2773 378.919 37.988C379.907 40.6733 381.3 42.966 383.099 44.866C384.923 46.7407 387.127 48.172 389.711 49.16C392.295 50.148 395.196 50.642 398.413 50.642C400.946 50.642 403.188 50.3633 405.139 49.806C407.115 49.2233 409.04 48.4253 410.915 47.412V35.442H402.441C401.96 35.442 401.567 35.3027 401.263 35.024C400.984 34.7453 400.845 34.4033 400.845 33.998V29.818H417.565ZM479.161 28.792C479.161 32.8707 478.515 36.62 477.223 40.04C475.931 43.4347 474.107 46.3607 471.751 48.818C469.395 51.2753 466.557 53.188 463.239 54.556C459.945 55.8987 456.297 56.57 452.295 56.57C448.292 56.57 444.644 55.8987 441.351 54.556C438.057 53.188 435.233 51.2753 432.877 48.818C430.521 46.3607 428.697 43.4347 427.405 40.04C426.113 36.62 425.467 32.8707 425.467 28.792C425.467 24.7133 426.113 20.9767 427.405 17.582C428.697 14.162 430.521 11.2233 432.877 8.766C435.233 6.28333 438.057 4.358 441.351 2.99C444.644 1.622 448.292 0.937995 452.295 0.937995C456.297 0.937995 459.945 1.622 463.239 2.99C466.557 4.358 469.395 6.28333 471.751 8.766C474.107 11.2233 475.931 14.162 477.223 17.582C478.515 20.9767 479.161 24.7133 479.161 28.792ZM471.599 28.792C471.599 25.448 471.143 22.446 470.231 19.786C469.319 17.126 468.027 14.884 466.355 13.06C464.683 11.2107 462.656 9.792 460.275 8.804C457.893 7.816 455.233 7.322 452.295 7.322C449.381 7.322 446.734 7.816 444.353 8.804C441.971 9.792 439.932 11.2107 438.235 13.06C436.563 14.884 435.271 17.126 434.359 19.786C433.447 22.446 432.991 25.448 432.991 28.792C432.991 32.136 433.447 35.138 434.359 37.798C435.271 40.4327 436.563 42.6747 438.235 44.524C439.932 46.348 441.971 47.754 444.353 48.742C446.734 49.7047 449.381 50.186 452.295 50.186C455.233 50.186 457.893 49.7047 460.275 48.742C462.656 47.754 464.683 46.348 466.355 44.524C468.027 42.6747 469.319 40.4327 470.231 37.798C471.143 35.138 471.599 32.136 471.599 28.792Z" fill="white"/>
</svg>
