<svg width="116" height="115" viewBox="0 0 116 115" fill="none" xmlns="http://www.w3.org/2000/svg">
<path d="M87.5762 76.166H27.5488C26.6206 76.166 25.8682 76.9147 25.8682 77.8382C25.8682 78.7617 26.6206 79.5103 27.5488 79.5103H87.5762C88.5044 79.5103 89.2569 78.7617 89.2569 77.8382C89.2569 76.9147 88.5044 76.166 87.5762 76.166Z" fill="#98A678"/>
<path d="M46.8333 51.3811C46.8333 51.8384 46.6975 52.2855 46.443 52.6655C46.1886 53.0455 45.827 53.3414 45.4041 53.5157C44.9813 53.6899 44.5162 53.7346 44.0679 53.6441C43.6196 53.5537 43.2082 53.3321 42.886 53.0075C42.5638 52.6829 42.3453 52.27 42.2581 51.821C42.171 51.372 42.2191 50.9073 42.3965 50.4857C42.5738 50.0642 42.8724 49.7048 43.2543 49.4531C43.6362 49.2015 44.0842 49.069 44.5415 49.0723C45.1509 49.0768 45.7338 49.322 46.1631 49.7545C46.5924 50.187 46.8333 50.7717 46.8333 51.3811V51.3811ZM44.5415 49.9551C44.2595 49.9551 43.9838 50.0387 43.7493 50.1954C43.5148 50.3521 43.332 50.5748 43.2241 50.8354C43.1162 51.0959 43.0879 51.3827 43.143 51.6593C43.198 51.9359 43.3338 52.19 43.5332 52.3894C43.7326 52.5888 43.9867 52.7246 44.2633 52.7797C44.54 52.8347 44.8267 52.8064 45.0872 52.6985C45.3478 52.5906 45.5705 52.4078 45.7272 52.1733C45.8839 51.9388 45.9675 51.6631 45.9675 51.3811C45.9675 51.0029 45.8173 50.6402 45.5499 50.3727C45.2824 50.1053 44.9197 49.9551 44.5415 49.9551Z" fill="#386A89"/>
<path d="M54.7278 44.4201C54.7278 44.8767 54.5924 45.3231 54.3388 45.7027C54.0851 46.0824 53.7245 46.3783 53.3026 46.5531C52.8808 46.7278 52.4165 46.7735 51.9687 46.6845C51.5208 46.5954 51.1095 46.3755 50.7866 46.0526C50.4637 45.7297 50.2438 45.3183 50.1547 44.8705C50.0656 44.4226 50.1114 43.9584 50.2861 43.5366C50.4608 43.1147 50.7568 42.7541 51.1364 42.5004C51.5161 42.2467 51.9625 42.1113 52.4191 42.1113C53.0314 42.1113 53.6187 42.3546 54.0516 42.7875C54.4846 43.2205 54.7278 43.8078 54.7278 44.4201ZM52.4191 42.9941C52.1371 42.9941 51.8614 43.0777 51.6269 43.2344C51.3924 43.3911 51.2096 43.6138 51.1017 43.8744C50.9937 44.1349 50.9655 44.4217 51.0205 44.6983C51.0755 44.9749 51.2113 45.229 51.4108 45.4284C51.6102 45.6278 51.8643 45.7636 52.1409 45.8187C52.4175 45.8737 52.7042 45.8454 52.9648 45.7375C53.2254 45.6296 53.4481 45.4468 53.6048 45.2123C53.7615 44.9778 53.8451 44.7021 53.8451 44.4201C53.8455 44.0534 53.7046 43.7006 53.4517 43.435C53.1988 43.1695 52.8533 43.0115 52.487 42.9941H52.4191Z" fill="#6395B4"/>
<path d="M47.3597 34.965C47.3597 35.3344 47.2502 35.6954 47.045 36.0025C46.8398 36.3096 46.5482 36.5489 46.207 36.6902C45.8658 36.8316 45.4903 36.8686 45.1281 36.7965C44.7658 36.7245 44.4331 36.5466 44.1719 36.2855C43.9108 36.0243 43.7329 35.6916 43.6609 35.3293C43.5888 34.9671 43.6258 34.5916 43.7671 34.2504C43.9085 33.9092 44.1478 33.6176 44.4549 33.4124C44.762 33.2072 45.123 33.0977 45.4924 33.0977C45.9876 33.0977 46.4626 33.2944 46.8128 33.6446C47.163 33.9948 47.3597 34.4698 47.3597 34.965V34.965ZM45.4924 33.8107C45.2641 33.8107 45.0409 33.8784 44.851 34.0052C44.6612 34.132 44.5132 34.3123 44.4259 34.5233C44.3385 34.7342 44.3156 34.9663 44.3602 35.1902C44.4047 35.4142 44.5147 35.6198 44.6761 35.7813C44.8375 35.9427 45.0432 36.0527 45.2672 36.0972C45.4911 36.1418 45.7232 36.1189 45.9341 36.0315C46.1451 35.9442 46.3254 35.7962 46.4522 35.6064C46.579 35.4165 46.6467 35.1933 46.6467 34.965C46.6423 34.6618 46.5187 34.3725 46.3027 34.1597C46.0867 33.9469 45.7956 33.8276 45.4924 33.8276V33.8107Z" fill="#386A89"/>
<path d="M46.0529 60.2253C46.0526 60.8395 45.8714 61.4399 45.5318 61.9516C45.1921 62.4632 44.7092 62.8635 44.1434 63.1022C43.5776 63.3409 42.9539 63.4075 42.3504 63.2937C41.7469 63.1799 41.1904 62.8907 40.7503 62.4623C40.3103 62.0339 40.0063 61.4853 39.8764 60.8851C39.7464 60.2849 39.7963 59.6597 40.0198 59.0876C40.2432 58.5156 40.6304 58.0221 41.1327 57.6689C41.6351 57.3157 42.2305 57.1184 42.8444 57.1017C43.2617 57.0904 43.677 57.1628 44.0658 57.3147C44.4546 57.4666 44.8091 57.6949 45.1082 57.9861C45.4073 58.2773 45.645 58.6254 45.8072 59.0101C45.9695 59.3947 46.053 59.8079 46.0529 60.2253V60.2253ZM42.8444 58.307C42.465 58.307 42.0941 58.4195 41.7786 58.6303C41.4632 58.8411 41.2173 59.1407 41.0721 59.4912C40.9269 59.8418 40.8889 60.2275 40.9629 60.5996C41.037 60.9717 41.2197 61.3135 41.4879 61.5818C41.7562 61.8501 42.098 62.0328 42.4701 62.1068C42.8423 62.1808 43.228 62.1428 43.5785 61.9976C43.929 61.8524 44.2286 61.6066 44.4394 61.2911C44.6502 60.9756 44.7627 60.6047 44.7627 60.2253C44.7627 59.7166 44.5606 59.2286 44.2008 58.8689C43.8411 58.5091 43.3531 58.307 42.8444 58.307Z" fill="#6395B4"/>
<path d="M56.2899 57.1528C56.2899 57.9183 56.0629 58.6666 55.6376 59.3031C55.2123 59.9396 54.6078 60.4357 53.9006 60.7287C53.1933 61.0216 52.4151 61.0983 51.6643 60.949C50.9135 60.7996 50.2238 60.431 49.6825 59.8897C49.1412 59.3484 48.7725 58.6587 48.6232 57.9079C48.4739 57.1571 48.5505 56.3788 48.8435 55.6716C49.1364 54.9643 49.6325 54.3598 50.269 53.9345C50.9055 53.5092 51.6539 53.2822 52.4194 53.2822C53.4459 53.2822 54.4304 53.69 55.1563 54.4159C55.8821 55.1418 56.2899 56.1262 56.2899 57.1528ZM52.4194 54.7591C51.9427 54.7422 51.4719 54.8681 51.0672 55.1206C50.6626 55.3732 50.3426 55.7408 50.1484 56.1764C49.9541 56.612 49.8944 57.0958 49.977 57.5655C50.0595 58.0353 50.2806 58.4697 50.6117 58.813C50.9428 59.1563 51.3689 59.3928 51.8354 59.4923C52.3019 59.5917 52.7875 59.5496 53.2298 59.3711C53.6722 59.1927 54.0511 58.8863 54.3181 58.491C54.585 58.0957 54.7278 57.6297 54.7281 57.1528C54.7285 56.5324 54.488 55.9361 54.0573 55.4895C53.6266 55.043 53.0394 54.7811 52.4194 54.7591V54.7591Z" fill="#6395B4"/>
<path d="M63.1312 67.458H30.5371V70.6156H63.1312V67.458Z" fill="#CBD2BC"/>
<path d="M80.4971 65.6915L80.9215 60.2422L80.4971 65.6915Z" fill="#98A678"/>
<path d="M77.4751 90.8323V60.2754H29.263C28.8195 60.2961 28.3996 60.4815 28.0856 60.7955C27.7716 61.1095 27.5861 61.5294 27.5654 61.973V65.6568C27.5861 66.1004 27.7716 66.5203 28.0856 66.8343C28.3996 67.1483 28.8195 67.3338 29.263 67.3544H30.5023V90.8323C30.5068 91.8035 30.8945 92.7336 31.5812 93.4203C32.2679 94.107 33.198 94.4947 34.1691 94.4992H73.8083C74.7794 94.4947 75.7095 94.107 76.3962 93.4203C77.0829 92.7336 77.4707 91.8035 77.4751 90.8323V90.8323Z" fill="#CBD2BC"/>
<path d="M85.8452 60.2256H77.476V67.4574H30.5371V69.4266H77.476V90.8335C77.4715 91.8046 77.0838 92.7347 76.3971 93.4214C75.7104 94.1081 74.7803 94.4958 73.8091 94.5003H80.9221C81.8933 94.4958 82.8233 94.1081 83.51 93.4214C84.1967 92.7347 84.5845 91.8046 84.589 90.8335V67.4574H85.8282C86.2785 67.4574 86.7102 67.2785 87.0286 66.9602C87.347 66.6418 87.5258 66.21 87.5258 65.7598V62.0081C87.5266 61.5525 87.3528 61.1139 87.0403 60.7824C86.7277 60.4508 86.3001 60.2516 85.8452 60.2256Z" fill="#98A678"/>
<path d="M59.5312 50.5654C59.5313 52.2988 60.2198 53.9612 61.4455 55.1869C62.6712 56.4126 64.3336 57.1012 66.067 57.1012V50.5654H59.5312Z" fill="#386A89"/>
<path d="M66.0684 50.5654V57.1012C67.8018 57.1012 69.4642 56.4126 70.6899 55.1869C71.9156 53.9612 72.6042 52.2988 72.6042 50.5654H66.0684Z" fill="#21506E"/>
<path d="M74.981 20.5013C73.9184 20.5013 72.8994 20.9234 72.148 21.6747C71.3967 22.4261 70.9746 23.4451 70.9746 24.5077V50.5659H72.6722V24.5077C72.6722 23.8818 72.9208 23.2816 73.3634 22.8391C73.8059 22.3966 74.4061 22.148 75.0319 22.148C75.6577 22.148 76.2579 22.3966 76.7004 22.8391C77.143 23.2816 77.3916 23.8818 77.3916 24.5077V27.2917H79.0892V24.5077C79.0894 23.9728 78.9824 23.4434 78.7748 22.9506C78.5671 22.4578 78.2628 22.0115 77.88 21.6381C77.4971 21.2647 77.0433 20.9718 76.5454 20.7765C76.0475 20.5813 75.5156 20.4877 74.981 20.5013V20.5013Z" fill="#21506E"/>
</svg>
