<svg width="115" height="115" viewBox="0 0 115 115" fill="none" xmlns="http://www.w3.org/2000/svg">
<path d="M28.1412 26H87.5471C88.0394 26 88.5115 26.1955 88.8595 26.5436C89.2076 26.8917 89.4032 27.3638 89.4032 27.856V87.262C89.4032 87.7542 89.2076 88.2263 88.8595 88.5744C88.5115 88.9225 88.0394 89.118 87.5471 89.118H28.1412C27.8971 89.118 27.6555 89.0699 27.4301 88.9764C27.2047 88.8829 27 88.7459 26.8276 88.5732C26.6552 88.4005 26.5185 88.1955 26.4255 87.9699C26.3324 87.7443 26.2847 87.5026 26.2852 87.2586V27.856C26.2852 27.3638 26.4807 26.8917 26.8288 26.5436C27.1768 26.1955 27.6489 26 28.1412 26V26Z" fill="#6395B4"/>
<path opacity="0.554" d="M84.234 86.8434H50.5855H28.5566V28.2715H84.234V86.8434Z" fill="#B1CAD9"/>
<path opacity="0.554" d="M30.8286 30.5435V84.572H81.9625V30.5435H30.8286ZM28.0564 26H84.7348C85.713 26 86.506 26.8311 86.506 27.8563V87.2591C86.506 88.2843 85.713 89.1154 84.7348 89.1154H28.0564C27.0781 89.1154 26.2852 88.2843 26.2852 87.2591V27.8563C26.2852 26.8311 27.0781 26 28.0564 26Z" fill="#B1CAD9"/>
<path d="M56.4502 86.7971V27.7773" stroke="#525B3F" stroke-width="3.40761"/>
<path d="M87.5996 58.0225H29.125" stroke="#525B3F" stroke-width="3.40761"/>
<path d="M36.7672 51.6028C38.9001 51.6028 40.6292 49.8738 40.6292 47.7409C40.6292 45.608 38.9001 43.8789 36.7672 43.8789C34.6343 43.8789 32.9053 45.608 32.9053 47.7409C32.9053 49.8738 34.6343 51.6028 36.7672 51.6028Z" fill="#386A89"/>
<path d="M46.6969 51.6028C48.8298 51.6028 50.5589 49.8738 50.5589 47.7409C50.5589 45.608 48.8298 43.8789 46.6969 43.8789C44.564 43.8789 42.835 45.608 42.835 47.7409C42.835 49.8738 44.564 51.6028 46.6969 51.6028Z" fill="#386A89"/>
<path opacity="0.554" d="M36.7671 71.4307C38.2727 71.4307 39.4932 70.2102 39.4932 68.7046C39.4932 67.199 38.2727 65.9785 36.7671 65.9785C35.2615 65.9785 34.041 67.199 34.041 68.7046C34.041 70.2102 35.2615 71.4307 36.7671 71.4307Z" stroke="#525B3F" stroke-width="2.27174"/>
<path opacity="0.554" d="M36.7671 82.4649C38.2727 82.4649 39.4932 81.2444 39.4932 79.7388C39.4932 78.2332 38.2727 77.0127 36.7671 77.0127C35.2615 77.0127 34.041 78.2332 34.041 79.7388C34.041 81.2444 35.2615 82.4649 36.7671 82.4649Z" stroke="#525B3F" stroke-width="2.27174"/>
<path opacity="0.554" d="M46.6968 71.4307C48.2024 71.4307 49.4229 70.2102 49.4229 68.7046C49.4229 67.199 48.2024 65.9785 46.6968 65.9785C45.1912 65.9785 43.9707 67.199 43.9707 68.7046C43.9707 70.2102 45.1912 71.4307 46.6968 71.4307Z" stroke="#525B3F" stroke-width="2.27174"/>
<path opacity="0.554" d="M46.6968 82.4649C48.2024 82.4649 49.4229 81.2444 49.4229 79.7388C49.4229 78.2332 48.2024 77.0127 46.6968 77.0127C45.1912 77.0127 43.9707 78.2332 43.9707 79.7388C43.9707 81.2444 45.1912 82.4649 46.6968 82.4649Z" stroke="#525B3F" stroke-width="2.27174"/>
<path d="M36.7672 40.2444C38.9001 40.2444 40.6292 38.5154 40.6292 36.3825C40.6292 34.2496 38.9001 32.5205 36.7672 32.5205C34.6343 32.5205 32.9053 34.2496 32.9053 36.3825C32.9053 38.5154 34.6343 40.2444 36.7672 40.2444Z" fill="#386A89"/>
<path d="M46.6969 40.2444C48.8298 40.2444 50.5589 38.5154 50.5589 36.3825C50.5589 34.2496 48.8298 32.5205 46.6969 32.5205C44.564 32.5205 42.835 34.2496 42.835 36.3825C42.835 38.5154 44.564 40.2444 46.6969 40.2444Z" fill="#386A89"/>
<path opacity="0.554" d="M66.2993 39.626C67.8049 39.626 69.0254 38.4055 69.0254 36.8999C69.0254 35.3943 67.8049 34.1738 66.2993 34.1738C64.7938 34.1738 63.5732 35.3943 63.5732 36.8999C63.5732 38.4055 64.7938 39.626 66.2993 39.626Z" stroke="#525B3F" stroke-width="2.27174"/>
<path opacity="0.554" d="M66.2993 50.6592C67.8049 50.6592 69.0254 49.4387 69.0254 47.9331C69.0254 46.4275 67.8049 45.207 66.2993 45.207C64.7938 45.207 63.5732 46.4275 63.5732 47.9331C63.5732 49.4387 64.7938 50.6592 66.2993 50.6592Z" stroke="#525B3F" stroke-width="2.27174"/>
<path opacity="0.554" d="M76.23 39.626C77.7356 39.626 78.9561 38.4055 78.9561 36.8999C78.9561 35.3943 77.7356 34.1738 76.23 34.1738C74.7244 34.1738 73.5039 35.3943 73.5039 36.8999C73.5039 38.4055 74.7244 39.626 76.23 39.626Z" stroke="#525B3F" stroke-width="2.27174"/>
<path opacity="0.554" d="M76.23 50.6592C77.7356 50.6592 78.9561 49.4387 78.9561 47.9331C78.9561 46.4275 77.7356 45.207 76.23 45.207C74.7244 45.207 73.5039 46.4275 73.5039 47.9331C73.5039 49.4387 74.7244 50.6592 76.23 50.6592Z" stroke="#525B3F" stroke-width="2.27174"/>
<path d="M65.1637 83.4075C67.2966 83.4075 69.0257 81.6784 69.0257 79.5456C69.0257 77.4127 67.2966 75.6836 65.1637 75.6836C63.0308 75.6836 61.3018 77.4127 61.3018 79.5456C61.3018 81.6784 63.0308 83.4075 65.1637 83.4075Z" fill="#386A89"/>
<path d="M75.0934 83.4075C77.2263 83.4075 78.9554 81.6784 78.9554 79.5456C78.9554 77.4127 77.2263 75.6836 75.0934 75.6836C72.9605 75.6836 71.2314 77.4127 71.2314 79.5456C71.2314 81.6784 72.9605 83.4075 75.0934 83.4075Z" fill="#386A89"/>
<path d="M65.1637 72.0481C67.2966 72.0481 69.0257 70.3191 69.0257 68.1862C69.0257 66.0533 67.2966 64.3242 65.1637 64.3242C63.0308 64.3242 61.3018 66.0533 61.3018 68.1862C61.3018 70.3191 63.0308 72.0481 65.1637 72.0481Z" fill="#386A89"/>
<path d="M75.0934 72.0481C77.2263 72.0481 78.9554 70.3191 78.9554 68.1862C78.9554 66.0533 77.2263 64.3242 75.0934 64.3242C72.9605 64.3242 71.2314 66.0533 71.2314 68.1862C71.2314 70.3191 72.9605 72.0481 75.0934 72.0481Z" fill="#386A89"/>
</svg>
