<svg width="116" height="115" viewBox="0 0 116 115" fill="none" xmlns="http://www.w3.org/2000/svg">
<path d="M88.1367 13.6707H87.932C87.2804 13.6707 86.6556 13.9295 86.1948 14.3903C85.7341 14.851 85.4753 15.4758 85.4753 16.1274V37.4746C85.4753 38.062 85.242 38.6253 84.8266 39.0407C84.4113 39.456 83.8479 39.6894 83.2605 39.6894C82.6732 39.6894 82.1098 39.456 81.6945 39.0407C81.2791 38.6253 81.0458 38.062 81.0458 37.4746V16.1274C81.0459 15.7984 80.98 15.4728 80.8519 15.1697C80.7238 14.8667 80.5362 14.5925 80.3001 14.3634C80.0641 14.1343 79.7844 13.9549 79.4777 13.8359C79.171 13.7169 78.8435 13.6607 78.5146 13.6707V46.0731C79.339 46.0731 80.1295 46.4005 80.7124 46.9834C81.2953 47.5663 81.6227 48.3568 81.6227 49.1812V58.1146H83C85.0386 58.1146 86.9937 57.3048 88.4352 55.8633C89.8767 54.4218 90.6865 52.4667 90.6865 50.4281V16.1274C90.6867 15.7968 90.6202 15.4696 90.491 15.1653C90.3617 14.861 90.1724 14.5859 89.9343 14.3565C89.6963 14.1271 89.4143 13.9482 89.1055 13.8303C88.7966 13.7125 88.4671 13.6582 88.1367 13.6707Z" fill="#6395B4"/>
<path d="M78.5145 46.0723V13.6699H78.1609C77.5094 13.6699 76.8845 13.9288 76.4238 14.3895C75.9631 14.8502 75.7042 15.4751 75.7042 16.1266V37.4738C75.7042 38.0612 75.4709 38.6246 75.0555 39.0399C74.6402 39.4553 74.0769 39.6886 73.4895 39.6886C72.9021 39.6886 72.3388 39.4553 71.9234 39.0399C71.5081 38.6246 71.2747 38.0612 71.2747 37.4738V16.1266C71.2747 15.4751 71.0159 14.8502 70.5552 14.3895C70.0945 13.9288 69.4696 13.6699 68.818 13.6699C68.1665 13.6699 67.5416 13.9288 67.0809 14.3895C66.6202 14.8502 66.3613 15.4751 66.3613 16.1266V50.4273C66.3613 52.4659 67.1712 54.421 68.6127 55.8625C70.0541 57.304 72.0092 58.1138 74.0478 58.1138H75.4251V49.1804C75.425 48.3593 75.7499 47.5715 76.3288 46.9892C76.9077 46.4068 77.6935 46.0772 78.5145 46.0723V46.0723Z" fill="#B1CAD9"/>
<path d="M78.5146 46.0723V75.2921C79.339 75.2921 80.1295 74.9646 80.7124 74.3817C81.2953 73.7989 81.6227 73.0083 81.6227 72.184V49.1617C81.6178 48.3407 81.2882 47.5549 80.7059 46.976C80.1235 46.3972 79.3358 46.0723 78.5146 46.0723V46.0723Z" fill="#21506E"/>
<path d="M75.3311 49.1626V72.2035C75.3334 72.6164 75.418 73.0247 75.58 73.4046C75.7419 73.7845 75.9779 74.1283 76.2742 74.4159C76.5705 74.7035 76.9211 74.9292 77.3056 75.0798C77.6901 75.2304 78.1008 75.3029 78.5136 75.293V46.0732C78.1008 46.0633 77.6901 46.1357 77.3056 46.2863C76.9211 46.4369 76.5705 46.6626 76.2742 46.9502C75.9779 47.2379 75.7419 47.5817 75.58 47.9615C75.418 48.3414 75.3334 48.7497 75.3311 49.1626Z" fill="#386A89"/>
<path d="M75.3302 94.8909C75.335 94.4796 75.4214 94.0733 75.5844 93.6955C75.7474 93.3178 75.9838 92.9763 76.2799 92.6906C76.5759 92.4049 76.9257 92.1809 77.309 92.0315C77.6923 91.882 78.1014 91.8102 78.5127 91.82V70.4356H74.7904C74.5014 70.4232 74.2127 70.4684 73.9414 70.5688C73.67 70.6691 73.4214 70.8226 73.21 71.0201C72.9986 71.2176 72.8287 71.4553 72.7102 71.7192C72.5917 71.9832 72.527 72.2681 72.5198 72.5573V95.8959C72.5041 97.4687 73.1015 98.9858 74.1856 100.125C75.2696 101.265 76.755 101.938 78.3266 102H78.5127V98.0362C78.0952 98.0463 77.6799 97.9721 77.2917 97.818C76.9035 97.664 76.5503 97.4333 76.2532 97.1397C75.9562 96.8461 75.7213 96.4957 75.5627 96.1093C75.4041 95.7229 75.325 95.3085 75.3302 94.8909V94.8909Z" fill="#98A678"/>
<path d="M82.2369 70.4347H78.5146V91.8191C79.3196 91.8383 80.0857 92.1692 80.6515 92.742C81.2174 93.3148 81.5389 94.0848 81.5483 94.89C81.5583 95.708 81.2455 96.4969 80.6775 97.0858C80.1096 97.6746 79.3325 98.0158 78.5146 98.0353V102C80.0843 102 81.5897 101.376 82.6996 100.266C83.8095 99.1561 84.4331 97.6508 84.4331 96.0811V72.5563C84.4184 71.9853 84.18 71.4429 83.7692 71.046C83.3584 70.6492 82.8081 70.4296 82.2369 70.4347Z" fill="#68744D"/>
<path d="M34.5727 15.2707L29.6779 21.7846C27.5505 24.619 26.401 28.0675 26.4023 31.6114V54.4103C26.4072 55.0505 26.6637 55.6631 27.1164 56.1158C27.5691 56.5685 28.1816 56.8249 28.8218 56.8298H39.0953V13.0001C38.2159 12.9956 37.3479 13.199 36.562 13.5936C35.7761 13.9881 35.0945 14.5628 34.5727 15.2707V15.2707Z" fill="#B1CAD9"/>
<path d="M48.5317 21.7848L43.6369 15.2708C43.1133 14.5603 42.4287 13.9841 41.6393 13.5895C40.8499 13.1948 39.9782 12.9928 39.0957 13.0002V56.8485H49.3692C50.0093 56.8437 50.6219 56.5872 51.0746 56.1345C51.5273 55.6818 51.7838 55.0692 51.7886 54.4291V31.6115C51.7954 28.0697 50.6524 24.6214 48.5317 21.7848Z" fill="#6395B4"/>
<path d="M39.0957 46.0723V75.2921C39.92 75.2921 40.7106 74.9646 41.2935 74.3817C41.8763 73.7989 42.2038 73.0083 42.2038 72.184V49.1617C42.1989 48.3407 41.8693 47.5549 41.2869 46.976C40.7046 46.3972 39.9168 46.0723 39.0957 46.0723Z" fill="#21506E"/>
<path d="M36.0068 49.1617V72.2026C36.0068 73.0269 36.3343 73.8175 36.9172 74.4004C37.5001 74.9832 38.2906 75.3107 39.1149 75.3107V46.0723C38.2938 46.0723 37.5061 46.3972 36.9237 46.976C36.3414 47.5549 36.0118 48.3407 36.0068 49.1617Z" fill="#386A89"/>
<path d="M36.0059 94.89C36.0059 94.0657 36.3334 93.2751 36.9163 92.6922C37.4992 92.1093 38.2897 91.7819 39.114 91.7819V70.4347H35.3918C34.8206 70.4296 34.2703 70.6492 33.8595 71.046C33.4487 71.4429 33.2102 71.9853 33.1956 72.5563V95.895C33.1798 97.4678 33.7773 98.9848 34.8614 100.124C35.9454 101.264 37.4307 101.937 39.0024 102H39.114V98.0353C38.7027 98.0353 38.2955 97.9537 37.9159 97.7952C37.5364 97.6367 37.1921 97.4044 36.903 97.1118C36.6139 96.8193 36.3857 96.4722 36.2318 96.0908C36.0778 95.7094 36.001 95.3013 36.0059 94.89V94.89Z" fill="#98A678"/>
<path d="M42.8366 70.4346H39.1143V91.819C39.929 91.8238 40.7092 92.1483 41.287 92.7227C41.8648 93.297 42.1941 94.0752 42.2038 94.8899V94.8899C42.2038 95.7142 41.8763 96.5048 41.2935 97.0876C40.7106 97.6705 39.92 97.998 39.0957 97.998V101.962C40.6557 101.962 42.1527 101.346 43.261 100.249C44.3694 99.1507 44.9994 97.6596 45.0141 96.0996V72.5563C44.9995 71.9885 44.7637 71.4489 44.3569 71.0525C43.9501 70.6561 43.4046 70.4344 42.8366 70.4346V70.4346Z" fill="#68744D"/>
</svg>
