<svg width="116" height="115" viewBox="0 0 116 115" fill="none" xmlns="http://www.w3.org/2000/svg">
<path d="M73.0492 42.5535C81.4707 42.5535 88.2977 35.7266 88.2977 27.3051C88.2977 18.8836 81.4707 12.0566 73.0492 12.0566C64.6277 12.0566 57.8008 18.8836 57.8008 27.3051C57.8008 35.7266 64.6277 42.5535 73.0492 42.5535Z" fill="white"/>
<path d="M73.0496 37.5972C78.7336 37.5972 83.3413 32.9894 83.3413 27.3054C83.3413 21.6214 78.7336 17.0137 73.0496 17.0137C67.3656 17.0137 62.7578 21.6214 62.7578 27.3054C62.7578 32.9894 67.3656 37.5972 73.0496 37.5972Z" fill="#B1CAD9"/>
<path d="M73.0493 36.159C77.9391 36.159 81.9032 32.195 81.9032 27.3051C81.9032 22.4152 77.9391 18.4512 73.0493 18.4512C68.1594 18.4512 64.1953 22.4152 64.1953 27.3051C64.1953 32.195 68.1594 36.159 73.0493 36.159Z" fill="#6395B4"/>
<path d="M73.0488 34.5127C77.0297 34.5127 80.2568 31.2856 80.2568 27.3047C80.2568 23.3238 77.0297 20.0967 73.0488 20.0967C69.068 20.0967 65.8408 23.3238 65.8408 27.3047C65.8408 31.2856 69.068 34.5127 73.0488 34.5127Z" fill="#B1CAD9"/>
<path d="M38.391 42.5535C46.8125 42.5535 53.6395 35.7266 53.6395 27.3051C53.6395 18.8836 46.8125 12.0566 38.391 12.0566C29.9695 12.0566 23.1426 18.8836 23.1426 27.3051C23.1426 35.7266 29.9695 42.5535 38.391 42.5535Z" fill="white"/>
<path d="M38.4089 37.5972C44.0929 37.5972 48.7007 32.9894 48.7007 27.3054C48.7007 21.6214 44.0929 17.0137 38.4089 17.0137C32.725 17.0137 28.1172 21.6214 28.1172 27.3054C28.1172 32.9894 32.725 37.5972 38.4089 37.5972Z" fill="#B1CAD9"/>
<path d="M38.4086 36.159C43.2985 36.159 47.2626 32.195 47.2626 27.3051C47.2626 22.4152 43.2985 18.4512 38.4086 18.4512C33.5187 18.4512 29.5547 22.4152 29.5547 27.3051C29.5547 32.195 33.5187 36.159 38.4086 36.159Z" fill="#6395B4"/>
<path d="M38.4082 34.5127C42.3891 34.5127 45.6162 31.2856 45.6162 27.3047C45.6162 23.3238 42.3891 20.0967 38.4082 20.0967C34.4273 20.0967 31.2002 23.3238 31.2002 27.3047C31.2002 31.2856 34.4273 34.5127 38.4082 34.5127Z" fill="#B1CAD9"/>
<path d="M38.4087 12C41.4358 12 44.3949 12.8976 46.9118 14.5794C49.4288 16.2611 51.3905 18.6515 52.5489 21.4482C53.7073 24.2448 54.0104 27.3222 53.4198 30.2911C52.8293 33.26 51.3716 35.9871 49.2311 38.1276C47.0907 40.2681 44.3635 41.7258 41.3946 42.3163C38.4257 42.9069 35.3483 42.6038 32.5517 41.4454C29.755 40.287 27.3647 38.3252 25.6829 35.8083C24.0012 33.2914 23.1035 30.3323 23.1035 27.3052C23.1035 23.246 24.716 19.3531 27.5863 16.4828C30.4566 13.6125 34.3495 12 38.4087 12V12ZM38.4087 14.4405C37.608 14.4405 36.8252 14.678 36.1594 15.1228C35.4937 15.5677 34.9747 16.2 34.6683 16.9398C34.3619 17.6796 34.2817 18.4936 34.4379 19.2789C34.5941 20.0643 34.9797 20.7857 35.5459 21.3519C36.1121 21.9181 36.8335 22.3037 37.6189 22.4599C38.4042 22.6161 39.2183 22.5359 39.958 22.2295C40.6978 21.9231 41.3301 21.4042 41.775 20.7384C42.2199 20.0726 42.4573 19.2898 42.4573 18.4891C42.4573 17.4153 42.0308 16.3856 41.2715 15.6263C40.5122 14.8671 39.4825 14.4405 38.4087 14.4405V14.4405ZM50.6302 23.3512C50.3843 22.5883 49.9174 21.9155 49.2887 21.4181C48.66 20.9208 47.8979 20.6213 47.0988 20.5575C46.2998 20.4938 45.4997 20.6686 44.8002 21.06C44.1006 21.4514 43.5329 22.0416 43.1692 22.7559C42.8054 23.4702 42.6618 24.2764 42.7567 25.0724C42.8515 25.8684 43.1806 26.6183 43.702 27.2271C44.2235 27.8359 44.914 28.2762 45.686 28.4921C46.4579 28.7081 47.2766 28.6901 48.0383 28.4403C49.0553 28.1069 49.8988 27.3843 50.3845 26.4306C50.8702 25.477 50.9585 24.3698 50.6302 23.3512V23.3512ZM45.9573 37.7294C46.6018 37.2562 47.0917 36.6027 47.3653 35.8514C47.6389 35.1001 47.6839 34.2846 47.4946 33.5077C47.3053 32.7309 46.8903 32.0274 46.3018 31.4862C45.7133 30.9449 44.9776 30.59 44.1877 30.4662C43.3978 30.3425 42.5889 30.4554 41.863 30.7908C41.1372 31.1261 40.5269 31.6689 40.1091 32.3506C39.6913 33.0324 39.4848 33.8226 39.5155 34.6216C39.5462 35.4205 39.8128 36.1925 40.2817 36.8402C40.5962 37.2713 40.9929 37.6359 41.4488 37.9131C41.9048 38.1903 42.411 38.3747 42.9385 38.4556C43.466 38.5364 44.0042 38.5122 44.5223 38.3844C45.0403 38.2565 45.528 38.0275 45.9573 37.7105V37.7294ZM30.8223 37.7294C31.47 38.1983 32.242 38.4649 33.041 38.4956C33.84 38.5263 34.6302 38.3197 35.3119 37.902C35.9937 37.4842 36.5364 36.8739 36.8718 36.148C37.2071 35.4222 37.3201 34.6133 37.1963 33.8234C37.0725 33.0334 36.7176 32.2978 36.1764 31.7093C35.6351 31.1208 34.9317 30.7057 34.1548 30.5165C33.378 30.3272 32.5625 30.3722 31.8112 30.6458C31.0599 30.9194 30.4064 31.4093 29.9332 32.0538C29.621 32.4847 29.3969 32.973 29.2736 33.4906C29.1504 34.0082 29.1303 34.545 29.2146 35.0704C29.299 35.5957 29.4861 36.0993 29.7652 36.5523C30.0443 37.0053 30.4099 37.3989 30.8413 37.7105L30.8223 37.7294ZM26.1683 23.3512C25.9257 24.1141 25.9146 24.9318 26.1366 25.701C26.3586 26.4702 26.8036 27.1563 27.4155 27.6726C28.0273 28.1889 28.7785 28.5122 29.574 28.6017C30.3696 28.6911 31.1738 28.5427 31.885 28.1752C32.5962 27.8077 33.1826 27.2376 33.5698 26.5369C33.9571 25.8362 34.1279 25.0365 34.0608 24.2387C33.9936 23.441 33.6914 22.6811 33.1925 22.055C32.6935 21.429 32.0201 20.9649 31.2575 20.7215C30.7506 20.5597 30.2169 20.4995 29.6868 20.5441C29.1567 20.5887 28.6405 20.7374 28.1679 20.9816C27.6953 21.2259 27.2754 21.5608 26.9323 21.9674C26.5892 22.374 26.3296 22.8442 26.1683 23.3512Z" fill="#68744D"/>
<path d="M73.0493 12C76.0764 12 79.0355 12.8976 81.5525 14.5794C84.0694 16.2611 86.0311 18.6515 87.1895 21.4482C88.3479 24.2448 88.651 27.3222 88.0605 30.2911C87.4699 33.26 86.0122 35.9871 83.8718 38.1276C81.7313 40.2681 79.0042 41.7258 76.0352 42.3163C73.0663 42.9069 69.989 42.6038 67.1923 41.4454C64.3956 40.287 62.0053 38.3252 60.3235 35.8083C58.6418 33.2914 57.7441 30.3323 57.7441 27.3052C57.7441 23.246 59.3566 19.3531 62.2269 16.4828C65.0972 13.6125 68.9902 12 73.0493 12V12ZM73.0493 14.4405C72.2486 14.4405 71.4659 14.678 70.8001 15.1228C70.1343 15.5677 69.6154 16.2 69.3089 16.9398C69.0025 17.6796 68.9223 18.4936 69.0785 19.2789C69.2348 20.0643 69.6203 20.7857 70.1866 21.3519C70.7528 21.9181 71.4742 22.3037 72.2595 22.4599C73.0449 22.6161 73.8589 22.5359 74.5987 22.2295C75.3385 21.9231 75.9708 21.4042 76.4156 20.7384C76.8605 20.0726 77.0979 19.2898 77.0979 18.4891C77.0979 17.4153 76.6714 16.3856 75.9121 15.6263C75.1529 14.8671 74.1231 14.4405 73.0493 14.4405V14.4405ZM85.2897 23.3512C85.0469 22.5862 84.5821 21.9106 83.9545 21.4103C83.3269 20.91 82.5648 20.6076 81.7649 20.5414C80.965 20.4752 80.1635 20.6482 79.4622 21.0385C78.7608 21.4288 78.1913 22.0187 77.826 22.7334C77.4607 23.448 77.316 24.2551 77.4104 25.0522C77.5047 25.8492 77.8339 26.6002 78.356 27.2098C78.8781 27.8194 79.5696 28.2601 80.3427 28.4758C81.1158 28.6915 81.9356 28.6726 82.6979 28.4214C83.7104 28.0878 84.5505 27.3682 85.0358 26.419C85.521 25.4697 85.6123 24.3673 85.2897 23.3512V23.3512ZM80.6168 37.7294C81.2613 37.2562 81.7512 36.6027 82.0248 35.8514C82.2984 35.1001 82.3434 34.2846 82.1541 33.5077C81.9649 32.7309 81.5498 32.0274 80.9613 31.4862C80.3728 30.9449 79.6372 30.59 78.8473 30.4662C78.0573 30.3425 77.2484 30.4554 76.5226 30.7908C75.7967 31.1261 75.1864 31.6689 74.7686 32.3506C74.3509 33.0324 74.1443 33.8226 74.175 34.6216C74.2057 35.4205 74.4723 36.1925 74.9412 36.8402C75.2558 37.2713 75.6524 37.6359 76.1084 37.9131C76.5643 38.1903 77.0706 38.3747 77.598 38.4556C78.1255 38.5364 78.6637 38.5122 79.1818 38.3844C79.6999 38.2565 80.1876 38.0275 80.6168 37.7105V37.7294ZM65.4819 37.7294C66.1295 38.1983 66.9015 38.4649 67.7005 38.4956C68.4995 38.5263 69.2897 38.3197 69.9714 37.902C70.6532 37.4842 71.196 36.8739 71.5313 36.148C71.8667 35.4222 71.9796 34.6133 71.8558 33.8234C71.7321 33.0334 71.3772 32.2978 70.8359 31.7093C70.2946 31.1208 69.5912 30.7057 68.8144 30.5165C68.0375 30.3272 67.222 30.3722 66.4707 30.6458C65.7194 30.9194 65.0659 31.4093 64.5927 32.0538C64.2806 32.4847 64.0565 32.973 63.9332 33.4906C63.8099 34.0082 63.7899 34.545 63.8742 35.0704C63.9585 35.5957 64.1456 36.0993 64.4247 36.5523C64.7038 37.0053 65.0695 37.3989 65.5008 37.7105L65.4819 37.7294ZM60.8279 23.3512C60.5781 24.1129 60.5601 24.9316 60.7761 25.7036C60.9921 26.4755 61.4323 27.166 62.0411 27.6875C62.6499 28.209 63.3998 28.538 64.1958 28.6328C64.9918 28.7277 65.798 28.5842 66.5123 28.2204C67.2266 27.8566 67.8168 27.2889 68.2082 26.5894C68.5996 25.8898 68.7745 25.0898 68.7107 24.2907C68.6469 23.4916 68.3474 22.7295 67.8501 22.1008C67.3527 21.4721 66.68 21.0053 65.917 20.7593C64.8984 20.431 63.7912 20.5193 62.8376 21.005C61.8839 21.4907 61.1614 22.3343 60.8279 23.3512V23.3512Z" fill="#68744D"/>
<path d="M56.4753 76.6455H55.1699V102.98H56.4753V76.6455Z" fill="#386A89"/>
<path d="M58.8097 76.5545L57.583 77.001L66.59 101.748L67.8167 101.301L58.8097 76.5545Z" fill="#386A89"/>
<path d="M52.5955 76.5487L43.5928 101.297L44.8195 101.743L53.8222 76.995L52.5955 76.5487Z" fill="#386A89"/>
<path d="M34.4543 49.1934C34.7394 48.3979 35.2481 47.7016 35.9193 47.1881C36.5905 46.6746 37.3957 46.3658 38.2381 46.2988H39.6948C40.153 46.8951 40.7437 47.3764 41.4201 47.7048C42.0966 48.0332 42.8402 48.1995 43.5921 48.1907H68.1863C68.9382 48.1995 69.6818 48.0332 70.3583 47.7048C71.0347 47.3764 71.6254 46.8951 72.0836 46.2988H72.8782C73.9218 46.2988 74.9227 46.7134 75.6607 47.4514C76.3987 48.1894 76.8132 49.1903 76.8132 50.2339V71.4039C76.8132 72.4476 76.3987 73.4485 75.6607 74.1864C74.9227 74.9244 73.9218 75.339 72.8782 75.339H61.527V75.6039C61.527 75.902 61.4682 76.1972 61.3541 76.4726C61.24 76.7481 61.0728 76.9983 60.862 77.2092C60.6512 77.42 60.4009 77.5872 60.1255 77.7013C59.8501 77.8154 59.5548 77.8741 59.2567 77.8741H52.446C51.8439 77.8741 51.2664 77.6349 50.8407 77.2092C50.4149 76.7834 50.1758 76.206 50.1758 75.6039V75.339H38.2381C37.201 75.329 36.2098 74.91 35.48 74.1731C34.7502 73.4362 34.3408 72.441 34.3408 71.4039V55.0014L34.4543 49.1934Z" fill="#B1CAD9"/>
<path d="M39.1379 51.4183C39.6611 51.002 39.7478 50.2402 39.3314 49.717C38.915 49.1937 38.1533 49.1071 37.6301 49.5234C37.1068 49.9398 37.0202 50.7015 37.4365 51.2248C37.8529 51.748 38.6146 51.8347 39.1379 51.4183Z" fill="#386A89"/>
<path d="M39.3351 49.7232L37.4432 51.2367C37.2425 50.9858 37.1497 50.6655 37.1851 50.3462C37.2206 50.0269 37.3815 49.7347 37.6324 49.534C37.8833 49.3333 38.2036 49.2405 38.5229 49.276C38.8422 49.3114 39.1344 49.4723 39.3351 49.7232Z" fill="#386A89"/>
<path d="M72.9349 36.0453V33.3589C72.9349 31.467 70.7593 29.9346 68.0917 29.9346H43.4975C40.811 29.9346 38.6543 31.467 38.6543 33.3589V41.4371C38.6597 41.6684 38.6979 41.8977 38.7678 42.1182V44.8236C38.779 45.2123 38.8705 45.5944 39.0366 45.9461C39.2026 46.2977 39.4396 46.6112 39.7327 46.8668C40.8119 47.8008 42.2034 48.2939 43.6299 48.2478H68.2242C69.6507 48.2939 71.0422 47.8008 72.1214 46.8668C72.4145 46.6112 72.6515 46.2977 72.8175 45.9461C72.9836 45.5944 73.0751 45.2123 73.0863 44.8236V36.7642C73.0718 36.5184 73.0208 36.2761 72.9349 36.0453V36.0453Z" fill="#98A678"/>
<path d="M34.4543 49.1942H30.8976L27.2652 47.7186C27.1346 47.6615 26.9917 47.6382 26.8496 47.6508C26.7076 47.6633 26.571 47.7114 26.4523 47.7904C26.3337 47.8695 26.2368 47.9772 26.1706 48.1034C26.1044 48.2297 26.071 48.3706 26.0734 48.5132V55.7969C26.0735 55.9347 26.1072 56.0704 26.1714 56.1923C26.2356 56.3143 26.3284 56.4188 26.4419 56.4969C26.5554 56.5751 26.6862 56.6245 26.823 56.641C26.9598 56.6574 27.0986 56.6404 27.2274 56.5914L30.8409 55.2671H34.4543V49.1942Z" fill="#4E5974"/>
<path d="M34.4543 49.1942H30.8976L27.2652 47.7186C27.1346 47.6615 26.9917 47.6382 26.8496 47.6508C26.7076 47.6633 26.571 47.7114 26.4523 47.7904C26.3337 47.8695 26.2368 47.9772 26.1706 48.1034C26.1044 48.2297 26.071 48.3706 26.0734 48.5132V55.7969C26.0735 55.9347 26.1072 56.0704 26.1714 56.1923C26.2356 56.3143 26.3284 56.4188 26.4419 56.4969C26.5554 56.5751 26.6862 56.6245 26.823 56.641C26.9598 56.6574 27.0986 56.6404 27.2274 56.5914L30.8409 55.2671H34.4543V49.1942Z" fill="#B1CAD9"/>
<path d="M27.2846 47.7179C27.1537 47.6658 27.0121 47.6463 26.872 47.661C26.7319 47.6757 26.5974 47.7243 26.4802 47.8024C26.363 47.8806 26.2664 47.986 26.199 48.1097C26.1315 48.2334 26.095 48.3716 26.0928 48.5125V55.7962C26.0962 55.9347 26.1326 56.0705 26.199 56.1921C26.2654 56.3137 26.36 56.4177 26.4747 56.4954C26.5894 56.5732 26.7211 56.6224 26.8587 56.6389C26.9963 56.6555 27.1358 56.639 27.2657 56.5908L27.5306 56.4962V47.8314L27.2846 47.7179Z" fill="#6395B4"/>
<path d="M32.1846 49.1934V55.2663L34.4548 55.2852L34.4926 49.1934H32.1846Z" fill="#6395B4"/>
<path d="M82.9796 53.0342H76.8311V63.7043H82.9796V53.0342Z" fill="#6395B4"/>
<path d="M90.6987 50.6702L85.5339 53.035H82.9609V63.7052H85.5339L90.6041 66.4484C90.8926 66.6062 91.2172 66.6861 91.546 66.6802C91.8748 66.6744 92.1964 66.5829 92.4791 66.4148C92.7617 66.2467 92.9957 66.0079 93.1579 65.7218C93.3201 65.4358 93.4049 65.1124 93.404 64.7835V52.3918C93.4063 52.0712 93.3272 51.7553 93.1739 51.4738C93.0207 51.1922 92.7984 50.9542 92.5279 50.7821C92.2575 50.61 91.9477 50.5094 91.6278 50.4899C91.3078 50.4703 90.9881 50.5323 90.6987 50.6702V50.6702Z" fill="#B1CAD9"/>
</svg>
