<svg width="115" height="115" viewBox="0 0 115 115" fill="none" xmlns="http://www.w3.org/2000/svg">
<path d="M53.4756 94.258C48.5167 93.8663 43.5273 94.3166 38.7186 95.5896C37.8264 95.8238 36.9229 96.0132 36.0117 96.1572C37.3679 96.4411 38.7525 96.5657 40.1376 96.5283" fill="#CBD2BC"/>
<path d="M85.085 86.3126C84.0742 83.0505 82.4353 80.0174 80.2606 77.3842C76.5495 72.2105 72.0962 67.5389 68.7344 62.1033C64.9142 56.0128 59.8715 53.7206 54.8506 55.5543C57.873 56.912 60.3765 59.2088 61.989 62.1033C65.3508 67.4734 69.8259 72.145 73.5151 77.3842C75.6899 80.0174 77.3288 83.0505 78.3395 86.3126C78.6761 87.3456 78.7936 88.4374 78.6846 89.5183C78.5755 90.5993 78.2423 91.6456 77.7062 92.5905C77.17 93.5354 76.4428 94.3582 75.5708 95.0063C74.6988 95.6543 73.7013 96.1135 72.6419 96.3544C73.6898 96.5072 74.8249 96.6163 75.7636 96.6818C82.3126 97.0529 86.5039 92.7306 85.085 86.3126Z" fill="#98A678"/>
<path d="M53.4756 94.2582C56.2941 94.4743 59.0903 94.9196 61.8364 95.5898C64.186 96.1654 66.5822 96.5307 68.9966 96.6813C70.2142 96.7604 71.4367 96.6499 72.6204 96.3539C71.2669 96.1574 69.9135 95.8954 68.5819 95.5898C63.6471 94.3585 58.5497 93.9091 53.4756 94.2582V94.2582Z" fill="#CBD2BC"/>
<path d="M78.3394 86.312C77.3286 83.0498 75.6898 80.0168 73.515 77.3836C69.8039 72.2099 65.3506 67.5383 61.9888 62.1027C60.3764 59.2082 57.8728 56.9114 54.8504 55.5537C52.5129 56.5013 50.4385 57.999 48.8036 59.9197C43.237 66.0539 37.8886 72.3191 32.4312 78.6061C31.3385 79.9261 30.4416 81.3965 29.7679 82.972C26.9737 89.4773 29.4623 94.6947 36.0113 96.1573C36.9445 96.0155 37.8698 95.8261 38.7837 95.5897C43.5713 94.324 48.538 93.8739 53.4752 94.2581C58.5492 93.909 63.6467 94.3584 68.5814 95.5897C69.9131 95.9172 71.2665 96.1573 72.62 96.3538C73.6813 96.1154 74.6812 95.6581 75.5556 95.0111C76.4301 94.3641 77.1598 93.5417 77.6982 92.5965C78.2365 91.6513 78.5716 90.6041 78.6821 89.5219C78.7925 88.4398 78.6758 87.3465 78.3394 86.312V86.312Z" fill="#CBD2BC"/>
<path d="M23.9385 39.5306C27.2885 40.3938 30.1983 42.4711 32.1029 45.3592C35.9013 50.8385 35.7266 57.5839 31.6444 60.3345C30.9832 60.798 30.2437 61.1382 29.4614 61.3387C30.4767 61.5996 31.5354 61.645 32.5693 61.4721C33.6033 61.2991 34.5895 60.9116 35.4647 60.3345C39.4814 57.5403 39.656 50.8385 35.8576 45.381C32.6923 40.8404 27.8024 38.5919 23.9385 39.5306Z" fill="#98A678"/>
<path d="M93.2934 39.9895C92.4182 39.4124 91.432 39.0249 90.398 38.8519C89.3641 38.679 88.3054 38.7244 87.2901 38.9853C88.0723 39.1858 88.8119 39.526 89.4731 39.9895C93.4898 42.7837 93.6645 49.4855 89.8661 54.943C88.0026 57.8089 85.1517 59.8908 81.8545 60.7934C85.7184 61.7321 90.5864 59.4836 93.7736 54.9648C97.5065 49.4855 97.3319 42.8056 93.2934 39.9895Z" fill="#98A678"/>
<path d="M41.71 18.5086C43.8371 19.2065 45.7532 20.4311 47.2799 22.0685C48.8066 23.7059 49.8944 25.7029 50.4419 27.8736C52.4939 34.4226 50.1363 41.168 45.1591 42.6961H44.7443C46.0303 43.0491 47.3877 43.0491 48.6737 42.6961C53.6509 41.168 56.0085 34.5317 53.9565 27.8736C51.9045 21.2155 46.578 17.308 41.71 18.5086Z" fill="#98A678"/>
<path d="M79.3442 33.4398C81.3962 26.8908 79.0386 20.1454 74.0614 18.6173C72.7754 18.2643 71.418 18.2643 70.132 18.6173H70.5468C75.524 20.1454 77.8816 26.7817 75.8296 33.4398C75.2821 35.6105 74.1943 37.6075 72.6676 39.2449C71.1409 40.8823 69.2248 42.1069 67.0977 42.8048C71.9002 44.0054 77.3577 39.9014 79.3442 33.4398Z" fill="#98A678"/>
<path d="M32.1038 45.3598C30.1993 42.4718 27.2895 40.3945 23.9395 39.5312C23.1572 39.7317 22.4177 40.0719 21.7565 40.5354C17.6525 43.3296 17.4778 50.0314 21.2762 55.4016C23.1702 58.3269 26.0905 60.4373 29.4624 61.3175C30.2446 61.117 30.9842 60.7768 31.6454 60.3133C35.7276 57.5846 35.9022 50.8391 32.1038 45.3598Z" fill="#CBD2BC"/>
<path d="M89.9539 54.9645C93.7523 49.507 93.5777 42.8052 89.561 40.011C88.8998 39.5475 88.1602 39.2073 87.378 39.0068C84.028 39.8701 81.1182 41.9474 79.2136 44.8354C75.4152 50.2929 75.5899 56.9947 79.6066 59.7889C80.2678 60.2524 81.0073 60.5926 81.7896 60.7931C85.1396 59.9298 88.0494 57.8525 89.9539 54.9645V54.9645Z" fill="#CBD2BC"/>
<path d="M50.5051 27.8738C49.9575 25.7031 48.8698 23.7061 47.3431 22.0687C45.8164 20.4313 43.9003 19.2067 41.7731 18.5088H41.3583C36.3375 20.146 33.958 26.7823 36.01 33.4404C36.5576 35.6112 37.6453 37.6081 39.172 39.2455C40.6987 40.8829 42.6148 42.1076 44.742 42.8054H45.1567C50.1994 41.1682 52.5571 34.5319 50.5051 27.8738Z" fill="#CBD2BC"/>
<path d="M75.8292 33.4397C77.8812 26.8907 75.5236 20.1453 70.5464 18.6172H70.1316C68.0044 19.3151 66.0884 20.5397 64.5617 22.1771C63.0349 23.8145 61.9472 25.8115 61.3997 27.9822C59.3477 34.5312 61.7053 41.2766 66.6825 42.8047H67.0973C69.2244 42.1068 71.1405 40.8822 72.6672 39.2448C74.1939 37.6074 75.2817 35.6104 75.8292 33.4397V33.4397Z" fill="#CBD2BC"/>
</svg>
