<svg width="115" height="115" viewBox="0 0 115 115" fill="none" xmlns="http://www.w3.org/2000/svg">
<g clip-path="url(#clip0_1431_32781)">
<path d="M20.5123 36.8799H93.7421C94.7851 36.8802 95.7853 37.2881 96.5228 38.014C97.2603 38.7399 97.6748 39.7244 97.6751 40.7509V40.7509V88.571H16.6416V40.7509C16.6412 39.7347 17.0469 38.7591 17.7711 38.0348C18.4953 37.3105 19.4799 36.8957 20.5123 36.8799V36.8799Z" fill="#6395B4"/>
<path d="M94.3288 39.8447H20.0107V85.2329H94.3288V39.8447Z" fill="#386A89"/>
<path d="M51.0927 37.1746H65.5505C65.5507 36.969 65.5096 36.7654 65.4298 36.5754C65.3499 36.3855 65.2328 36.2129 65.0851 36.0675C64.9374 35.9221 64.762 35.8068 64.569 35.7282C64.376 35.6496 64.1691 35.6092 63.9603 35.6094H52.6645C52.4556 35.6092 52.2487 35.6496 52.0557 35.7282C51.8627 35.8068 51.6874 35.9221 51.5397 36.0675C51.392 36.2129 51.2748 36.3855 51.195 36.5754C51.1151 36.7654 51.0741 36.969 51.0742 37.1746H51.095H51.0927Z" fill="#68744D"/>
<path d="M86.665 85.6129V38.1699" stroke="#6395B4" stroke-width="17.038"/>
<path d="M28.374 61.3387L42.9461 46.9961" stroke="#B1CAD9" stroke-width="1.13587"/>
<path d="M35.1006 71.2693L56.3996 50.3057" stroke="#B1CAD9" stroke-width="1.13587"/>
<path d="M56.1154 35.6132L49.6172 17.2119L50.0314 17L57.3664 35.6121L56.1154 35.6132Z" fill="#6395B4"/>
<path d="M58.7148 35.6132L65.212 17.2119L64.7989 17L57.4639 35.6121L58.7148 35.6132Z" fill="#386A89"/>
<path opacity="0.554" d="M87.788 50.8587C89.955 50.8587 91.7118 49.1296 91.7118 46.9967C91.7118 44.8638 89.955 43.1348 87.788 43.1348C85.621 43.1348 83.8643 44.8638 83.8643 46.9967C83.8643 49.1296 85.621 50.8587 87.788 50.8587Z" fill="#68744D"/>
<path opacity="0.554" d="M87.7881 50.2912C89.6365 50.2912 91.1349 48.8164 91.1349 46.9971C91.1349 45.1779 89.6365 43.7031 87.7881 43.7031C85.9398 43.7031 84.4414 45.1779 84.4414 46.9971C84.4414 48.8164 85.9398 50.2912 87.7881 50.2912Z" stroke="#525B3F" stroke-width="1.13587"/>
<path opacity="0.554" d="M87.788 60.7903C89.955 60.7903 91.7118 59.0613 91.7118 56.9284C91.7118 54.7955 89.955 53.0664 87.788 53.0664C85.621 53.0664 83.8643 54.7955 83.8643 56.9284C83.8643 59.0613 85.621 60.7903 87.788 60.7903Z" fill="#68744D"/>
<path opacity="0.554" d="M87.7881 60.2228C89.6365 60.2228 91.1349 58.748 91.1349 56.9288C91.1349 55.1095 89.6365 53.6348 87.7881 53.6348C85.9398 53.6348 84.4414 55.1095 84.4414 56.9288C84.4414 58.748 85.9398 60.2228 87.7881 60.2228Z" stroke="#525B3F" stroke-width="1.13587"/>
<path opacity="0.554" d="M87.788 70.719C89.955 70.719 91.7118 68.99 91.7118 66.8571C91.7118 64.7242 89.955 62.9951 87.788 62.9951C85.621 62.9951 83.8643 64.7242 83.8643 66.8571C83.8643 68.99 85.621 70.719 87.788 70.719Z" fill="#68744D"/>
<path opacity="0.554" d="M87.7881 70.1515C89.6365 70.1515 91.1349 68.6767 91.1349 66.8575C91.1349 65.0383 89.6365 63.5635 87.7881 63.5635C85.9398 63.5635 84.4414 65.0383 84.4414 66.8575C84.4414 68.6767 85.9398 70.1515 87.7881 70.1515Z" stroke="#525B3F" stroke-width="1.13587"/>
<path d="M21.7148 88.5693L23.3974 90.1845H27.4575L29.3512 88.5693H21.7148Z" fill="#68744D"/>
<path d="M87.8516 88.5693L89.5342 90.1845H93.5942L95.4879 88.5693H87.8516Z" fill="#68744D"/>
</g>
<defs>
<clipPath id="clip0_1431_32781">
<rect width="115" height="115" fill="white"/>
</clipPath>
</defs>
</svg>
