<svg width="40" height="41" viewBox="0 0 40 41" fill="none" xmlns="http://www.w3.org/2000/svg">
<path fill-rule="evenodd" clip-rule="evenodd" d="M20 0.388184C8.9543 0.388184 0 9.34249 0 20.3882C0 31.4339 8.9543 40.3882 20 40.3882C31.0457 40.3882 40 31.4339 40 20.3882C40 9.34249 31.0457 0.388184 20 0.388184ZM9.60135 16.9531H14.1338V30.5711H9.60135V16.9531ZM14.4323 12.7404C14.4029 11.4052 13.448 10.3882 11.8975 10.3882C10.347 10.3882 9.33333 11.4052 9.33333 12.7404C9.33333 14.048 10.317 15.0943 11.8387 15.0943H11.8677C13.448 15.0943 14.4323 14.048 14.4323 12.7404ZM25.2609 16.6333C28.2435 16.6333 30.4795 18.5801 30.4795 22.763L30.4793 30.5711H25.9471V23.2855C25.9471 21.4555 25.2912 20.2067 23.6504 20.2067C22.3982 20.2067 21.6524 21.0485 21.3248 21.8616C21.205 22.153 21.1756 22.559 21.1756 22.966V30.5715H16.6426C16.6426 30.5715 16.7023 18.2313 16.6426 16.9534H21.1756V18.8823C21.7771 17.9551 22.8545 16.6333 25.2609 16.6333Z" fill="white"/>
</svg>
