<svg width="41" height="41" viewBox="0 0 41 41" fill="none" xmlns="http://www.w3.org/2000/svg">
<path fill-rule="evenodd" clip-rule="evenodd" d="M20.5459 0.388184C9.5002 0.388184 0.545898 9.34249 0.545898 20.3882C0.545898 31.4339 9.5002 40.3882 20.5459 40.3882C31.5916 40.3882 40.5459 31.4339 40.5459 20.3882C40.5459 9.34249 31.5916 0.388184 20.5459 0.388184ZM16.1486 9.78596C17.2864 9.73418 17.65 9.72152 20.5469 9.72152H20.5436C23.4414 9.72152 23.8036 9.73418 24.9414 9.78596C26.077 9.83796 26.8525 10.0177 27.5325 10.2815C28.2348 10.5537 28.8281 10.9182 29.4214 11.5115C30.0148 12.1044 30.3792 12.6995 30.6526 13.4011C30.9148 14.0793 31.0948 14.8545 31.1481 15.99C31.1992 17.1278 31.2126 17.4914 31.2126 20.3883C31.2126 23.2852 31.1992 23.6479 31.1481 24.7857C31.0948 25.9208 30.9148 26.6961 30.6526 27.3746C30.3792 28.0759 30.0148 28.671 29.4214 29.2639C28.8288 29.8573 28.2345 30.2226 27.5332 30.4951C26.8545 30.7588 26.0785 30.9386 24.9429 30.9906C23.8052 31.0424 23.4427 31.0551 20.5456 31.0551C17.6489 31.0551 17.2855 31.0424 16.1477 30.9906C15.0124 30.9386 14.2371 30.7588 13.5584 30.4951C12.8573 30.2226 12.2621 29.8573 11.6695 29.2639C11.0764 28.671 10.7119 28.0759 10.4392 27.3744C10.1757 26.6961 9.9959 25.921 9.94368 24.7854C9.89212 23.6477 9.87923 23.2852 9.87923 20.3883C9.87923 17.4914 9.89256 17.1276 9.94345 15.9898C9.99457 14.8547 10.1746 14.0793 10.439 13.4009C10.7124 12.6995 11.0768 12.1044 11.6701 11.5115C12.263 10.9184 12.8582 10.554 13.5597 10.2815C14.2379 10.0177 15.0131 9.83796 16.1486 9.78596Z" fill="white"/>
<path fill-rule="evenodd" clip-rule="evenodd" d="M19.5899 11.6438C19.7757 11.6435 19.9756 11.6436 20.1913 11.6437L20.5468 11.6438C23.3948 11.6438 23.7324 11.654 24.857 11.7051C25.8971 11.7527 26.4615 11.9264 26.8375 12.0725C27.3353 12.2658 27.6902 12.4969 28.0633 12.8702C28.4366 13.2436 28.6678 13.5991 28.8615 14.0969C29.0075 14.4725 29.1815 15.0369 29.2289 16.0769C29.28 17.2014 29.2911 17.5392 29.2911 20.3859C29.2911 23.2326 29.28 23.5703 29.2289 24.6948C29.1813 25.7348 29.0075 26.2993 28.8615 26.6748C28.6682 27.1726 28.4366 27.5271 28.0633 27.9002C27.69 28.2735 27.3355 28.5046 26.8375 28.698C26.462 28.8446 25.8971 29.018 24.857 29.0655C23.7326 29.1166 23.3948 29.1277 20.5468 29.1277C17.6985 29.1277 17.361 29.1166 16.2365 29.0655C15.1965 29.0175 14.6321 28.8437 14.2558 28.6977C13.758 28.5044 13.4025 28.2733 13.0291 27.9C12.6558 27.5266 12.4247 27.1719 12.2309 26.6739C12.0849 26.2984 11.9109 25.7339 11.8636 24.6939C11.8125 23.5695 11.8022 23.2317 11.8022 20.3832C11.8022 17.5347 11.8125 17.1987 11.8636 16.0743C11.9111 15.0343 12.0849 14.4698 12.2309 14.0938C12.4243 13.596 12.6558 13.2405 13.0291 12.8671C13.4025 12.4938 13.758 12.2627 14.2558 12.0689C14.6318 11.9222 15.1965 11.7489 16.2365 11.7011C17.2205 11.6567 17.6019 11.6433 19.5899 11.6411V11.6438ZM26.2406 13.4149C25.5339 13.4149 24.9606 13.9876 24.9606 14.6945C24.9606 15.4012 25.5339 15.9745 26.2406 15.9745C26.9473 15.9745 27.5206 15.4012 27.5206 14.6945C27.5206 13.9878 26.9473 13.4145 26.2406 13.4145V13.4149ZM15.0689 20.3883C15.0689 17.3632 17.5215 14.9106 20.5466 14.9105C23.5717 14.9105 26.0237 17.3632 26.0237 20.3883C26.0237 23.4135 23.5719 25.865 20.5468 25.865C17.5216 25.865 15.0689 23.4135 15.0689 20.3883Z" fill="white"/>
<path d="M20.5468 16.8325C22.5104 16.8325 24.1024 18.4243 24.1024 20.3881C24.1024 22.3517 22.5104 23.9437 20.5468 23.9437C18.583 23.9437 16.9912 22.3517 16.9912 20.3881C16.9912 18.4243 18.583 16.8325 20.5468 16.8325V16.8325Z" fill="white"/>
</svg>
