<svg width="41" height="41" viewBox="0 0 41 41" fill="none" xmlns="http://www.w3.org/2000/svg">
<path fill-rule="evenodd" clip-rule="evenodd" d="M20.3643 0.388184C9.31856 0.388184 0.364258 9.34249 0.364258 20.3882C0.364258 31.4339 9.31856 40.3882 20.3643 40.3882C31.41 40.3882 40.3643 31.4339 40.3643 20.3882C40.3643 9.34249 31.41 0.388184 20.3643 0.388184ZM19.8072 17.3365L19.7653 16.6444C19.6394 14.8508 20.7445 13.2125 22.4932 12.5769C23.1367 12.3509 24.2279 12.3227 24.9414 12.5204C25.2212 12.6051 25.7528 12.8876 26.1305 13.1418L26.816 13.6079L27.5714 13.3678C27.9911 13.2407 28.5507 13.0289 28.8025 12.8876C29.0404 12.7605 29.2502 12.6899 29.2502 12.7323C29.2502 12.9724 28.7326 13.7915 28.2989 14.2435C27.7113 14.879 27.8792 14.9355 29.0683 14.5118C29.7818 14.2717 29.7958 14.2717 29.6559 14.5401C29.572 14.6813 29.1383 15.1756 28.6766 15.6276C27.8932 16.4043 27.8512 16.4891 27.8512 17.1388C27.8512 18.1415 27.3756 20.2318 26.8999 21.3758C26.0186 23.5225 24.13 25.7399 22.2414 26.8556C19.5834 28.4233 16.044 28.8188 13.0642 27.9008C12.071 27.59 10.3643 26.7991 10.3643 26.6579C10.3643 26.6155 10.8819 26.559 11.5114 26.5449C12.8264 26.5167 14.1414 26.1495 15.2606 25.4998L16.0161 25.0478L15.1487 24.7512C13.9176 24.3275 12.8124 23.353 12.5326 22.435C12.4487 22.1384 12.4767 22.1243 13.2601 22.1243L14.0715 22.1102L13.386 21.7853C12.5746 21.3758 11.8332 20.6837 11.4694 19.9776C11.2036 19.4691 10.8679 18.1839 10.9658 18.085C10.9938 18.0426 11.2876 18.1274 11.6233 18.2404C12.5886 18.5935 12.7145 18.5087 12.1549 17.9155C11.1057 16.8422 10.7839 15.2462 11.2876 13.735L11.5254 13.0571L12.4487 13.9751C14.3373 15.8253 16.5616 16.9269 19.1077 17.2517L19.8072 17.3365Z" fill="white"/>
</svg>
